<svg xmlns="http://www.w3.org/2000/svg" xmlns:xlink="http://www.w3.org/1999/xlink" width="89.597" height="83.054" viewBox="0 0 89.597 83.054">
  <defs>
    <clipPath id="clip-path">
      <rect id="Rectángulo_412249" data-name="Rectángulo 412249" width="77.767" height="73" transform="translate(295.281 1298.526)" fill="#fff" stroke="#707070" stroke-width="1"/>
    </clipPath>
  </defs>
  <g id="Grupo_1212781" data-name="Grupo 1212781" transform="translate(-283.451 -1288.473)">
    <g id="Rectángulo_412248" data-name="Rectángulo 412248" transform="translate(283.451 1288.473)" fill="#b7a8f1" stroke="#7f74a8" stroke-width="3">
      <rect width="70" height="70" rx="10" stroke="none"/>
      <rect x="1.5" y="1.5" width="67" height="67" rx="8.5" fill="none"/>
    </g>
    <g id="Enmascarar_grupo_1099426" data-name="Enmascarar grupo 1099426" clip-path="url(#clip-path)">
      <g id="retrospective_2186552" transform="translate(297.665 1298.528)">
        <path id="Trazado_1282447" data-name="Trazado 1282447" d="M43.8,32.338V20.476a2.441,2.441,0,0,0-.718-1.728l-5.864-5.864a2.441,2.441,0,0,0-1.728-.718H20.683a1.217,1.217,0,0,0-1.217,1.217V46.232a1.217,1.217,0,0,0,1.217,1.217h11Z" fill="#d7dce3"/>
        <path id="Trazado_1282448" data-name="Trazado 1282448" d="M62.462,58.642l7.738,5.9A4.036,4.036,0,1,1,64.542,70.2l-5.9-7.737Z" fill="#9e7c65"/>
        <circle id="Elipse_12742" data-name="Elipse 12742" cx="17.033" cy="17.033" r="17.033" transform="translate(31.632 31.632)" fill="#37a9da"/>
        <path id="Trazado_1282449" data-name="Trazado 1282449" d="M43.58,19.466H37.716A1.217,1.217,0,0,1,36.5,18.249V12.385a2.454,2.454,0,0,1,.718.5l5.864,5.864a2.454,2.454,0,0,1,.5.718Z" fill="#bbc0cc"/>
        <g id="Grupo_1212791" data-name="Grupo 1212791">
          <path id="Trazado_1282450" data-name="Trazado 1282450" d="M70.938,63.576,64.1,58.361A18.157,18.157,0,0,0,60.492,34.8a29.656,29.656,0,0,0,.339-4.38,30.4,30.4,0,0,0-56.858-15L2.7,12.233a1.218,1.218,0,0,0-2.261.906L2.7,18.785a1.217,1.217,0,0,0,1.582.679l5.649-2.256a1.217,1.217,0,0,0-.9-2.261L6.448,15.976A27.983,27.983,0,0,1,58.4,30.416c0,.936-.058,1.85-.147,2.75-.44-.274-.892-.532-1.358-.768a1.191,1.191,0,0,0-.231-.112,17.978,17.978,0,0,0-11.647-1.493V20.476a3.632,3.632,0,0,0-1.074-2.588l-5.861-5.864a3.632,3.632,0,0,0-2.591-1.074H20.683a2.433,2.433,0,0,0-2.433,2.433V46.232a2.433,2.433,0,0,0,2.433,2.433h11v-.015a1.207,1.207,0,0,0,1.207-1.117A15.862,15.862,0,0,1,48.665,32.849a15.681,15.681,0,0,1,5.239.911L36.942,47.726A1.217,1.217,0,1,0,38.489,49.6L56.382,34.872a15.839,15.839,0,0,1,7.885,11.315L53.975,54.668a1.217,1.217,0,1,0,1.548,1.877l8.932-7.362A15.774,15.774,0,0,1,37.921,60.235l7.868-6.479a1.217,1.217,0,1,0-1.548-1.877l-7.974,6.57a15.609,15.609,0,0,1-3.054-6.393,1.217,1.217,0,1,0-2.376.518,17.971,17.971,0,0,0,2.312,5.679c-.893.088-1.8.145-2.734.145A28.013,28.013,0,0,1,2.433,30.416a1.217,1.217,0,1,0-2.433,0A30.45,30.45,0,0,0,30.416,60.832,29.479,29.479,0,0,0,34.8,60.49c.1.122.2.243.309.365.019.027.024.06.045.085a1.229,1.229,0,0,0,.15.116A18.132,18.132,0,0,0,58.359,64.1l5.221,6.847a5.28,5.28,0,0,0,3.829,2.04c.113.007.228.011.341.011a5.251,5.251,0,0,0,3.189-9.422ZM40.862,18.249H37.716V15.1ZM30.6,46.232H20.683V13.383h14.6v4.867a2.433,2.433,0,0,0,2.433,2.433h4.867v10.8A18.3,18.3,0,0,0,30.6,46.232ZM69.743,69.741a2.829,2.829,0,0,1-4.234-.276L60.336,62.68a18.438,18.438,0,0,0,2.342-2.342l6.78,5.171a2.8,2.8,0,0,1,1.106,2.236,2.836,2.836,0,0,1-.822,2Z" fill="#373737"/>
          <path id="Trazado_1282451" data-name="Trazado 1282451" d="M56.9,43.025a1.217,1.217,0,0,0-1.712-.164l-7.3,6.011a1.217,1.217,0,1,0,1.548,1.877l7.3-6.013a1.217,1.217,0,0,0,.164-1.712Z" fill="#373737"/>
          <path id="Trazado_1282452" data-name="Trazado 1282452" d="M50.325,57.668l-1.217,1a1.217,1.217,0,1,0,1.548,1.876l1.217-1a1.217,1.217,0,1,0-1.548-1.877Z" fill="#373737"/>
          <path id="Trazado_1282453" data-name="Trazado 1282453" d="M38.932,24.333h-14.6a1.217,1.217,0,0,0,0,2.433h14.6a1.217,1.217,0,0,0,0-2.433Z" fill="#373737"/>
          <path id="Trazado_1282454" data-name="Trazado 1282454" d="M36.5,29.2H24.333a1.217,1.217,0,0,0,0,2.433H36.5a1.217,1.217,0,1,0,0-2.433Z" fill="#373737"/>
          <path id="Trazado_1282455" data-name="Trazado 1282455" d="M30.416,34.066H24.333a1.217,1.217,0,1,0,0,2.433h6.083a1.217,1.217,0,1,0,0-2.433Z" fill="#373737"/>
          <path id="Trazado_1282456" data-name="Trazado 1282456" d="M27.983,38.932h-3.65a1.217,1.217,0,0,0,0,2.433h3.65a1.217,1.217,0,0,0,0-2.433Z" fill="#373737"/>
        </g>
      </g>
    </g>
  </g>
</svg>
