<svg xmlns="http://www.w3.org/2000/svg" xmlns:xlink="http://www.w3.org/1999/xlink" width="85.826" height="85.552" viewBox="0 0 85.826 85.552">
  <defs>
    <clipPath id="clip-path">
      <rect id="Rectángulo_425844" data-name="Rectángulo 425844" width="74.996" height="75.996" transform="translate(402.322 5944.239)" fill="#fff" stroke="#707070" stroke-width="1"/>
    </clipPath>
  </defs>
  <g id="Grupo_1212882" data-name="Grupo 1212882" transform="translate(-391.492 -5934.683)">
    <g id="Rectángulo_425843" data-name="Rectángulo 425843" transform="translate(391.492 5934.683)" fill="#fd9826" stroke="#af6a1a" stroke-width="3">
      <rect width="70" height="70" rx="10" stroke="none"/>
      <rect x="1.5" y="1.5" width="67" height="67" rx="8.5" fill="none"/>
    </g>
    <g id="Enmascarar_grupo_1099428" data-name="Enmascarar grupo 1099428" clip-path="url(#clip-path)">
      <g id="_15-call_center" data-name="15-call center" transform="translate(401.822 5944.239)">
        <path id="Trazado_1282472" data-name="Trazado 1282472" d="M65.309,40.373h4.75V52.247h-4.75Z" fill="#c1c1c1"/>
        <rect id="Rectángulo_426054" data-name="Rectángulo 426054" width="7.125" height="16.624" rx="2.375" transform="translate(58.185 37.998)" fill="#19cffc"/>
        <path id="Trazado_1282473" data-name="Trazado 1282473" d="M61.747,52.247V40.373a2.375,2.375,0,0,1,1.781-2.291A2.335,2.335,0,0,0,62.934,38H60.559a2.382,2.382,0,0,0-2.375,2.375V52.247a2.382,2.382,0,0,0,2.375,2.375h2.375a2.335,2.335,0,0,0,.594-.084A2.375,2.375,0,0,1,61.747,52.247Z" fill="#1ea1e3"/>
        <path id="Trazado_1282474" data-name="Trazado 1282474" d="M54.622,40.373a16.624,16.624,0,0,1-12.931,16.2L38,61.747,34.305,56.57a16.624,16.624,0,1,1,20.317-16.2ZM40.373,41.56,41.56,29.686H34.436L35.623,41.56Zm0,9.5V46.31h-4.75v4.75Z" fill="#ff636e"/>
        <path id="Trazado_1282475" data-name="Trazado 1282475" d="M41.691,53.007,38,58.185l-3.693-5.177a16.632,16.632,0,0,1-12.824-14.44,16.805,16.805,0,0,0-.107,1.806,16.624,16.624,0,0,0,12.931,16.2L38,61.747l3.693-5.177a16.624,16.624,0,0,0,12.931-16.2,16.8,16.8,0,0,0-.1-1.806,16.632,16.632,0,0,1-12.829,14.44Z" fill="#ff475a"/>
        <path id="Trazado_1282476" data-name="Trazado 1282476" d="M41.56,29.686,40.373,41.56h-4.75L34.436,29.686Z" fill="#ffc9c9"/>
        <path id="Trazado_1282477" data-name="Trazado 1282477" d="M35.623,46.31h4.75v4.75h-4.75Z" fill="#ffc9c9"/>
        <rect id="Rectángulo_426055" data-name="Rectángulo 426055" width="7.125" height="16.624" rx="2.375" transform="translate(10.687 37.998)" fill="#19cffc"/>
        <path id="Trazado_1282478" data-name="Trazado 1282478" d="M5.937,40.373h4.75V52.247H5.937Z" fill="#c1c1c1"/>
        <path id="Trazado_1282479" data-name="Trazado 1282479" d="M14.249,52.247V40.373a2.375,2.375,0,0,1,1.781-2.291A2.335,2.335,0,0,0,15.437,38H13.062a2.382,2.382,0,0,0-2.375,2.375V52.247a2.382,2.382,0,0,0,2.375,2.375h2.375a2.335,2.335,0,0,0,.594-.084A2.375,2.375,0,0,1,14.249,52.247Z" fill="#1ea1e3"/>
        <path id="Trazado_1282480" data-name="Trazado 1282480" d="M35.623,73.621H20.186A13.077,13.077,0,0,1,7.125,60.559V52.247H9.5v8.312A10.7,10.7,0,0,0,20.186,71.246H35.623Z" fill="#6e6e6e"/>
        <path id="Trazado_1282481" data-name="Trazado 1282481" d="M47.5,71.246h7.125v2.375H47.5Z" fill="#ffac5a"/>
        <path id="Trazado_1282482" data-name="Trazado 1282482" d="M46.507,65.3h6.716v2.375H46.507Z" transform="translate(-32.412 54.742) rotate(-45)" fill="#ffac5a"/>
        <path id="Trazado_1282483" data-name="Trazado 1282483" d="M8.312,30.873h2.375v9.5H8.312Z" fill="#6e6e6e"/>
        <path id="Trazado_1282484" data-name="Trazado 1282484" d="M65.309,30.873h2.375v9.5H65.309Z" fill="#6e6e6e"/>
        <rect id="Rectángulo_426056" data-name="Rectángulo 426056" width="9.5" height="4.75" rx="2.375" transform="translate(33.248 70.059)" fill="#adadad"/>
        <path id="Trazado_1282485" data-name="Trazado 1282485" d="M40.373,72.434h-4.75a2.368,2.368,0,0,1-2.046-1.187,2.361,2.361,0,0,0,2.046,3.562h4.75a2.361,2.361,0,0,0,2.046-3.562,2.368,2.368,0,0,1-2.046,1.187Z" fill="#848484"/>
        <path id="Trazado_1282486" data-name="Trazado 1282486" d="M38,1.187A29.686,29.686,0,0,0,8.312,30.873h4.75a24.936,24.936,0,0,1,49.872,0h4.75A29.686,29.686,0,0,0,38,1.187Z" fill="#19cffc"/>
        <path id="Trazado_1282487" data-name="Trazado 1282487" d="M70.059,39.185H67.684V32.061a1.187,1.187,0,0,0,1.187-1.187,30.873,30.873,0,1,0-61.747,0,1.187,1.187,0,0,0,1.187,1.187v7.125H5.937A1.187,1.187,0,0,0,4.75,40.373V52.247a1.187,1.187,0,0,0,1.187,1.187H7.125v7.125A13.077,13.077,0,0,0,20.186,73.621H32.279A3.562,3.562,0,0,0,35.623,76h4.75a3.562,3.562,0,0,0,0-7.125h-4.75a3.562,3.562,0,0,0-3.344,2.375H20.186A10.7,10.7,0,0,1,9.5,60.559V53.435h.218a3.562,3.562,0,0,0,3.344,2.375h2.375A3.562,3.562,0,0,0,19,52.247V40.373a3.562,3.562,0,0,0-3.562-3.562H13.062a3.54,3.54,0,0,0-2.375.926V32.061h2.375a1.187,1.187,0,0,0,1.187-1.187,23.749,23.749,0,0,1,47.5,0,1.187,1.187,0,0,0,1.187,1.187h2.375v5.676a3.54,3.54,0,0,0-2.375-.926H60.559A3.562,3.562,0,0,0,57,40.373V52.247a3.562,3.562,0,0,0,3.562,3.562h2.375a3.562,3.562,0,0,0,3.344-2.375h3.781a1.187,1.187,0,0,0,1.187-1.187V40.373A1.187,1.187,0,0,0,70.059,39.185ZM35.623,71.246h4.75a1.187,1.187,0,0,1,0,2.375h-4.75a1.187,1.187,0,0,1,0-2.375ZM7.125,41.56H9.5v9.5H7.125Zm4.75-1.187a1.187,1.187,0,0,1,1.187-1.187h2.375a1.187,1.187,0,0,1,1.187,1.187V52.247a1.187,1.187,0,0,1-1.187,1.187H13.062a1.187,1.187,0,0,1-1.187-1.187ZM38,4.75A26.158,26.158,0,0,0,11.9,29.686H9.526a28.5,28.5,0,0,1,56.947,0H64.1A26.158,26.158,0,0,0,38,4.75Zm26.124,47.5a1.187,1.187,0,0,1-1.187,1.187H60.559a1.187,1.187,0,0,1-1.187-1.187V40.373a1.187,1.187,0,0,1,1.187-1.187h2.375a1.187,1.187,0,0,1,1.187,1.187Zm4.75-1.187H66.5v-9.5h2.375Z"/>
        <path id="Trazado_1282488" data-name="Trazado 1282488" d="M38,22.561A17.812,17.812,0,0,0,33.591,57.62l3.444,4.816a1.187,1.187,0,0,0,1.931,0l3.444-4.816A17.812,17.812,0,0,0,38,22.561Zm3.435,32.852a1.178,1.178,0,0,0-.7.468L38,59.7l-2.731-3.822a1.178,1.178,0,0,0-.7-.468,15.437,15.437,0,1,1,6.871,0Z"/>
        <path id="Trazado_1282489" data-name="Trazado 1282489" d="M41.56,28.5H34.436A1.187,1.187,0,0,0,33.248,29.8l1.187,11.874a1.187,1.187,0,0,0,1.187,1.069h4.75a1.187,1.187,0,0,0,1.181-1.069L42.742,29.8A1.187,1.187,0,0,0,41.56,28.5ZM39.3,40.373H36.7l-.95-9.5h4.5Z"/>
        <path id="Trazado_1282490" data-name="Trazado 1282490" d="M40.373,45.123h-4.75a1.187,1.187,0,0,0-1.187,1.187v4.75a1.187,1.187,0,0,0,1.187,1.187h4.75A1.187,1.187,0,0,0,41.56,51.06V46.31A1.187,1.187,0,0,0,40.373,45.123Zm-1.187,4.75H36.811V47.5h2.375Z"/>
        <path id="Trazado_1282491" data-name="Trazado 1282491" d="M47.5,71.246h7.125v2.375H47.5Z"/>
        <path id="Trazado_1282492" data-name="Trazado 1282492" d="M46.507,65.3h6.716v2.375H46.507Z" transform="translate(-32.412 54.742) rotate(-45)"/>
      </g>
    </g>
  </g>
</svg>
