<svg xmlns="http://www.w3.org/2000/svg" xmlns:xlink="http://www.w3.org/1999/xlink" width="85" height="83.18" viewBox="0 0 85 83.18">
  <defs>
    <clipPath id="clip-path">
      <rect id="Rectangle_425764" data-name="Rectangle 425764" width="70" height="70" transform="translate(405 3388.763)" fill="#fff" stroke="#707070" stroke-width="1"/>
    </clipPath>
  </defs>
  <g id="Group_1209345" data-name="Group 1209345" transform="translate(-390 -3375.583)">
    <g id="Rectangle_425763" data-name="Rectangle 425763" transform="translate(390 3375.583)" fill="#e2dbf9" stroke="#b7a8f1" stroke-width="3">
      <rect width="70" height="70" rx="10" stroke="none"/>
      <rect x="1.5" y="1.5" width="67" height="67" rx="8.5" fill="none"/>
    </g>
    <g id="Mask_Group_1099410" data-name="Mask Group 1099410" clip-path="url(#clip-path)">
      <g id="school_16658374" transform="translate(405 3388.763)">
        <path id="Path_1280410" data-name="Path 1280410" d="M53.229,67.813H16.771a5.832,5.832,0,0,1-5.833-5.833V16.771a5.832,5.832,0,0,1,5.833-5.833H53.229a5.832,5.832,0,0,1,5.833,5.833V61.979A5.832,5.832,0,0,1,53.229,67.813Z" fill="#eceff1"/>
        <path id="Path_1280411" data-name="Path 1280411" d="M42.8,16.771H25.92a3.946,3.946,0,0,1-4.045-3.827V9.663A1.69,1.69,0,0,1,23.61,8.021h4.632a6.467,6.467,0,0,1,12.238,0h4.632a1.692,1.692,0,0,1,1.735,1.642v3.281A3.946,3.946,0,0,1,42.8,16.771Z" fill="#607d8b"/>
        <path id="Path_1280412" data-name="Path 1280412" d="M53.229,70H16.771A8.027,8.027,0,0,1,8.75,61.979V16.771A8.028,8.028,0,0,1,16.771,8.75h5.492a2.188,2.188,0,1,1,0,4.375H16.771a3.651,3.651,0,0,0-3.646,3.646V61.979a3.651,3.651,0,0,0,3.646,3.646H53.229a3.651,3.651,0,0,0,3.646-3.646V16.771a3.651,3.651,0,0,0-3.646-3.646H47.737a2.188,2.188,0,0,1,0-4.375h5.492a8.027,8.027,0,0,1,8.021,8.021V61.979A8.027,8.027,0,0,1,53.229,70Z"/>
        <path id="Path_1280413" data-name="Path 1280413" d="M44.479,18.958H25.521a5.11,5.11,0,0,1-5.1-5.1V8.021A2.188,2.188,0,0,1,22.6,5.833h4.678a8.022,8.022,0,0,1,15.435,0H47.4a2.188,2.188,0,0,1,2.188,2.188v5.833A5.11,5.11,0,0,1,44.479,18.958Zm-19.688-8.75v3.646a.729.729,0,0,0,.729.729H44.479a.729.729,0,0,0,.729-.729V10.208H40.833a2.188,2.188,0,0,1-2.187-2.187,3.646,3.646,0,1,0-7.292,0,2.188,2.188,0,0,1-2.187,2.187Z"/>
        <path id="Path_1280414" data-name="Path 1280414" d="M19.688,52.5A2.188,2.188,0,0,1,17.5,50.313V34.271a2.188,2.188,0,0,1,4.375,0V50.313A2.188,2.188,0,0,1,19.688,52.5Z"/>
        <path id="Path_1280415" data-name="Path 1280415" d="M34.271,52.5H26.979a2.188,2.188,0,0,1-2.187-2.187v-5.1a5.11,5.11,0,0,1,5.1-5.1h1.458a.729.729,0,0,0,.729-.729V37.188a.729.729,0,0,0-.729-.729H26.979a2.188,2.188,0,1,1,0-4.375h4.375a5.11,5.11,0,0,1,5.1,5.1v2.188a5.11,5.11,0,0,1-5.1,5.1H29.9a.729.729,0,0,0-.729.729v2.917h5.1a2.188,2.188,0,1,1,0,4.375Z"/>
        <path id="Path_1280416" data-name="Path 1280416" d="M45.938,44.479H41.563a2.188,2.188,0,0,1,0-4.375h4.375a.729.729,0,0,0,.729-.729V37.188a.729.729,0,0,0-.729-.729H41.563a2.187,2.187,0,0,1,0-4.375h4.375a5.11,5.11,0,0,1,5.1,5.1v2.188A5.11,5.11,0,0,1,45.938,44.479Z"/>
        <path id="Path_1280417" data-name="Path 1280417" d="M45.938,52.5H41.563a2.188,2.188,0,0,1,0-4.375h4.375a.729.729,0,0,0,.729-.729V45.208a.729.729,0,0,0-.729-.729H41.563a2.188,2.188,0,0,1,0-4.375h4.375a5.11,5.11,0,0,1,5.1,5.1V47.4A5.11,5.11,0,0,1,45.938,52.5Z"/>
      </g>
    </g>
  </g>
</svg>
