<svg xmlns="http://www.w3.org/2000/svg" xmlns:xlink="http://www.w3.org/1999/xlink" width="85" height="83.181" viewBox="0 0 85 83.181">
  <defs>
    <clipPath id="clip-path">
      <rect id="Rectangle_425692" data-name="Rectangle 425692" width="70" height="70" transform="translate(13765.928 -8189.551)" fill="#fff" stroke="#707070" stroke-width="1"/>
    </clipPath>
  </defs>
  <g id="Group_1209349" data-name="Group 1209349" transform="translate(-13750.928 8202.732)">
    <g id="Rectangle_425691" data-name="Rectangle 425691" transform="translate(13750.928 -8202.732)" fill="#e2dbf9" stroke="#b7a8f1" stroke-width="3">
      <rect width="70" height="70" rx="10" stroke="none"/>
      <rect x="1.5" y="1.5" width="67" height="67" rx="8.5" fill="none"/>
    </g>
    <g id="Mask_Group_1099406" data-name="Mask Group 1099406" clip-path="url(#clip-path)">
      <g id="chat_3186933" transform="translate(13764.799 -8190.68)">
        <path id="Path_1280340" data-name="Path 1280340" d="M2.258,2.258H51.935V33.871H2.258Z" fill="#f9d78f"/>
        <path id="Path_1280341" data-name="Path 1280341" d="M2.258,33.871,27.1,13.548,51.935,33.871Z" fill="#f4b248"/>
        <path id="Path_1280342" data-name="Path 1280342" d="M2.258,2.258,27.1,22.581,51.935,2.258Z" fill="#f4b248"/>
        <path id="Path_1280343" data-name="Path 1280343" d="M20.323,38.387H70V70H20.323Z" fill="#f9d78f"/>
        <path id="Path_1280344" data-name="Path 1280344" d="M20.323,70,45.161,49.677,70,70Z" fill="#f4b248"/>
        <path id="Path_1280345" data-name="Path 1280345" d="M20.323,38.387,45.161,58.71,70,38.387Z" fill="#f4b248"/>
        <path id="Path_1280346" data-name="Path 1280346" d="M59.839,23.71H47.419l-5.645-4.516V23.71H39.516a5.645,5.645,0,0,0-5.645,5.645V42.9a5.645,5.645,0,0,0,5.645,5.645H51.935l5.645,4.516V48.548h2.258A5.645,5.645,0,0,0,65.484,42.9V29.355a5.645,5.645,0,0,0-5.645-5.645Z" fill="#6dc8f8"/>
        <path id="Path_1280347" data-name="Path 1280347" d="M62.893,24.619a5.6,5.6,0,0,0-3.054-.909H47.419l-5.645-4.516V23.71H39.516a5.645,5.645,0,0,0-5.645,5.645V42.9a5.568,5.568,0,0,0,.087.863,28.085,28.085,0,0,0,3.865.266C50.458,44.032,60.934,35.627,62.893,24.619Z" fill="#8ad3f9"/>
        <path id="Path_1280348" data-name="Path 1280348" d="M70,37.258H66.613v-7.9a6.781,6.781,0,0,0-6.774-6.774H53.065V2.258a1.129,1.129,0,0,0-1.129-1.129H2.258A1.129,1.129,0,0,0,1.129,2.258V33.871A1.129,1.129,0,0,0,2.258,35H32.742v2.258H20.323a1.129,1.129,0,0,0-1.129,1.129V70a1.129,1.129,0,0,0,1.129,1.129H70A1.129,1.129,0,0,0,71.129,70V38.387A1.129,1.129,0,0,0,70,37.258Zm-3.387,2.258h.226l-.226.184ZM59.839,24.839a4.516,4.516,0,0,1,4.516,4.516V42.9a4.516,4.516,0,0,1-4.516,4.516H57.581a1.129,1.129,0,0,0-1.129,1.129v2.167l-3.81-3.048a1.129,1.129,0,0,0-.706-.247H39.516A4.516,4.516,0,0,1,35,42.9V29.355a4.516,4.516,0,0,1,4.516-4.516h2.258A1.129,1.129,0,0,0,42.9,23.71V21.543l3.81,3.048a1.129,1.129,0,0,0,.706.247Zm-9.032-2.258H47.816L42.48,18.312a1.129,1.129,0,0,0-1.835.882v3.387h-.726L34.4,18.065,50.806,4.64ZM48.774,3.387,27.1,21.122,5.419,3.387ZM3.387,4.64,19.794,18.065,3.387,31.489Zm2.032,28.1L21.576,19.523l4.805,3.931a1.129,1.129,0,0,0,1.429,0l4.805-3.931,4.35,3.56a6.78,6.78,0,0,0-4.224,6.272v3.387Zm27.323,6.774V42.9a6.781,6.781,0,0,0,6.774,6.774H51.539l1.455,1.164-7.833,6.41L23.484,39.516Zm-11.29,1.253L37.859,54.194,21.452,67.618Zm2.032,28.1L39.64,55.652l4.805,3.931a1.129,1.129,0,0,0,1.429,0l4.805-3.931L66.839,68.871Zm45.387-1.253L52.464,54.194,54.8,52.284l2.077,1.662a1.129,1.129,0,0,0,1.835-.882V49.677h1.129A6.781,6.781,0,0,0,66.613,42.9v-.286l2.258-1.848Z"/>
        <path id="Path_1280349" data-name="Path 1280349" d="M53.863,37.589l-1.6,1.6,1.46,1.46H47.419a3.387,3.387,0,0,1-3.387-3.387V33.871H41.774v3.387A5.652,5.652,0,0,0,47.419,42.9h6.307l-1.46,1.46,1.6,1.6,3.387-3.387a1.129,1.129,0,0,0,0-1.6Z"/>
        <path id="Path_1280350" data-name="Path 1280350" d="M46.621,26.3l-3.387,3.387a1.129,1.129,0,0,0,0,1.6l3.387,3.387,1.6-1.6-1.46-1.46h6.307A3.387,3.387,0,0,1,56.452,35v3.387H58.71V35a5.652,5.652,0,0,0-5.645-5.645H46.758l1.46-1.46Z"/>
      </g>
    </g>
  </g>
</svg>
