<svg xmlns="http://www.w3.org/2000/svg" xmlns:xlink="http://www.w3.org/1999/xlink" width="85" height="83.181" viewBox="0 0 85 83.181">
  <defs>
    <clipPath id="clip-path">
      <rect id="Rectangle_425767" data-name="Rectangle 425767" width="70" height="70" transform="translate(1139.678 3383.373)" fill="#fff" stroke="#707070" stroke-width="1"/>
    </clipPath>
  </defs>
  <g id="Group_1209347" data-name="Group 1209347" transform="translate(-1124.678 -3370.192)">
    <g id="Rectangle_425766" data-name="Rectangle 425766" transform="translate(1124.678 3370.192)" fill="#e2dbf9" stroke="#b7a8f1" stroke-width="3">
      <rect width="70" height="70" rx="10" stroke="none"/>
      <rect x="1.5" y="1.5" width="67" height="67" rx="8.5" fill="none"/>
    </g>
    <g id="Mask_Group_1099408" data-name="Mask Group 1099408" clip-path="url(#clip-path)">
      <g id="initiative_12058172" transform="translate(1138.549 3382.244)">
        <g id="Group_1209343" data-name="Group 1209343">
          <g id="Group_1209338" data-name="Group 1209338">
            <path id="Path_1280365" data-name="Path 1280365" d="M34.162,39.755H39.8v2.869a1.716,1.716,0,0,1-1.711,1.711h-2.22a1.716,1.716,0,0,1-1.711-1.711Z" fill="#b1b1b5" fill-rule="evenodd"/>
            <path id="Path_1280366" data-name="Path 1280366" d="M32.408,35.623h9.15V39.2a1.715,1.715,0,0,1-1.71,1.711H34.119A1.716,1.716,0,0,1,32.408,39.2V35.623Z" fill="#d1d1d6" fill-rule="evenodd"/>
            <path id="Path_1280367" data-name="Path 1280367" d="M39.565,37.491V39.2a1.7,1.7,0,0,1-.092.552,1.717,1.717,0,0,1-1.618,1.158h1.993a1.715,1.715,0,0,0,1.71-1.711V37.49H39.565Z" fill="#b1b1b5" fill-rule="evenodd"/>
            <path id="Path_1280368" data-name="Path 1280368" d="M30.64,32.361H43.212v3.419a1.716,1.716,0,0,1-1.71,1.711h-9.15a1.716,1.716,0,0,1-1.711-1.711V32.361Z" fill="#eceff1" fill-rule="evenodd"/>
            <path id="Path_1280369" data-name="Path 1280369" d="M41.219,34.07v1.711a1.716,1.716,0,0,1-1.71,1.711h2.05a1.716,1.716,0,0,0,1.653-1.71V34.07Z" fill="#d1d1d6" fill-rule="evenodd"/>
            <path id="Path_1280370" data-name="Path 1280370" d="M36.926,9.428A10.527,10.527,0,0,1,47.453,19.955c0,5.847-3.735,5.5-4.241,14.115H30.64C30.133,25.452,26.4,25.8,26.4,19.955A10.527,10.527,0,0,1,36.926,9.428Z" fill="#ffe177" fill-rule="evenodd"/>
            <path id="Path_1280371" data-name="Path 1280371" d="M35.929,9.474A10.528,10.528,0,0,1,45.46,19.955c0,5.431-3.222,5.515-4.087,12.407-.066.528-.119,1.1-.155,1.709h1.993c.507-8.618,4.241-8.269,4.241-14.115A10.527,10.527,0,0,0,36.926,9.427q-.5,0-1,.047Z" fill="#ffd064" fill-rule="evenodd"/>
          </g>
          <g id="Group_1209339" data-name="Group 1209339">
            <path id="Path_1280372" data-name="Path 1280372" d="M12.966,54.2l10.9-6.315c2.046-1.185,4.126-2.026,6.374-1.3,2.507.813,6.6,2.559,10.775,3.312a3.028,3.028,0,0,1,2.094,3.627c-.422,1.573-1.751,2.385-3.627,2.095l1.459.234a6.8,6.8,0,0,0,4.672-.814l10.48-6.1c8.146-4.745,9.343,2.555,6.634,4.222L43.709,64.871a6.974,6.974,0,0,1-5.647.8l-13.795-3.7L19.159,64.92a2.063,2.063,0,0,1-2.813-.754l-4.131-7.155a2.064,2.064,0,0,1,.751-2.812Z" fill="#f6dccd" fill-rule="evenodd"/>
            <path id="Path_1280373" data-name="Path 1280373" d="M42.861,54.18a2.99,2.99,0,0,1-3.379,1.442c-2.26-.6-4.517-1.21-6.775-1.815a1.134,1.134,0,1,1,.587-2.19Z" fill="#f1cbbc" fill-rule="evenodd"/>
            <path id="Path_1280374" data-name="Path 1280374" d="M12.966,54.2l10.9-6.315c2.046-1.185,4.126-2.026,6.374-1.3,1.341.435,3.137,1.137,5.156,1.811L14.281,60.59l-2.066-3.579A2.063,2.063,0,0,1,12.966,54.2Z" fill="#f1cbbc" fill-rule="evenodd"/>
            <path id="Path_1280375" data-name="Path 1280375" d="M14.053,50.76,22.7,66.035a1.548,1.548,0,0,1-.583,2.1L19.174,69.8a1.547,1.547,0,0,1-2.1-.583L8.427,53.944a1.548,1.548,0,0,1,.583-2.1l2.94-1.664a1.548,1.548,0,0,1,2.1.583Z" fill="#d1d1d6" fill-rule="evenodd"/>
            <path id="Path_1280376" data-name="Path 1280376" d="M18.6,61.255l1.53,2.7,1.513,2.673a1.548,1.548,0,0,1-.578,2.1l1.05-.594a1.548,1.548,0,0,0,.583-2.1L21.18,63.352l-3.048-5.386-3.052-5.392L14.053,50.76a1.549,1.549,0,0,0-1.8-.714l1.777,3.14,3.048,5.386L18.6,61.254Z" fill="#b1b1b5" fill-rule="evenodd"/>
          </g>
          <g id="Group_1209340" data-name="Group 1209340">
            <path id="Path_1280377" data-name="Path 1280377" d="M39.727,21.486a2.072,2.072,0,0,1,.608,1.468v4.5a2.062,2.062,0,0,1-.156.792,2.125,2.125,0,0,1-1.128,1.128A2.076,2.076,0,0,1,36.7,26.084a.269.269,0,1,0-.4-.356,2.616,2.616,0,0,0-.482.805q-.044.118-.078.24l-.136.5-.507.088-.016,0a2.043,2.043,0,0,1-.244.042,2.111,2.111,0,0,1-.25.014A2.083,2.083,0,0,1,32.5,25.441l0-.038,0-.038a2.065,2.065,0,0,1,.207-.8,2.093,2.093,0,0,1,.541-.69.268.268,0,0,0-.344-.411,2.642,2.642,0,0,0-.566.661L31.6,25.356,30.93,24.08a2.068,2.068,0,0,1-.236-.961v-.008a2.237,2.237,0,0,1,2.233-2.233h3.138l-.145.934a.27.27,0,0,0,.5.168,2.078,2.078,0,0,1,3.3-.494Zm.608-3.224a2.075,2.075,0,0,1-3.91.974.27.27,0,0,0-.5.168l.145.934H32.927a2.237,2.237,0,0,1-2.233-2.233V18.1a2.068,2.068,0,0,1,.236-.961l.668-1.276.743,1.234a2.64,2.64,0,0,0,.566.661.268.268,0,0,0,.344-.411,2.093,2.093,0,0,1-.541-.69,2.065,2.065,0,0,1-.207-.8l0-.038,0-.038a2.087,2.087,0,0,1,2.328-1.963,2.1,2.1,0,0,1,.244.042l.016,0,.507.088.135.5q.033.122.078.239a2.616,2.616,0,0,0,.482.805.269.269,0,1,0,.4-.356,2.077,2.077,0,1,1,3.636-1.371v4.5Z" fill="#fe646f" fill-rule="evenodd"/>
          </g>
          <g id="Group_1209342" data-name="Group 1209342">
            <g id="Group_1209341" data-name="Group 1209341">
              <circle id="Ellipse_12710" data-name="Ellipse 12710" cx="9.14" cy="9.14" r="9.14" transform="translate(35.914 35.518) rotate(-45)" fill="#8ac9fe"/>
              <path id="Path_1280378" data-name="Path 1280378" d="M48.85,26.375q-.356,0-.706.027a9.142,9.142,0,0,1,0,18.23q.349.027.706.027a9.142,9.142,0,1,0,0-18.283Z" fill="#60b7ff" fill-rule="evenodd"/>
            </g>
          </g>
        </g>
        <path id="Path_1280379" data-name="Path 1280379" d="M43.843,36.38A1.189,1.189,0,0,1,45.524,34.7l1.933,1.934,4.723-4.721a1.189,1.189,0,1,1,1.681,1.683l-5.527,5.531a1.354,1.354,0,0,1-1.979-.234Zm6.238-22.85a1.13,1.13,0,0,1,.412-1.542L52.7,10.713a1.129,1.129,0,0,1,1.129,1.956l-2.212,1.273a1.087,1.087,0,0,1-.558.153A1.14,1.14,0,0,1,50.081,13.53Zm-5.972-7.1,1.275-2.206A1.128,1.128,0,1,1,47.337,5.35L46.068,7.556a1.131,1.131,0,1,1-1.96-1.129Zm-24.5,4.7a1.134,1.134,0,0,1,1.548-.414l2.205,1.275a1.13,1.13,0,0,1-.565,2.107,1.111,1.111,0,0,1-.565-.153l-2.205-1.273a1.126,1.126,0,0,1-.418-1.542ZM26.518,5.35a1.128,1.128,0,1,1,1.953-1.129l1.275,2.206a1.128,1.128,0,0,1-.976,1.694,1.118,1.118,0,0,1-.976-.565Zm9.28-.545V2.258a1.129,1.129,0,0,1,2.259,0V4.805a1.129,1.129,0,0,1-2.259,0Zm2.425,14.673a1.177,1.177,0,0,1-1.043-.63,1.132,1.132,0,0,0-2.126.63H32.962A1.349,1.349,0,0,1,31.62,18.13a1.232,1.232,0,0,1,.086-.442,3.519,3.519,0,0,0,.684.767,1.128,1.128,0,0,0,1.448-1.73,1.1,1.1,0,0,1,.757-1.976,1.178,1.178,0,0,1,.279.033l.04.009a3.478,3.478,0,0,0,.724,1.334,1.129,1.129,0,1,0,1.694-1.492,1.2,1.2,0,0,1-.292-.783,1.185,1.185,0,0,1,2.026-.837,1.169,1.169,0,0,1,.345.837v4.443a1.188,1.188,0,0,1-1.189,1.187Zm-.99,5.511a1.131,1.131,0,0,0-1.594.1,3.479,3.479,0,0,0-.724,1.334.268.268,0,0,0-.04.007,1.179,1.179,0,0,1-.279.034,1.1,1.1,0,0,1-.757-1.974,1.129,1.129,0,0,0-1.448-1.732,3.528,3.528,0,0,0-.684.766,1.227,1.227,0,0,1-.086-.44,1.35,1.35,0,0,1,1.342-1.351h2.093a1.132,1.132,0,0,0,2.126.631,1.185,1.185,0,0,1,2.232.556v4.444a1.172,1.172,0,0,1-.345.837,1.185,1.185,0,0,1-2.026-.837,1.209,1.209,0,0,1,.292-.785A1.132,1.132,0,0,0,37.233,24.99Zm-.306-15.4a9.7,9.7,0,0,0-9.685,9.69,9,9,0,0,0,1.607,5.246,17.383,17.383,0,0,1,2.664,8.13h7.473A10.286,10.286,0,0,1,40,30.322,3.443,3.443,0,0,1,35.048,28.7a3.544,3.544,0,0,1-.452.029,3.475,3.475,0,0,1-3.328-2.556,3.434,3.434,0,0,1-1.907-3.082,3.6,3.6,0,0,1,.99-2.48,3.6,3.6,0,0,1-.99-2.479,3.436,3.436,0,0,1,1.907-3.084A3.478,3.478,0,0,1,34.6,12.49a3.421,3.421,0,0,1,.452.03,3.445,3.445,0,0,1,6.623,1.329v4.443a3.429,3.429,0,0,1-.9,2.316,3.426,3.426,0,0,1,.9,2.316v4.444a3.457,3.457,0,0,1-.133.946,10.406,10.406,0,0,1,2.391-1.808c.359-.752.737-1.4,1.076-1.979a8.993,8.993,0,0,0,1.614-5.246,9.7,9.7,0,0,0-9.692-9.69ZM56.863,35.516a8.011,8.011,0,1,0-8.011,8.012,8.022,8.022,0,0,0,8.011-8.012ZM38.07,43.2H35.785a.635.635,0,0,1-.625-.628v-.629H38.7v.629A.64.64,0,0,1,38.07,43.2Zm.538-7.032H32.225a.635.635,0,0,1-.625-.629v-.63h7c-.013.2-.02.4-.02.6,0,.221.007.439.027.656Zm-4.623,3.516a.641.641,0,0,1-.631-.63v-.628h5.653a10.224,10.224,0,0,0,.465,1.257Zm-4.643-5.864v1.719A2.888,2.888,0,0,0,31.1,38.2v.858a2.886,2.886,0,0,0,1.8,2.674v.842a2.889,2.889,0,0,0,2.883,2.886H38.07a2.889,2.889,0,0,0,2.883-2.886v-.5A10.275,10.275,0,1,0,47.111,25.4a10.765,10.765,0,0,0,1.767-6.115,11.947,11.947,0,1,0-23.894,0,11.06,11.06,0,0,0,1.92,6.386,15.534,15.534,0,0,1,2.438,8.158ZM13.259,53.932a1.051,1.051,0,1,1-1.189-.887A1.048,1.048,0,0,1,13.259,53.932ZM62.144,52.2,43.119,63.914a5.859,5.859,0,0,1-4.763.666l-13.8-3.7A1.122,1.122,0,0,0,23.7,61l-1.926,1.111-4.989-8.82,7.639-4.426c1.714-.989,3.554-1.819,5.467-1.2.631.206,1.362.47,2.212.778A54.725,54.725,0,0,0,40.734,51a1.894,1.894,0,0,1,1.289,2.24,1.772,1.772,0,0,1-2.205,1.293c-1.535-.316-2.989-.732-4.537-1.173-.737-.212-1.495-.429-2.278-.64a1.13,1.13,0,1,0-.585,2.182c.764.2,1.515.42,2.245.628,1.6.459,3.115.891,4.75,1.225a.188.188,0,0,1,.027,0l.02.005,1.309.212a7.88,7.88,0,0,0,5.414-.953L56.67,49.913c2.91-1.7,5.128-1.9,5.939-.547a2.235,2.235,0,0,1-.465,2.834ZM21.563,67.154a.418.418,0,0,0,.153-.564L13.067,51.31a.4.4,0,0,0-.246-.193.383.383,0,0,0-.113-.015.421.421,0,0,0-.206.052L9.566,52.818a.416.416,0,0,0-.159.565l8.649,15.28a.42.42,0,0,0,.565.157ZM64.549,48.206a4.49,4.49,0,0,1-1.222,5.917L44.3,65.837a8.068,8.068,0,0,1-4.278,1.23,8.657,8.657,0,0,1-2.252-.3L24.426,63.186l-1.541.886.8,1.4a2.677,2.677,0,0,1-1.01,3.642L19.73,70.784a2.646,2.646,0,0,1-1.309.345,2.682,2.682,0,0,1-2.332-1.355L7.44,54.494a2.676,2.676,0,0,1,1.01-3.641l2.943-1.664a2.675,2.675,0,0,1,3.64,1.009l.638,1.123L23.3,46.907c2.059-1.192,4.53-2.288,7.294-1.394.664.218,1.455.5,2.285.8a52.377,52.377,0,0,0,8.343,2.474,1.145,1.145,0,0,1,.146.037A4.171,4.171,0,0,1,44.2,53.821a4.406,4.406,0,0,1-.272.752,5.751,5.751,0,0,0,1.116-.506l10.489-6.1c6.1-3.554,8.443-.713,9.014.242Z" fill="#302b2b" fill-rule="evenodd"/>
      </g>
    </g>
  </g>
</svg>
