<svg xmlns="http://www.w3.org/2000/svg" xmlns:xlink="http://www.w3.org/1999/xlink" width="85" height="83.181" viewBox="0 0 85 83.181">
  <defs>
    <clipPath id="clip-path">
      <rect id="Rectangle_425684" data-name="Rectangle 425684" width="70" height="70" transform="translate(13398.428 -8189.551)" fill="#fff" stroke="#707070" stroke-width="1"/>
    </clipPath>
  </defs>
  <g id="Group_1209348" data-name="Group 1209348" transform="translate(-13383.428 8202.732)">
    <g id="Rectangle_425683" data-name="Rectangle 425683" transform="translate(13383.428 -8202.732)" fill="#e2dbf9" stroke="#b7a8f1" stroke-width="3">
      <rect width="70" height="70" rx="10" stroke="none"/>
      <rect x="1.5" y="1.5" width="67" height="67" rx="8.5" fill="none"/>
    </g>
    <g id="Mask_Group_1099407" data-name="Mask Group 1099407" clip-path="url(#clip-path)">
      <g id="plan_9436180" transform="translate(13398.158 -8189.828)">
        <g id="Group_1209337" data-name="Group 1209337">
          <path id="Path_1280351" data-name="Path 1280351" d="M8.447,6.38H62.091V69.725H8.447Z" fill="#dd6e42" fill-rule="evenodd"/>
          <path id="Path_1280352" data-name="Path 1280352" d="M12.278,10.376h46V65.743h-46Z" fill="#9e4623" fill-rule="evenodd"/>
          <path id="Path_1280353" data-name="Path 1280353" d="M14.607,12.595H58.274V65.743H14.607Z" fill="#e6e6e6" fill-rule="evenodd"/>
          <path id="Path_1280354" data-name="Path 1280354" d="M25.382,4.988h5.5a4.4,4.4,0,0,1,8.791,0h5.5A.829.829,0,0,1,46,5.815v4.534a.818.818,0,0,1-.827.813H25.382a.826.826,0,0,1-.827-.813V5.815a.838.838,0,0,1,.827-.827Z" fill="gray" fill-rule="evenodd"/>
          <path id="Path_1280355" data-name="Path 1280355" d="M35.262,3.335a1.971,1.971,0,1,1-1.971,1.971,1.97,1.97,0,0,1,1.971-1.971Z" fill="#e6e6e6" fill-rule="evenodd"/>
          <path id="Path_1280356" data-name="Path 1280356" d="M49.042,53.135V45.6H56.58v7.538Zm0-27.022V18.575H56.58v7.538Zm0,13.518V32.093H56.58V39.63Z" fill="#bababa" fill-rule="evenodd"/>
          <path id="Path_1280357" data-name="Path 1280357" d="M46.879,51.109V43.571h7.538v7.538Zm0-27.022V16.549h7.538v7.538Zm0,13.518V30.067h7.538V37.6Z" fill="#00b2ca" fill-rule="evenodd"/>
          <path id="Path_1280358" data-name="Path 1280358" d="M30.191,24.183A11.575,11.575,0,1,1,18.616,35.758,11.574,11.574,0,0,1,30.191,24.183Z" fill="#bababa" fill-rule="evenodd"/>
          <path id="Path_1280359" data-name="Path 1280359" d="M27.807,22.53A11.575,11.575,0,1,1,16.233,34.1,11.574,11.574,0,0,1,27.807,22.53Z" fill="#f6851f" fill-rule="evenodd"/>
          <path id="Path_1280360" data-name="Path 1280360" d="M24.8,30.191l6.669-3.583V39.823L24.8,36.241V30.191Z" fill="#fdb614" fill-rule="evenodd"/>
          <path id="Path_1280361" data-name="Path 1280361" d="M21.138,35.235h2.2v5.278h-2.2Z" fill="#b45a35" fill-rule="evenodd"/>
          <path id="Path_1280362" data-name="Path 1280362" d="M20.959,29.682h3.335c.276,0,.51.3.51.675v5.732c0,.372-.234.675-.51.675H20.959a1.341,1.341,0,0,1-1.13-1.474V31.156a1.341,1.341,0,0,1,1.13-1.474Z" fill="#b45a35" fill-rule="evenodd"/>
        </g>
        <path id="Path_1280363" data-name="Path 1280363" d="M21.124,53.686a.689.689,0,1,1,0-1.378H33.939a.682.682,0,0,1,.689.689.691.691,0,0,1-.689.689Zm0,9.563a.689.689,0,1,1,0-1.378H54.292a.689.689,0,1,1,0,1.378Zm0-4.782a.691.691,0,0,1-.689-.689.682.682,0,0,1,.689-.689H54.292a.682.682,0,0,1,.689.689.691.691,0,0,1-.689.689Z" fill="#bababa"/>
        <path id="Path_1280364" data-name="Path 1280364" d="M20.38,52.652a.551.551,0,0,1,0-1.1H33.2a.551.551,0,0,1,0,1.1Zm0,9.563a.551.551,0,0,1,0-1.1H53.548a.551.551,0,0,1,0,1.1Zm0-4.782a.551.551,0,0,1,0-1.1H53.548a.551.551,0,0,1,0,1.1ZM39.906,33.278h1.722V20.49a.553.553,0,0,1,.551-.551h4.134v-3.39A.553.553,0,0,1,46.865,16H54.4a.553.553,0,0,1,.551.551v7.538a.553.553,0,0,1-.551.551H46.865a.553.553,0,0,1-.551-.551V21.042h-3.6V33.278h3.6V30.054a.553.553,0,0,1,.551-.551H54.4a.553.553,0,0,1,.551.551v7.538a.553.553,0,0,1-.551.551H46.865a.553.553,0,0,1-.551-.551V34.367h-3.6V46.6h3.6V43.558a.553.553,0,0,1,.551-.551H54.4a.553.553,0,0,1,.551.551V51.1a.553.553,0,0,1-.551.551H46.865a.553.553,0,0,1-.551-.551v-3.39H42.166a.553.553,0,0,1-.551-.551V34.367H39.92a12.024,12.024,0,1,1-.014-1.089ZM20.959,29.13h3.335a.953.953,0,0,1,.717.331l6.2-3.321a.552.552,0,0,1,.813.482v3.789a3.3,3.3,0,0,1,0,5.622v3.789a.545.545,0,0,1-.854.455l-6.16-3.293c-.344.372-.675.331-1.116.331v3.2a.553.553,0,0,1-.551.551h-2.2a.553.553,0,0,1-.551-.551V37.26a1.977,1.977,0,0,1-1.309-1.971V31.156a1.877,1.877,0,0,1,1.681-2.026Zm4.4,1.378v5.4l5.567,2.976V27.518ZM22.792,37.3h-1.1v2.659h1.1Zm1.433-7.083H20.959c-.358,0-.579.51-.579.923v4.134c0,.413.22.923.579.923h3.266a.275.275,0,0,0,.028-.124V30.343A.4.4,0,0,0,24.225,30.219Zm10.8,3.541a.551.551,0,0,1,0-1.1h1.089a.551.551,0,0,1,0,1.1Zm-.579-2.839a.567.567,0,0,1-.772-.138.555.555,0,0,1,.138-.772l1.13-.785a.554.554,0,1,1,.634.909Zm-.62,5.443a.554.554,0,1,1,.634-.909l.937.648a.554.554,0,1,1-.634.909Zm-1.805-1.791a2.213,2.213,0,0,0,0-2.715Zm3.583-8.268a11.02,11.02,0,1,0,0,15.585A11.028,11.028,0,0,0,35.607,26.305ZM47.43,44.136v6.435h6.435V44.136Zm0-27.036v6.435h6.435V17.1Zm0,13.518v6.435h6.435V30.619ZM35.262,2.783a2.518,2.518,0,1,1-2.522,2.522,2.521,2.521,0,0,1,2.522-2.522ZM36.268,4.3a1.416,1.416,0,1,0,0,2.012A1.431,1.431,0,0,0,36.268,4.3Zm-10.886.152h5a4.955,4.955,0,0,1,9.784,0h5a1.365,1.365,0,0,1,1.364,1.392H62.091a.553.553,0,0,1,.551.551V69.725a.553.553,0,0,1-.551.551H8.447a.553.553,0,0,1-.551-.551V6.38a.553.553,0,0,1,.551-.551H24a1.319,1.319,0,0,1,.4-.978,1.423,1.423,0,0,1,.978-.4Zm21.152,2.48v2.88h11.74a.553.553,0,0,1,.551.551V65.729a.553.553,0,0,1-.551.551h-46a.553.553,0,0,1-.551-.551V10.376a.553.553,0,0,1,.551-.551h11.74V6.931H9V69.174H61.54V6.931Zm-.124,4a1.366,1.366,0,0,1-1.24.8H25.382a1.359,1.359,0,0,1-1.24-.8H12.829V65.192H57.723V10.927ZM30.88,5.553h-5.5a.272.272,0,0,0-.193.083.279.279,0,0,0-.083.193v4.534a.274.274,0,0,0,.276.262H45.17a.262.262,0,0,0,.262-.262V5.815a.283.283,0,0,0-.276-.276h-5.5a.547.547,0,0,1-.551-.524,3.858,3.858,0,0,0-7.7-.028A.518.518,0,0,1,30.88,5.553Z"/>
      </g>
    </g>
  </g>
</svg>
