<svg xmlns="http://www.w3.org/2000/svg" xmlns:xlink="http://www.w3.org/1999/xlink" width="85" height="83.181" viewBox="0 0 85 83.181">
  <defs>
    <clipPath id="clip-path">
      <rect id="Rectangle_425687" data-name="Rectangle 425687" width="70" height="70" transform="translate(14129.25 -8194.941)" fill="#fff" stroke="#707070" stroke-width="1"/>
    </clipPath>
  </defs>
  <g id="Group_1209350" data-name="Group 1209350" transform="translate(-14114.25 8208.122)">
    <g id="Rectangle_425686" data-name="Rectangle 425686" transform="translate(14114.25 -8208.122)" fill="#e2dbf9" stroke="#b7a8f1" stroke-width="3">
      <rect width="70" height="70" rx="10" stroke="none"/>
      <rect x="1.5" y="1.5" width="67" height="67" rx="8.5" fill="none"/>
    </g>
    <g id="Mask_Group_1099405" data-name="Mask Group 1099405" clip-path="url(#clip-path)">
      <g id="Page-1" transform="translate(14129.25 -8194.933)">
        <g id="_050---Flagged-Document" data-name="050---Flagged-Document">
          <path id="Path" d="M47.821,8.165h4.665A2.34,2.34,0,0,1,54.819,10.5V66.482a2.341,2.341,0,0,1-2.333,2.333H10.5a2.341,2.341,0,0,1-2.333-2.333V61.817Z" fill="#ec4e5a" fill-rule="evenodd"/>
          <path id="Path-2" data-name="Path" d="M47.821,3.5V59.484a2.34,2.34,0,0,1-2.333,2.333H3.5a2.34,2.34,0,0,1-2.333-2.333V12.83L12.83,1.166H45.488A2.34,2.34,0,0,1,47.821,3.5" fill="#c4e5ec" fill-rule="evenodd"/>
          <path id="Path-3" data-name="Path" d="M12.83,1.166V10.5A2.34,2.34,0,0,1,10.5,12.83H1.166Z" fill="#fff" fill-rule="evenodd"/>
          <path id="Path-4" data-name="Path" d="M68.815,52.486A16.342,16.342,0,1,1,52.486,36.157a17.029,17.029,0,0,1,2.333.163,16.342,16.342,0,0,1,14,16.166" fill="#c4e5ec" fill-rule="evenodd"/>
          <path id="Path-5" data-name="Path" d="M60.4,50.62a1.166,1.166,0,0,1-1.028,1.866H46.654V44.322a1.229,1.229,0,0,1,1.283-1.166h11.43A1.166,1.166,0,0,1,60.4,45.021l-1.738,2.1a1.092,1.092,0,0,0,0,1.4Z" fill="#fff" fill-rule="evenodd"/>
          <path id="Path-6" data-name="Path" d="M45.488,1.166H40.823A2.34,2.34,0,0,1,43.155,3.5V39.656l4.665-2.333V3.5a2.34,2.34,0,0,0-2.333-2.333" fill="#b0ced4" fill-rule="evenodd"/>
          <path id="Shape" d="M50.153,68.649a16.369,16.369,0,0,1-2.333.166h4.665a16.381,16.381,0,0,1-2.333-.166M52.486,8.165H47.821A2.341,2.341,0,0,1,50.153,10.5V36.32h.006a16.622,16.622,0,0,1,2.327-.163,17.029,17.029,0,0,1,2.333.163V10.5a2.34,2.34,0,0,0-2.333-2.333" fill="#d44651"/>
          <path id="Path-7" data-name="Path" d="M52.486,36.157a16.622,16.622,0,0,0-2.327.163,16.329,16.329,0,0,1-.006,32.329A16.332,16.332,0,1,0,54.819,36.32a17.029,17.029,0,0,0-2.333-.163" fill="#b0ced4" fill-rule="evenodd"/>
          <g id="Group_1209336" data-name="Group 1209336">
            <path id="Shape-2" data-name="Shape" d="M55.985,35.341V10.5a3.5,3.5,0,0,0-3.5-3.5h-3.5V3.5a3.5,3.5,0,0,0-3.5-3.5H12.83c-.024,0-.047.013-.071.014a1.157,1.157,0,0,0-.3.061,1.084,1.084,0,0,0-.108.042,1.166,1.166,0,0,0-.342.233L.342,12.013a1.166,1.166,0,0,0-.233.342c-.016.035-.026.072-.038.108a1.166,1.166,0,0,0-.061.3c0,.017-.009.04-.009.064V59.484a3.5,3.5,0,0,0,3.5,3.5H7v3.5a3.5,3.5,0,0,0,3.5,3.5H52.486a17.5,17.5,0,0,0,3.5-34.641Zm-3.5-26.01A1.166,1.166,0,0,1,53.652,10.5V35.05c-.387-.026-.772-.059-1.166-.059a17.564,17.564,0,0,0-3.5.35V9.331ZM11.664,3.982V10.5A1.166,1.166,0,0,1,10.5,11.664H3.982Zm-9.331,55.5V14H10.5A3.5,3.5,0,0,0,14,10.5V2.333H45.488A1.166,1.166,0,0,1,46.654,3.5V36.011a17.452,17.452,0,0,0-9.631,24.639H3.5a1.166,1.166,0,0,1-1.166-1.166ZM10.5,67.649a1.166,1.166,0,0,1-1.166-1.166v-3.5H38.522a17.619,17.619,0,0,0,5.272,4.665Zm41.989,0A15.163,15.163,0,1,1,67.649,52.486,15.163,15.163,0,0,1,52.486,67.649Z" fill="#17173f"/>
            <path id="Shape-3" data-name="Shape" d="M60.434,43.366A2.427,2.427,0,0,0,58.2,41.989H47.937a2.4,2.4,0,0,0-2.449,2.333V62.983a1.166,1.166,0,1,0,2.333,0V53.652H58.2a2.427,2.427,0,0,0,2.235-1.377,2.235,2.235,0,0,0-.308-2.4l-1.733-2.014,1.733-2.1a2.235,2.235,0,0,0,.306-2.4ZM58.2,51.32H47.821l-.01-6.955a.171.171,0,0,1,.127-.043H58.2c.038,0,.065.006.086.006L56.594,46.38a2.244,2.244,0,0,0,0,2.882l1.732,2.017a.154.154,0,0,1-.125.041Z" fill="#17173f"/>
            <path id="Path-8" data-name="Path" d="M8.165,22.161H40.823a1.166,1.166,0,0,0,0-2.333H8.165a1.166,1.166,0,1,0,0,2.333Z" fill="#17173f" fill-rule="evenodd"/>
            <path id="Path-9" data-name="Path" d="M8.165,45.488H31.492a1.166,1.166,0,1,0,0-2.333H8.165a1.166,1.166,0,1,0,0,2.333Z" fill="#17173f" fill-rule="evenodd"/>
            <path id="Path-10" data-name="Path" d="M40.823,25.66H34.991a1.166,1.166,0,1,0,0,2.333h5.832a1.166,1.166,0,0,0,0-2.333Z" fill="#17173f" fill-rule="evenodd"/>
            <path id="Path-11" data-name="Path" d="M8.165,27.993H29.159a1.166,1.166,0,1,0,0-2.333H8.165a1.166,1.166,0,1,0,0,2.333Z" fill="#17173f" fill-rule="evenodd"/>
            <path id="Path-12" data-name="Path" d="M22.161,48.987H20.994a1.166,1.166,0,0,0,0,2.333h1.166a1.166,1.166,0,0,0,0-2.333Z" fill="#17173f" fill-rule="evenodd"/>
            <path id="Path-13" data-name="Path" d="M15.163,51.32a1.166,1.166,0,1,0,0-2.333h-7a1.166,1.166,0,0,0,0,2.333Z" fill="#17173f" fill-rule="evenodd"/>
            <path id="Path-14" data-name="Path" d="M8.165,33.824H14a1.166,1.166,0,1,0,0-2.333H8.165a1.166,1.166,0,1,0,0,2.333Z" fill="#17173f" fill-rule="evenodd"/>
            <path id="Path-15" data-name="Path" d="M40.823,31.492H19.828a1.166,1.166,0,1,0,0,2.333H40.823a1.166,1.166,0,0,0,0-2.333Z" fill="#17173f" fill-rule="evenodd"/>
            <path id="Path-16" data-name="Path" d="M8.165,39.656h3.5a1.166,1.166,0,1,0,0-2.333h-3.5a1.166,1.166,0,1,0,0,2.333Z" fill="#17173f" fill-rule="evenodd"/>
            <path id="Path-17" data-name="Path" d="M36.157,37.323H17.5a1.166,1.166,0,1,0,0,2.333H36.157a1.166,1.166,0,1,0,0-2.333Z" fill="#17173f" fill-rule="evenodd"/>
          </g>
        </g>
      </g>
    </g>
  </g>
</svg>
