<svg xmlns="http://www.w3.org/2000/svg" xmlns:xlink="http://www.w3.org/1999/xlink" width="85" height="83.182" viewBox="0 0 85 83.182">
  <defs>
    <clipPath id="clip-path">
      <rect id="Rectangle_425822" data-name="Rectangle 425822" width="70" height="70" transform="translate(777.161 5228.116)" fill="#fff" stroke="#707070" stroke-width="1"/>
    </clipPath>
  </defs>
  <g id="Group_1209379" data-name="Group 1209379" transform="translate(-762.161 -5214.935)">
    <g id="Rectangle_425821" data-name="Rectangle 425821" transform="translate(762.161 5214.935)" fill="#e2dbf9" stroke="#b7a8f1" stroke-width="3">
      <rect width="70" height="70" rx="10" stroke="none"/>
      <rect x="1.5" y="1.5" width="67" height="67" rx="8.5" fill="none"/>
    </g>
    <g id="Mask_Group_1099415" data-name="Mask Group 1099415" clip-path="url(#clip-path)">
      <g id="secure-computer_388493" transform="translate(777.161 5228.116)">
        <g id="Group_1209377" data-name="Group 1209377">
          <path id="Path_1280504" data-name="Path 1280504" d="M34.63,35a8.017,8.017,0,1,0-8.017-8.017A8.033,8.033,0,0,0,34.63,35Z" fill="#85bf4f"/>
          <path id="Path_1280505" data-name="Path 1280505" d="M41.3,22.54a7.964,7.964,0,0,1,1.334,4.051q.01.2.009.391a8.017,8.017,0,1,1-8.017-8.017q.192,0,.381.009a7.868,7.868,0,0,1,1.728.273A8.012,8.012,0,0,1,41.3,22.54Zm27.223-9.406H1.472v27.7H68.528v-27.7Z" fill="#a7e2de"/>
          <g id="Group_1209376" data-name="Group 1209376">
            <path id="Path_1280506" data-name="Path 1280506" d="M1.472,13.134H68.528V11.7a4.413,4.413,0,0,0-4.4-4.4H5.873a4.413,4.413,0,0,0-4.4,4.4Z" fill="#ffcd85"/>
            <path id="Path_1280507" data-name="Path 1280507" d="M68.528,40.831H1.472v2.888a4.413,4.413,0,0,0,4.4,4.4H64.127a4.413,4.413,0,0,0,4.4-4.4V40.831Z" fill="#ffcd85"/>
            <path id="Path_1280508" data-name="Path 1280508" d="M42.289,48.119H27.711L24.8,56.866H45.2Z" fill="#ffcd85"/>
            <path id="Path_1280509" data-name="Path 1280509" d="M45.2,56.866H24.8a2.924,2.924,0,0,0-2.915,2.915v2.093a.825.825,0,0,0,.822.823H47.3a.825.825,0,0,0,.823-.823V59.781A2.923,2.923,0,0,0,45.2,56.866Z" fill="#ffcd85"/>
          </g>
        </g>
        <g id="Group_1209378" data-name="Group 1209378">
          <path id="Path_1280510" data-name="Path 1280510" d="M64.127,5.831H5.873A5.88,5.88,0,0,0,0,11.7V43.719a5.88,5.88,0,0,0,5.873,5.873h19.8l-1.981,5.943a4.4,4.4,0,0,0-3.279,4.246v2.093a2.3,2.3,0,0,0,2.295,2.3H47.3a2.3,2.3,0,0,0,2.3-2.3V59.781a4.4,4.4,0,0,0-3.279-4.246l-1.981-5.943h19.8A5.88,5.88,0,0,0,70,43.719V11.7A5.88,5.88,0,0,0,64.127,5.831ZM2.945,14.606h64.11V39.359H2.945ZM5.873,8.776H64.127a2.93,2.93,0,0,1,2.926,2.886H2.947A2.931,2.931,0,0,1,5.873,8.776ZM46.647,61.224H23.353V59.781A1.444,1.444,0,0,1,24.8,58.338H45.2a1.445,1.445,0,0,1,1.443,1.443v1.443Zm-3.486-5.831H26.839l1.934-5.8H41.227Zm20.966-8.746H5.873a2.931,2.931,0,0,1-2.928-2.928V42.3h64.11v1.415A2.931,2.931,0,0,1,64.127,46.647Z" fill="#000003"/>
          <path id="Path_1280511" data-name="Path 1280511" d="M44.429,19.415a1.473,1.473,0,0,0-2.082,0L40.265,21.5l-.014.014L34.63,27.132,32.848,25.35a1.473,1.473,0,0,0-2.082,2.082l2.823,2.823a1.472,1.472,0,0,0,2.082,0l5.211-5.211a6.548,6.548,0,1,1-4.531-4.377,1.472,1.472,0,1,0,.776-2.841,9.494,9.494,0,1,0,6.014,4.959L44.429,21.5A1.472,1.472,0,0,0,44.429,19.415Z" fill="#000003"/>
          <path id="Path_1280512" data-name="Path 1280512" d="M7.3,26.627A1.473,1.473,0,0,0,5.831,28.1V35a1.472,1.472,0,1,0,2.945,0V28.1A1.473,1.473,0,0,0,7.3,26.627Z" fill="#000003"/>
          <path id="Path_1280513" data-name="Path 1280513" d="M7.3,22.3a1.472,1.472,0,0,0-1.472,1.472v.107a1.472,1.472,0,1,0,2.945,0v-.107A1.472,1.472,0,0,0,7.3,22.3Z" fill="#000003"/>
        </g>
      </g>
    </g>
  </g>
</svg>
