<svg xmlns="http://www.w3.org/2000/svg" xmlns:xlink="http://www.w3.org/1999/xlink" width="85" height="83.181" viewBox="0 0 85 83.181">
  <defs>
    <clipPath id="clip-path">
      <rect id="Rectangle_425687" data-name="Rectangle 425687" width="70" height="70" transform="translate(7118.697 -5378.381)" fill="#fff" stroke="#707070" stroke-width="1"/>
    </clipPath>
  </defs>
  <g id="Group_1209330" data-name="Group 1209330" transform="translate(-7103.697 5391.562)">
    <g id="Rectangle_425686" data-name="Rectangle 425686" transform="translate(7103.697 -5391.562)" fill="#e2dbf9" stroke="#b7a8f1" stroke-width="3">
      <rect width="70" height="70" rx="10" stroke="none"/>
      <rect x="1.5" y="1.5" width="67" height="67" rx="8.5" fill="none"/>
    </g>
    <g id="Mask_Group_1099397" data-name="Mask Group 1099397" clip-path="url(#clip-path)">
      <g id="immigration_11934209" transform="translate(7117.421 -5379.657)">
        <g id="Group_1209298" data-name="Group 1209298">
          <g id="Group_1209292" data-name="Group 1209292">
            <path id="Path_1280215" data-name="Path 1280215" d="M49.36,39.621a6.614,6.614,0,1,0,6.614-6.613A6.614,6.614,0,0,0,49.36,39.621Z" fill="#efc7a4" fill-rule="evenodd"/>
            <path id="Path_1280216" data-name="Path 1280216" d="M70.284,64.356c0,7.9-28.62,7.9-28.62,0a14.31,14.31,0,0,1,28.62,0Z" fill="#66d4f1" fill-rule="evenodd"/>
          </g>
          <g id="Group_1209295" data-name="Group 1209295">
            <g id="Group_1209293" data-name="Group 1209293">
              <path id="Path_1280217" data-name="Path 1280217" d="M27.368,36.318H3.541a1.276,1.276,0,0,0-1.274,1.274V69.01a1.276,1.276,0,0,0,1.274,1.274H27.368a1.276,1.276,0,0,0,1.274-1.274V37.592A1.276,1.276,0,0,0,27.368,36.318Z" fill="#f4f6f8" fill-rule="evenodd"/>
              <path id="Path_1280218" data-name="Path 1280218" d="M21.1,34.767H18.571a.423.423,0,0,1-.421-.368,2.72,2.72,0,0,0-5.391,0,.423.423,0,0,1-.421.368H9.806a.426.426,0,0,0-.425.425V38.44a.426.426,0,0,0,.425.425H21.1a.426.426,0,0,0,.425-.425V35.192a.426.426,0,0,0-.425-.425Z" fill="#e4e8eb" fill-rule="evenodd"/>
            </g>
            <g id="Group_1209294" data-name="Group 1209294">
              <circle id="Ellipse_12696" data-name="Ellipse 12696" cx="8.405" cy="8.405" r="8.405" transform="translate(3.56 53.995) rotate(-45)" fill="#66d4f1"/>
            </g>
          </g>
          <g id="Group_1209297" data-name="Group 1209297">
            <path id="Path_1280219" data-name="Path 1280219" d="M54.086,2.267H18.465A2.367,2.367,0,0,0,16.1,4.63V27.185a2.367,2.367,0,0,0,2.363,2.363h14S32.657,38.84,44.1,40.27c0,0-3.575-4.018-2.055-10.722H54.086a2.367,2.367,0,0,0,2.363-2.363V4.63a2.368,2.368,0,0,0-2.363-2.363Z" fill="#c6ea94" fill-rule="evenodd"/>
            <g id="Group_1209296" data-name="Group 1209296">
              <circle id="Ellipse_12697" data-name="Ellipse 12697" cx="7.935" cy="7.935" r="7.935" transform="translate(33.105 15.911) rotate(-45)" fill="#66d4f1"/>
            </g>
          </g>
        </g>
        <path id="Path_1280220" data-name="Path 1280220" d="M19.488,50.669a.993.993,0,0,1,.045,1.4l-4.877,5.21a.992.992,0,0,1-.724.315h-.021a.989.989,0,0,1-.732-.347L10.513,54.13a.991.991,0,0,1,1.508-1.288l1.946,2.276,4.119-4.4a.994.994,0,0,1,1.4-.047ZM15.454,61.415A7.415,7.415,0,1,0,8.039,54a7.425,7.425,0,0,0,7.415,7.415Zm0-16.814a9.4,9.4,0,1,0,9.4,9.4A9.41,9.41,0,0,0,15.454,44.6ZM27.65,69.01V37.592a.285.285,0,0,0-.282-.282H22.519v1.556a.993.993,0,0,1-.992.992H9.381a.992.992,0,0,1-.991-.992V37.31H3.54a.285.285,0,0,0-.28.282V69.01a.285.285,0,0,0,.28.282H27.368a.285.285,0,0,0,.282-.282ZM10.373,35.758h2.362a.992.992,0,0,0,.992-.992,1.728,1.728,0,0,1,3.456,0,.991.991,0,0,0,.992.992h2.36v2.116H10.373Zm17-.432H22.519v-.56a.993.993,0,0,0-.992-.992h-2.5a3.714,3.714,0,0,0-7.156,0h-2.5a.992.992,0,0,0-.991.992v.56H3.54a2.268,2.268,0,0,0-2.264,2.266V69.01A2.267,2.267,0,0,0,3.54,71.275H27.368a2.269,2.269,0,0,0,2.266-2.266V37.592A2.269,2.269,0,0,0,27.368,35.326ZM37.461,16.9h1.912a12.263,12.263,0,0,0,1.264,4.884A6.957,6.957,0,0,1,37.461,16.9Zm3.178-6.867a12.238,12.238,0,0,0-1.266,4.883H37.461A6.948,6.948,0,0,1,40.638,10.032ZM51.2,14.915H49.29a12.229,12.229,0,0,0-1.264-4.883A6.948,6.948,0,0,1,51.2,14.915Zm-3.177,6.868A12.226,12.226,0,0,0,49.29,16.9H51.2A6.954,6.954,0,0,1,48.027,21.784ZM43.341,16.9v5.243c-.954-.83-1.8-2.774-1.978-5.243Zm0-7.225v5.242H41.363C41.544,12.449,42.387,10.5,43.341,9.674Zm1.984,5.242V9.674c.954.829,1.8,2.773,1.978,5.242Zm0,7.227V16.9H47.3C47.121,19.368,46.278,21.312,45.325,22.142Zm7.935-6.235a8.928,8.928,0,1,0-8.927,8.929,8.937,8.937,0,0,0,8.927-8.929ZM33.331,8.975a.993.993,0,0,1-.992.992H20.282a.992.992,0,1,1,0-1.984H32.339A.993.993,0,0,1,33.331,8.975Zm0,6.932a.993.993,0,0,1-.992.992H20.282a.992.992,0,1,1,0-1.984H32.339A.993.993,0,0,1,33.331,15.907Zm0,6.933a.992.992,0,0,1-.992.992H20.282a.992.992,0,1,1,0-1.984H32.339A.992.992,0,0,1,33.331,22.841Zm.125,6.687a.989.989,0,0,0-.991-.971h-14a1.373,1.373,0,0,1-1.37-1.372V4.631a1.373,1.373,0,0,1,1.37-1.372H54.086a1.372,1.372,0,0,1,1.37,1.372V27.185a1.372,1.372,0,0,1-1.37,1.372H42.04a.993.993,0,0,0-.968.772,14.166,14.166,0,0,0,.979,9.558c-8.291-2.072-8.586-9.043-8.6-9.359ZM44.095,41.262a.91.91,0,0,1-.122-.007c-6.309-.79-9.375-3.9-10.836-6.377a12.432,12.432,0,0,1-1.564-4.337H18.464a3.359,3.359,0,0,1-3.354-3.356V4.631a3.359,3.359,0,0,1,3.354-3.355H54.086A3.359,3.359,0,0,1,57.44,4.631V27.185a3.359,3.359,0,0,1-3.354,3.356H42.854a11.252,11.252,0,0,0,1.986,9.073.993.993,0,0,1-.745,1.648Zm11.879,28.03c-7.594,0-13.319-2.121-13.319-4.935a13.319,13.319,0,0,1,26.637,0C69.292,67.171,63.566,69.292,55.974,69.292Zm0-20.236a15.319,15.319,0,0,0-15.3,15.3c0,1.593.889,3.817,5.121,5.376a30.6,30.6,0,0,0,10.182,1.543c7.616,0,15.3-2.14,15.3-6.919A15.319,15.319,0,0,0,55.974,49.055Zm5.621-9.434a5.622,5.622,0,1,0-5.621,5.623A5.628,5.628,0,0,0,61.594,39.621Zm-13.227,0a7.606,7.606,0,1,0,7.607-7.605A7.615,7.615,0,0,0,48.367,39.621Z" fill-rule="evenodd"/>
      </g>
    </g>
  </g>
</svg>
