<svg xmlns="http://www.w3.org/2000/svg" xmlns:xlink="http://www.w3.org/1999/xlink" width="85" height="83.181" viewBox="0 0 85 83.181">
  <defs>
    <clipPath id="clip-path">
      <rect id="Rectangle_425673" data-name="Rectangle 425673" width="70" height="70" transform="translate(1140 6160.933)" fill="#fff" stroke="#707070" stroke-width="1"/>
    </clipPath>
  </defs>
  <g id="Group_1209327" data-name="Group 1209327" transform="translate(-1125 -6147.752)">
    <g id="Rectangle_425672" data-name="Rectangle 425672" transform="translate(1125 6147.752)" fill="#e2dbf9" stroke="#b7a8f1" stroke-width="3">
      <rect width="70" height="70" rx="10" stroke="none"/>
      <rect x="1.5" y="1.5" width="67" height="67" rx="8.5" fill="none"/>
    </g>
    <g id="Mask_Group_1099400" data-name="Mask Group 1099400" clip-path="url(#clip-path)">
      <g id="test_1284714" transform="translate(1149.032 6160.933)">
        <path id="Path_1280254" data-name="Path 1280254" d="M5.645,1.129H50.806V57.581H5.645Zm0,0" fill="#656665"/>
        <path id="Path_1280255" data-name="Path 1280255" d="M29.355,62.1H46.29V12.419H39.516V5.645H1.129V62.1H22.581" fill="#d9d7d8"/>
        <path id="Path_1280256" data-name="Path 1280256" d="M22.581,41.774v23.71a3.387,3.387,0,0,0,6.774,0V41.774" fill="#bc8f6f"/>
        <path id="Path_1280257" data-name="Path 1280257" d="M24.274,68.4a3.373,3.373,0,0,0,1.694-2.917V41.774H22.581v23.71A3.373,3.373,0,0,0,24.274,68.4Zm0,0" fill="#cb9e78"/>
        <path id="Path_1280258" data-name="Path 1280258" d="M22.581,47.419h6.774v4.516H22.581Zm0,0" fill="#bab8b9"/>
        <path id="Path_1280259" data-name="Path 1280259" d="M22.581,47.419h3.387v4.516H22.581Zm0,0" fill="#d9d7d8"/>
        <path id="Path_1280260" data-name="Path 1280260" d="M39.516,29.355A13.548,13.548,0,1,1,25.968,15.806,13.548,13.548,0,0,1,39.516,29.355Zm0,0" fill="#85b6cf"/>
        <path id="Path_1280261" data-name="Path 1280261" d="M46.29,12.419,39.516,5.645v6.774Zm0,0" fill="#999"/>
        <path id="Path_1280262" data-name="Path 1280262" d="M25.968,44.032A14.677,14.677,0,1,1,40.645,29.355,14.694,14.694,0,0,1,25.968,44.032Zm0-27.1A12.419,12.419,0,1,0,38.387,29.355,12.434,12.434,0,0,0,25.968,16.935Zm0,0"/>
        <path id="Path_1280263" data-name="Path 1280263" d="M35,29.355a9.032,9.032,0,1,1-9.032-9.032A9.032,9.032,0,0,1,35,29.355Zm0,0" fill="#94cce7"/>
        <path id="Path_1280264" data-name="Path 1280264" d="M18.065,29.355H15.806A10.174,10.174,0,0,1,25.968,19.194v2.258A7.912,7.912,0,0,0,18.065,29.355Zm0,0"/>
        <path id="Path_1280265" data-name="Path 1280265" d="M25.968,39.516V37.258a7.912,7.912,0,0,0,7.9-7.9h2.258A10.174,10.174,0,0,1,25.968,39.516Zm0,0"/>
        <path id="Path_1280266" data-name="Path 1280266" d="M24.839,35a1.125,1.125,0,0,1-.8-.331l-3.387-3.387,1.6-1.6,2.383,2.383,4.892-7.828,1.915,1.2L25.8,34.469a1.131,1.131,0,0,1-.83.524,1.187,1.187,0,0,1-.126.007Zm0,0"/>
        <path id="Path_1280267" data-name="Path 1280267" d="M25.968,70a4.521,4.521,0,0,1-4.516-4.516V41.774H23.71v23.71a2.258,2.258,0,0,0,4.516,0V41.774h2.258v23.71A4.521,4.521,0,0,1,25.968,70Zm0,0"/>
        <path id="Path_1280268" data-name="Path 1280268" d="M22.581,46.29h6.774v2.258H22.581Zm0,0"/>
        <path id="Path_1280269" data-name="Path 1280269" d="M19.194,50.806H32.742v2.258H19.194Zm0,0"/>
        <path id="Path_1280270" data-name="Path 1280270" d="M50.806,58.71H46.29V56.452h3.387V2.258H6.774V5.645H4.516V1.129A1.13,1.13,0,0,1,5.645,0H50.806a1.13,1.13,0,0,1,1.129,1.129V57.581A1.13,1.13,0,0,1,50.806,58.71Zm0,0"/>
        <path id="Path_1280271" data-name="Path 1280271" d="M46.29,63.226H29.355V60.968H45.161V13.548H39.516a1.13,1.13,0,0,1-1.129-1.129V6.774H2.258V60.968H22.581v2.258H1.129A1.13,1.13,0,0,1,0,62.1V5.645A1.13,1.13,0,0,1,1.129,4.516H39.516a1.13,1.13,0,0,1,1.129,1.129V11.29H46.29a1.13,1.13,0,0,1,1.129,1.129V62.1A1.13,1.13,0,0,1,46.29,63.226Zm0,0"/>
        <path id="Path_1280272" data-name="Path 1280272" d="M38.717,6.443l1.6-1.6,6.774,6.774-1.6,1.6Zm0,0"/>
      </g>
    </g>
  </g>
</svg>
