<svg xmlns="http://www.w3.org/2000/svg" xmlns:xlink="http://www.w3.org/1999/xlink" width="85" height="83.181" viewBox="0 0 85 83.181">
  <defs>
    <clipPath id="clip-path">
      <rect id="Rectangle_425697" data-name="Rectangle 425697" width="70" height="70" transform="translate(7486.197 -5378.981)" fill="#fff" stroke="#707070" stroke-width="1"/>
    </clipPath>
  </defs>
  <g id="Group_1209331" data-name="Group 1209331" transform="translate(-7471.197 5392.162)">
    <g id="Rectangle_425696" data-name="Rectangle 425696" transform="translate(7471.197 -5392.162)" fill="#e2dbf9" stroke="#b7a8f1" stroke-width="3">
      <rect width="70" height="70" rx="10" stroke="none"/>
      <rect x="1.5" y="1.5" width="67" height="67" rx="8.5" fill="none"/>
    </g>
    <g id="Mask_Group_1099396" data-name="Mask Group 1099396" clip-path="url(#clip-path)">
      <g id="process_12599776" transform="translate(7478.129 -5387.483)">
        <g id="Group_1209291" data-name="Group 1209291">
          <path id="Path_1280204" data-name="Path 1280204" d="M43.9,9.908A12.686,12.686,0,1,1,31.219,22.586,12.692,12.692,0,0,1,43.9,9.908Z" fill="#f6851f" fill-rule="evenodd"/>
          <path id="Path_1280205" data-name="Path 1280205" d="M38.492,25.441l5.4-2.872,5.387,2.872V40.957L43.9,38.084l-5.4,2.872Z" fill="#ed2024" fill-rule="evenodd"/>
          <path id="Path_1280206" data-name="Path 1280206" d="M43.9,13.681a8.905,8.905,0,1,1-8.905,8.905A8.9,8.9,0,0,1,43.9,13.681Z" fill="#f7ec13" fill-rule="evenodd"/>
          <path id="Path_1280207" data-name="Path 1280207" d="M62.692,41.16l4.656,3.909L48.723,67.264,42.656,69.8l1.411-6.441Z" fill="#cc4342" fill-rule="evenodd"/>
          <path id="Path_1280208" data-name="Path 1280208" d="M53.651,51.986,52.479,55.64c-.952,2.974-4.2,2.43-4.2-.7a28.738,28.738,0,0,1,.952-6.917c2.209-2.447,7.919-3.093,10.129-2.906L53.787,51.8a1.3,1.3,0,0,1-.136.187Zm10.791-3.45c2.651,2.549,5.71,6.1,9.823,10.231l-7.019,7.019-3.433-3.433c-2.43.034-4.69.221-6.56.306-1.665.068-3.263.374-4.385-.255-1.326-.731-1.886-2.481.085-3.4,1.207-.561,3.28-.561,4.826-1.716a2.168,2.168,0,0,0,.663-1.563Z" fill="#fbc6b3" fill-rule="evenodd"/>
          <path id="Path_1280209" data-name="Path 1280209" d="M64.783,66.04l2.26,2.26a1.467,1.467,0,0,0,2.056,0l7.529-7.529a1.467,1.467,0,0,0,0-2.056l-2.26-2.26a1.488,1.488,0,0,0-2.073,0l-7.529,7.529A1.483,1.483,0,0,0,64.783,66.04Z" fill="gray" fill-rule="evenodd"/>
          <path id="Path_1280210" data-name="Path 1280210" d="M19.167,54.085H33.831V59.76H19.167Z" transform="translate(-32.5 35.418) rotate(-45)" fill="#9e4623" fill-rule="evenodd"/>
          <path id="Path_1280211" data-name="Path 1280211" d="M11.148,58.529,24.914,72.294a1.713,1.713,0,0,0,2.413,0l.884-.884a1.713,1.713,0,0,0,0-2.413L14.445,55.232a1.713,1.713,0,0,0-2.413,0l-.884.884a1.713,1.713,0,0,0,0,2.413Z" fill="#dd6e42" fill-rule="evenodd"/>
          <path id="Path_1280212" data-name="Path 1280212" d="M15.072,57.432h3.466V75.818H15.072Z" transform="translate(-42.197 31.401) rotate(-45)" fill="gray" fill-rule="evenodd"/>
          <path id="Path_1280213" data-name="Path 1280213" d="M36.368,47.075a6.609,6.609,0,1,1-9.347,0A6.606,6.606,0,0,1,36.368,47.075Z" fill="#dd6e42" fill-rule="evenodd"/>
        </g>
        <path id="Path_1280214" data-name="Path 1280214" d="M33.887,77.664,31.2,73.433a1.025,1.025,0,0,1,.85-1.563l4.673-.187a1.019,1.019,0,0,1,.952,1.479l-.527,1.173a28.772,28.772,0,0,0,24.693-5.472,1.008,1.008,0,0,1,1.428.17,1.021,1.021,0,0,1-.153,1.428A30.794,30.794,0,0,1,36.3,76.22l-.612,1.343A1.039,1.039,0,0,1,33.887,77.664Zm43.285-28.7L73.7,52.853a1.006,1.006,0,0,1-1.682-.272L70.051,48.06a1.016,1.016,0,0,1,1.037-1.411l1.563.17a28.665,28.665,0,0,0-11.386-23.35,1.043,1.043,0,0,1-.2-1.428,1.024,1.024,0,0,1,1.428-.187A30.756,30.756,0,0,1,74.673,47.041l1.886.2A1.007,1.007,0,0,1,77.172,48.961ZM21.345,21.685l5.132-.85a1.025,1.025,0,0,1,1.139,1.343l-1.275,4.707a1.017,1.017,0,0,1-1.7.459l-1.173-1.173a28.7,28.7,0,0,0-8,24.523,1.013,1.013,0,1,1-2.005.289,30.73,30.73,0,0,1,8.582-26.256L20.75,23.435a1.019,1.019,0,0,1,.595-1.75ZM37.082,46.361a7.632,7.632,0,0,1-7.325,12.78l-5,5L28.924,68.3a2.728,2.728,0,0,1,0,3.841c-.867.867-1.462,1.682-2.8,1.682a2.789,2.789,0,0,1-1.563-.493l-1.75,1.75a1.036,1.036,0,0,1-1.445,0l-13-13a1.036,1.036,0,0,1,0-1.445l1.75-1.75a2.732,2.732,0,0,1,.306-3.484c.867-.867,1.462-1.665,2.8-1.665a2.716,2.716,0,0,1,1.92.8L19.306,58.7l5-5a7.628,7.628,0,0,1,7.393-9.551,7.379,7.379,0,0,1,5.387,2.209ZM27.735,58.274a7.77,7.77,0,0,1-2.583-2.566l-4.419,4.4,2.583,2.583Zm9.551-6.526a5.591,5.591,0,1,0-5.591,5.591,5.585,5.585,0,0,0,5.591-5.591ZM12.253,58.189,25.628,71.58a.677.677,0,0,0,.969,0l.884-.884a.677.677,0,0,0,0-.969L13.714,55.963a.677.677,0,0,0-.969,0l-.884.884a.677.677,0,0,0,0,.969ZM23.1,71.92,11.539,60.364l-1,1L22.093,72.923Zm42.418-6.594,2.26,2.26a.451.451,0,0,0,.629,0l7.529-7.529a.451.451,0,0,0,0-.629l-2.26-2.26a.451.451,0,0,0-.629,0L65.513,64.7A.423.423,0,0,0,65.513,65.327Zm.8,3.7-2.243-2.26a2.494,2.494,0,0,1-.357-3.059l-.34-.34c-2.158.034-4.045.2-6.1.289a14.094,14.094,0,0,1-4.147-.051L49.5,67.927a.952.952,0,0,1-.408.289l-6.033,2.532a1.026,1.026,0,0,1-1.394-1.156l1.394-6.441a.973.973,0,0,1,.238-.476l4.571-5.438a4.231,4.231,0,0,1-.612-2.277,29.484,29.484,0,0,1,.986-7.189,1.044,1.044,0,0,1,.255-.442,9.817,9.817,0,0,1,4.487-2.447A21.279,21.279,0,0,1,58.9,44.1l2.991-3.569a1,1,0,0,1,1.428-.119l4.656,3.909a1,1,0,0,1,.136,1.428L65.8,48.5c1.988,1.971,4.334,4.571,6.441,6.781a2.494,2.494,0,0,1,2.838.476l2.26,2.26a2.472,2.472,0,0,1,0,3.5l-7.529,7.529a2.488,2.488,0,0,1-3.5-.017Zm-1.207-6.815,5.625-5.625c-2.056-2.158-4.3-4.639-6.22-6.56L59.378,56.15a3.119,3.119,0,0,1-1.02,1.937c-2.124,1.6-5.064,1.309-5.642,2.311-.238.425.306.9.646,1.1.748.425,2.617.17,3.824.119.595-.017,1.309-.068,2.056-.119,1.36-.085,2.838-.17,4.453-.187.646-.017.9.391,1.411.9ZM54.569,52.479l-1.1,3.467c-.612,1.937-2.26,3.076-3.977,2.532l-4.47,5.336-.935,4.3,4.028-1.682,3.28-3.909c-1.309-1.5-.9-3.5,1.1-4.436.884-.408,3.195-.816,3.45-.986l9.976-11.879-3.11-2.6L60.228,45.7a.586.586,0,0,1-.136.153l-5.506,6.611ZM51.51,55.317l1.173-3.654a1.619,1.619,0,0,1,.323-.51l4.164-4.979a21.437,21.437,0,0,0-3.62.646,8.39,8.39,0,0,0-3.416,1.716,26.488,26.488,0,0,0-.595,3.059,25.054,25.054,0,0,0-.255,3.331C49.3,56.9,50.915,57.2,51.51,55.317ZM46.531,19.442a1.021,1.021,0,0,1,1.445,1.445L43.132,25.73a1.006,1.006,0,0,1-1.445,0l-1.852-1.852a1.021,1.021,0,0,1,1.445-1.445l1.139,1.122ZM43.9,12.661a9.925,9.925,0,0,1,6.424,17.5V32.34a11.668,11.668,0,1,0-12.831,0V30.165a9.924,9.924,0,0,1,6.407-17.5Zm4.385,18.847a10.013,10.013,0,0,1-8.752,0v7.749l3.892-2.073a1.029,1.029,0,0,1,.969,0l3.892,2.073Zm1.207-14.5a7.9,7.9,0,1,0,0,11.165A7.908,7.908,0,0,0,49.488,17.011ZM50.32,34.7v6.254a1.017,1.017,0,0,1-1.58.85L43.9,39.223,38.985,41.84a1.021,1.021,0,0,1-1.5-.9V34.686A13.7,13.7,0,1,1,50.32,34.7Z"/>
      </g>
    </g>
  </g>
</svg>
