<svg xmlns="http://www.w3.org/2000/svg" xmlns:xlink="http://www.w3.org/1999/xlink" width="85" height="83.182" viewBox="0 0 85 83.182">
  <defs>
    <clipPath id="clip-path">
      <rect id="Rectangle_425772" data-name="Rectangle 425772" width="70" height="70" transform="translate(772.5 3383.087)" fill="#fff" stroke="#707070" stroke-width="1"/>
    </clipPath>
  </defs>
  <g id="Group_1209346" data-name="Group 1209346" transform="translate(-757.5 -3369.905)">
    <g id="Rectangle_425771" data-name="Rectangle 425771" transform="translate(757.5 3369.905)" fill="#e2dbf9" stroke="#b7a8f1" stroke-width="3">
      <rect width="70" height="70" rx="10" stroke="none"/>
      <rect x="1.5" y="1.5" width="67" height="67" rx="8.5" fill="none"/>
    </g>
    <g id="Mask_Group_1099409" data-name="Mask Group 1099409" clip-path="url(#clip-path)">
      <g id="calendar-schedule-day-date-lock" transform="translate(770.167 3380.753)">
        <path id="Path_1280380" data-name="Path 1280380" d="M3.5,17.5H61.833v42A2.333,2.333,0,0,1,59.5,61.833H5.833A2.333,2.333,0,0,1,3.5,59.5Z" fill="#9bc9ff"/>
        <path id="Path_1280381" data-name="Path 1280381" d="M17.5,61.833h42A2.333,2.333,0,0,0,61.833,59.5v-42A44.333,44.333,0,0,1,17.5,61.833Z" fill="#57a4ff"/>
        <path id="Path_1280382" data-name="Path 1280382" d="M5.833,8.167H59.5A2.333,2.333,0,0,1,61.833,10.5v7H3.5v-7A2.333,2.333,0,0,1,5.833,8.167Z" fill="#ed1c24"/>
        <path id="Path_1280383" data-name="Path 1280383" d="M11.667,24.5h7v7h-7Z" fill="#ffcd00"/>
        <path id="Path_1280384" data-name="Path 1280384" d="M23.333,24.5h7v7h-7Z" fill="#ffcd00"/>
        <path id="Path_1280385" data-name="Path 1280385" d="M35,24.5h7v7H35Z" fill="#ffcd00"/>
        <path id="Path_1280386" data-name="Path 1280386" d="M46.667,24.5h7v7h-7Z" fill="#ffcd00"/>
        <path id="Path_1280387" data-name="Path 1280387" d="M11.667,36.167h7v7h-7Z" fill="#ffcd00"/>
        <path id="Path_1280388" data-name="Path 1280388" d="M23.333,36.167h7v7h-7Z" fill="#ffcd00"/>
        <path id="Path_1280389" data-name="Path 1280389" d="M11.667,47.833h7v7h-7Z" fill="#ffcd00"/>
        <path id="Path_1280390" data-name="Path 1280390" d="M23.333,47.833h7v7h-7Z" fill="#ffcd00"/>
        <path id="Path_1280391" data-name="Path 1280391" d="M35,36.167h7v7H35Z" fill="#ffcd00"/>
        <path id="Path_1280392" data-name="Path 1280392" d="M46.667,36.167h7v7h-7Z" fill="#ffcd00"/>
        <path id="Path_1280393" data-name="Path 1280393" d="M35,47.833h7v7H35Z" fill="#ffcd00"/>
        <path id="Path_1280394" data-name="Path 1280394" d="M17.5,5.833V10.5a2.333,2.333,0,0,1-4.667,0V5.833a2.333,2.333,0,0,1,4.667,0Z" fill="#ff9811"/>
        <path id="Path_1280395" data-name="Path 1280395" d="M52.5,5.833V10.5a2.333,2.333,0,0,1-4.667,0V5.833a2.333,2.333,0,0,1,4.667,0Z" fill="#ff9811"/>
        <rect id="Rectangle_425942" data-name="Rectangle 425942" width="28" height="25.667" rx="2.333" transform="translate(43.167 45.5)" fill="#5eac24"/>
        <path id="Path_1280396" data-name="Path 1280396" d="M47.833,40.833V45.5H52.5V40.833a4.667,4.667,0,1,1,9.333,0V45.5H66.5V40.833a9.333,9.333,0,1,0-18.667,0Z" fill="#ff9811"/>
        <path id="Path_1280397" data-name="Path 1280397" d="M57.167,50.167a4.667,4.667,0,0,0-2.333,8.7v5.3a2.333,2.333,0,1,0,4.667,0v-5.3a4.667,4.667,0,0,0-2.333-8.7Z" fill="#ed1c24"/>
        <g id="Group_1209344" data-name="Group 1209344">
          <path id="Path_1280398" data-name="Path 1280398" d="M18.667,23.333h-7A1.167,1.167,0,0,0,10.5,24.5v7a1.167,1.167,0,0,0,1.167,1.167h7A1.167,1.167,0,0,0,19.833,31.5v-7A1.167,1.167,0,0,0,18.667,23.333Zm-1.167,7H12.833V25.667H17.5Z" fill="#231f20"/>
          <path id="Path_1280399" data-name="Path 1280399" d="M30.333,23.333h-7A1.167,1.167,0,0,0,22.167,24.5v7a1.167,1.167,0,0,0,1.167,1.167h7A1.167,1.167,0,0,0,31.5,31.5v-7A1.167,1.167,0,0,0,30.333,23.333Zm-1.167,7H24.5V25.667h4.667Z" fill="#231f20"/>
          <path id="Path_1280400" data-name="Path 1280400" d="M35,32.667h7A1.167,1.167,0,0,0,43.167,31.5v-7A1.167,1.167,0,0,0,42,23.333H35A1.167,1.167,0,0,0,33.833,24.5v7A1.167,1.167,0,0,0,35,32.667Zm1.167-7h4.667v4.667H36.167Z" fill="#231f20"/>
          <path id="Path_1280401" data-name="Path 1280401" d="M35,44.333h7a1.167,1.167,0,0,0,1.167-1.167v-7A1.167,1.167,0,0,0,42,35H35a1.167,1.167,0,0,0-1.167,1.167v7A1.167,1.167,0,0,0,35,44.333Zm1.167-7h4.667V42H36.167Z" fill="#231f20"/>
          <path id="Path_1280402" data-name="Path 1280402" d="M39.667,49a1.167,1.167,0,0,0,0-2.333H35a1.167,1.167,0,0,0-1.167,1.167v7A1.167,1.167,0,0,0,35,56h4.667a1.167,1.167,0,1,0,0-2.333h-3.5V49Z" fill="#231f20"/>
          <path id="Path_1280403" data-name="Path 1280403" d="M18.667,35h-7A1.167,1.167,0,0,0,10.5,36.167v7a1.167,1.167,0,0,0,1.167,1.167h7a1.167,1.167,0,0,0,1.167-1.167v-7A1.167,1.167,0,0,0,18.667,35ZM17.5,42H12.833V37.333H17.5Z" fill="#231f20"/>
          <path id="Path_1280404" data-name="Path 1280404" d="M30.333,35h-7a1.167,1.167,0,0,0-1.167,1.167v7a1.167,1.167,0,0,0,1.167,1.167h7A1.167,1.167,0,0,0,31.5,43.167v-7A1.167,1.167,0,0,0,30.333,35Zm-1.167,7H24.5V37.333h4.667Z" fill="#231f20"/>
          <path id="Path_1280405" data-name="Path 1280405" d="M46.667,32.667A1.167,1.167,0,0,0,47.833,31.5V25.667H52.5V28a1.167,1.167,0,1,0,2.333,0V24.5a1.167,1.167,0,0,0-1.167-1.167h-7A1.167,1.167,0,0,0,45.5,24.5v7A1.167,1.167,0,0,0,46.667,32.667Z" fill="#231f20"/>
          <path id="Path_1280406" data-name="Path 1280406" d="M18.667,46.667h-7A1.167,1.167,0,0,0,10.5,47.833v7A1.167,1.167,0,0,0,11.667,56h7a1.167,1.167,0,0,0,1.167-1.167v-7A1.167,1.167,0,0,0,18.667,46.667Zm-1.167,7H12.833V49H17.5Z" fill="#231f20"/>
          <path id="Path_1280407" data-name="Path 1280407" d="M30.333,46.667h-7a1.167,1.167,0,0,0-1.167,1.167v7A1.167,1.167,0,0,0,23.333,56h7A1.167,1.167,0,0,0,31.5,54.833v-7A1.167,1.167,0,0,0,30.333,46.667Zm-1.167,7H24.5V49h4.667Z" fill="#231f20"/>
          <path id="Path_1280408" data-name="Path 1280408" d="M68.833,44.333H67.667v-3.5A10.512,10.512,0,0,0,63,32.107V10.5A3.51,3.51,0,0,0,59.5,7H53.667V5.833a3.5,3.5,0,0,0-7,0V7h-28V5.833a3.5,3.5,0,0,0-7,0V7H5.833a3.51,3.51,0,0,0-3.5,3.5v49a3.511,3.511,0,0,0,3.5,3.5H42v5.833a3.511,3.511,0,0,0,3.5,3.5H68.833a3.511,3.511,0,0,0,3.5-3.5v-21a3.511,3.511,0,0,0-3.5-3.5Zm-3.5-3.5v3.5H63v-3.5a5.833,5.833,0,1,0-11.667,0v3.5H49v-3.5a8.167,8.167,0,1,1,16.333,0Zm-4.667,0v3.5h-7v-3.5a3.5,3.5,0,0,1,7,0ZM49,5.833a1.167,1.167,0,1,1,2.333,0V10.5A1.167,1.167,0,1,1,49,10.5Zm-35,0a1.167,1.167,0,1,1,2.333,0V10.5A1.167,1.167,0,0,1,14,10.5ZM4.667,10.5A1.167,1.167,0,0,1,5.833,9.333h5.833V10.5a3.5,3.5,0,1,0,7,0V9.333h28V10.5a3.5,3.5,0,0,0,7,0V9.333H59.5A1.167,1.167,0,0,1,60.667,10.5v5.833h-56ZM42,47.833V60.667H5.833A1.167,1.167,0,0,1,4.667,59.5V18.667h56V30.952a10.273,10.273,0,0,0-3.5-.618,10.516,10.516,0,0,0-10.5,10.5v3.5H45.5A3.51,3.51,0,0,0,42,47.833Zm28,21A1.167,1.167,0,0,1,68.833,70H45.5a1.167,1.167,0,0,1-1.167-1.167v-21A1.167,1.167,0,0,1,45.5,46.667H68.833A1.167,1.167,0,0,1,70,47.833Z" fill="#231f20"/>
          <path id="Path_1280409" data-name="Path 1280409" d="M57.167,49a5.833,5.833,0,0,0-3.5,10.5v4.667a3.5,3.5,0,0,0,7,0V59.5a5.833,5.833,0,0,0-3.5-10.5Zm1.75,8.858a1.167,1.167,0,0,0-.583,1.011v5.3a1.167,1.167,0,0,1-2.333,0v-5.3a1.167,1.167,0,0,0-.583-1.011,3.5,3.5,0,1,1,3.5,0Z" fill="#231f20"/>
        </g>
      </g>
    </g>
  </g>
</svg>
