<svg xmlns="http://www.w3.org/2000/svg" xmlns:xlink="http://www.w3.org/1999/xlink" width="85" height="83.181" viewBox="0 0 85 83.181">
  <defs>
    <clipPath id="clip-path">
      <rect id="Rectangle_425692" data-name="Rectangle 425692" width="70" height="70" transform="translate(6755.375 -5372.991)" fill="#fff" stroke="#707070" stroke-width="1"/>
    </clipPath>
  </defs>
  <g id="Group_1209329" data-name="Group 1209329" transform="translate(-6740.375 5386.172)">
    <g id="Rectangle_425691" data-name="Rectangle 425691" transform="translate(6740.375 -5386.172)" fill="#e2dbf9" stroke="#b7a8f1" stroke-width="3">
      <rect width="70" height="70" rx="10" stroke="none"/>
      <rect x="1.5" y="1.5" width="67" height="67" rx="8.5" fill="none"/>
    </g>
    <g id="Mask_Group_1099398" data-name="Mask Group 1099398" clip-path="url(#clip-path)">
      <g id="backup-copy_3701865" transform="translate(6754.246 -5374.12)">
        <g id="Group_1209306" data-name="Group 1209306">
          <g id="Group_1209299" data-name="Group 1209299">
            <path id="Path_1280221" data-name="Path 1280221" d="M15.806,48.548l2.529,10.432L7.9,56.452l3.387-3.387Z" fill="#ff826e"/>
          </g>
          <g id="Group_1209300" data-name="Group 1209300">
            <path id="Path_1280222" data-name="Path 1280222" d="M10.161,40.645V20.323H46.29v4.516H42.9A2.265,2.265,0,0,0,40.645,27.1v9.032H33.871a4.515,4.515,0,0,0-4.516,4.516V42.9H12.419A2.265,2.265,0,0,1,10.161,40.645Z" fill="#ffeaa7"/>
          </g>
          <g id="Group_1209301" data-name="Group 1209301">
            <path id="Path_1280223" data-name="Path 1280223" d="M46.29,13.548v6.774H10.161V18.065a2.265,2.265,0,0,1,2.258-2.258H30.484l1.637-3.263a2.258,2.258,0,0,1,2.021-1.253h9.89A2.265,2.265,0,0,1,46.29,13.548Z" fill="#fcd770"/>
          </g>
          <g id="Group_1209302" data-name="Group 1209302">
            <path id="Path_1280224" data-name="Path 1280224" d="M41.774,65.484H57.581V70H41.774Z" fill="#aab2bd"/>
          </g>
          <g id="Group_1209303" data-name="Group 1209303">
            <path id="Path_1280225" data-name="Path 1280225" d="M70,56.452v4.516a4.515,4.515,0,0,1-4.516,4.516H33.871a4.515,4.515,0,0,1-4.516-4.516V56.452Z" fill="#ccd1d9"/>
          </g>
          <g id="Group_1209304" data-name="Group 1209304">
            <path id="Path_1280226" data-name="Path 1280226" d="M33.871,36.129H65.484A4.516,4.516,0,0,1,70,40.645V56.452H29.355V40.645A4.516,4.516,0,0,1,33.871,36.129Z" fill="#69d6f4"/>
          </g>
          <g id="Group_1209305" data-name="Group 1209305">
            <path id="Path_1280227" data-name="Path 1280227" d="M40.645,36.129V27.1A2.265,2.265,0,0,1,42.9,24.839H56.452A2.265,2.265,0,0,1,58.71,27.1V49.677a2.265,2.265,0,0,1-2.258,2.258H42.9a2.265,2.265,0,0,1-2.258-2.258Z" fill="#e6e9ed"/>
          </g>
        </g>
        <g id="Group_1209307" data-name="Group 1209307">
          <path id="Path_1280228" data-name="Path 1280228" d="M65.484,35H59.839V27.1a3.391,3.391,0,0,0-3.387-3.387H47.419V13.548a3.391,3.391,0,0,0-3.387-3.387H34.137a3.369,3.369,0,0,0-3.029,1.872l-1.322,2.644H12.419a3.391,3.391,0,0,0-3.387,3.387V40.645a3.391,3.391,0,0,0,3.387,3.387H28.226V60.968a5.652,5.652,0,0,0,5.645,5.645h6.774v2.258H36.129v2.258h27.1V68.871H58.71V66.613h6.774a5.652,5.652,0,0,0,5.645-5.645V40.645A5.652,5.652,0,0,0,65.484,35Zm0,2.258a3.391,3.391,0,0,1,3.387,3.387V55.323H30.484V40.645a3.391,3.391,0,0,1,3.387-3.387h5.645V49.677A3.391,3.391,0,0,0,42.9,53.065H56.452a3.391,3.391,0,0,0,3.387-3.387V37.258ZM57.581,27.1V49.677a1.13,1.13,0,0,1-1.129,1.129H42.9a1.13,1.13,0,0,1-1.129-1.129V27.1A1.131,1.131,0,0,1,42.9,25.968H56.452A1.131,1.131,0,0,1,57.581,27.1ZM12.419,16.935H31.182l1.946-3.892a1.122,1.122,0,0,1,1.009-.624h9.895a1.131,1.131,0,0,1,1.129,1.129v5.645H11.29V18.065A1.131,1.131,0,0,1,12.419,16.935Zm0,24.839a1.13,1.13,0,0,1-1.129-1.129V21.452H45.161V23.71H42.9A3.391,3.391,0,0,0,39.516,27.1V35H33.871a5.652,5.652,0,0,0-5.645,5.645v1.129Zm44.032,27.1H42.9V66.613H56.452Zm9.032-4.516H33.871a3.391,3.391,0,0,1-3.387-3.387V57.581H68.871v3.387A3.391,3.391,0,0,1,65.484,64.355Z"/>
          <circle id="Ellipse_12698" data-name="Ellipse 12698" cx="1.129" cy="1.129" r="1.129" transform="translate(64.355 59.839)"/>
          <circle id="Ellipse_12699" data-name="Ellipse 12699" cx="1.129" cy="1.129" r="1.129" transform="translate(59.839 59.839)"/>
          <path id="Path_1280229" data-name="Path 1280229" d="M44.032,28.226h11.29v2.258H44.032Z"/>
          <path id="Path_1280230" data-name="Path 1280230" d="M44.032,32.742h11.29V35H44.032Z"/>
          <path id="Path_1280231" data-name="Path 1280231" d="M44.032,37.258h11.29v2.258H44.032Z"/>
          <path id="Path_1280232" data-name="Path 1280232" d="M44.032,41.774h11.29v2.258H44.032Z"/>
          <path id="Path_1280233" data-name="Path 1280233" d="M44.032,46.29h11.29v2.258H44.032Z"/>
          <path id="Path_1280234" data-name="Path 1280234" d="M33.871,14.677H42.9v2.258H33.871Z"/>
          <path id="Path_1280235" data-name="Path 1280235" d="M11.286,51.473a27.983,27.983,0,0,1-7.9-19.86,28.23,28.23,0,0,1,53.1-13.347L58.479,17.2A30.488,30.488,0,0,0,1.129,31.613a30.214,30.214,0,0,0,8.56,21.456L5.684,57.075l14.192,3.441L16.43,46.33Zm-1.163,4.356,5.06-5.06,1.624,6.68Z"/>
          <path id="Path_1280236" data-name="Path 1280236" d="M58.1,21.842l2.119-.78q-.359-.972-.781-1.913l-2.059.925q.39.867.721,1.768Z"/>
          <path id="Path_1280237" data-name="Path 1280237" d="M22.581,37.258h2.258v2.258H22.581Z"/>
          <path id="Path_1280238" data-name="Path 1280238" d="M13.548,37.258h6.774v2.258H13.548Z"/>
          <path id="Path_1280239" data-name="Path 1280239" d="M13.548,32.742h11.29V35H13.548Z"/>
        </g>
      </g>
    </g>
  </g>
</svg>
