<svg xmlns="http://www.w3.org/2000/svg" xmlns:xlink="http://www.w3.org/1999/xlink" width="85" height="83.181" viewBox="0 0 85 83.181">
  <defs>
    <clipPath id="clip-path">
      <rect id="Rectangle_410687" data-name="Rectangle 410687" width="70" height="70" transform="translate(825 642.706)" fill="#fff" stroke="#707070" stroke-width="1"/>
    </clipPath>
  </defs>
  <g id="Group_1209181" data-name="Group 1209181" transform="translate(-810 -629.525)">
    <g id="Rectangle_410686" data-name="Rectangle 410686" transform="translate(810 629.525)" fill="#e2dbf9" stroke="#b7a8f1" stroke-width="3">
      <rect width="70" height="70" rx="10" stroke="none"/>
      <rect x="1.5" y="1.5" width="67" height="67" rx="8.5" fill="none"/>
    </g>
    <g id="Mask_Group_1099371" data-name="Mask Group 1099371" clip-path="url(#clip-path)">
      <g id="quality-control_4365459" transform="translate(825 642.706)">
        <g id="Group_1209179" data-name="Group 1209179">
          <g id="Group_1209170" data-name="Group 1209170">
            <path id="Path_1279751" data-name="Path 1279751" d="M49.079,48.548h1.727v6.774A6.741,6.741,0,0,0,46.29,57.05v-8.5l.023-.192A18.878,18.878,0,0,0,49.079,48.548Z" fill="#cf9e76"/>
          </g>
          <g id="Group_1209171" data-name="Group 1209171">
            <path id="Path_1279752" data-name="Path 1279752" d="M46.844,25.968c-.181,0-.373.011-.553.023V7.9H35V3.387H49.677a1.132,1.132,0,0,1,1.129,1.129v21.3l-2.36.147Z" fill="#cf9e76"/>
          </g>
          <g id="Group_1209172" data-name="Group 1209172">
            <path id="Path_1279753" data-name="Path 1279753" d="M44.416,64.355a6.778,6.778,0,0,0,6.39,4.516H2.258a1.132,1.132,0,0,1-1.129-1.129V4.516A1.132,1.132,0,0,1,2.258,3.387H16.935V7.9H5.645V64.355H44.416Z" fill="#cf9e76"/>
          </g>
          <g id="Group_1209173" data-name="Group 1209173">
            <path id="Path_1279754" data-name="Path 1279754" d="M39.629,20.571c.011.011.023.011.045.023a3.8,3.8,0,0,0,4.166-.824L45.511,18.1l.779.779V7.9H5.645V64.355H44.416a6.787,6.787,0,0,1,1.874-7.3V55.6l-.779.813L43.84,54.747a3.8,3.8,0,0,0-4.166-.824c-.023.011-.034.011-.045.023a3.811,3.811,0,0,0-2.371,3.534v2.36H28.226v-2.36a3.811,3.811,0,0,0-2.371-3.534c-.011-.011-.023-.011-.045-.023a3.8,3.8,0,0,0-4.166.824l-1.671,1.671-6.39-6.39,1.671-1.671a3.8,3.8,0,0,0,.824-4.166c-.011-.023-.011-.034-.023-.045a3.811,3.811,0,0,0-3.534-2.371h-2.36V32.742h2.36a3.811,3.811,0,0,0,3.534-2.371c.011-.011.011-.023.023-.045a3.8,3.8,0,0,0-.824-4.166l-1.671-1.671,6.39-6.39,1.671,1.671a3.8,3.8,0,0,0,4.166.824c.023-.011.034-.011.045-.023a3.811,3.811,0,0,0,2.371-3.534v-2.36h9.032v2.36a3.811,3.811,0,0,0,2.371,3.534Z" fill="#e6e9ed"/>
          </g>
          <g id="Group_1209174" data-name="Group 1209174">
            <path id="Path_1279755" data-name="Path 1279755" d="M43.84,19.769,45.511,18.1l.779.779V25.99a6.691,6.691,0,0,0-3.952,1.694l-.011-.011a13.56,13.56,0,1,0-.485,19.611h.011a19.614,19.614,0,0,0,4.46,1.073l-.023.192V55.6l-.779.813L43.84,54.747a3.8,3.8,0,0,0-4.166-.824c-.023.011-.034.011-.045.023a3.811,3.811,0,0,0-2.371,3.534v2.36H28.226v-2.36a3.811,3.811,0,0,0-2.371-3.534c-.011-.011-.023-.011-.045-.023a3.8,3.8,0,0,0-4.166.824l-1.671,1.671-6.39-6.39,1.671-1.671a3.8,3.8,0,0,0,.824-4.166c-.011-.023-.011-.034-.023-.045a3.811,3.811,0,0,0-3.534-2.371h-2.36V32.742h2.36a3.811,3.811,0,0,0,3.534-2.371c.011-.011.011-.023.023-.045a3.8,3.8,0,0,0-.824-4.166l-1.671-1.671,6.39-6.39,1.671,1.671a3.8,3.8,0,0,0,4.166.824c.023-.011.034-.011.045-.023a3.811,3.811,0,0,0,2.371-3.534v-2.36h9.032v2.36a3.811,3.811,0,0,0,2.371,3.534c.011.011.023.011.045.023a3.8,3.8,0,0,0,4.166-.824Z" fill="#fcd770"/>
          </g>
          <g id="Group_1209175" data-name="Group 1209175">
            <path id="Path_1279756" data-name="Path 1279756" d="M39.516,30.484V46.29H22.637A13.583,13.583,0,0,1,21,30.484H39.516Z" fill="#4fc1e9"/>
          </g>
          <g id="Group_1209176" data-name="Group 1209176">
            <path id="Path_1279757" data-name="Path 1279757" d="M64.355,35h2.258a2.274,2.274,0,0,1,2.258,2.258,2.265,2.265,0,0,1-2.258,2.258H64.355a2.274,2.274,0,0,1,2.258,2.258,2.265,2.265,0,0,1-2.258,2.258H62.1a2.265,2.265,0,0,1,2.258,2.258A2.274,2.274,0,0,1,62.1,48.548H49.079a18.878,18.878,0,0,1-2.766-.192,19.614,19.614,0,0,1-4.46-1.073h-.011a19.993,19.993,0,0,1-2.326-.994V30.484l2.529-2.529c.09-.09.192-.181.294-.271A6.691,6.691,0,0,1,46.29,25.99c.181-.011.373-.023.553-.023h1.6l2.36-.147A19.635,19.635,0,0,0,57.2,23.9a1.827,1.827,0,0,1,2.642,1.637,4.944,4.944,0,0,1-4.945,4.945h9.461a2.274,2.274,0,0,1,2.258,2.258A2.265,2.265,0,0,1,64.355,35Z" fill="#f0d0b4"/>
          </g>
          <g id="Group_1209177" data-name="Group 1209177">
            <path id="Path_1279758" data-name="Path 1279758" d="M50.806,55.323A6.779,6.779,0,1,1,46.29,57.05,6.78,6.78,0,0,1,50.806,55.323Z" fill="#ff826e"/>
          </g>
          <g id="Group_1209178" data-name="Group 1209178">
            <path id="Path_1279759" data-name="Path 1279759" d="M35,3.387V7.9H16.935V2.258a1.132,1.132,0,0,1,1.129-1.129H33.871A1.132,1.132,0,0,1,35,2.258Z" fill="#b4dd7f"/>
          </g>
        </g>
        <g id="Group_1209180" data-name="Group 1209180">
          <path id="Path_1279760" data-name="Path 1279760" d="M70,37.258A3.381,3.381,0,0,0,67.494,34a3.376,3.376,0,0,0-3.139-4.647H59.579a6.014,6.014,0,0,0,1.389-3.818,2.957,2.957,0,0,0-4.278-2.644,18.426,18.426,0,0,1-4.754,1.582V4.516a2.26,2.26,0,0,0-2.258-2.258H36.129A2.26,2.26,0,0,0,33.871,0H18.065a2.26,2.26,0,0,0-2.258,2.258H2.258A2.26,2.26,0,0,0,0,4.516V67.742A2.26,2.26,0,0,0,2.258,70H50.806a7.9,7.9,0,0,0,1.129-15.716V49.677H62.1a3.376,3.376,0,0,0,3.139-4.647,3.358,3.358,0,0,0,2.258-4.516A3.382,3.382,0,0,0,70,37.258ZM49.677,4.516v20.25c-.41.028-.82.072-1.231.072H47.419V6.774H36.129V4.516Zm-27.984,27.1H38.387V45.161H23.169a12.361,12.361,0,0,1-1.476-13.548ZM39.254,47.419c.121.059.245.108.367.165a12.35,12.35,0,0,1-14-.165Zm-.205-18.065H23.169a12.4,12.4,0,0,1,17.518-1.638Zm3.337-3.141a14.678,14.678,0,1,0-.295,22.339,22.836,22.836,0,0,0,3.07.775v5.14l-.519-.519a5,5,0,0,0-8.513,3.526V58.71H29.355V57.475a5,5,0,0,0-8.513-3.526l-.873.873-4.79-4.79.873-.873a5,5,0,0,0-3.526-8.513H11.29V33.871h1.235a5,5,0,0,0,3.526-8.513l-.873-.873,4.79-4.79.873.873a5,5,0,0,0,8.513-3.526V15.806h6.774v1.235a5,5,0,0,0,8.513,3.526l.519-.519v4.973a7.8,7.8,0,0,0-2.775,1.192Zm.607,37.012H24.839V60.968H22.581v2.258H20.323V58.71H18.065v4.516H15.806V56.452H13.548v6.774H11.29V54.194H9.032v9.032H6.774V9.032H45.161v7.823l-2.116,2.116a2.744,2.744,0,0,1-4.658-1.93V13.548H27.1v3.493a2.743,2.743,0,0,1-4.657,1.93l-2.47-2.47-7.983,7.983,2.47,2.47a2.744,2.744,0,0,1-1.931,4.658H9.032V42.9h3.493a2.743,2.743,0,0,1,1.93,4.657l-2.47,2.47,7.983,7.983,2.47-2.47A2.744,2.744,0,0,1,27.1,57.475v3.493h11.29V57.475a2.743,2.743,0,0,1,4.657-1.93L44.65,57.15a7.734,7.734,0,0,0-1.656,6.075ZM33.871,2.258V6.774H18.065V2.258ZM2.258,67.742V4.516H15.806V6.774H4.516v58.71h39.16a7.922,7.922,0,0,0,1.61,2.258ZM56.452,62.1a5.645,5.645,0,1,1-5.645-5.645A5.652,5.652,0,0,1,56.452,62.1Zm-6.774-7.813a7.833,7.833,0,0,0-2.258.683v-5.36c.553.042,1.108.07,1.662.07h.6Zm16.935-15.9H54.194v2.258H64.355a1.129,1.129,0,1,1,0,2.258H54.194v2.258h7.9a1.129,1.129,0,1,1,0,2.258H49.081a20.367,20.367,0,0,1-8.436-1.849V30.951l2.2-2.2A5.61,5.61,0,0,1,46.838,27.1h1.609A20.781,20.781,0,0,0,57.7,24.912a.719.719,0,0,1,1.01.624,3.823,3.823,0,0,1-3.818,3.818H49.677v2.258H64.355a1.129,1.129,0,1,1,0,2.258H54.194v2.258H66.613a1.129,1.129,0,1,1,0,2.258Z"/>
          <circle id="Ellipse_12667" data-name="Ellipse 12667" cx="1.129" cy="1.129" r="1.129" transform="translate(31.613 18.065)"/>
          <path id="Path_1279761" data-name="Path 1279761" d="M19.968,23.355a1.129,1.129,0,1,0,.8.331A1.126,1.126,0,0,0,19.968,23.355Z"/>
          <circle id="Ellipse_12668" data-name="Ellipse 12668" cx="1.129" cy="1.129" r="1.129" transform="translate(13.548 36.129)"/>
          <path id="Path_1279762" data-name="Path 1279762" d="M19.968,51.161a1.129,1.129,0,1,0-.8-.331A1.126,1.126,0,0,0,19.968,51.161Z"/>
          <circle id="Ellipse_12669" data-name="Ellipse 12669" cx="1.129" cy="1.129" r="1.129" transform="translate(31.613 54.194)"/>
          <path id="Path_1279763" data-name="Path 1279763" d="M48.218,61.3l-1.6,1.6,3.056,3.056,5.314-5.314-1.6-1.6-3.718,3.718Z"/>
          <path id="Path_1279764" data-name="Path 1279764" d="M9.032,11.29H11.29v2.258H9.032Z"/>
          <path id="Path_1279765" data-name="Path 1279765" d="M13.548,11.29h6.774v2.258H13.548Z"/>
          <path id="Path_1279766" data-name="Path 1279766" d="M9.032,15.806h6.774v2.258H9.032Z"/>
        </g>
      </g>
    </g>
  </g>
</svg>
