<svg xmlns="http://www.w3.org/2000/svg" xmlns:xlink="http://www.w3.org/1999/xlink" width="85" height="83.181" viewBox="0 0 85 83.181">
  <defs>
    <clipPath id="clip-path">
      <rect id="Rectangle_410784" data-name="Rectangle 410784" width="70" height="70" transform="translate(405 9009.017)" fill="#fff" stroke="#707070" stroke-width="1"/>
    </clipPath>
  </defs>
  <g id="Group_1209193" data-name="Group 1209193" transform="translate(-390 -8995.836)">
    <g id="Rectangle_410783" data-name="Rectangle 410783" transform="translate(390 8995.836)" fill="#e2dbf9" stroke="#b7a8f1" stroke-width="3">
      <rect width="70" height="70" rx="10" stroke="none"/>
      <rect x="1.5" y="1.5" width="67" height="67" rx="8.5" fill="none"/>
    </g>
    <g id="Mask_Group_1099379" data-name="Mask Group 1099379" clip-path="url(#clip-path)">
      <g id="calendar_3775604" transform="translate(403.872 9007.89)">
        <path id="Path_1279869" data-name="Path 1279869" d="M58.707,12.419V70H13.548V2.258h35Z" fill="#9d9e9d"/>
        <path id="Path_1279870" data-name="Path 1279870" d="M15.806,2.258V22.58a45.159,45.159,0,0,0,42.9,45.1V12.419L48.546,2.258Z" fill="#bcbdbc"/>
        <path id="Path_1279871" data-name="Path 1279871" d="M49.675,37.256a3.387,3.387,0,0,0-3.387-3.387H5.645a3.387,3.387,0,0,0-3.387,3.387V66.61A3.387,3.387,0,0,0,5.645,70H46.288a3.387,3.387,0,0,0,3.387-3.387Z" fill="#1a489c"/>
        <path id="Path_1279872" data-name="Path 1279872" d="M46.288,33.869H5.645a3.325,3.325,0,0,0-1.038.18,36.127,36.127,0,0,0,36.036,33.69h8.824a3.344,3.344,0,0,0,.208-1.129V37.256A3.387,3.387,0,0,0,46.288,33.869Z" fill="#2b66b9"/>
        <path id="Path_1279873" data-name="Path 1279873" d="M5.645,41.772H46.288V66.61H5.645Z" fill="#37c"/>
        <path id="Path_1279874" data-name="Path 1279874" d="M46.288,41.772H5.984A36.177,36.177,0,0,0,31.673,66.61H46.288Z" fill="#3e88de"/>
        <rect id="Rectangle_425933" data-name="Rectangle 425933" width="4.516" height="6.774" rx="2.258" transform="translate(7.903 30.482)" fill="#747574"/>
        <path id="Path_1279875" data-name="Path 1279875" d="M10.161,46.288h4.516V50.8H10.161Z" fill="#9d9e9d"/>
        <path id="Path_1279876" data-name="Path 1279876" d="M10.161,57.578h4.516v4.516H10.161Z" fill="#747574"/>
        <path id="Path_1279877" data-name="Path 1279877" d="M19.193,46.288h4.516V50.8H19.193Z" fill="#9d9e9d"/>
        <path id="Path_1279878" data-name="Path 1279878" d="M19.193,57.578h4.516v4.516H19.193Z" fill="#747574"/>
        <g id="Group_1209191" data-name="Group 1209191">
          <path id="Path_1279879" data-name="Path 1279879" d="M28.224,46.288H32.74V50.8H28.224Z" fill="#9d9e9d"/>
          <path id="Path_1279880" data-name="Path 1279880" d="M28.224,57.578H32.74v4.516H28.224Z" fill="#9d9e9d"/>
          <path id="Path_1279881" data-name="Path 1279881" d="M37.256,46.288h4.516V50.8H37.256Z" fill="#9d9e9d"/>
          <path id="Path_1279882" data-name="Path 1279882" d="M37.256,57.578h4.516v4.516H37.256Z" fill="#9d9e9d"/>
        </g>
        <path id="Path_1279883" data-name="Path 1279883" d="M58.707,12.419H48.546V2.258Z" fill="#747574"/>
        <path id="Path_1279884" data-name="Path 1279884" d="M19.193,60.665c.677.5,1.375.974,2.086,1.428h2.43V57.578H19.193Z" fill="#9d9e9d"/>
        <path id="Path_1279885" data-name="Path 1279885" d="M10.161,30.482a2.247,2.247,0,0,0-.926.2,2.247,2.247,0,0,0-.2.926v2.258a2.249,2.249,0,0,0,3.184,2.055,2.247,2.247,0,0,0,.2-.926V32.74A2.258,2.258,0,0,0,10.161,30.482Z" fill="#9d9e9d"/>
        <rect id="Rectangle_425934" data-name="Rectangle 425934" width="4.516" height="6.774" rx="2.258" transform="translate(39.514 30.482)" fill="#747574"/>
        <path id="Path_1279886" data-name="Path 1279886" d="M41.772,30.482a2.247,2.247,0,0,0-.926.2,2.247,2.247,0,0,0-.2.926v2.258a2.249,2.249,0,0,0,3.184,2.055,2.247,2.247,0,0,0,.2-.926V32.74A2.258,2.258,0,0,0,41.772,30.482Z" fill="#9d9e9d"/>
        <circle id="Ellipse_12674" data-name="Ellipse 12674" cx="20.322" cy="20.322" r="20.322" transform="translate(29.353 29.353)" fill="#eeab45"/>
        <path id="Path_1279887" data-name="Path 1279887" d="M49.675,29.353a20.232,20.232,0,0,0-7.659,1.505A20.313,20.313,0,0,0,64.107,63.976,20.322,20.322,0,0,0,49.675,29.353Z" fill="#f3c350"/>
        <circle id="Ellipse_12675" data-name="Ellipse 12675" cx="16.935" cy="16.935" r="16.935" transform="translate(32.74 32.74)" fill="#fce95f"/>
        <path id="Path_1279888" data-name="Path 1279888" d="M55.8,65.448A16.926,16.926,0,1,0,37.465,37.96,20.257,20.257,0,0,0,55.8,65.448Z" fill="#fcef88"/>
        <g id="Group_1209192" data-name="Group 1209192">
          <path id="Path_1279889" data-name="Path 1279889" d="M50.8,37.256V32.8c-.375-.024-.747-.056-1.129-.056s-.754.033-1.129.056v4.459Z" fill="#747574"/>
          <path id="Path_1279890" data-name="Path 1279890" d="M48.546,62.094v4.459c.375.024.747.056,1.129.056s.754-.033,1.129-.056V62.094Z" fill="#747574"/>
          <path id="Path_1279891" data-name="Path 1279891" d="M62.094,50.8h4.459c.024-.375.056-.747.056-1.129s-.033-.754-.056-1.129H62.094Z" fill="#747574"/>
          <path id="Path_1279892" data-name="Path 1279892" d="M37.256,49.675H32.74a16.923,16.923,0,0,0,.168,2.258h4.348Z" fill="#747574"/>
          <path id="Path_1279893" data-name="Path 1279893" d="M40.312,38.716,38.536,36.94a17.182,17.182,0,0,0-1.6,1.6l1.776,1.776Z" fill="#747574"/>
          <path id="Path_1279894" data-name="Path 1279894" d="M60.634,40.312l1.776-1.776a17.18,17.18,0,0,0-1.6-1.6l-1.776,1.776Z" fill="#747574"/>
          <path id="Path_1279895" data-name="Path 1279895" d="M59.038,60.634l1.776,1.776a17.18,17.18,0,0,0,1.6-1.6l-1.776-1.776Z" fill="#747574"/>
          <path id="Path_1279896" data-name="Path 1279896" d="M38.716,59.038,36.94,60.813a17.181,17.181,0,0,0,1.6,1.6l1.776-1.776Z" fill="#747574"/>
        </g>
        <path id="Path_1279897" data-name="Path 1279897" d="M49.675,31.611A18.064,18.064,0,1,0,67.739,49.675,18.064,18.064,0,0,0,49.675,31.611ZM37.744,39.34l.972.972,1.6-1.6-.972-.972a15.714,15.714,0,0,1,9.206-3.817v3.329H50.8V33.927a15.714,15.714,0,0,1,9.206,3.817l-.972.972,1.6,1.6.972-.972a15.714,15.714,0,0,1,3.817,9.206H62.094V50.8h3.329a15.714,15.714,0,0,1-3.817,9.206l-.972-.972-1.6,1.6.972.972A15.714,15.714,0,0,1,50.8,65.423V62.094H48.546v3.329a15.714,15.714,0,0,1-9.206-3.817l.972-.972-1.6-1.6-.972.972a15.73,15.73,0,0,1-3.694-8.077h3.206V49.675H33.869A15.718,15.718,0,0,1,37.744,39.34Z"/>
        <path id="Path_1279898" data-name="Path 1279898" d="M59.836,30.791V12.419a1.129,1.129,0,0,0-.331-.8L49.344,1.46a1.129,1.129,0,0,0-.8-.331h-35a1.129,1.129,0,0,0-1.129,1.129V30.234A3.372,3.372,0,0,0,6.774,32.74H5.645a4.516,4.516,0,0,0-4.516,4.516V66.61a4.516,4.516,0,0,0,4.516,4.516H46.288a4.468,4.468,0,0,0,1.045-.134,21.443,21.443,0,0,0,12.5-40.2ZM49.675,4.983l6.306,6.306H49.675Zm-2.258-1.6v9.032a1.129,1.129,0,0,0,1.129,1.129h9.032v16.2a21.273,21.273,0,0,0-21.02,2.988H14.677V3.387ZM9.032,32.74a1.129,1.129,0,0,1,2.258,0V35a1.129,1.129,0,0,1-2.258,0ZM5.645,68.867A2.258,2.258,0,0,1,3.387,66.61V37.256A2.258,2.258,0,0,1,5.645,35H6.774a3.387,3.387,0,0,0,6.774,0H34.075a21.507,21.507,0,0,0-3.829,5.645H5.645a1.129,1.129,0,0,0-1.129,1.129V66.61a1.129,1.129,0,0,0,1.129,1.129H38.153a21.565,21.565,0,0,0,2,1.129ZM29.353,58.707h.892a21.37,21.37,0,0,0,1.21,2.233l-2.1.025Zm-.641-13.548h-.488A1.129,1.129,0,0,0,27.1,46.288V50.8a1.129,1.129,0,0,0,1.129,1.129h.121a21.33,21.33,0,0,0,.992,4.516H28.224A1.129,1.129,0,0,0,27.1,57.578v4.516a1.129,1.129,0,0,0,1.129,1.129H32.74a1.1,1.1,0,0,0,.28-.056,21.669,21.669,0,0,0,2.2,2.314H6.774V42.9H29.338a21.3,21.3,0,0,0-.625,2.258ZM49.675,68.867A19.193,19.193,0,1,1,68.867,49.675,19.193,19.193,0,0,1,49.675,68.867Z"/>
        <path id="Path_1279899" data-name="Path 1279899" d="M10.161,51.933h4.516A1.129,1.129,0,0,0,15.806,50.8V46.288a1.129,1.129,0,0,0-1.129-1.129H10.161a1.129,1.129,0,0,0-1.129,1.129V50.8A1.129,1.129,0,0,0,10.161,51.933Zm1.129-4.516h2.258v2.258H11.29Z"/>
        <path id="Path_1279900" data-name="Path 1279900" d="M10.161,63.223h4.516a1.129,1.129,0,0,0,1.129-1.129V57.578a1.129,1.129,0,0,0-1.129-1.129H10.161a1.129,1.129,0,0,0-1.129,1.129v4.516A1.129,1.129,0,0,0,10.161,63.223Zm1.129-4.516h2.258v2.258H11.29Z"/>
        <path id="Path_1279901" data-name="Path 1279901" d="M19.193,51.933h4.516A1.129,1.129,0,0,0,24.837,50.8V46.288a1.129,1.129,0,0,0-1.129-1.129H19.193a1.129,1.129,0,0,0-1.129,1.129V50.8A1.129,1.129,0,0,0,19.193,51.933Zm1.129-4.516H22.58v2.258H20.322Z"/>
        <path id="Path_1279902" data-name="Path 1279902" d="M19.193,63.223h4.516a1.129,1.129,0,0,0,1.129-1.129V57.578a1.129,1.129,0,0,0-1.129-1.129H19.193a1.129,1.129,0,0,0-1.129,1.129v4.516A1.129,1.129,0,0,0,19.193,63.223Zm1.129-4.516H22.58v2.258H20.322Z"/>
        <path id="Path_1279903" data-name="Path 1279903" d="M22.58,7.9h22.58v2.258H22.58Z"/>
        <path id="Path_1279904" data-name="Path 1279904" d="M18.064,14.677H46.288v2.258H18.064Z"/>
        <path id="Path_1279905" data-name="Path 1279905" d="M48.546,14.677h5.645v2.258H48.546Z"/>
        <path id="Path_1279906" data-name="Path 1279906" d="M18.064,21.451h6.774v2.258H18.064Z"/>
        <path id="Path_1279907" data-name="Path 1279907" d="M27.1,21.451h2.258v2.258H27.1Z"/>
        <path id="Path_1279908" data-name="Path 1279908" d="M31.611,21.451H51.933v2.258H31.611Z"/>
        <path id="Path_1279909" data-name="Path 1279909" d="M18.064,28.224h2.258v2.258H18.064Z"/>
        <path id="Path_1279910" data-name="Path 1279910" d="M22.58,28.224H36.127v2.258H22.58Z"/>
        <path id="Path_1279911" data-name="Path 1279911" d="M55.32,51.933v1.791l-2.589-2.589-.029.029a3.343,3.343,0,0,0,.36-1.489A3.387,3.387,0,0,0,50.8,46.5V41.111l1.46,1.46,1.6-1.6-3.387-3.387a1.129,1.129,0,0,0-1.6,0L45.49,40.974l1.6,1.6,1.46-1.46V46.5a3.379,3.379,0,0,0,1.129,6.566,3.343,3.343,0,0,0,1.489-.36l-.029.029,2.589,2.589H51.933v2.258h4.516a1.129,1.129,0,0,0,1.129-1.129V51.933ZM49.675,50.8A1.129,1.129,0,1,1,50.8,49.675,1.129,1.129,0,0,1,49.675,50.8Z"/>
      </g>
    </g>
  </g>
</svg>
