<svg xmlns="http://www.w3.org/2000/svg" xmlns:xlink="http://www.w3.org/1999/xlink" width="85" height="83.181" viewBox="0 0 85 83.181">
  <defs>
    <clipPath id="clip-path">
      <rect id="Rectangle_410799" data-name="Rectangle 410799" width="70" height="70" transform="translate(-6640.051 -2611.311)" fill="#fff" stroke="#707070" stroke-width="1"/>
    </clipPath>
  </defs>
  <g id="Group_1209196" data-name="Group 1209196" transform="translate(6655.051 2624.491)">
    <g id="Rectangle_410798" data-name="Rectangle 410798" transform="translate(-6655.051 -2624.491)" fill="#e2dbf9" stroke="#b7a8f1" stroke-width="3">
      <rect width="70" height="70" rx="10" stroke="none"/>
      <rect x="1.5" y="1.5" width="67" height="67" rx="8.5" fill="none"/>
    </g>
    <g id="Mask_Group_1099376" data-name="Mask Group 1099376" clip-path="url(#clip-path)">
      <g id="review_17977718" transform="translate(-6640.466 -2611.725)">
        <path id="Path_1279830" data-name="Path 1279830" d="M58.929,8.083V43.337H33.965A6.58,6.58,0,0,1,27.4,36.776V6.657a5.151,5.151,0,0,0-5.136-5.136h30.1a6.58,6.58,0,0,1,6.561,6.561Z" fill="#eceff1" fill-rule="evenodd"/>
        <path id="Path_1279831" data-name="Path 1279831" d="M69.31,36.776a6.58,6.58,0,0,1-6.561,6.561H33.965a6.58,6.58,0,0,0,6.561-6.561Z" fill="#c3c3c9" fill-rule="evenodd"/>
        <path id="Path_1279832" data-name="Path 1279832" d="M22.269,1.522a5.151,5.151,0,0,0-5.136,5.136V8.193H27.4V6.657a5.151,5.151,0,0,0-5.136-5.136Z" fill="#c3c3c9" fill-rule="evenodd"/>
        <circle id="Ellipse_12673" data-name="Ellipse 12673" cx="18.547" cy="18.547" r="18.547" transform="translate(1.523 32.213)" fill="#f0e3df"/>
        <g id="Group_1209188" data-name="Group 1209188">
          <path id="Path_1279833" data-name="Path 1279833" d="M45.922,56.21,45.9,68.117c.206.012.931.043,1.113.064,1.455.17,2.245.593,3.661.851,2.384.434,9.115.553,10.827-1.159,1.275-1.328,2.483-8.233,2.23-9.933-.277-1.859-.45-2.856-5.091-2.739H56.6c.289-2.244,1.257-9.778-3.42-9.253a.716.716,0,0,0-.633.771c.461,5.467-.569,8.472-5.7,9.392C46.709,56.137,46.07,56.187,45.922,56.21Z" fill="#f0e3df" fill-rule="evenodd"/>
          <path id="Path_1279834" data-name="Path 1279834" d="M46.434,56.378a.969.969,0,0,0-.966-.966H42.625a.969.969,0,0,0-.966.966V68.13a.969.969,0,0,0,.966.966h2.843a.969.969,0,0,0,.966-.966Z" fill="#85caff" fill-rule="evenodd"/>
          <path id="Path_1279835" data-name="Path 1279835" d="M17,51.714a5.62,5.62,0,0,1-11.24,0Z" fill="#9b827a" fill-rule="evenodd"/>
          <path id="Path_1279836" data-name="Path 1279836" d="M34.378,47.094a5.62,5.62,0,0,1-11.24,0Z" fill="#9b827a" fill-rule="evenodd"/>
          <path id="Path_1279837" data-name="Path 1279837" d="M60.712,67.1c-1.245,1.218-7.273,1.313-9.837.846a14.494,14.494,0,0,1-1.5-.374,13.794,13.794,0,0,0-1.837-.435V57.1c5.527-1.19,6.519-4.89,6.144-10.071a1.48,1.48,0,0,1,1.11.44c.992,1.007,1.231,3.561.712,7.591a1.106,1.106,0,0,0,1.1,1.248H58.64a.128.128,0,0,0,.028,0c1.869-.045,3.05.1,3.514.426.256.181.33.52.456,1.371.236,1.589-1.034,8.036-1.926,8.994Zm-15.386.891H42.766V56.519h2.561ZM63.463,54.928c-.92-.654-2.322-.9-4.836-.833h-.784c.287-2.9.282-6.394-1.472-8.177a3.839,3.839,0,0,0-3.314-1.069,1.814,1.814,0,0,0-1.611,1.964c.452,5.351-.606,7.375-4.469,8.149a2.063,2.063,0,0,0-1.509-.657H42.624a2.075,2.075,0,0,0-2.072,2.072V68.131A2.075,2.075,0,0,0,42.624,70.2h2.843a2.071,2.071,0,0,0,1.7-.886,11.77,11.77,0,0,1,1.6.379,16.355,16.355,0,0,0,1.715.424,27.517,27.517,0,0,0,4.228.291c2.841,0,6.194-.369,7.58-1.756l.017-.017c1.681-1.753,2.785-9.128,2.526-10.863a3.79,3.79,0,0,0-1.364-2.849ZM28.757,51.043a3.639,3.639,0,0,1-3.46-2.525h6.918a3.637,3.637,0,0,1-3.458,2.525Zm0-9.255,2.184,4.517H26.572ZM9.2,50.96l2.184-4.516,2.186,4.516ZM11.382,55.7a3.637,3.637,0,0,1-3.458-2.525h6.918a3.638,3.638,0,0,1-3.46,2.525Zm18.85-15.944a1.106,1.106,0,0,0-1.169-1.735L10.5,42.991a1.106,1.106,0,0,0-.782,1.356,1.035,1.035,0,0,0,.1.242L6.738,50.96h-.1a1.106,1.106,0,0,0-1.107,1.107,5.846,5.846,0,1,0,11.691,0,1.108,1.108,0,0,0-1.107-1.107h-.1l-3.064-6.334,6-1.609v18.15H17.185a1.107,1.107,0,1,0,0,2.213h5.769a1.107,1.107,0,1,0,0-2.213H21.175V42.425l5.532-1.483-2.595,5.363h-.095a1.106,1.106,0,0,0-1.107,1.107,5.845,5.845,0,0,0,11.69,0,1.106,1.106,0,0,0-1.107-1.107h-.1l-3.168-6.551ZM20.069,68.2A17.441,17.441,0,1,0,2.629,50.761,17.461,17.461,0,0,0,20.069,68.2Zm0-37.095A19.654,19.654,0,1,0,39.723,50.761,19.676,19.676,0,0,0,20.069,31.107ZM31.2,14.082a1.107,1.107,0,0,1,1.107-1.107H54.022a1.107,1.107,0,0,1,0,2.214H32.309A1.107,1.107,0,0,1,31.2,14.082Zm0,17.1a1.107,1.107,0,0,1,1.107-1.107H54.022a1.107,1.107,0,0,1,0,2.214H32.309A1.106,1.106,0,0,1,31.2,31.18Zm0-11.4a1.107,1.107,0,0,1,1.107-1.107H54.022a1.107,1.107,0,0,1,0,2.214H32.309A1.107,1.107,0,0,1,31.2,19.782Zm0-11.4a1.107,1.107,0,0,1,1.107-1.106H54.022a1.107,1.107,0,1,1,0,2.213H32.309A1.106,1.106,0,0,1,31.2,8.382Zm0,17.1a1.106,1.106,0,0,1,1.107-1.107H54.022a1.107,1.107,0,1,1,0,2.213H32.309A1.107,1.107,0,0,1,31.2,25.481ZM18.239,7.088v-.43a4.028,4.028,0,1,1,8.056,0v.43H18.239ZM69.308,35.669H60.034V8.083A7.675,7.675,0,0,0,52.367.415h-30.1a6.249,6.249,0,0,0-6.242,6.242V8.194A1.108,1.108,0,0,0,17.133,9.3H26.3V29.778a1.107,1.107,0,0,0,2.214,0V6.657a6.214,6.214,0,0,0-1.477-4.029H52.368a5.46,5.46,0,0,1,5.453,5.455V35.669h-17.3a1.107,1.107,0,0,0-1.107,1.107,5.388,5.388,0,0,1-1.052,3.208,1.107,1.107,0,1,0,1.786,1.309,7.609,7.609,0,0,0,1.4-3.41H68.09a5.467,5.467,0,0,1-5.343,4.348H40.554a1.107,1.107,0,1,0,0,2.213H62.747a7.676,7.676,0,0,0,7.668-7.668,1.106,1.106,0,0,0-1.107-1.107Z" fill-rule="evenodd"/>
        </g>
      </g>
    </g>
  </g>
</svg>
