<svg xmlns="http://www.w3.org/2000/svg" xmlns:xlink="http://www.w3.org/1999/xlink" width="85" height="83.181" viewBox="0 0 85 83.181">
  <defs>
    <clipPath id="clip-path">
      <rect id="Rectangle_410875" data-name="Rectangle 410875" width="70" height="70" transform="translate(-1694.374 -9477.745)" fill="#fff" stroke="#707070" stroke-width="1"/>
    </clipPath>
  </defs>
  <g id="Group_1209243" data-name="Group 1209243" transform="translate(1709.374 9490.926)">
    <g id="Rectangle_410874" data-name="Rectangle 410874" transform="translate(-1709.374 -9490.926)" fill="#e2dbf9" stroke="#b7a8f1" stroke-width="3">
      <rect width="70" height="70" rx="10" stroke="none"/>
      <rect x="1.5" y="1.5" width="67" height="67" rx="8.5" fill="none"/>
    </g>
    <g id="Mask_Group_1099381" data-name="Mask Group 1099381" clip-path="url(#clip-path)">
      <g id="list_15419865" transform="translate(-1695.472 -9478.873)">
        <circle id="Ellipse_12677" data-name="Ellipse 12677" cx="11.285" cy="11.285" r="11.285" transform="translate(47.396 15.799)" fill="#f2f2f2"/>
        <path id="Path_1279934" data-name="Path 1279934" d="M33.855,66.468l-2.889,1.027a38.368,38.368,0,0,1-25.82,0L2.257,66.468V24.714L5.146,23.7a38.369,38.369,0,0,1,25.82,0l2.889,1.016Z" fill="#7c8da6"/>
        <path id="Path_1279935" data-name="Path 1279935" d="M23.7,26.971v4.514H12.413V26.971H6.771V63.082l2.065.824a24.827,24.827,0,0,0,18.439,0l2.065-.824V26.971Z" fill="#f2f2f2"/>
        <path id="Path_1279936" data-name="Path 1279936" d="M58.681,19.749l2.2,4.458,4.92.711-3.566,3.476.846,4.9-4.4-2.313-4.4,2.313.846-4.9-3.566-3.476,4.92-.711Z" fill="#ffe680"/>
        <circle id="Ellipse_12678" data-name="Ellipse 12678" cx="6.771" cy="6.771" r="6.771" transform="translate(15.799 2.257)" fill="#72bf9f"/>
        <path id="Path_1279937" data-name="Path 1279937" d="M55.86,38.007v6.839a9.728,9.728,0,0,1-8.069,9.592L24.827,57.553H51.764A9.75,9.75,0,0,0,61.5,47.814V38.007Z" fill="#ffe680"/>
        <path id="Path_1279938" data-name="Path 1279938" d="M1.873,67.709l2.9,1.128a39.655,39.655,0,0,0,26.565,0l2.9-1.128a1.128,1.128,0,0,0,.745-1.016V60.938H32.726V65.9l-2.144.767a37.432,37.432,0,0,1-25.052,0L3.385,65.9V25.741l2.144-.767a37.24,37.24,0,0,1,25.052,0l2.144.767V51.91h2.257V24.94a1.128,1.128,0,0,0-.745-1.061l-2.9-1.027a39.5,39.5,0,0,0-26.565,0l-2.9,1.027a1.128,1.128,0,0,0-.745,1.061V66.694a1.128,1.128,0,0,0,.745,1.016Z"/>
        <path id="Path_1279939" data-name="Path 1279939" d="M30.469,54.167V27.2a1.128,1.128,0,0,0-1.128-1.128H23.7A1.128,1.128,0,0,0,22.57,27.2v3.385H13.542V27.2a1.128,1.128,0,0,0-1.128-1.128H6.771A1.128,1.128,0,0,0,5.642,27.2V63.308a1.128,1.128,0,0,0,.711,1.049l2.065.824a25.729,25.729,0,0,0,19.275,0l2.065-.858a1.128,1.128,0,0,0,.711-1.016v-2.37H28.212v1.614l-1.354.542a23.563,23.563,0,0,1-17.6,0L7.9,62.552V28.325h3.385V31.71a1.128,1.128,0,0,0,1.128,1.128H23.7a1.128,1.128,0,0,0,1.128-1.128V28.325h3.385V54.167Z"/>
        <path id="Path_1279940" data-name="Path 1279940" d="M11.285,37.353H24.827V39.61H11.285Z"/>
        <path id="Path_1279941" data-name="Path 1279941" d="M11.285,44.124h9.028v2.257H11.285Z"/>
        <path id="Path_1279942" data-name="Path 1279942" d="M15.8,50.895H25.955v2.257H15.8Z"/>
        <path id="Path_1279943" data-name="Path 1279943" d="M10.156,57.666h7.9v2.257h-7.9Z"/>
        <path id="Path_1279944" data-name="Path 1279944" d="M59.7,19.252a1.128,1.128,0,0,0-2.031,0l-1.93,3.927L51.4,23.8a1.121,1.121,0,0,0-.632,1.907l3.137,3.058-.734,4.311a1.128,1.128,0,0,0,1.636,1.185l3.871-2.009,3.871,2.031A1.128,1.128,0,0,0,64.188,33.1l-.734-4.311,3.126-3.058a1.121,1.121,0,0,0-.632-1.907L61.615,23.2Zm1.76,8.328a1.128,1.128,0,0,0-.327,1l.451,2.641L59.2,29.984a1.061,1.061,0,0,0-1.038,0l-2.381,1.241.451-2.641a1.128,1.128,0,0,0-.327-1l-1.918-1.873,2.652-.384A1.128,1.128,0,0,0,57.5,24.7l1.128-2.4,1.128,2.4a1.128,1.128,0,0,0,.858.621l2.652.384Z"/>
        <path id="Path_1279945" data-name="Path 1279945" d="M58.681,14.67a12.413,12.413,0,0,0-2.607.282L54.167,8.689a1.128,1.128,0,0,0-1.128-.79H30.379a7.9,7.9,0,1,0,0,2.257H52.215l1.7,5.462a12.413,12.413,0,0,0,.813,23.224v6a8.576,8.576,0,0,1-7.1,8.475l-22.953,3.1a1.131,1.131,0,0,0,.147,2.257H51.764A10.879,10.879,0,0,0,62.631,47.814V38.842a12.413,12.413,0,0,0-3.95-24.172Zm-36.112,0A5.642,5.642,0,1,1,25.831,4.435l-3.51,6.139L19.985,8.227l-1.6,1.6,3.385,3.385a1.128,1.128,0,0,0,.8.327h.147a1.128,1.128,0,0,0,.835-.553l3.871-6.771A5.642,5.642,0,0,1,22.57,14.67Zm37.8,33.144a8.622,8.622,0,0,1-8.61,8.61H41.54l6.444-.869a10.845,10.845,0,0,0,9.028-10.709V39.373a11.6,11.6,0,0,0,3.385,0ZM58.681,37.24A10.156,10.156,0,1,1,68.838,27.084,10.156,10.156,0,0,1,58.681,37.24Z"/>
      </g>
    </g>
  </g>
</svg>
