<svg xmlns="http://www.w3.org/2000/svg" xmlns:xlink="http://www.w3.org/1999/xlink" width="85" height="83.181" viewBox="0 0 85 83.181">
  <defs>
    <clipPath id="clip-path">
      <rect id="Rectangle_410848" data-name="Rectangle 410848" width="70" height="70" transform="translate(776.677 2197.789)" fill="#fff" stroke="#707070" stroke-width="1"/>
    </clipPath>
  </defs>
  <g id="Group_1209238" data-name="Group 1209238" transform="translate(-761.677 -2184.608)">
    <g id="Rectangle_410847" data-name="Rectangle 410847" transform="translate(761.677 2184.608)" fill="#e2dbf9" stroke="#b7a8f1" stroke-width="3">
      <rect width="70" height="70" rx="10" stroke="none"/>
      <rect x="1.5" y="1.5" width="67" height="67" rx="8.5" fill="none"/>
    </g>
    <g id="Mask_Group_1099386" data-name="Mask Group 1099386" clip-path="url(#clip-path)">
      <g id="ICON" transform="translate(773.057 2193.716)">
        <g id="Group_1209229" data-name="Group 1209229">
          <path id="Path_1280006" data-name="Path 1280006" d="M7.241,20.517A2.45,2.45,0,0,0,4.828,23V60.274a2.523,2.523,0,0,0,.707,1.757,2.38,2.38,0,0,0,1.707.728H70a2.38,2.38,0,0,0,1.707-.728,2.523,2.523,0,0,0,.707-1.757V23a2.523,2.523,0,0,0-.707-1.757,2.379,2.379,0,0,0-1.646-.727H7.241Z" fill="#68ebff" fill-rule="evenodd"/>
          <path id="Path_1280007" data-name="Path 1280007" d="M32.586,60.948H45.259V72.414H32.586Z" fill="#6e6e6e" fill-rule="evenodd"/>
          <path id="Path_1280008" data-name="Path 1280008" d="M4.828,55.517H72.414v7.241H4.828Z" fill="#e8e8e8" fill-rule="evenodd"/>
          <circle id="Ellipse_12685" data-name="Ellipse 12685" cx="11.433" cy="11.433" r="11.433" transform="translate(40.852 5.602)" fill="#ff4a4a"/>
          <path id="Path_1280009" data-name="Path 1280009" d="M41.073,19.31H7.241A3.586,3.586,0,0,0,4.669,20.4,3.731,3.731,0,0,0,3.621,23V33.793a1.207,1.207,0,1,0,2.414,0V23a1.314,1.314,0,0,1,.366-.916,1.172,1.172,0,0,1,.841-.362H41.073a1.207,1.207,0,1,0,0-2.414Z" fill-rule="evenodd"/>
          <path id="Path_1280010" data-name="Path 1280010" d="M66.379,56.724H71.81a1.207,1.207,0,0,0,0-2.414H66.379a1.207,1.207,0,0,0,0,2.414Z" fill-rule="evenodd"/>
          <path id="Path_1280011" data-name="Path 1280011" d="M4.828,56.724H61.552a1.207,1.207,0,1,0,0-2.414H4.828a1.207,1.207,0,1,0,0,2.414Z" fill-rule="evenodd"/>
          <path id="Path_1280012" data-name="Path 1280012" d="M45.862,62.759a1.207,1.207,0,0,0-1.207-1.207H32.586a1.207,1.207,0,0,0-1.207,1.207v9.655a1.207,1.207,0,0,0,1.207,1.207H44.655a1.207,1.207,0,0,0,1.207-1.207Zm-2.414,1.207v7.241H33.793V63.966Z" fill-rule="evenodd"/>
          <path id="Path_1280013" data-name="Path 1280013" d="M28.966,73.621h19.31a1.207,1.207,0,1,0,0-2.414H28.966a1.207,1.207,0,1,0,0,2.414Z" fill-rule="evenodd"/>
          <path id="Path_1280014" data-name="Path 1280014" d="M15.086,24.138H12.069a3.622,3.622,0,0,0-3.621,3.621v3.621a1.207,1.207,0,1,0,2.414,0V27.759a1.207,1.207,0,0,1,1.207-1.207h3.017a1.207,1.207,0,1,0,0-2.414Z" fill-rule="evenodd"/>
          <path id="Path_1280015" data-name="Path 1280015" d="M15.086,49.483H12.069a1.207,1.207,0,0,1-1.207-1.207V44.655a1.207,1.207,0,0,0-2.414,0v3.621A3.622,3.622,0,0,0,12.069,51.9h3.017a1.207,1.207,0,1,0,0-2.414Z" fill-rule="evenodd"/>
          <path id="Path_1280016" data-name="Path 1280016" d="M29.569,26.552h3.017a1.207,1.207,0,0,1,1.207,1.207v3.621a1.207,1.207,0,0,0,2.414,0V27.759a3.622,3.622,0,0,0-3.621-3.621H29.569a1.207,1.207,0,0,0,0,2.414Z" fill-rule="evenodd"/>
          <path id="Path_1280017" data-name="Path 1280017" d="M29.569,51.9h3.017a3.622,3.622,0,0,0,3.621-3.621V44.655a1.207,1.207,0,0,0-2.414,0v3.621a1.207,1.207,0,0,1-1.207,1.207H29.569a1.207,1.207,0,1,0,0,2.414Z" fill-rule="evenodd"/>
          <path id="Path_1280018" data-name="Path 1280018" d="M18.789,38.994a8.783,8.783,0,0,0-5.513,8.075,1.207,1.207,0,0,0,1.207,1.207h15.69a1.207,1.207,0,0,0,1.207-1.207,8.783,8.783,0,0,0-5.513-8.075,6.176,6.176,0,1,0-7.077,0Z" fill-rule="evenodd"/>
          <path id="Path_1280019" data-name="Path 1280019" d="M15.809,45.862a6.7,6.7,0,0,1,13.037,0Z" fill="#ff4a4a" fill-rule="evenodd"/>
          <circle id="Ellipse_12686" data-name="Ellipse 12686" cx="3.762" cy="3.762" r="3.762" transform="translate(18.566 30.172)" fill="#ff4a4a"/>
          <path id="Path_1280020" data-name="Path 1280020" d="M63.629,21.724h6.4a1.177,1.177,0,0,1,.812.362,1.314,1.314,0,0,1,.366.916V60.274a1.314,1.314,0,0,1-.366.916,1.172,1.172,0,0,1-.841.362H7.241A1.172,1.172,0,0,1,6.4,61.19a1.314,1.314,0,0,1-.366-.916V43.448a1.207,1.207,0,1,0-2.414,0V60.274a3.735,3.735,0,0,0,1.048,2.6,3.591,3.591,0,0,0,2.573,1.093H70a3.591,3.591,0,0,0,2.573-1.093,3.735,3.735,0,0,0,1.048-2.6V23a3.731,3.731,0,0,0-1.049-2.6,3.588,3.588,0,0,0-2.481-1.092H64.371a12.422,12.422,0,0,0-.222-5.757,1.206,1.206,0,1,0-2.323.652A9.971,9.971,0,1,1,58.9,9.5,1.207,1.207,0,0,0,60.513,7.7a12.368,12.368,0,1,0,3.116,14.021Z" fill-rule="evenodd"/>
          <path id="Path_1280021" data-name="Path 1280021" d="M53.319,15.009l-3.793-3.793a1.207,1.207,0,0,0-1.708,0l-3.413,3.413a1.207,1.207,0,0,0,0,1.708l4.656,4.655a1.162,1.162,0,0,0,.132.115l3.282,3.282a1.206,1.206,0,0,0,1.707,0L68.513,10.057a1.208,1.208,0,0,0,0-1.707L65.1,4.936a1.208,1.208,0,0,0-1.707,0Z" fill-rule="evenodd"/>
          <path id="Path_1280022" data-name="Path 1280022" d="M54.3,17.446a1.076,1.076,0,0,1-.115.133L51.63,20.13l1.7,1.7L65.952,9.2,64.246,7.5Z" fill="#2eb60f" fill-rule="evenodd"/>
          <path id="Path_1280023" data-name="Path 1280023" d="M51.613,16.716l-1.708,1.708-2.94-2.941,1.707-1.707Z" fill="#2eb60f" fill-rule="evenodd"/>
          <path id="Path_1280024" data-name="Path 1280024" d="M42.883,35H61.59a1.207,1.207,0,1,0,0-2.414H42.883a1.207,1.207,0,1,0,0,2.414Z" fill-rule="evenodd"/>
          <path id="Path_1280025" data-name="Path 1280025" d="M42.883,42.241H61.59a1.207,1.207,0,1,0,0-2.414H42.883a1.207,1.207,0,1,0,0,2.414Z" fill-rule="evenodd"/>
          <path id="Path_1280026" data-name="Path 1280026" d="M42.883,49.483H61.59a1.207,1.207,0,1,0,0-2.414H42.883a1.207,1.207,0,1,0,0,2.414Z" fill-rule="evenodd"/>
          <path id="Path_1280027" data-name="Path 1280027" d="M9.655,60.345h1.207a1.207,1.207,0,1,0,0-2.414H9.655a1.207,1.207,0,1,0,0,2.414Z" fill-rule="evenodd"/>
          <path id="Path_1280028" data-name="Path 1280028" d="M3.621,37.414v2.414a1.207,1.207,0,0,0,2.414,0V37.414a1.207,1.207,0,0,0-2.414,0Z" fill-rule="evenodd"/>
        </g>
      </g>
    </g>
  </g>
</svg>
