<svg xmlns="http://www.w3.org/2000/svg" xmlns:xlink="http://www.w3.org/1999/xlink" width="85" height="83.181" viewBox="0 0 85 83.181">
  <defs>
    <clipPath id="clip-path">
      <rect id="Rectangle_410702" data-name="Rectangle 410702" width="70" height="70" transform="translate(-6320.051 -10981.435)" fill="#fff" stroke="#707070" stroke-width="1"/>
    </clipPath>
  </defs>
  <g id="Group_1209169" data-name="Group 1209169" transform="translate(6335.051 10994.615)">
    <g id="Rectangle_410701" data-name="Rectangle 410701" transform="translate(-6335.051 -10994.615)" fill="#e2dbf9" stroke="#b7a8f1" stroke-width="3">
      <rect width="70" height="70" rx="10" stroke="none"/>
      <rect x="1.5" y="1.5" width="67" height="67" rx="8.5" fill="none"/>
    </g>
    <g id="Mask_Group_1099369" data-name="Mask Group 1099369" clip-path="url(#clip-path)">
      <g id="inspection_2452107" transform="translate(-6321.18 -10982.563)">
        <g id="Group_1209166" data-name="Group 1209166">
          <g id="Group_1209151" data-name="Group 1209151">
            <path id="Path_1279716" data-name="Path 1279716" d="M24.839,40.645V63.226H2.258V40.645H24.839Z" fill="#ff826e"/>
          </g>
          <g id="Group_1209152" data-name="Group 1209152">
            <path id="Path_1279717" data-name="Path 1279717" d="M36.129,60.968v2.258H29.355V40.645h6.774V60.968Z" fill="#ff826e"/>
          </g>
          <g id="Group_1209153" data-name="Group 1209153">
            <path id="Path_1279718" data-name="Path 1279718" d="M24.839,40.645h4.516V63.226H24.839Z" fill="#fc6e51"/>
          </g>
          <g id="Group_1209154" data-name="Group 1209154">
            <path id="Path_1279719" data-name="Path 1279719" d="M6.774,2.258V40.645H36.129V42.9h5.645l.271-.271a6.766,6.766,0,0,1,4.8-1.987h7.35V2.258Z" fill="#e6e9ed"/>
          </g>
          <g id="Group_1209155" data-name="Group 1209155">
            <path id="Path_1279720" data-name="Path 1279720" d="M11.29,6.774H33.871V27.1H11.29Z" fill="#ffeaa7"/>
          </g>
          <g id="Group_1209156" data-name="Group 1209156">
            <path id="Path_1279721" data-name="Path 1279721" d="M29.355,24.839V27.1H15.806V24.839a6.78,6.78,0,0,1,6.774-6.774,6.784,6.784,0,0,1,6.774,6.774Z" fill="#b4dd7f"/>
          </g>
          <g id="Group_1209157" data-name="Group 1209157">
            <circle id="Ellipse_12665" data-name="Ellipse 12665" cx="3.387" cy="3.387" r="3.387" transform="translate(19.194 11.29)" fill="#f0d0b4"/>
          </g>
          <g id="Group_1209158" data-name="Group 1209158">
            <path id="Path_1279722" data-name="Path 1279722" d="M58.71,63.226v2.258a4.516,4.516,0,1,1-9.032,0V45.161h6.774a2.275,2.275,0,0,0-2.258,2.258,2.265,2.265,0,0,0,2.258,2.258,2.275,2.275,0,0,0-2.258,2.258,2.265,2.265,0,0,0,2.258,2.258,2.274,2.274,0,0,0-2.258,2.258,2.265,2.265,0,0,0,2.258,2.258,2.274,2.274,0,0,0-2.258,2.258,2.265,2.265,0,0,0,2.258,2.258Z" fill="#969faa"/>
          </g>
          <g id="Group_1209159" data-name="Group 1209159">
            <path id="Path_1279723" data-name="Path 1279723" d="M60.968,58.71a2.265,2.265,0,0,1,2.258,2.258,2.275,2.275,0,0,1-2.258,2.258H56.452a2.265,2.265,0,0,1-2.258-2.258,2.274,2.274,0,0,1,2.258-2.258Z" fill="#f0d0b4"/>
          </g>
          <g id="Group_1209160" data-name="Group 1209160">
            <path id="Path_1279724" data-name="Path 1279724" d="M60.968,49.677a2.265,2.265,0,0,1,2.258,2.258,2.275,2.275,0,0,1-2.258,2.258H56.452a2.265,2.265,0,0,1-2.258-2.258,2.275,2.275,0,0,1,2.258-2.258Z" fill="#f0d0b4"/>
          </g>
          <g id="Group_1209161" data-name="Group 1209161">
            <path id="Path_1279725" data-name="Path 1279725" d="M60.968,45.161a2.265,2.265,0,0,1,2.258,2.258,2.275,2.275,0,0,1-2.258,2.258H56.452a2.265,2.265,0,0,1-2.258-2.258,2.275,2.275,0,0,1,2.258-2.258Z" fill="#f0d0b4"/>
          </g>
          <g id="Group_1209162" data-name="Group 1209162">
            <path id="Path_1279726" data-name="Path 1279726" d="M60.968,54.194a2.265,2.265,0,0,1,2.258,2.258,2.275,2.275,0,0,1-2.258,2.258H56.452a2.265,2.265,0,0,1-2.258-2.258,2.274,2.274,0,0,1,2.258-2.258Z" fill="#f0d0b4"/>
          </g>
          <g id="Group_1209163" data-name="Group 1209163">
            <path id="Path_1279727" data-name="Path 1279727" d="M49.677,45.161V63.226H47.894a6.9,6.9,0,0,1-3.037-.711l-3.082-1.547H36.129V42.9h5.645l.271-.271a6.766,6.766,0,0,1,4.8-1.987H58.71a1.132,1.132,0,0,1,1.129,1.129,3.392,3.392,0,0,1-3.387,3.387Z" fill="#f0d0b4"/>
          </g>
          <g id="Group_1209164" data-name="Group 1209164">
            <path id="Path_1279728" data-name="Path 1279728" d="M54.194,9.032A15.806,15.806,0,1,1,38.387,24.839,15.809,15.809,0,0,1,54.194,9.032Z" fill="#fcd770"/>
          </g>
          <g id="Group_1209165" data-name="Group 1209165">
            <circle id="Ellipse_12666" data-name="Ellipse 12666" cx="11.29" cy="11.29" r="11.29" transform="translate(42.903 13.548)" fill="#69d6f4"/>
          </g>
        </g>
        <g id="Group_1209167" data-name="Group 1209167">
          <path id="Path_1279729" data-name="Path 1279729" d="M54.194,12.419A12.419,12.419,0,1,0,66.613,24.839,12.434,12.434,0,0,0,54.194,12.419Zm0,22.581A10.161,10.161,0,1,1,64.355,24.839,10.173,10.173,0,0,1,54.194,35Z"/>
          <path id="Path_1279730" data-name="Path 1279730" d="M71.129,24.839A16.943,16.943,0,0,0,55.323,7.961V1.129H5.645V39.516H1.129V64.355H37.258V62.1h4.25l2.847,1.424a7.945,7.945,0,0,0,3.534.834h.659v1.129a5.645,5.645,0,0,0,11.29,0V64.355h1.129a3.373,3.373,0,0,0,2.506-5.645,3.335,3.335,0,0,0,0-4.516,3.335,3.335,0,0,0,0-4.516,3.373,3.373,0,0,0-2.506-5.645H60.34a4.47,4.47,0,0,0,.628-2.258,2.246,2.246,0,0,0-.386-1.261A16.953,16.953,0,0,0,71.129,24.839ZM7.9,3.387H53.065V7.961a16.911,16.911,0,0,0-7.18,31.619,7.842,7.842,0,0,0-4.578,2.195H37.258V39.516H7.9ZM28.226,41.774V62.1H25.968V41.774Zm-24.839,0H23.71V62.1H3.387ZM35,62.1H30.484V41.774H35Zm22.581,3.387a3.387,3.387,0,0,1-6.774,0V46.29h2.466a3.283,3.283,0,0,0,.673,3.387,3.335,3.335,0,0,0,0,4.516,3.335,3.335,0,0,0,0,4.516,3.373,3.373,0,0,0,2.506,5.645h1.129ZM62.1,51.935a1.129,1.129,0,0,1-1.129,1.129H56.452a1.129,1.129,0,1,1,0-2.258h4.516A1.129,1.129,0,0,1,62.1,51.935Zm0,4.516a1.129,1.129,0,0,1-1.129,1.129H56.452a1.129,1.129,0,0,1,0-2.258h4.516A1.129,1.129,0,0,1,62.1,56.452ZM60.968,62.1H56.452a1.129,1.129,0,0,1,0-2.258h4.516a1.129,1.129,0,1,1,0,2.258ZM62.1,47.419a1.129,1.129,0,0,1-1.129,1.129H56.452a1.129,1.129,0,1,1,0-2.258h4.516A1.129,1.129,0,0,1,62.1,47.419ZM58.71,41.774a2.26,2.26,0,0,1-2.258,2.258H48.081l-.6.6a5.612,5.612,0,0,1-3.992,1.654h-1.71v2.258h1.71a7.839,7.839,0,0,0,5.064-1.843V62.1h-.659a5.672,5.672,0,0,1-2.523-.6l-3.325-1.662H37.258V44.032h4.984l.6-.6a5.61,5.61,0,0,1,3.992-1.654Zm-4.516-2.258A14.677,14.677,0,1,1,68.871,24.839,14.694,14.694,0,0,1,54.194,39.516Z"/>
          <path id="Path_1279731" data-name="Path 1279731" d="M51.935,26.629l-1.46-1.46-1.6,1.6,3.056,3.056,8.7-8.7-1.6-1.6Z"/>
          <path id="Path_1279732" data-name="Path 1279732" d="M10.161,28.226H35V5.645H10.161ZM20.323,14.677a2.258,2.258,0,1,1,2.258,2.258A2.26,2.26,0,0,1,20.323,14.677Zm2.258,4.516a5.652,5.652,0,0,1,5.645,5.645v1.129H16.935V24.839A5.652,5.652,0,0,1,22.581,19.194ZM12.419,7.9H32.742V25.968H30.484V24.839a7.907,7.907,0,0,0-4.561-7.151,4.516,4.516,0,1,0-6.684,0,7.907,7.907,0,0,0-4.561,7.151v1.129H12.419Z"/>
          <path id="Path_1279733" data-name="Path 1279733" d="M10.161,30.484h2.258v2.258H10.161Z"/>
          <path id="Path_1279734" data-name="Path 1279734" d="M14.677,30.484H35v2.258H14.677Z"/>
          <path id="Path_1279735" data-name="Path 1279735" d="M10.161,35H35v2.258H10.161Z"/>
        </g>
      </g>
    </g>
  </g>
</svg>
