<svg xmlns="http://www.w3.org/2000/svg" xmlns:xlink="http://www.w3.org/1999/xlink" width="85" height="83.181" viewBox="0 0 85 83.181">
  <defs>
    <clipPath id="clip-path">
      <rect id="Rectangle_410920" data-name="Rectangle 410920" width="70" height="70" transform="translate(-2763.051 -5358.448)" fill="#fff" stroke="#707070" stroke-width="1"/>
    </clipPath>
  </defs>
  <g id="Group_1209269" data-name="Group 1209269" transform="translate(2778.051 5371.629)">
    <g id="Rectangle_410919" data-name="Rectangle 410919" transform="translate(-2778.051 -5371.629)" fill="#e2dbf9" stroke="#b7a8f1" stroke-width="3">
      <rect width="70" height="70" rx="10" stroke="none"/>
      <rect x="1.5" y="1.5" width="67" height="67" rx="8.5" fill="none"/>
    </g>
    <g id="Mask_Group_1099389" data-name="Mask Group 1099389" clip-path="url(#clip-path)">
      <g id="Artboard31" transform="translate(-2764.039 -5359.436)">
        <g id="Group_1209262" data-name="Group 1209262">
          <g id="Group_1209261" data-name="Group 1209261">
            <g id="Group_1209253" data-name="Group 1209253">
              <g id="Group_1209249" data-name="Group 1209249">
                <g id="CorelEMF">
                  <path id="Path_1280066" data-name="Path 1280066" d="M8.661,14.385H40.609a1.177,1.177,0,0,1,.861.357l5.8,5.8a1.177,1.177,0,0,1,.357.861V65.246a1.217,1.217,0,0,1-1.215,1.215H8.661a1.218,1.218,0,0,1-1.218-1.215V15.6a1.221,1.221,0,0,1,1.218-1.218Z" fill="#eceff1" fill-rule="evenodd"/>
                  <path id="Path_1280067" data-name="Path 1280067" d="M41.113,14.489v5.8a.61.61,0,0,0,.609.609h5.8a1.217,1.217,0,0,0-.252-.357l-5.8-5.8A1.28,1.28,0,0,0,41.113,14.489Z" fill="#a79ba7" fill-rule="evenodd"/>
                  <path id="Path_1280068" data-name="Path 1280068" d="M8.661,14.385H9.876V66.461H8.661a1.218,1.218,0,0,1-1.218-1.215V15.6a1.221,1.221,0,0,1,1.218-1.218Z" fill="#d1d1d6" fill-rule="evenodd"/>
                </g>
              </g>
              <g id="Group_1209250" data-name="Group 1209250">
                <path id="Path_1280069" data-name="Path 1280069" d="M15.565,27.719h6.8a.889.889,0,0,1,.887.887v6.8a.889.889,0,0,1-.887.887h-6.8a.889.889,0,0,1-.887-.887v-6.8a.889.889,0,0,1,.887-.887Z" fill="#8ac9fe" fill-rule="evenodd"/>
                <path id="Path_1280070" data-name="Path 1280070" d="M21.092,27.719h1.27a.889.889,0,0,1,.887.887v6.8a.889.889,0,0,1-.887.887h-1.27a.889.889,0,0,0,.887-.887v-6.8a.889.889,0,0,0-.887-.887Z" fill="#60b7ff" fill-rule="evenodd"/>
              </g>
              <g id="Group_1209251" data-name="Group 1209251">
                <path id="Path_1280071" data-name="Path 1280071" d="M15.565,39.953h6.8a.889.889,0,0,1,.887.887v6.8a.889.889,0,0,1-.887.887h-6.8a.889.889,0,0,1-.887-.887v-6.8a.889.889,0,0,1,.887-.887Z" fill="#6cf5c2" fill-rule="evenodd"/>
                <path id="Path_1280072" data-name="Path 1280072" d="M21.092,39.953h1.27a.889.889,0,0,1,.887.887v6.8a.889.889,0,0,1-.887.887h-1.27a.889.889,0,0,0,.887-.887v-6.8A.889.889,0,0,0,21.092,39.953Z" fill="#00e499" fill-rule="evenodd"/>
              </g>
              <g id="Group_1209252" data-name="Group 1209252">
                <path id="Path_1280073" data-name="Path 1280073" d="M15.565,52.186h6.8a.892.892,0,0,1,.887.89v6.8a.889.889,0,0,1-.887.887h-6.8a.889.889,0,0,1-.887-.887v-6.8a.892.892,0,0,1,.887-.89Z" fill="#ffe177" fill-rule="evenodd"/>
                <path id="Path_1280074" data-name="Path 1280074" d="M21.092,52.186h1.27a.892.892,0,0,1,.887.89v6.8a.889.889,0,0,1-.887.887h-1.27a.889.889,0,0,0,.887-.887v-6.8A.892.892,0,0,0,21.092,52.186Z" fill="#ffd064" fill-rule="evenodd"/>
              </g>
            </g>
            <g id="Group_1209259" data-name="Group 1209259">
              <g id="Group_1209254" data-name="Group 1209254">
                <path id="Path_1280075" data-name="Path 1280075" d="M47.627,66.5A13.548,13.548,0,1,0,34.077,52.948,13.576,13.576,0,0,0,47.627,66.5Z" fill="#fe646f" fill-rule="evenodd"/>
                <path id="Path_1280076" data-name="Path 1280076" d="M47.627,39.4a13.548,13.548,0,1,1,0,27.1c-.309,0-.615-.01-.919-.031a13.548,13.548,0,0,0,0-27.034C47.012,39.41,47.317,39.4,47.627,39.4Z" fill="#fd4755" fill-rule="evenodd"/>
                <path id="Path_1280077" data-name="Path 1280077" d="M47.627,61.654a8.706,8.706,0,1,0-8.707-8.707A8.724,8.724,0,0,0,47.627,61.654Z" fill="#eceff1" fill-rule="evenodd"/>
                <path id="Path_1280078" data-name="Path 1280078" d="M47.627,44.242c.207,0,.41.007.613.021a8.707,8.707,0,0,0,0,17.37c-.2.014-.406.021-.613.021a8.706,8.706,0,1,1,0-17.412Z" fill="#d1d1d6" fill-rule="evenodd"/>
                <path id="Path_1280079" data-name="Path 1280079" d="M47.627,56.812a3.864,3.864,0,1,0-3.865-3.865A3.872,3.872,0,0,0,47.627,56.812Z" fill="#fe646f" fill-rule="evenodd"/>
                <path id="Path_1280080" data-name="Path 1280080" d="M47.627,49.085a3.864,3.864,0,1,0,0,7.727,3.757,3.757,0,0,0,.613-.049,3.864,3.864,0,0,1,0-7.63A3.756,3.756,0,0,0,47.627,49.085Z" fill="#fd4755" fill-rule="evenodd"/>
              </g>
              <g id="Group_1209255" data-name="Group 1209255">
                <path id="Path_1280081" data-name="Path 1280081" d="M49.268,37.681a1.644,1.644,0,0,0-3.288,0v6.485a1.644,1.644,0,1,0,3.288,0Z" fill="#837683" fill-rule="evenodd"/>
                <path id="Path_1280082" data-name="Path 1280082" d="M46.118,44.826a1.644,1.644,0,0,0,2.3-1.506V36.834a1.635,1.635,0,0,0-.138-.659,1.645,1.645,0,0,1,.985,1.506v6.485a1.644,1.644,0,0,1-3.15.659Z" fill="#685e68" fill-rule="evenodd"/>
              </g>
              <g id="Group_1209256" data-name="Group 1209256">
                <path id="Path_1280083" data-name="Path 1280083" d="M62.889,54.59a1.644,1.644,0,1,0,0-3.288H56.4a1.644,1.644,0,1,0,0,3.288Z" fill="#837683" fill-rule="evenodd"/>
                <path id="Path_1280084" data-name="Path 1280084" d="M54.9,53.606a1.637,1.637,0,0,0,.659.138h6.485a1.644,1.644,0,0,0,1.506-2.3,1.644,1.644,0,0,1-.659,3.15H56.4A1.645,1.645,0,0,1,54.9,53.606Z" fill="#685e68" fill-rule="evenodd"/>
              </g>
              <g id="Group_1209257" data-name="Group 1209257">
                <path id="Path_1280085" data-name="Path 1280085" d="M45.98,68.212a1.644,1.644,0,0,0,3.288,0V61.726a1.644,1.644,0,1,0-3.288,0Z" fill="#837683" fill-rule="evenodd"/>
                <path id="Path_1280086" data-name="Path 1280086" d="M46.118,68.871a1.644,1.644,0,0,0,2.3-1.506V60.88a1.635,1.635,0,0,0-.138-.659,1.645,1.645,0,0,1,.985,1.506v6.485a1.644,1.644,0,0,1-3.15.659Z" fill="#685e68" fill-rule="evenodd"/>
              </g>
              <g id="Group_1209258" data-name="Group 1209258">
                <path id="Path_1280087" data-name="Path 1280087" d="M32.358,51.3a1.644,1.644,0,0,0,0,3.288h6.485a1.644,1.644,0,0,0,0-3.288Z" fill="#837683" fill-rule="evenodd"/>
                <path id="Path_1280088" data-name="Path 1280088" d="M30.852,53.606a1.635,1.635,0,0,0,.659.138H38a1.644,1.644,0,0,0,1.506-2.3,1.644,1.644,0,0,1-.659,3.15H32.358a1.645,1.645,0,0,1-1.506-.985Z" fill="#685e68" fill-rule="evenodd"/>
              </g>
            </g>
            <g id="Group_1209260" data-name="Group 1209260">
              <path id="Path_1280089" data-name="Path 1280089" d="M26.941,3.985a9.6,9.6,0,0,1,2.813,1.166l1.828-.811,2.154,2.154-.811,1.828a9.6,9.6,0,0,1,1.166,2.813l1.865.718V14.9l-1.865.718a9.605,9.605,0,0,1-1.166,2.812l.811,1.828-2.154,2.155L29.753,21.6a9.6,9.6,0,0,1-2.813,1.167l-.718,1.864H23.176l-.718-1.865A9.6,9.6,0,0,1,19.646,21.6l-1.828.812-2.155-2.155.812-1.827a9.63,9.63,0,0,1-1.167-2.813L13.445,14.9V11.853l1.864-.718a9.6,9.6,0,0,1,1.167-2.813l-.812-1.828L17.818,4.34l1.826.811a9.628,9.628,0,0,1,2.813-1.166l.718-1.865h3.047Z" fill="#ffe177" fill-rule="evenodd"/>
              <path id="Path_1280090" data-name="Path 1280090" d="M30.967,4.613l.614-.273,2.154,2.154-.811,1.828a9.6,9.6,0,0,1,1.166,2.813l1.865.718V14.9l-1.865.718a9.605,9.605,0,0,1-1.166,2.812l.811,1.828-2.154,2.155-.614-.273,1.882-1.882-.812-1.828A9.605,9.605,0,0,0,33.2,15.617l1.865-.718V11.853L33.2,11.135a9.6,9.6,0,0,0-1.166-2.813l.812-1.828Zm-13.421,0,.273-.273,1.826.811c-.129.072-.256.146-.381.225Zm9.395-.627a9.6,9.6,0,0,1,2.813,1.166l-.5.225a12.553,12.553,0,0,0-3.2-1.391L25.336,2.12h.887ZM19.646,21.6l-1.828.812-.273-.273,1.718-.763Q19.451,21.492,19.646,21.6Zm10.107,0a9.6,9.6,0,0,1-2.813,1.167l-.718,1.864h-.887l.718-1.864a12.584,12.584,0,0,0,3.2-1.391Z" fill="#ffd064" fill-rule="evenodd"/>
              <path id="Path_1280091" data-name="Path 1280091" d="M24.7,7.825a5.551,5.551,0,1,1-5.55,5.551A5.551,5.551,0,0,1,24.7,7.825Z" fill="#eceff1" fill-rule="evenodd"/>
              <path id="Path_1280092" data-name="Path 1280092" d="M24.7,7.825c.126,0,.251,0,.377.014a5.55,5.55,0,0,0,0,11.075c-.125.008-.25.012-.377.012a5.551,5.551,0,0,1,0-11.1Z" fill="#d1d1d6" fill-rule="evenodd"/>
            </g>
          </g>
          <path id="Path_1280093" data-name="Path 1280093" d="M44.849,67.594H7.445a1.129,1.129,0,0,1-1.129-1.129V14.394a1.129,1.129,0,0,1,1.129-1.129h4.868V11.854a1.129,1.129,0,0,1,.724-1.054l1.33-.512a10.767,10.767,0,0,1,.844-2.035l-.579-1.3a1.129,1.129,0,0,1,.233-1.257L17.019,3.54a1.129,1.129,0,0,1,1.257-.233l1.3.579a10.7,10.7,0,0,1,2.033-.842l.514-1.333A1.129,1.129,0,0,1,23.18.988h3.046a1.129,1.129,0,0,1,1.054.724l.512,1.332a10.7,10.7,0,0,1,2.032.842l1.3-.579a1.129,1.129,0,0,1,1.257.233l2.153,2.153a1.129,1.129,0,0,1,.234,1.256l-.578,1.3a10.679,10.679,0,0,1,.843,2.036l1.329.511a1.129,1.129,0,0,1,.724,1.054v1.411H41.11a1.129,1.129,0,0,1,.8.331l6.511,6.511a1.129,1.129,0,0,1,.331.8V35.152a2.775,2.775,0,0,1,1.644,2.533v.853A14.735,14.735,0,0,1,62.033,50.177h.853a2.773,2.773,0,0,1,0,5.546h-.854A14.738,14.738,0,0,1,50.394,67.362v.853a2.773,2.773,0,1,1-5.546,0ZM12.5,15.523H8.574V65.336H39.767a14.812,14.812,0,0,1-5.338-5.97H28.663a1.129,1.129,0,1,1,0-2.258h4.885q-.184-.619-.313-1.259H28.663a1.129,1.129,0,0,1,0-2.258h1a2.775,2.775,0,0,1,2.7-3.413h.853a14.541,14.541,0,0,1,.944-3.048H28.663a1.129,1.129,0,0,1,0-2.258h6.718a14.814,14.814,0,0,1,.935-1.259H28.663a1.129,1.129,0,1,1,0-2.258h9.982a14.624,14.624,0,0,1,6.2-2.816v-.854a2.775,2.775,0,0,1,1.644-2.533V22.034H41.11a1.129,1.129,0,0,1-1.129-1.129V15.523H36.9a1.129,1.129,0,0,1-.536.431l-1.329.512a10.792,10.792,0,0,1-.843,2.032l.578,1.3a1.129,1.129,0,0,1-.234,1.256l-2.153,2.154a1.129,1.129,0,0,1-1.256.234l-1.3-.577a10.671,10.671,0,0,1-2.034.842l-.512,1.329a1.129,1.129,0,0,1-1.054.723H23.18a1.129,1.129,0,0,1-1.054-.723l-.511-1.329a10.765,10.765,0,0,1-2.035-.843l-1.305.578a1.129,1.129,0,0,1-1.256-.234l-2.153-2.154a1.129,1.129,0,0,1-.233-1.257l.579-1.3a10.77,10.77,0,0,1-.843-2.032l-1.331-.512a1.129,1.129,0,0,1-.536-.431ZM44.9,19.776,42.239,17.12v2.656Zm5.5,21.069v2.669a9.89,9.89,0,0,1,6.663,6.663h2.669a12.473,12.473,0,0,0-9.332-9.332Zm-.48,4.884a2.772,2.772,0,0,1-4.585,0A7.625,7.625,0,0,0,40.4,50.657a2.772,2.772,0,0,1,0,4.585,7.629,7.629,0,0,0,4.928,4.928,2.772,2.772,0,0,1,4.585,0,7.625,7.625,0,0,0,4.928-4.928,2.772,2.772,0,0,1,0-4.585,7.622,7.622,0,0,0-4.928-4.928Zm-5.066-2.214V40.846a12.476,12.476,0,0,0-9.331,9.331h2.669A9.893,9.893,0,0,1,44.849,43.515ZM59.726,55.723H57.056a9.893,9.893,0,0,1-6.662,6.662v2.669A12.476,12.476,0,0,0,59.726,55.723ZM44.849,65.054V62.385a9.9,9.9,0,0,1-6.662-6.662H35.517a12.48,12.48,0,0,0,9.331,9.331ZM62.887,53.465a.515.515,0,0,0,0-1.03H56.4a.515.515,0,0,0,0,1.03Zm-15.78,14.75a.515.515,0,1,0,1.03,0V61.73a.515.515,0,1,0-1.03,0ZM15.563,26.594h6.8a2.021,2.021,0,0,1,2.016,2.016v6.8a2.021,2.021,0,0,1-2.016,2.016h-6.8a2.021,2.021,0,0,1-2.016-2.016v-6.8A2.021,2.021,0,0,1,15.563,26.594Zm.242,8.57h6.312V28.852H15.805Zm.549-2.533a1.129,1.129,0,0,1,1.6-1.6l.6.6,1.337-1.653a1.129,1.129,0,0,1,1.756,1.42L19.521,34.03a1.129,1.129,0,0,1-1.675.089Zm-.792,18.429h6.8a2.025,2.025,0,0,1,2.016,2.019v6.8a2.021,2.021,0,0,1-2.016,2.016h-6.8a2.021,2.021,0,0,1-2.016-2.016v-6.8A2.025,2.025,0,0,1,15.563,51.061Zm.242,2.258v6.315h6.312V53.319Zm.549,3.783a1.129,1.129,0,0,1,1.6-1.6l.6.6,1.337-1.653a1.129,1.129,0,0,1,1.756,1.42L19.521,58.5a1.129,1.129,0,0,1-1.675.089Zm-.792-18.274h6.8a2.021,2.021,0,0,1,2.016,2.016v6.8a2.021,2.021,0,0,1-2.016,2.016h-6.8a2.021,2.021,0,0,1-2.016-2.016v-6.8A2.021,2.021,0,0,1,15.563,38.827Zm.242,2.258V47.4h6.312V41.085Zm.548,3.779a1.129,1.129,0,0,1,1.6-1.6l.6.6,1.336-1.652a1.129,1.129,0,1,1,1.756,1.42l-2.125,2.628a1.129,1.129,0,0,1-1.676.088ZM28.663,31.378a1.129,1.129,0,1,1,0-2.258H39.789a1.129,1.129,0,0,1,0,2.258Zm0,3.517a1.129,1.129,0,1,1,0-2.258h7.243a1.129,1.129,0,1,1,0,2.258ZM47.622,47.957a4.992,4.992,0,1,1-4.99,4.993,4.993,4.993,0,0,1,4.99-4.993Zm0,2.258a2.734,2.734,0,1,0,2.735,2.735,2.733,2.733,0,0,0-2.735-2.735Zm.515-12.53a.515.515,0,1,0-1.03,0V44.17a.515.515,0,0,0,1.03,0ZM32.356,52.435a.515.515,0,1,0,0,1.03h6.485a.515.515,0,1,0,0-1.03ZM25.89,4.39l-.44-1.144h-1.5l-.442,1.146a1.129,1.129,0,0,1-.792.692,8.455,8.455,0,0,0-2.482,1.029,1.129,1.129,0,0,1-1.051.07l-1.12-.5L17.01,6.741l.5,1.12a1.129,1.129,0,0,1-.07,1.051A8.522,8.522,0,0,0,16.406,11.4a1.13,1.13,0,0,1-.692.79l-1.142.439v1.5l1.142.439a1.129,1.129,0,0,1,.692.789,8.509,8.509,0,0,0,1.031,2.484,1.129,1.129,0,0,1,.071,1.052l-.5,1.12,1.057,1.058,1.12-.5a1.129,1.129,0,0,1,1.047.07,8.517,8.517,0,0,0,2.487,1.03,1.129,1.129,0,0,1,.793.693l.439,1.142h1.5l.439-1.142a1.129,1.129,0,0,1,.793-.693,8.416,8.416,0,0,0,2.48-1.028,1.129,1.129,0,0,1,1.051-.072l1.12.5,1.058-1.058-.5-1.12a1.129,1.129,0,0,1,.07-1.047A8.531,8.531,0,0,0,33,15.357a1.129,1.129,0,0,1,.693-.793l1.142-.439v-1.5l-1.142-.439A1.129,1.129,0,0,1,33,11.4a8.435,8.435,0,0,0-1.028-2.484,1.129,1.129,0,0,1-.071-1.05l.5-1.12L31.335,5.685l-1.12.5a1.129,1.129,0,0,1-1.051-.07,8.454,8.454,0,0,0-2.482-1.029,1.129,1.129,0,0,1-.793-.694ZM24.7,6.933a6.444,6.444,0,1,1-6.442,6.442A6.443,6.443,0,0,1,24.7,6.933Zm0,2.258a4.186,4.186,0,1,0,4.187,4.184A4.183,4.183,0,0,0,24.7,9.191Z" fill-rule="evenodd"/>
        </g>
      </g>
    </g>
  </g>
</svg>
