<svg xmlns="http://www.w3.org/2000/svg" xmlns:xlink="http://www.w3.org/1999/xlink" width="85" height="83.181" viewBox="0 0 85 83.181">
  <defs>
    <clipPath id="clip-path">
      <rect id="Rectangle_410708" data-name="Rectangle 410708" width="70" height="70" transform="translate(-5979.051 -10981.435)" fill="#fff" stroke="#707070" stroke-width="1"/>
    </clipPath>
  </defs>
  <g id="Group_1209168" data-name="Group 1209168" transform="translate(5994.051 10994.615)">
    <g id="Rectangle_410707" data-name="Rectangle 410707" transform="translate(-5994.051 -10994.615)" fill="#e2dbf9" stroke="#b7a8f1" stroke-width="3">
      <rect width="70" height="70" rx="10" stroke="none"/>
      <rect x="1.5" y="1.5" width="67" height="67" rx="8.5" fill="none"/>
    </g>
    <g id="Mask_Group_1099368" data-name="Mask Group 1099368" clip-path="url(#clip-path)">
      <g id="resume_1283186" transform="translate(-5979.051 -10981.435)">
        <path id="Path_1279686" data-name="Path 1279686" d="M21.452,62.1h27.1v6.774h-27.1Zm0,0" fill="#aab2bd"/>
        <path id="Path_1279687" data-name="Path 1279687" d="M57.581,16.935h6.774a4.516,4.516,0,0,1,4.516,4.516V57.581A4.516,4.516,0,0,1,64.355,62.1H5.645a4.516,4.516,0,0,1-4.516-4.516V21.452a4.516,4.516,0,0,1,4.516-4.516Zm0,0" fill="#69d6f4"/>
        <path id="Path_1279688" data-name="Path 1279688" d="M68.871,53.065V21.452a4.516,4.516,0,0,0-4.516-4.516H46.29L22.581,53.065Zm0,0" fill="#4fc1e9"/>
        <path id="Path_1279689" data-name="Path 1279689" d="M1.129,57.581A4.516,4.516,0,0,0,5.645,62.1h58.71a4.516,4.516,0,0,0,4.516-4.516V53.065H1.129Zm0,0" fill="#838f9b"/>
        <path id="Path_1279690" data-name="Path 1279690" d="M57.581,16.935H10.161V50.806H59.839V16.935Zm0,0" fill="#4fc1e9"/>
        <path id="Path_1279691" data-name="Path 1279691" d="M59.839,50.806V16.935H46.29L24.062,50.806Zm0,0" fill="#3bafda"/>
        <path id="Path_1279692" data-name="Path 1279692" d="M12.419,1.129H57.581V48.548H12.419Zm0,0" fill="#e6e9ed"/>
        <path id="Path_1279693" data-name="Path 1279693" d="M16.935,35H53.065v9.032H16.935Zm0,0" fill="#a0d468"/>
        <path id="Path_1279694" data-name="Path 1279694" d="M16.935,5.645H35V19.194H16.935Zm0,0" fill="#ffc729"/>
        <path id="Path_1279695" data-name="Path 1279695" d="M21.452,62.1h27.1v2.258h-27.1Zm0,0" fill="#969faa"/>
        <path id="Path_1279696" data-name="Path 1279696" d="M64.355,15.806H58.71V0H11.29V15.806H5.645A5.652,5.652,0,0,0,0,21.452V57.581a5.652,5.652,0,0,0,5.645,5.645H20.323v4.516H15.806V70H54.194V67.742H49.677V63.226H64.355A5.652,5.652,0,0,0,70,57.581V21.452A5.652,5.652,0,0,0,64.355,15.806ZM13.548,2.258h42.9V47.419h-42.9Zm-7.9,15.806H11.29V49.677H58.71V18.065h5.645a3.392,3.392,0,0,1,3.387,3.387V51.935H2.258V21.452A3.392,3.392,0,0,1,5.645,18.065ZM47.419,67.742H22.581V63.226H47.419Zm16.935-6.774H5.645a3.392,3.392,0,0,1-3.387-3.387V54.194H67.742v3.387A3.392,3.392,0,0,1,64.355,60.968Zm0,0"/>
        <path id="Path_1279697" data-name="Path 1279697" d="M27.1,56.452h2.258V58.71H27.1Zm0,0"/>
        <path id="Path_1279698" data-name="Path 1279698" d="M31.613,56.452h6.774V58.71H31.613Zm0,0"/>
        <path id="Path_1279699" data-name="Path 1279699" d="M40.645,56.452H42.9V58.71H40.645Zm0,0"/>
        <path id="Path_1279700" data-name="Path 1279700" d="M15.806,45.161H54.194V33.871H15.806Zm2.258-9.032H51.935V42.9H18.065Zm0,0"/>
        <path id="Path_1279701" data-name="Path 1279701" d="M20.323,38.387h2.258v2.258H20.323Zm0,0"/>
        <path id="Path_1279702" data-name="Path 1279702" d="M24.839,38.387H27.1v2.258H24.839Zm0,0"/>
        <path id="Path_1279703" data-name="Path 1279703" d="M29.355,38.387h2.258v2.258H29.355Zm0,0"/>
        <path id="Path_1279704" data-name="Path 1279704" d="M33.871,38.387h2.258v2.258H33.871Zm0,0"/>
        <path id="Path_1279705" data-name="Path 1279705" d="M38.387,38.387h2.258v2.258H38.387Zm0,0"/>
        <path id="Path_1279706" data-name="Path 1279706" d="M42.9,38.387h2.258v2.258H42.9Zm0,0"/>
        <path id="Path_1279707" data-name="Path 1279707" d="M47.419,38.387h2.258v2.258H47.419Zm0,0"/>
        <path id="Path_1279708" data-name="Path 1279708" d="M36.129,4.516H15.806V20.323H36.129ZM33.871,18.065H18.065V6.774H33.871Zm0,0"/>
        <path id="Path_1279709" data-name="Path 1279709" d="M38.387,4.516H54.194V6.774H38.387Zm0,0"/>
        <path id="Path_1279710" data-name="Path 1279710" d="M38.387,9.032H54.194V11.29H38.387Zm0,0"/>
        <path id="Path_1279711" data-name="Path 1279711" d="M38.387,13.548H54.194v2.258H38.387Zm0,0"/>
        <path id="Path_1279712" data-name="Path 1279712" d="M38.387,18.065H54.194v2.258H38.387Zm0,0"/>
        <path id="Path_1279713" data-name="Path 1279713" d="M15.806,22.581h2.258v2.258H15.806Zm0,0"/>
        <path id="Path_1279714" data-name="Path 1279714" d="M20.323,22.581H54.194v2.258H20.323Zm0,0"/>
        <path id="Path_1279715" data-name="Path 1279715" d="M15.806,27.1H54.194v2.258H15.806Zm0,0"/>
      </g>
    </g>
  </g>
</svg>
