<svg xmlns="http://www.w3.org/2000/svg" xmlns:xlink="http://www.w3.org/1999/xlink" width="87.439" height="83.062" viewBox="0 0 87.439 83.062">
  <defs>
    <clipPath id="clip-path">
      <rect id="Rectangle_425536" data-name="Rectangle 425536" width="75.141" height="72.969" transform="translate(294.859 4944.565)" fill="#fff" stroke="#707070" stroke-width="1"/>
    </clipPath>
  </defs>
  <g id="Group_1209395" data-name="Group 1209395" transform="translate(-282.561 -4934.473)">
    <g id="Rectangle_425535" data-name="Rectangle 425535" transform="translate(282.561 4934.473)" fill="#e2dbf9" stroke="#b7a8f1" stroke-width="3">
      <rect width="70" height="70" rx="10" stroke="none"/>
      <rect x="1.5" y="1.5" width="67" height="67" rx="8.5" fill="none"/>
    </g>
    <g id="Mask_Group_1099418" data-name="Mask Group 1099418" clip-path="url(#clip-path)">
      <g id="check_6329802" transform="translate(294.772 4943.389)">
        <path id="Path_1280676" data-name="Path 1280676" d="M58.846,2.354a14.123,14.123,0,0,0-9.93,24.161L48.254,30.6l5.075-1.119A14.123,14.123,0,1,0,58.846,2.354Z" fill="#a1cdf9"/>
        <path id="Path_1280677" data-name="Path 1280677" d="M58.846,2.354a14.08,14.08,0,0,0-10,4.157,14.964,14.964,0,0,0-.588,4.082c0,9.1,8.168,16.477,18.242,16.477.588,0,1.177-.031,1.758-.08A14.109,14.109,0,0,0,58.846,2.354Z" fill="#c7e2fb"/>
        <circle id="Ellipse_12731" data-name="Ellipse 12731" cx="9.415" cy="9.415" r="9.415" transform="translate(49.431 7.062)" fill="#6bc148"/>
        <path id="Path_1280678" data-name="Path 1280678" d="M37.662,32.954v7.062A12.946,12.946,0,0,1,24.715,52.962h0A12.946,12.946,0,0,1,11.769,40.015V32.954h4.255a9.361,9.361,0,0,0,8.692-5.884h0a9.361,9.361,0,0,0,8.692,5.885Z" fill="#f8e0b5"/>
        <path id="Path_1280679" data-name="Path 1280679" d="M11.769,40.015V37.662H10.592a3.531,3.531,0,0,0,0,7.062h2.073a12.9,12.9,0,0,1-.9-4.708Z" fill="#f8e0b5"/>
        <path id="Path_1280680" data-name="Path 1280680" d="M41.507,23.264a14.316,14.316,0,0,0-13.469-9.141H21.393A14.316,14.316,0,0,0,7.924,23.264h0A13.479,13.479,0,0,0,7.4,31.021l1.639,7.013a3.485,3.485,0,0,1,1.55-.373h1.177V32.954h4.255a9.361,9.361,0,0,0,8.692-5.884,9.361,9.361,0,0,0,8.692,5.884h4.255v4.708h1.177a3.5,3.5,0,0,1,1.451.319l1.738-6.959a13.479,13.479,0,0,0-.521-7.757Z" fill="#686868"/>
        <path id="Path_1280681" data-name="Path 1280681" d="M38.838,37.662H37.662v2.354a12.9,12.9,0,0,1-.9,4.708h2.073a3.531,3.531,0,1,0,0-7.062Z" fill="#f8e0b5"/>
        <path id="Path_1280682" data-name="Path 1280682" d="M42.016,58.526,30.6,55.144V51.537a12.871,12.871,0,0,1-11.769,0v3.606L7.415,58.526A7.062,7.062,0,0,0,2.354,65.3v7.672H47.077V65.3a7.061,7.061,0,0,0-5.059-6.77Z" fill="#f8e0b5"/>
        <path id="Path_1280683" data-name="Path 1280683" d="M2.354,65.3v7.672H47.077V65.3a7.061,7.061,0,0,0-5.059-6.77L30.6,55.144h0A8.04,8.04,0,0,1,24.918,57.5h-.4a8.039,8.039,0,0,1-5.681-2.353L7.415,58.526A7.062,7.062,0,0,0,2.354,65.3Z" fill="#3477cc"/>
        <path id="Path_1280684" data-name="Path 1280684" d="M7.062,66.89v6.079H42.369V66.89a5.592,5.592,0,0,0-3.992-5.364l-9.016-2.68h0a6.329,6.329,0,0,1-4.485,1.864h-.32a6.329,6.329,0,0,1-4.485-1.864l-9.017,2.679A5.592,5.592,0,0,0,7.062,66.89Z" fill="#3e89de"/>
        <path id="Path_1280685" data-name="Path 1280685" d="M24.715,27.069a9.361,9.361,0,0,1-8.692,5.885H14.576C16.385,42.387,23.514,49.6,32.284,50.5a12.916,12.916,0,0,0,5.377-10.488V32.954H33.407a9.361,9.361,0,0,1-8.692-5.884Z" fill="#f9ebd2"/>
        <path id="Path_1280686" data-name="Path 1280686" d="M42.355,57.4,31.777,54.264V52.227A14.207,14.207,0,0,0,37.544,45.9h1.295a4.689,4.689,0,0,0,2.907-8.382l1.43-6.238a14.64,14.64,0,0,0-.567-8.435,15.542,15.542,0,0,0-14.57-9.9H21.393a15.545,15.545,0,0,0-14.567,9.9,14.644,14.644,0,0,0-.566,8.434l1.43,6.238a4.689,4.689,0,0,0,2.9,8.377h1.3a14.207,14.207,0,0,0,5.761,6.327v2.037L7.076,57.4a8.287,8.287,0,0,0-5.9,7.9v7.674a1.177,1.177,0,0,0,1.177,1.177H47.077a1.177,1.177,0,0,0,1.177-1.177V65.3A8.287,8.287,0,0,0,42.355,57.4ZM38.838,43.546h-.471a14.043,14.043,0,0,0,.471-3.531V38.838a2.354,2.354,0,1,1,0,4.708ZM8.55,30.759a12.288,12.288,0,0,1,.471-7.082A13.182,13.182,0,0,1,21.393,15.3h6.645A13.182,13.182,0,0,1,40.4,23.677a12.288,12.288,0,0,1,.471,7.082l-1.331,5.8a4.739,4.739,0,0,0-.706-.072V32.954a1.177,1.177,0,0,0-1.177-1.177H33.407a8.144,8.144,0,0,1-7.6-5.146,1.177,1.177,0,0,0-2.187,0,8.144,8.144,0,0,1-7.6,5.146H11.769a1.177,1.177,0,0,0-1.177,1.177v3.531a4.738,4.738,0,0,0-.712.072Zm2.042,12.787a2.354,2.354,0,0,1,0-4.708v1.177a14.043,14.043,0,0,0,.471,3.531Zm2.354-3.531V34.131h3.078a10.475,10.475,0,0,0,8.692-4.572,10.475,10.475,0,0,0,8.692,4.572h3.078v5.885a11.769,11.769,0,0,1-23.538,0ZM24.715,54.138a14.031,14.031,0,0,0,4.708-.824v1.31a6.81,6.81,0,0,1-4.505,1.7h-.4a6.81,6.81,0,0,1-4.505-1.7v-1.31a14.031,14.031,0,0,0,4.708.824ZM45.9,71.792H41.192V64.731H38.838v7.062H10.592V64.731H8.238v7.062H3.531V65.3a5.918,5.918,0,0,1,4.215-5.641l10.786-3.2a9.139,9.139,0,0,0,5.981,2.215h.4A9.143,9.143,0,0,0,30.9,56.459l10.787,3.2A5.918,5.918,0,0,1,45.9,65.3Z"/>
        <path id="Path_1280687" data-name="Path 1280687" d="M58.846,1.177A15.3,15.3,0,0,0,47.665,26.91l-.568,3.5a1.177,1.177,0,0,0,1.157,1.365,1.224,1.224,0,0,0,.253-.027l4.716-1.04A15.3,15.3,0,1,0,58.846,1.177Zm0,28.246A12.847,12.847,0,0,1,53.785,28.4a1.191,1.191,0,0,0-.46-.093,1.216,1.216,0,0,0-.253.027l-3.382.746.385-2.374a1.177,1.177,0,0,0-.334-1.025,12.946,12.946,0,1,1,9.106,3.745Z"/>
        <path id="Path_1280688" data-name="Path 1280688" d="M58.846,5.885A10.592,10.592,0,1,0,69.438,16.477,10.592,10.592,0,0,0,58.846,5.885Zm0,18.831a8.238,8.238,0,1,1,8.238-8.238,8.238,8.238,0,0,1-8.238,8.238Z"/>
        <path id="Path_1280689" data-name="Path 1280689" d="M57.669,17.167l-1.522-1.522-1.664,1.664,2.354,2.354a1.177,1.177,0,0,0,1.664,0l5.885-5.885-1.664-1.664Z"/>
      </g>
    </g>
  </g>
</svg>
