<svg xmlns="http://www.w3.org/2000/svg" xmlns:xlink="http://www.w3.org/1999/xlink" width="87.439" height="83.062" viewBox="0 0 87.439 83.062">
  <defs>
    <clipPath id="clip-path">
      <rect id="Rectangle_425948" data-name="Rectangle 425948" width="75.141" height="72.969" transform="translate(1242.299 4944.565)" fill="#fff" stroke="#707070" stroke-width="1"/>
    </clipPath>
  </defs>
  <g id="Group_1209394" data-name="Group 1209394" transform="translate(-1230 -4934.473)">
    <g id="Rectangle_425947" data-name="Rectangle 425947" transform="translate(1230 4934.473)" fill="#e2dbf9" stroke="#b7a8f1" stroke-width="3">
      <rect width="70" height="70" rx="10" stroke="none"/>
      <rect x="1.5" y="1.5" width="67" height="67" rx="8.5" fill="none"/>
    </g>
    <g id="Mask_Group_1099419" data-name="Mask Group 1099419" clip-path="url(#clip-path)">
      <g id="folder_13018383" transform="translate(1242.203 4943.388)">
        <path id="Path_1280690" data-name="Path 1280690" d="M8.239,2.354H52.967V35.311H8.239Z" fill="#e3e8f6"/>
        <path id="Path_1280691" data-name="Path 1280691" d="M52.967,2.354H8.239v8.828c0,13.326,14.755,24.129,32.957,24.129h11.77Z" fill="#f8f7fe"/>
        <path id="Path_1280692" data-name="Path 1280692" d="M22.364,35.311,17.656,30.6H4.708V68.268H56.5V35.311Z" fill="#e4a350"/>
        <path id="Path_1280693" data-name="Path 1280693" d="M56.5,68.24V35.311H22.364L17.656,30.6H4.708v3.531A33.843,33.843,0,0,0,38.254,68.268H55.712C55.974,68.259,56.237,68.251,56.5,68.24Z" fill="#f5bb5c"/>
        <circle id="Ellipse_12732" data-name="Ellipse 12732" cx="14.125" cy="14.125" r="14.125" transform="translate(42.374 44.728)" fill="#94c249"/>
        <path id="Path_1280694" data-name="Path 1280694" d="M56.5,44.728a14.075,14.075,0,0,0-10.51,4.708c-.052.589-.084,1.177-.084,1.766,0,10.075,7.641,18.244,17.067,18.244a16.008,16.008,0,0,0,3.215-.334A14.112,14.112,0,0,0,56.5,44.728Z" fill="#b4de60"/>
        <path id="Path_1280695" data-name="Path 1280695" d="M52.521,58.406l1.623,1.623L60.475,53.7a2.5,2.5,0,0,1,3.531,3.531l-7.853,7.853a2.842,2.842,0,0,1-4.019,0L48.99,61.937a2.5,2.5,0,0,1,3.531-3.531Z" fill="#fff"/>
        <path id="Path_1280696" data-name="Path 1280696" d="M57.675,43.611v-8.3A1.177,1.177,0,0,0,56.5,34.134H54.144V2.354a1.177,1.177,0,0,0-1.177-1.177H8.239A1.177,1.177,0,0,0,7.062,2.354V29.426H4.708A1.177,1.177,0,0,0,3.531,30.6V68.268a1.177,1.177,0,0,0,1.177,1.177H45.482A15.29,15.29,0,1,0,57.675,43.611ZM9.416,3.531H51.79v30.6H22.851l-4.363-4.363a1.177,1.177,0,0,0-.832-.345H9.416ZM5.885,67.091V31.78H17.168l4.363,4.363a1.177,1.177,0,0,0,.832.345H55.321v7.122a15.263,15.263,0,0,0-11.7,23.481ZM56.5,71.8A12.947,12.947,0,1,1,69.446,58.852,12.947,12.947,0,0,1,56.5,71.8Z"/>
        <path id="Path_1280697" data-name="Path 1280697" d="M62.241,51.79a3.649,3.649,0,0,0-2.6,1.076l-5.5,5.5-.791-.791a3.674,3.674,0,0,0-5.2,5.2L51.3,65.914a4.02,4.02,0,0,0,5.684,0l7.853-7.853a3.674,3.674,0,0,0-2.6-6.271Zm.933,4.607L55.321,64.25a1.7,1.7,0,0,1-2.354,0L49.822,61.1a1.32,1.32,0,0,1,1.867-1.867l1.623,1.623a1.177,1.177,0,0,0,1.664,0l6.331-6.331a1.319,1.319,0,0,1,2.253.933,1.334,1.334,0,0,1-.386.933Z"/>
        <path id="Path_1280698" data-name="Path 1280698" d="M11.77,5.885H32.957V8.239H11.77Z"/>
        <path id="Path_1280699" data-name="Path 1280699" d="M11.77,10.593H49.436v2.354H11.77Z"/>
        <path id="Path_1280700" data-name="Path 1280700" d="M11.77,15.3H49.436v2.354H11.77Z"/>
        <path id="Path_1280701" data-name="Path 1280701" d="M11.77,20.01H49.436v2.354H11.77Z"/>
        <path id="Path_1280702" data-name="Path 1280702" d="M11.77,24.718H49.436v2.354H11.77Z"/>
        <path id="Path_1280703" data-name="Path 1280703" d="M22.364,29.426H44.728V31.78H22.364Z"/>
        <path id="Path_1280704" data-name="Path 1280704" d="M47.082,29.426h2.354V31.78H47.082Z"/>
      </g>
    </g>
  </g>
</svg>
