<svg xmlns="http://www.w3.org/2000/svg" xmlns:xlink="http://www.w3.org/1999/xlink" width="87.439" height="83.062" viewBox="0 0 87.439 83.062">
  <defs>
    <clipPath id="clip-path">
      <rect id="Rectangle_425944" data-name="Rectangle 425944" width="75.141" height="72.969" transform="translate(612.299 4944.565)" fill="#fff" stroke="#707070" stroke-width="1"/>
    </clipPath>
  </defs>
  <g id="Group_1209392" data-name="Group 1209392" transform="translate(-600 -4934.473)">
    <g id="Rectangle_425943" data-name="Rectangle 425943" transform="translate(600 4934.473)" fill="#e2dbf9" stroke="#b7a8f1" stroke-width="3">
      <rect width="70" height="70" rx="10" stroke="none"/>
      <rect x="1.5" y="1.5" width="67" height="67" rx="8.5" fill="none"/>
    </g>
    <g id="Mask_Group_1099421" data-name="Mask Group 1099421" clip-path="url(#clip-path)">
      <g id="schedule_3968619" transform="translate(612.207 4943.389)">
        <path id="Path_1280718" data-name="Path 1280718" d="M42.369,60.407a12.946,12.946,0,0,1,0-14.89v-1.97a3.531,3.531,0,0,0-3.531-3.531H5.885a3.531,3.531,0,0,0-3.531,3.531V62.377a3.531,3.531,0,0,0,3.531,3.531H17.654l9.415,7.062V65.908H38.838a3.531,3.531,0,0,0,3.531-3.531Z" fill="#f9d266"/>
        <path id="Path_1280719" data-name="Path 1280719" d="M2.4,43.127l-.042.042V62.377a3.531,3.531,0,0,0,3.531,3.531H17.654l9.415,7.062V65.908H38.838V45.481a2.354,2.354,0,0,0-2.354-2.354Z" fill="#fce797"/>
        <path id="Path_1280720" data-name="Path 1280720" d="M64.574,58.692a13,13,0,0,1-5.885,5.885l7.179,7.179a4.162,4.162,0,0,0,5.881-5.89l-7.171-7.171Z" fill="#4c6cb5"/>
        <path id="Path_1280721" data-name="Path 1280721" d="M72.969,18.831H14.123V10.592a2.354,2.354,0,0,1,2.354-2.354H70.615a2.354,2.354,0,0,1,2.354,2.354Z" fill="#d5883e"/>
        <path id="Path_1280722" data-name="Path 1280722" d="M68.262,62.377,64.574,58.69a12.946,12.946,0,0,0-22.2-13.173v-1.97a3.531,3.531,0,0,0-3.531-3.531H14.123V18.831H72.969V60.023a2.354,2.354,0,0,1-2.354,2.354Z" fill="#f0ae42"/>
        <path id="Path_1280723" data-name="Path 1280723" d="M60.353,42.332a12.96,12.96,0,0,0-1.506-.9v-6.12h7.062v7.062h-5.5Z" fill="#fce797"/>
        <path id="Path_1280724" data-name="Path 1280724" d="M54.138,40.068c-.387-.035-.78-.053-1.177-.053a12.905,12.905,0,0,0-5.885,1.412v-6.12h7.062Z" fill="#fce797"/>
        <rect id="Rectangle_425949" data-name="Rectangle 425949" width="4.708" height="11.769" rx="2.354" transform="translate(21.185 2.354)" fill="#f9d266"/>
        <rect id="Rectangle_425950" data-name="Rectangle 425950" width="4.708" height="11.769" rx="2.354" transform="translate(61.2 2.354)" fill="#f9d266"/>
        <rect id="Rectangle_425951" data-name="Rectangle 425951" width="4.708" height="11.769" rx="2.354" transform="translate(48.254 2.354)" fill="#f9d266"/>
        <rect id="Rectangle_425952" data-name="Rectangle 425952" width="4.708" height="11.769" rx="2.354" transform="translate(34.131 2.354)" fill="#f9d266"/>
        <g id="Group_1209391" data-name="Group 1209391">
          <path id="Path_1280725" data-name="Path 1280725" d="M21.185,23.538h7.062V30.6H21.185Z" fill="#fce797"/>
          <path id="Path_1280726" data-name="Path 1280726" d="M32.954,23.538h7.062V30.6H32.954Z" fill="#fce797"/>
          <path id="Path_1280727" data-name="Path 1280727" d="M58.846,23.538h7.062V30.6H58.846Z" fill="#fce797"/>
          <path id="Path_1280728" data-name="Path 1280728" d="M21.185,40.021V35.308h7.062v4.714" fill="#fce797"/>
          <path id="Path_1280729" data-name="Path 1280729" d="M32.954,40.015V35.308h7.062v4.909" fill="#fce797"/>
        </g>
        <path id="Path_1280730" data-name="Path 1280730" d="M8.238,45.9H36.485v2.354H8.238Z" fill="#f0ae42"/>
        <path id="Path_1280731" data-name="Path 1280731" d="M5.885,50.608h30.6v2.354H5.885Z" fill="#f0ae42"/>
        <path id="Path_1280732" data-name="Path 1280732" d="M5.885,55.315h30.6v2.354H5.885Z" fill="#f0ae42"/>
        <path id="Path_1280733" data-name="Path 1280733" d="M54.971,24.371l-1.664-1.664-2.7,2.7-2.7-2.7-1.664,1.664,2.7,2.7-2.7,2.7,1.664,1.664,2.7-2.7,2.7,2.7,1.664-1.664-2.7-2.7Z" fill="#d23f34"/>
        <circle id="Ellipse_12735" data-name="Ellipse 12735" cx="12.946" cy="12.946" r="12.946" transform="translate(40.015 40.015)" fill="#5e87ca"/>
        <circle id="Ellipse_12736" data-name="Ellipse 12736" cx="8.238" cy="8.238" r="8.238" transform="translate(44.723 44.723)" fill="#e2e7f6"/>
        <path id="Path_1280734" data-name="Path 1280734" d="M63.554,2.354A2.354,2.354,0,0,0,61.2,4.708v7.062a2.354,2.354,0,0,0,2.354-2.354Z" fill="#fce797"/>
        <path id="Path_1280735" data-name="Path 1280735" d="M50.608,2.354a2.354,2.354,0,0,0-2.354,2.354v7.062a2.354,2.354,0,0,0,2.354-2.354Z" fill="#fce797"/>
        <path id="Path_1280736" data-name="Path 1280736" d="M36.485,2.354a2.354,2.354,0,0,0-2.354,2.354v7.062a2.354,2.354,0,0,0,2.354-2.354Z" fill="#fce797"/>
        <path id="Path_1280737" data-name="Path 1280737" d="M23.538,2.354a2.354,2.354,0,0,0-2.354,2.354v7.062a2.354,2.354,0,0,0,2.354-2.354Z" fill="#fce797"/>
        <path id="Path_1280738" data-name="Path 1280738" d="M74.146,60.023V10.592a3.531,3.531,0,0,0-3.531-3.531H67.085V4.708a3.531,3.531,0,1,0-7.062,0V7.062H54.138V4.708a3.531,3.531,0,0,0-7.062,0V7.062H40.015V4.708a3.531,3.531,0,0,0-7.062,0V7.062H27.069V4.708a3.531,3.531,0,1,0-7.062,0V7.062H16.477a3.531,3.531,0,0,0-3.531,3.531V38.838H5.885a4.708,4.708,0,0,0-4.708,4.708V62.377a4.708,4.708,0,0,0,4.708,4.708H17.262l9.1,6.826a1.177,1.177,0,0,0,1.883-.942V67.085H38.838a4.708,4.708,0,0,0,4.6-3.724,14.061,14.061,0,0,0,14.993,2.62l6.6,6.6a5.338,5.338,0,0,0,7.549-7.549l-1.53-1.524a3.524,3.524,0,0,0,3.093-3.486ZM62.377,4.708a1.177,1.177,0,1,1,2.354,0v7.062a1.177,1.177,0,1,1-2.354,0Zm-12.946,0a1.177,1.177,0,0,1,2.354,0v7.062a1.177,1.177,0,1,1-2.354,0Zm-14.123,0a1.177,1.177,0,0,1,2.354,0v7.062a1.177,1.177,0,1,1-2.354,0Zm-12.946,0a1.177,1.177,0,1,1,2.354,0v7.062a1.177,1.177,0,1,1-2.354,0ZM16.477,9.415h3.531v2.354a3.531,3.531,0,1,0,7.062,0V9.415h5.885v2.354a3.531,3.531,0,0,0,7.062,0V9.415h7.062v2.354a3.531,3.531,0,0,0,7.062,0V9.415h5.885v2.354a3.531,3.531,0,1,0,7.062,0V9.415h3.531a1.177,1.177,0,0,1,1.177,1.177v7.062H15.3V10.592A1.177,1.177,0,0,1,16.477,9.415ZM38.838,64.731H27.069a1.177,1.177,0,0,0-1.177,1.177v4.708L18.36,64.966a1.177,1.177,0,0,0-.706-.235H5.885a2.354,2.354,0,0,1-2.354-2.354V43.546a2.354,2.354,0,0,1,2.354-2.354H38.838a2.354,2.354,0,0,1,2.354,2.354v1.625a14.068,14.068,0,0,0,0,15.58v1.625A2.354,2.354,0,0,1,38.838,64.731ZM27.069,38.838H22.362V36.485h4.708Zm7.062,0V36.485h4.708v2.354Zm7.062,14.123A11.769,11.769,0,1,1,52.962,64.731,11.769,11.769,0,0,1,41.192,52.962ZM52.962,38.838a14.031,14.031,0,0,0-4.708.824V36.485h4.708Zm7.79,2.354c-.235-.157-.483-.3-.729-.443V36.485h4.708v4.708Zm8.057,30.6a2.966,2.966,0,0,1-2.11-.874l-6.1-6.1a14.185,14.185,0,0,0,4.219-4.22l6.1,6.1a2.985,2.985,0,0,1-2.11,5.095ZM70.615,61.2H68.749l-2.768-2.768a14.061,14.061,0,0,0-2.522-14.886h2.449a1.177,1.177,0,0,0,1.177-1.177V35.308a1.177,1.177,0,0,0-1.177-1.177H58.846a1.177,1.177,0,0,0-1.177,1.177v4.355a13.905,13.905,0,0,0-2.354-.611V35.308a1.177,1.177,0,0,0-1.177-1.177H47.077A1.177,1.177,0,0,0,45.9,35.308V40.75a14.123,14.123,0,0,0-2.461,1.812,4.708,4.708,0,0,0-2.247-3.068V35.308a1.177,1.177,0,0,0-1.177-1.177H32.954a1.177,1.177,0,0,0-1.177,1.177v3.531H29.423V35.308a1.177,1.177,0,0,0-1.177-1.177H21.185a1.177,1.177,0,0,0-1.177,1.177v3.531H15.3V20.008H71.792V60.023A1.177,1.177,0,0,1,70.615,61.2Z"/>
        <path id="Path_1280739" data-name="Path 1280739" d="M28.246,22.362H21.185a1.177,1.177,0,0,0-1.177,1.177V30.6a1.177,1.177,0,0,0,1.177,1.177h7.062A1.177,1.177,0,0,0,29.423,30.6V23.538A1.177,1.177,0,0,0,28.246,22.362Zm-1.177,7.062H22.362V24.715h4.708Z"/>
        <path id="Path_1280740" data-name="Path 1280740" d="M40.015,22.362H32.954a1.177,1.177,0,0,0-1.177,1.177V30.6a1.177,1.177,0,0,0,1.177,1.177h7.062A1.177,1.177,0,0,0,41.192,30.6V23.538A1.177,1.177,0,0,0,40.015,22.362Zm-1.177,7.062H34.131V24.715h4.708Z"/>
        <path id="Path_1280741" data-name="Path 1280741" d="M65.908,22.362H58.846a1.177,1.177,0,0,0-1.177,1.177V30.6a1.177,1.177,0,0,0,1.177,1.177h7.062A1.177,1.177,0,0,0,67.085,30.6V23.538A1.177,1.177,0,0,0,65.908,22.362Zm-1.177,7.062H60.023V24.715h4.708Z"/>
        <path id="Path_1280742" data-name="Path 1280742" d="M8.238,45.9H36.485v2.354H8.238Z"/>
        <path id="Path_1280743" data-name="Path 1280743" d="M5.885,50.608h30.6v2.354H5.885Z"/>
        <path id="Path_1280744" data-name="Path 1280744" d="M5.885,55.315h30.6v2.354H5.885Z"/>
        <path id="Path_1280745" data-name="Path 1280745" d="M53.306,22.706l-2.7,2.7-2.7-2.7-1.664,1.664,2.7,2.7-2.7,2.7,1.664,1.664,2.7-2.7,2.7,2.7,1.664-1.664-2.7-2.7,2.7-2.7Z"/>
        <path id="Path_1280746" data-name="Path 1280746" d="M52.962,43.546a9.415,9.415,0,1,0,9.415,9.415A9.415,9.415,0,0,0,52.962,43.546Zm0,16.477a7.062,7.062,0,1,1,7.062-7.062,7.062,7.062,0,0,1-7.062,7.062Z"/>
      </g>
    </g>
  </g>
</svg>
