<svg xmlns="http://www.w3.org/2000/svg" xmlns:xlink="http://www.w3.org/1999/xlink" width="85" height="83.181" viewBox="0 0 85 83.181">
  <defs>
    <clipPath id="clip-path">
      <rect id="Rectangle_425582" data-name="Rectangle 425582" width="70" height="70" transform="translate(1192.5 8629.702)" fill="#fff" stroke="#707070" stroke-width="1"/>
    </clipPath>
  </defs>
  <g id="Group_1209290" data-name="Group 1209290" transform="translate(-1177.5 -8616.521)">
    <g id="Rectangle_425581" data-name="Rectangle 425581" transform="translate(1177.5 8616.521)" fill="#b7a8f1" stroke="#7f74a8" stroke-width="3">
      <rect width="70" height="70" rx="10" stroke="none"/>
      <rect x="1.5" y="1.5" width="67" height="67" rx="8.5" fill="none"/>
    </g>
    <g id="Mask_Group_1099393" data-name="Mask Group 1099393" clip-path="url(#clip-path)">
      <g id="checking_2452654" transform="translate(1191.372 8628.573)">
        <g id="Group_1209284" data-name="Group 1209284">
          <g id="Group_1209271" data-name="Group 1209271">
            <path id="Path_1280152" data-name="Path 1280152" d="M5.645,9.032h22.58v4.516H5.645Z" fill="#ffeaa7"/>
          </g>
          <g id="Group_1209272" data-name="Group 1209272">
            <path id="Path_1280153" data-name="Path 1280153" d="M5.645,20.322H24.172a18.078,18.078,0,0,0-3.692,4.516H5.645Z" fill="#ffeaa7"/>
          </g>
          <g id="Group_1209273" data-name="Group 1209273">
            <path id="Path_1280154" data-name="Path 1280154" d="M31.612,4.516V6.774a2.265,2.265,0,0,1-2.258,2.258H4.516A2.265,2.265,0,0,1,2.258,6.774V4.516A2.265,2.265,0,0,1,4.516,2.258H29.354A2.265,2.265,0,0,1,31.612,4.516Z" fill="#ff826e"/>
          </g>
          <g id="Group_1209274" data-name="Group 1209274">
            <path id="Path_1280155" data-name="Path 1280155" d="M29.354,13.548a2.265,2.265,0,0,1,2.258,2.258v.565a17.992,17.992,0,0,0-7.429,3.952s-.011-.011-.011,0H4.516a2.265,2.265,0,0,1-2.258-2.258V15.806a2.265,2.265,0,0,1,2.258-2.258H29.354Z" fill="#ff826e"/>
          </g>
          <g id="Group_1209275" data-name="Group 1209275">
            <path id="Path_1280156" data-name="Path 1280156" d="M5.645,24.838H20.48A17.905,17.905,0,0,0,18.2,31.612H4.516a2.265,2.265,0,0,1-2.258-2.258V27.1a2.265,2.265,0,0,1,2.258-2.258Z" fill="#ff826e"/>
          </g>
          <g id="Group_1209276" data-name="Group 1209276">
            <path id="Path_1280157" data-name="Path 1280157" d="M54.193,33.87a18.064,18.064,0,0,1-.565,4.516L51.935,42.62a18.088,18.088,0,0,1-4.516,5.352V70H60.967V60.967H70V33.87Z" fill="#f0d0b4"/>
          </g>
          <g id="Group_1209277" data-name="Group 1209277">
            <path id="Path_1280158" data-name="Path 1280158" d="M65.483,38.386v9.032H51.935v-4.8c.011,0,0-.011,0-.011a17.859,17.859,0,0,0,1.694-4.223Z" fill="#e6e9ed"/>
          </g>
          <g id="Group_1209278" data-name="Group 1209278">
            <path id="Path_1280159" data-name="Path 1280159" d="M51.935,60.967h4.516v4.516H51.935Z" fill="#e6e9ed"/>
          </g>
          <g id="Group_1209279" data-name="Group 1209279">
            <path id="Path_1280160" data-name="Path 1280160" d="M70,60.967,60.967,70V60.967Z" fill="#b4dd7f"/>
          </g>
          <g id="Group_1209280" data-name="Group 1209280">
            <path id="Path_1280161" data-name="Path 1280161" d="M38.386,56.451a2.265,2.265,0,0,1,2.258,2.258v6.774a4.516,4.516,0,1,1-9.032,0V58.709a2.265,2.265,0,0,1,2.258-2.258h4.516Z" fill="#969faa"/>
          </g>
          <g id="Group_1209281" data-name="Group 1209281">
            <path id="Path_1280162" data-name="Path 1280162" d="M39.515,51.619v2.574a2.257,2.257,0,0,1-2.258,2.258H35a2.257,2.257,0,0,1-2.258-2.258V51.619a18.3,18.3,0,0,0,6.774,0Z" fill="#ccd1d9"/>
          </g>
          <g id="Group_1209282" data-name="Group 1209282">
            <path id="Path_1280163" data-name="Path 1280163" d="M53.628,38.386a17.859,17.859,0,0,1-1.694,4.223s.011.011,0,.011a18.1,18.1,0,0,1-12.419,9,18.3,18.3,0,0,1-6.774,0A18.062,18.062,0,0,1,18.064,33.87a18.656,18.656,0,0,1,.135-2.258,18.1,18.1,0,0,1,5.972-11.29c0-.011.011,0,.011,0A18.078,18.078,0,0,1,53.628,38.386Z" fill="#fcd770"/>
          </g>
          <g id="Group_1209283" data-name="Group 1209283">
            <circle id="Ellipse_12691" data-name="Ellipse 12691" cx="13.548" cy="13.548" r="13.548" transform="translate(22.58 20.322)" fill="#69d6f4"/>
          </g>
        </g>
        <g id="Group_1209285" data-name="Group 1209285">
          <path id="Path_1280164" data-name="Path 1280164" d="M50.806,33.87A14.677,14.677,0,1,0,36.128,48.548,14.694,14.694,0,0,0,50.806,33.87Zm-27.1,0A12.419,12.419,0,1,1,36.128,46.29,12.434,12.434,0,0,1,23.709,33.87Z"/>
          <path id="Path_1280165" data-name="Path 1280165" d="M43.233,27.427,32.741,37.919,29.024,34.2l-1.6,1.6,5.314,5.314L44.83,29.024Z"/>
          <path id="Path_1280166" data-name="Path 1280166" d="M55.264,32.741a19.1,19.1,0,0,0-22.627-17.73,3.386,3.386,0,0,0-3.283-2.592V10.161a3.391,3.391,0,0,0,3.387-3.387V4.516a3.391,3.391,0,0,0-3.387-3.387H4.516A3.391,3.391,0,0,0,1.129,4.516V6.774a3.391,3.391,0,0,0,3.387,3.387v2.258a3.391,3.391,0,0,0-3.387,3.387v2.258a3.391,3.391,0,0,0,3.387,3.387v2.258A3.391,3.391,0,0,0,1.129,27.1v2.258a3.391,3.391,0,0,0,3.387,3.387H16.993c-.023.376-.058.747-.058,1.129A19.211,19.211,0,0,0,31.612,52.5v1.689a3.35,3.35,0,0,0,.453,1.661,3.38,3.38,0,0,0-1.582,2.855v6.774a5.645,5.645,0,1,0,11.29,0V58.71a3.38,3.38,0,0,0-1.582-2.855,3.35,3.35,0,0,0,.453-1.661V52.5a19.043,19.043,0,0,0,5.645-2.381v21H61.434l9.694-9.694V32.741Zm-2.2,10.142a19.068,19.068,0,0,0,1.408-3.368h9.882V46.29H53.064ZM3.387,6.774V4.516A1.13,1.13,0,0,1,4.516,3.387H29.354a1.13,1.13,0,0,1,1.129,1.129V6.774A1.13,1.13,0,0,1,29.354,7.9H4.516A1.13,1.13,0,0,1,3.387,6.774Zm3.387,3.387H27.1v2.258H6.774Zm-3.387,7.9V15.806a1.13,1.13,0,0,1,1.129-1.129H29.354a1.114,1.114,0,0,1,1.075.864,19.151,19.151,0,0,0-6.643,3.652H4.516A1.13,1.13,0,0,1,3.387,18.064Zm3.387,3.387H21.521a19.309,19.309,0,0,0-1.646,2.258H6.774ZM4.516,30.483a1.13,1.13,0,0,1-1.129-1.129V27.1a1.13,1.13,0,0,1,1.129-1.129H18.658a19.028,19.028,0,0,0-1.4,4.516ZM19.193,33.87A16.935,16.935,0,1,1,36.128,50.806,16.954,16.954,0,0,1,19.193,33.87ZM39.515,65.484a3.387,3.387,0,0,1-6.774,0V58.71a1.13,1.13,0,0,1,1.129-1.129h4.516a1.13,1.13,0,0,1,1.129,1.129Zm-1.129-11.29a1.13,1.13,0,0,1-1.129,1.129H35a1.13,1.13,0,0,1-1.129-1.129V52.919a17.713,17.713,0,0,0,4.516,0Zm10.161-5.716a19.357,19.357,0,0,0,2.258-2.265v2.335H66.612V37.257H55A19.265,19.265,0,0,0,55.265,35h13.6V59.838H59.838V68.87H48.548ZM67.273,62.1,62.1,67.273V62.1Z"/>
          <path id="Path_1280167" data-name="Path 1280167" d="M50.806,50.806H66.612v2.258H50.806Z"/>
          <path id="Path_1280168" data-name="Path 1280168" d="M50.806,55.322H66.612V57.58H50.806Z"/>
          <path id="Path_1280169" data-name="Path 1280169" d="M50.806,59.838v6.774H57.58V59.838Zm4.516,4.516H53.064V62.1h2.258Z"/>
          <path id="Path_1280170" data-name="Path 1280170" d="M5.645,51.935H21.451v2.258H5.645Z"/>
          <path id="Path_1280171" data-name="Path 1280171" d="M5.645,56.451H21.451v2.258H5.645Z"/>
          <path id="Path_1280172" data-name="Path 1280172" d="M19.193,60.967h2.258v2.258H19.193Z"/>
          <path id="Path_1280173" data-name="Path 1280173" d="M10.161,60.967h2.258v2.258H10.161Z"/>
          <path id="Path_1280174" data-name="Path 1280174" d="M5.645,60.967H7.9v2.258H5.645Z"/>
          <path id="Path_1280175" data-name="Path 1280175" d="M14.677,60.967h2.258v2.258H14.677Z"/>
        </g>
      </g>
    </g>
  </g>
</svg>
