<svg xmlns="http://www.w3.org/2000/svg" xmlns:xlink="http://www.w3.org/1999/xlink" width="89.597" height="83.054" viewBox="0 0 89.597 83.054">
  <defs>
    <clipPath id="clip-path">
      <rect id="Rectángulo_412249" data-name="Rectángulo 412249" width="77.767" height="73" transform="translate(295.281 1298.526)" fill="#fff" stroke="#707070" stroke-width="1"/>
    </clipPath>
  </defs>
  <g id="Grupo_1212783" data-name="Grupo 1212783" transform="translate(-283.451 -1288.473)">
    <g id="Rectángulo_412248" data-name="Rectángulo 412248" transform="translate(283.451 1288.473)" fill="#b7a8f1" stroke="#7f74a8" stroke-width="3">
      <rect width="70" height="70" rx="10" stroke="none"/>
      <rect x="1.5" y="1.5" width="67" height="67" rx="8.5" fill="none"/>
    </g>
    <g id="Enmascarar_grupo_1099424" data-name="Enmascarar grupo 1099424" clip-path="url(#clip-path)">
      <g id="compliance_11094161" transform="translate(296.228 1297.09)">
        <g id="Grupo_1212790" data-name="Grupo 1212790">
          <g id="Grupo_1212788" data-name="Grupo 1212788">
            <g id="Grupo_1212784" data-name="Grupo 1212784">
              <path id="Trazado_1282427" data-name="Trazado 1282427" d="M10.59,17.4H44.8a1.078,1.078,0,0,1,.789.327l6.265,6.265a1.078,1.078,0,0,1,.327.789V71.632a1.118,1.118,0,0,1-1.116,1.116H10.59a1.118,1.118,0,0,1-1.116-1.116V18.515A1.118,1.118,0,0,1,10.59,17.4Z" fill="#eceff1" fill-rule="evenodd"/>
              <path id="Trazado_1282428" data-name="Trazado 1282428" d="M10.59,17.4h2.041V72.748H10.59a1.118,1.118,0,0,1-1.116-1.116V18.515A1.118,1.118,0,0,1,10.59,17.4Z" fill="#d1d1d6" fill-rule="evenodd"/>
              <path id="Trazado_1282429" data-name="Trazado 1282429" d="M45.26,17.5a1.117,1.117,0,0,1,.327.23l6.265,6.265a1.117,1.117,0,0,1,.23.327H45.818a.559.559,0,0,1-.558-.558Z" fill="#a79ba7" fill-rule="evenodd"/>
            </g>
            <path id="Trazado_1282430" data-name="Trazado 1282430" d="M15.126,59.277h5.886a.445.445,0,0,1,.445.445v6.271a.445.445,0,0,1-.445.445H15.126a.445.445,0,0,1-.445-.445V59.722A.445.445,0,0,1,15.126,59.277Zm0-23.377h5.886a.445.445,0,0,1,.445.445v6.271a.445.445,0,0,1-.445.445H15.126a.445.445,0,0,1-.445-.445V36.345A.445.445,0,0,1,15.126,35.9Zm0,11.688h5.886a.445.445,0,0,1,.445.445V54.3a.445.445,0,0,1-.445.445H15.126a.445.445,0,0,1-.445-.445V48.033A.445.445,0,0,1,15.126,47.589Z" fill="#8ac9fe" fill-rule="evenodd"/>
            <path id="Trazado_1282431" data-name="Trazado 1282431" d="M19.529,59.277h1.482a.445.445,0,0,1,.445.445v6.271a.445.445,0,0,1-.445.445H19.529a.445.445,0,0,0,.445-.445V59.722A.445.445,0,0,0,19.529,59.277Zm0-23.377h1.482a.445.445,0,0,1,.445.445v6.271a.445.445,0,0,1-.445.445H19.529a.445.445,0,0,0,.445-.445V36.345A.445.445,0,0,0,19.529,35.9Zm0,11.688h1.482a.445.445,0,0,1,.445.445V54.3a.445.445,0,0,1-.445.445H19.529a.445.445,0,0,0,.445-.445V48.033A.445.445,0,0,0,19.529,47.589Z" fill="#60b7ff" fill-rule="evenodd"/>
            <g id="Grupo_1212785" data-name="Grupo 1212785">
              <circle id="Elipse_12737" data-name="Elipse 12737" cx="11.882" cy="11.882" r="11.882" transform="translate(42.627 49.486)" fill="#8ac9fe"/>
              <path id="Trazado_1282432" data-name="Trazado 1282432" d="M54.509,49.486a11.882,11.882,0,1,1,0,23.765q-.462,0-.916-.035a11.883,11.883,0,0,0,0-23.7Q54.047,49.486,54.509,49.486Z" fill="#60b7ff" fill-rule="evenodd"/>
            </g>
            <g id="Grupo_1212786" data-name="Grupo 1212786">
              <path id="Trazado_1282433" data-name="Trazado 1282433" d="M31.726,15.42h3.227V9.671a7.049,7.049,0,1,0-14.1,0v5.463h3.227V9.671a3.822,3.822,0,1,1,7.644,0Z" fill="#a79ba7" fill-rule="evenodd"/>
              <path id="Trazado_1282434" data-name="Trazado 1282434" d="M31.726,15.42h.807V9.671a3.841,3.841,0,0,0-3.822-3.822,3.781,3.781,0,0,0-.4.022,3.844,3.844,0,0,1,3.419,3.8ZM28.307,2.634a7.071,7.071,0,0,0-6.646,7.037v5.463h-.807V9.671A7.069,7.069,0,0,1,27.9,2.622c.135,0,.27,0,.4.012Z" fill="#837683" fill-rule="evenodd"/>
              <path id="Trazado_1282435" data-name="Trazado 1282435" d="M19.274,13.683h17.26a1.291,1.291,0,0,1,1.288,1.288V28.69a1.291,1.291,0,0,1-1.288,1.288H19.274a1.291,1.291,0,0,1-1.288-1.288V14.971a1.291,1.291,0,0,1,1.288-1.288Z" fill="#685e68" fill-rule="evenodd"/>
              <path id="Trazado_1282436" data-name="Trazado 1282436" d="M36.947,13.752a1.292,1.292,0,0,1,.875,1.22V28.69a1.291,1.291,0,0,1-1.288,1.288H19.274a1.292,1.292,0,0,1-1.22-.875,1.281,1.281,0,0,0,.413.068h17.26a1.291,1.291,0,0,0,1.288-1.288V14.165a1.281,1.281,0,0,0-.068-.413Z" fill="#8d9ca8" fill-rule="evenodd"/>
            </g>
            <g id="Grupo_1212787" data-name="Grupo 1212787">
              <ellipse id="Elipse_12738" data-name="Elipse 12738" cx="5.718" cy="5.719" rx="5.718" ry="5.719" transform="matrix(0.021, -1, 1, 0.021, 22.077, 27.426)" fill="#ffc338"/>
              <path id="Trazado_1282437" data-name="Trazado 1282437" d="M27.9,16.114a5.717,5.717,0,1,1,0,11.434c-.165,0-.328-.007-.489-.021a5.717,5.717,0,0,0,0-11.392c.161-.014.325-.021.489-.021Z" fill="#f5b829" fill-rule="evenodd"/>
            </g>
          </g>
          <g id="Grupo_1212789" data-name="Grupo 1212789">
            <path id="Trazado_1282438" data-name="Trazado 1282438" d="M36.947,13.752a1.292,1.292,0,0,1,.875,1.22V28.69a1.291,1.291,0,0,1-1.288,1.288H19.274a1.292,1.292,0,0,1-1.22-.875,1.281,1.281,0,0,0,.413.068h17.26a1.291,1.291,0,0,0,1.288-1.288V14.165a1.281,1.281,0,0,0-.068-.413Z" fill="#544854" fill-rule="evenodd"/>
          </g>
        </g>
        <path id="Trazado_1282439" data-name="Trazado 1282439" d="M60.975,56.981a1.189,1.189,0,0,1-.077,1.674l-7.915,7.181a1.19,1.19,0,0,1-1.639-.038L48.087,62.54a1.185,1.185,0,0,1,1.674-1.677l2.462,2.459L59.3,56.9a1.185,1.185,0,0,1,1.674.082ZM54.51,72.065a10.7,10.7,0,1,0-10.691-10.7A10.708,10.708,0,0,0,54.51,72.065Zm-43.846-.5H46.35a13.158,13.158,0,0,1-3.9-5.163H25.414a1.186,1.186,0,1,1,0-2.371H41.72a12.757,12.757,0,0,1-.258-2.012H25.414a1.186,1.186,0,1,1,0-2.371H41.559a13.035,13.035,0,0,1,1.709-4.935H25.414a1.186,1.186,0,1,1,0-2.371h19.6c.021,0,.035,0,.049,0a13.111,13.111,0,0,1,5.928-3.563V25.5H45.82a1.745,1.745,0,0,1-1.744-1.743V18.585H39.013V28.691a2.477,2.477,0,0,1-2.476,2.474H19.277A2.477,2.477,0,0,1,16.8,28.691V18.585H10.664Zm8.508-56.592a.106.106,0,0,1,.1-.1H36.538a.106.106,0,0,1,.1.1V28.691a.106.106,0,0,1-.1.1H19.277a.106.106,0,0,1-.1-.1V14.972Zm6.1-2.474V9.671a2.636,2.636,0,1,1,5.272,0V12.5H25.275ZM22.046,9.671V12.5H22.9V9.671a5.007,5.007,0,1,1,10.015,0V12.5h.851V9.671a5.862,5.862,0,1,0-11.723,0Zm24.4,10.59,2.873,2.871H46.448ZM54.51,48.3c-.384,0-.767.017-1.144.05V24.78a2.26,2.26,0,0,0-.67-1.628l-6.27-6.265a2.252,2.252,0,0,0-1.625-.674H39.014V14.972A2.476,2.476,0,0,0,36.538,12.5h-.4V9.671a8.233,8.233,0,1,0-16.466,0V12.5h-.4A2.476,2.476,0,0,0,16.8,14.972v1.241H10.594a2.3,2.3,0,0,0-2.3,2.3V71.634a2.3,2.3,0,0,0,2.3,2.3H50.925A13.068,13.068,0,1,0,54.51,48.3ZM20.275,53.564h-4.4V48.775h4.4Zm.739-7.16a1.634,1.634,0,0,1,1.632,1.63V54.3a1.634,1.634,0,0,1-1.632,1.631H15.128A1.628,1.628,0,0,1,13.5,54.3V48.033a1.628,1.628,0,0,1,1.625-1.63Zm-.739-4.528h-4.4V37.086h4.4Zm.739-7.16a1.633,1.633,0,0,1,1.632,1.631v6.27a1.633,1.633,0,0,1-1.632,1.63H15.128a1.627,1.627,0,0,1-1.625-1.63v-6.27a1.627,1.627,0,0,1,1.625-1.631Zm-.739,30.537h-4.4V60.464h4.4Zm.739-7.159a1.632,1.632,0,0,1,1.632,1.63v6.27a1.633,1.633,0,0,1-1.632,1.631H15.128A1.627,1.627,0,0,1,13.5,65.992v-6.27a1.626,1.626,0,0,1,1.625-1.63Zm3.215-8.948a1.185,1.185,0,0,1,1.186-1.186h19.6a1.186,1.186,0,0,1,0,2.371h-19.6a1.186,1.186,0,0,1-1.186-1.186Zm0-11.689a1.185,1.185,0,0,1,1.186-1.186h19.6a1.186,1.186,0,0,1,0,2.371h-19.6a1.185,1.185,0,0,1-1.186-1.186Zm0,4.383a1.185,1.185,0,0,1,1.186-1.185h19.6a1.185,1.185,0,1,1,0,2.37h-19.6a1.185,1.185,0,0,1-1.186-1.186Zm2.838-24.46a1.18,1.18,0,0,0-.335.686,2.507,2.507,0,0,0-1.653,2.479,2.332,2.332,0,0,0,.8,1.656c-.035.006-.063.012-.1.02a1.18,1.18,0,0,0-.858,1.437,2.807,2.807,0,0,0,1.806,1.968,1.209,1.209,0,0,0,.335.66,4.531,4.531,0,0,1,0-8.9Zm5.37,4.452a4.537,4.537,0,0,1-3.689,4.452,1.194,1.194,0,0,0,.328-.637,2.886,2.886,0,0,0,1.3-.823,2.308,2.308,0,0,0,.537-1.8,2.391,2.391,0,0,0-1.095-1.768,1.284,1.284,0,0,0,.237-.071,1.182,1.182,0,0,0,.628-1.552,2.9,2.9,0,0,0-1.6-1.584,1.194,1.194,0,0,0-.335-.672,4.536,4.536,0,0,1,3.689,4.452ZM27.723,22.98c.467.077.788.2.83.317a1.171,1.171,0,0,1-.6.158c-.237,0-.656-.067-.732-.373a.7.7,0,0,0-.084-.231A5.234,5.234,0,0,0,27.723,22.98Zm-.272-2.554c-.007-.131.279-.2.286-.2a.652.652,0,0,1,.76.326,1.552,1.552,0,0,0,.1.189c-.153-.039-.314-.073-.488-.1a1.482,1.482,0,0,1-.656-.214Zm.46,8.307a6.9,6.9,0,1,1,6.9-6.9A6.911,6.911,0,0,1,27.911,28.734Z" fill="#242222" fill-rule="evenodd"/>
      </g>
    </g>
  </g>
</svg>
