<svg xmlns="http://www.w3.org/2000/svg" xmlns:xlink="http://www.w3.org/1999/xlink" width="89.597" height="83.054" viewBox="0 0 89.597 83.054">
  <defs>
    <clipPath id="clip-path">
      <rect id="Rectángulo_412249" data-name="Rectángulo 412249" width="77.767" height="73" transform="translate(295.281 1298.526)" fill="#fff" stroke="#707070" stroke-width="1"/>
    </clipPath>
  </defs>
  <g id="Grupo_1212782" data-name="Grupo 1212782" transform="translate(-283.451 -1288.473)">
    <g id="Rectángulo_412248" data-name="Rectángulo 412248" transform="translate(283.451 1288.473)" fill="#b7a8f1" stroke="#7f74a8" stroke-width="3">
      <rect width="70" height="70" rx="10" stroke="none"/>
      <rect x="1.5" y="1.5" width="67" height="67" rx="8.5" fill="none"/>
    </g>
    <g id="Enmascarar_grupo_1099425" data-name="Enmascarar grupo 1099425" clip-path="url(#clip-path)">
      <g id="project-management_10008040" transform="translate(295.83 1296.692)">
        <path id="Trazado_1282440" data-name="Trazado 1282440" d="M20.108,55.925H18.023a.952.952,0,0,1-.951-.907L16.955,52.5a.937.937,0,0,0-.689-.87,13.824,13.824,0,0,1-2.927-1.214.939.939,0,0,0-1.1.129l-1.864,1.7a.95.95,0,0,1-1.313-.03L6.11,49.263a.95.95,0,0,1-.03-1.313l1.7-1.866a.939.939,0,0,0,.129-1.1,13.837,13.837,0,0,1-1.214-2.927.937.937,0,0,0-.87-.689L3.3,41.247A.952.952,0,0,1,2.4,40.3v-4.17a.952.952,0,0,1,.907-.951l2.519-.117a.937.937,0,0,0,.87-.689,13.9,13.9,0,0,1,1.214-2.927.939.939,0,0,0-.129-1.1l-1.7-1.861a.95.95,0,0,1,.03-1.313l2.948-2.948a.95.95,0,0,1,1.313-.03l1.866,1.7a.939.939,0,0,0,1.1.129A13.837,13.837,0,0,1,16.268,24.8a.937.937,0,0,0,.689-.87l.117-2.519a.952.952,0,0,1,.951-.907h2.084V31.627a6.587,6.587,0,1,0,0,13.174V55.925Z" fill="#fedf30" fill-rule="evenodd"/>
        <path id="Trazado_1282441" data-name="Trazado 1282441" d="M21.6,18.177H35.819l9.6,9.6V57a1.493,1.493,0,0,1-1.49,1.49H21.6A1.493,1.493,0,0,1,20.108,57V19.667a1.493,1.493,0,0,1,1.49-1.49Z" fill="#fbf3f3" fill-rule="evenodd"/>
        <path id="Trazado_1282442" data-name="Trazado 1282442" d="M35.819,18.177V26.5A1.286,1.286,0,0,0,37.1,27.782h8.32Z" fill="#ffc66c" fill-rule="evenodd"/>
        <path id="Trazado_1282443" data-name="Trazado 1282443" d="M71.019,48.857H59.605a3.251,3.251,0,0,1-3.231-3.615,7.823,7.823,0,0,1,7.755-6.929H66.5a7.823,7.823,0,0,1,7.755,6.929,3.251,3.251,0,0,1-3.233,3.615Z" fill="#2fb1d4" fill-rule="evenodd"/>
        <circle id="Elipse_12739" data-name="Elipse 12739" cx="5.009" cy="5.009" r="5.009" transform="translate(59.994 28.138) rotate(-3.555)" fill="#f9d0b4"/>
        <path id="Trazado_1282444" data-name="Trazado 1282444" d="M71.019,23.779H59.605a3.251,3.251,0,0,1-3.231-3.615,7.823,7.823,0,0,1,7.755-6.929H66.5a7.823,7.823,0,0,1,7.755,6.929,3.251,3.251,0,0,1-3.233,3.615Z" fill="#2fb1d4" fill-rule="evenodd"/>
        <circle id="Elipse_12740" data-name="Elipse 12740" cx="5.009" cy="5.009" r="5.009" transform="translate(59.997 3.062) rotate(-3.555)" fill="#f9d0b4"/>
        <path id="Trazado_1282445" data-name="Trazado 1282445" d="M71.019,73.936H59.605a3.251,3.251,0,0,1-3.231-3.615,7.823,7.823,0,0,1,7.755-6.929H66.5a7.823,7.823,0,0,1,7.755,6.929,3.251,3.251,0,0,1-3.233,3.615Z" fill="#2fb1d4" fill-rule="evenodd"/>
        <circle id="Elipse_12741" data-name="Elipse 12741" cx="5.01" cy="5.01" r="5.01" transform="matrix(0.383, -0.924, 0.924, 0.383, 58.792, 60.617)" fill="#f9d0b4"/>
        <path id="Trazado_1282446" data-name="Trazado 1282446" d="M63.608,39.233a6.9,6.9,0,0,0-6.342,6.11,2.238,2.238,0,0,0,.584,1.831,2.264,2.264,0,0,0,1.755.785H71.019a2.353,2.353,0,0,0,2.339-2.616A6.9,6.9,0,0,0,66.5,39.212H64.129v.021ZM61.2,32.819a4.11,4.11,0,1,0,4.109-4.109A4.114,4.114,0,0,0,61.2,32.819Zm0,25.079a4.11,4.11,0,1,0,4.109-4.11A4.114,4.114,0,0,0,61.2,57.9ZM66.5,64.289H64.128v.021H63.61a6.9,6.9,0,0,0-6.343,6.11,2.235,2.235,0,0,0,.584,1.831,2.266,2.266,0,0,0,1.755.786H71.019a2.355,2.355,0,0,0,2.339-2.618A6.9,6.9,0,0,0,66.5,64.289ZM44.526,57V28.68H37.1A2.186,2.186,0,0,1,34.922,26.5V19.076H21.6a.592.592,0,0,0-.591.591V57a.591.591,0,0,0,.591.59H43.935A.591.591,0,0,0,44.526,57ZM14.419,38.213a5.7,5.7,0,0,0,4.79,5.617V32.6a5.7,5.7,0,0,0-4.79,5.617Zm4.79,16.813H18.023a.051.051,0,0,1-.052-.049l-.117-2.519a1.826,1.826,0,0,0-1.34-1.694,12.9,12.9,0,0,1-2.737-1.135,1.823,1.823,0,0,0-2.144.25l-1.864,1.7a.053.053,0,0,1-.073,0L6.746,48.628a.053.053,0,0,1,0-.073l1.7-1.864a1.825,1.825,0,0,0,.249-2.146,12.9,12.9,0,0,1-1.135-2.737,1.825,1.825,0,0,0-1.692-1.339l-2.519-.117A.054.054,0,0,1,3.3,40.3V36.129a.054.054,0,0,1,.051-.054l2.519-.117a1.824,1.824,0,0,0,1.692-1.339,12.9,12.9,0,0,1,1.135-2.737,1.825,1.825,0,0,0-.25-2.146l-1.7-1.864a.053.053,0,0,1,0-.073L9.693,24.85a.052.052,0,0,1,.073,0l1.866,1.7a1.825,1.825,0,0,0,2.144.249,13.054,13.054,0,0,1,2.737-1.135,1.826,1.826,0,0,0,1.34-1.692l.117-2.52a.051.051,0,0,1,.052-.049h1.186v9.384a7.483,7.483,0,0,0,0,14.859ZM36.717,26.5v-6.15l6.538,6.536H37.1A.386.386,0,0,1,36.717,26.5ZM61.2,7.742a4.11,4.11,0,1,0,4.109-4.11A4.114,4.114,0,0,0,61.2,7.742ZM66.5,14.134H64.128a6.9,6.9,0,0,0-6.863,6.131A2.353,2.353,0,0,0,59.6,22.881H71.017a2.353,2.353,0,0,0,2.339-2.616A6.9,6.9,0,0,0,66.5,14.134ZM58.8,39.233H51.867V59.155a3.335,3.335,0,0,0,3.3,3.359h6.463a5.905,5.905,0,1,1,7.02.252,8.693,8.693,0,0,1,6.49,7.454,4.152,4.152,0,0,1-4.124,4.615H59.605a4.152,4.152,0,0,1-4.125-4.615A8.683,8.683,0,0,1,58.8,64.31H55.17a5.134,5.134,0,0,1-5.1-5.156V39.233H46.322V57a2.39,2.39,0,0,1-2.388,2.387H21.6A2.391,2.391,0,0,1,19.209,57v-.18H18.023a1.846,1.846,0,0,1-1.848-1.764l-.117-2.519c0-.03-.009-.039-.039-.048A14.8,14.8,0,0,1,12.9,51.2a.042.042,0,0,0-.061.007l-1.866,1.7a1.848,1.848,0,0,1-2.555-.058L5.473,49.9a1.848,1.848,0,0,1-.06-2.555l1.7-1.864a.045.045,0,0,0,.007-.063A14.718,14.718,0,0,1,5.828,42.3c-.009-.028-.019-.036-.049-.037L3.26,42.147A1.847,1.847,0,0,1,1.5,40.3V36.129a1.846,1.846,0,0,1,1.764-1.848l2.519-.117a.043.043,0,0,0,.048-.039A14.8,14.8,0,0,1,7.12,31.009a.042.042,0,0,0-.007-.061l-1.7-1.866a1.846,1.846,0,0,1,.06-2.553l2.948-2.95a1.848,1.848,0,0,1,2.555-.058l1.866,1.7a.043.043,0,0,0,.061.006,14.876,14.876,0,0,1,3.116-1.292.043.043,0,0,0,.039-.048l.117-2.519A1.847,1.847,0,0,1,18.023,19.6h1.19A2.389,2.389,0,0,1,21.6,17.279H35.819a.9.9,0,0,1,.635.262l9.6,9.6a.894.894,0,0,1,.261.635h0v9.654h3.748V17.514a5.134,5.134,0,0,1,5.1-5.156h6.463a5.906,5.906,0,1,1,7.02.25,8.693,8.693,0,0,1,6.49,7.456,4.152,4.152,0,0,1-4.124,4.614H59.6a4.152,4.152,0,0,1-4.125-4.614A8.679,8.679,0,0,1,58.8,14.155H55.169a3.335,3.335,0,0,0-3.3,3.359V37.436h9.766a5.906,5.906,0,1,1,7.02.25,8.7,8.7,0,0,1,6.49,7.456,4.15,4.15,0,0,1-4.124,4.614H59.6a4.15,4.15,0,0,1-4.125-4.614A8.69,8.69,0,0,1,58.8,39.233ZM38.692,50.549a.9.9,0,1,1,0,1.8H24.6a.9.9,0,1,1,0-1.8Zm0-6.557a.9.9,0,0,1,0,1.8H24.6a.9.9,0,1,1,0-1.8Zm0-6.556a.9.9,0,0,1,0,1.8H24.6a.9.9,0,1,1,0-1.8Zm0-6.556a.9.9,0,0,1,0,1.8H24.6a.9.9,0,1,1,0-1.8ZM23.7,23.689a.9.9,0,0,1,.9-.9h6.292a.9.9,0,1,1,0,1.8H24.6a.9.9,0,0,1-.9-.9Z" fill="#222124" fill-rule="evenodd"/>
      </g>
    </g>
  </g>
</svg>
