<svg xmlns="http://www.w3.org/2000/svg" xmlns:xlink="http://www.w3.org/1999/xlink" width="89.597" height="83.054" viewBox="0 0 89.597 83.054">
  <defs>
    <clipPath id="clip-path">
      <rect id="Rectángulo_412249" data-name="Rectángulo 412249" width="77.767" height="73" transform="translate(295.281 1298.526)" fill="#fff" stroke="#707070" stroke-width="1"/>
    </clipPath>
  </defs>
  <g id="Grupo_1212780" data-name="Grupo 1212780" transform="translate(-283.451 -1288.473)">
    <g id="Rectángulo_412248" data-name="Rectángulo 412248" transform="translate(283.451 1288.473)" fill="#b7a8f1" stroke="#7f74a8" stroke-width="3">
      <rect width="70" height="70" rx="10" stroke="none"/>
      <rect x="1.5" y="1.5" width="67" height="67" rx="8.5" fill="none"/>
    </g>
    <g id="Enmascarar_grupo_1099427" data-name="Enmascarar grupo 1099427" clip-path="url(#clip-path)">
      <g id="management_12134842" transform="translate(295.536 1296.397)">
        <path id="Trazado_1282457" data-name="Trazado 1282457" d="M47.188,7.883l2.55-1.71,4.033,4.033-1.71,2.55,1.7,4.1,3.012.594v5.7l-3.012.594-1.7,4.1,1.71,2.55-4.033,4.033-2.55-1.71-4.1,1.7L42.5,37.426h-5.7L36.2,34.414l-4.1-1.7-2.55,1.71-4.033-4.033,1.71-2.55-1.7-4.1-3.012-.594v-5.7l3.012-.594,1.7-4.1-1.71-2.55L29.55,6.173l2.55,1.71,4.1-1.7.594-3.012h5.7l.594,3.012Z" fill="#2a93fc" fill-rule="evenodd"/>
        <path id="Trazado_1282458" data-name="Trazado 1282458" d="M47.188,7.883l1.449-.971,3.294,3.294-1.71,2.55,1.7,4.1,3.012.594v5.7l-3.012.594-1.7,4.1,1.71,2.55-3.294,3.294-1.449-.971h0l-1.491-1-4.264,1.767-.778,3.943H36.793L36.2,34.414l-4.1-1.7h0l-1.525-.632L28.56,33.436l-3.042-3.042,1.71-2.55-1.7-4.1-3.012-.594v-5.7l3.012-.594,1.7-4.1-1.71-2.55L28.56,7.164l2.015,1.351L32.1,7.883l4.1-1.7.594-3.012h3.863l.778,3.943L45.7,8.883Z" fill="#4eb1fc" fill-rule="evenodd"/>
        <circle id="Elipse_12743" data-name="Elipse 12743" cx="8.785" cy="8.785" r="8.785" transform="matrix(0.924, -0.383, 0.383, 0.924, 27.199, 15.538)" fill="#2a93fc"/>
        <circle id="Elipse_12744" data-name="Elipse 12744" cx="8.803" cy="8.803" r="8.803" transform="matrix(0.994, -0.109, 0.109, 0.994, 29.93, 12.513)" fill="#f9ac00"/>
        <path id="Trazado_1282459" data-name="Trazado 1282459" d="M39.369,29.1a8.8,8.8,0,0,1,0-17.6,8.8,8.8,0,0,1,0,17.6Z" fill="#fcdb35" fill-rule="evenodd"/>
        <circle id="Elipse_12745" data-name="Elipse 12745" cx="6.456" cy="6.456" r="6.456" transform="translate(33.188 13.844)" fill="#f19a00"/>
        <g id="Grupo_1212792" data-name="Grupo 1212792">
          <path id="Trazado_1282460" data-name="Trazado 1282460" d="M40,13.854a6.456,6.456,0,0,1,0,12.892,6.456,6.456,0,0,1,0-12.892Z" fill="#f9ac00" fill-rule="evenodd"/>
          <path id="Trazado_1282461" data-name="Trazado 1282461" d="M43.1,17.11a1.054,1.054,0,1,1-1.857,1,.63.63,0,0,0-.12-.153,2.072,2.072,0,0,0-1.224-.444,2.678,2.678,0,0,0-1.446.236c-.193.1-.411.293-.394.536a.626.626,0,0,0,.267.4,4.639,4.639,0,0,0,1.525.527c.254.06.5.119.731.184A4.915,4.915,0,0,1,42.562,20.4a2.562,2.562,0,0,1,.8,2.316,2.746,2.746,0,0,1-.692,1.424,3.365,3.365,0,0,1-1.967.984v.619a1.056,1.056,0,1,1-2.113,0v-.657a3.715,3.715,0,0,1-2.564-1.69,1.052,1.052,0,0,1,1.848-1.007,1.7,1.7,0,0,0,1.151.636,3.047,3.047,0,0,0,1.872-.15.675.675,0,0,0,.384-.487c.059-.365-.26-.555-.544-.7a4.329,4.329,0,0,0-.729-.27c-.2-.057-.414-.107-.632-.159a5.934,5.934,0,0,1-2.333-.915,3.237,3.237,0,0,1-.257-.221,2.6,2.6,0,0,1-.827-1.706,2.7,2.7,0,0,1,1.5-2.533,4.155,4.155,0,0,1,1.13-.4v-.639a1.056,1.056,0,0,1,2.113,0V15.5a3.888,3.888,0,0,1,1.887.938,2.725,2.725,0,0,1,.516.673Z" fill="#ffeb87" fill-rule="evenodd"/>
          <path id="Trazado_1282462" data-name="Trazado 1282462" d="M10.191,17.567h8.075a.754.754,0,0,1,.753.753V22.28a.754.754,0,0,1-.753.753H10.191v2.019a.609.609,0,0,1-1.016.452L3.894,20.752a.609.609,0,0,1,0-.9L9.175,15.1a.609.609,0,0,1,1.016.453Z" fill="#fdc72e" fill-rule="evenodd"/>
          <path id="Trazado_1282463" data-name="Trazado 1282463" d="M10.191,17.567h8.075a.754.754,0,0,1,.753.753V20.7a.754.754,0,0,1-.753.753H10.191v2.019a.609.609,0,0,1-1.016.452l-4.9-4.413,4.9-4.412a.609.609,0,0,1,1.016.453Z" fill="#fcdb35" fill-rule="evenodd"/>
          <path id="Trazado_1282464" data-name="Trazado 1282464" d="M69.1,17.567H61.022a.754.754,0,0,0-.753.753V22.28a.754.754,0,0,0,.753.753H69.1v2.019a.609.609,0,0,0,1.016.452l5.282-4.752a.609.609,0,0,0,0-.9L70.113,15.1a.609.609,0,0,0-1.016.453Z" fill="#2dd62d" fill-rule="evenodd"/>
          <path id="Trazado_1282465" data-name="Trazado 1282465" d="M69.1,17.567H61.022a.754.754,0,0,0-.753.753V20.7a.754.754,0,0,0,.753.753H69.1v2.019a.609.609,0,0,0,1.016.452l4.9-4.413-4.9-4.412a.609.609,0,0,0-1.016.453Z" fill="#43f043" fill-rule="evenodd"/>
          <path id="Trazado_1282466" data-name="Trazado 1282466" d="M49.312,45.345a3.337,3.337,0,0,0-4.192-4.087c-20.893,5.6-25.482-11.381-38.291,18.99l13.247,8.071c3.362-5.88,8.78-7.562,14.917-8.818,3.347-.686,7.406-1.263,10.992-2.31C51,55.728,53.718,53.533,57.515,50c4.323-4.019,11.656-11.682,12.646-14.1,1.416-3.46-2.132-5.411-4.951-2.592C61.9,36.626,52.837,44.362,47.887,47.287a3.9,3.9,0,0,0,1.425-1.942Z" fill="#fdb0a0" fill-rule="evenodd"/>
          <path id="Trazado_1282467" data-name="Trazado 1282467" d="M49.312,45.345a3.337,3.337,0,0,0-4.192-4.087c-20.893,5.6-25.482-11.381-38.291,18.99l10.226,6.23c3.551-6.053,9.215-7.805,15.621-9.118,3.529-.723,7.808-1.332,11.588-2.435,5.282-1.541,8.152-3.856,12.155-7.577,4.513-4.2,12.135-12.155,13.3-14.786-1.02-.915-2.883-.873-4.506.749C61.9,36.626,52.837,44.362,47.887,47.288a3.9,3.9,0,0,0,1.425-1.942Z" fill="#ffcec0" fill-rule="evenodd"/>
          <path id="Trazado_1282468" data-name="Trazado 1282468" d="M49.312,45.345a3.344,3.344,0,0,0-2.582-4.18c1.5.957,1.2,2.964-.435,4.111a13.089,13.089,0,0,1-3.674,1.6c-3.816,1.123-8.477,1.406-10.468.965a1.3,1.3,0,0,0-.562,2.542c2.3.51,7.552.222,11.761-1.016a15,15,0,0,0,4.536-2.078,3.9,3.9,0,0,0,1.425-1.942Z" fill="#fdb0a0" fill-rule="evenodd"/>
          <path id="Trazado_1282469" data-name="Trazado 1282469" d="M1.675,63.227l3.505-6.071A2.509,2.509,0,0,1,8.6,56.24l14.433,8.333a2.509,2.509,0,0,1,.916,3.418l-3.5,6.071Z" fill="#2a93fc" fill-rule="evenodd"/>
          <path id="Trazado_1282470" data-name="Trazado 1282470" d="M1.675,63.227l3.505-6.071A2.51,2.51,0,0,1,8.6,56.239h0L19.965,62.8a2.509,2.509,0,0,1,.916,3.418l-3.5,6.071Z" fill="#4eb1fc" fill-rule="evenodd"/>
          <path id="Trazado_1282471" data-name="Trazado 1282471" d="M41.28,22.378a.463.463,0,0,0-.145-.421,2.773,2.773,0,0,0-1.126-.531c-.191-.054-.407-.106-.635-.16a5.979,5.979,0,0,1-2.335-.915,2.677,2.677,0,0,1-1.08-1.916,2.569,2.569,0,0,1,.742-1.978,3.555,3.555,0,0,1,1.888-.97v-.634a1.056,1.056,0,0,1,2.112,0V15.5a3.433,3.433,0,0,1,2.4,1.612,1.056,1.056,0,1,1-1.858,1,1.638,1.638,0,0,0-1.19-.582,2.365,2.365,0,0,0-1.831.391.492.492,0,0,0-.16.362.609.609,0,0,0,.268.4,4.685,4.685,0,0,0,1.526.528c.24.057.489.116.727.183a4.863,4.863,0,0,1,1.98,1.009,2.563,2.563,0,0,1,.8,2.274,2.789,2.789,0,0,1-1.533,2.091,4.175,4.175,0,0,1-1.137.362v.616a1.056,1.056,0,1,1-2.112,0v-.658A3.729,3.729,0,0,1,36.025,23.4a1.056,1.056,0,0,1,1.853-1.014c.36.658,2.109.942,3.021.489a.664.664,0,0,0,.382-.5Zm28.875,1.669V23.033A1.056,1.056,0,0,0,69.1,21.976H61.328V18.623H69.1a1.057,1.057,0,0,0,1.056-1.056V16.553L74.32,20.3ZM76.1,19.063l-5.281-4.752a1.665,1.665,0,0,0-2.78,1.236v.964H61.025a1.811,1.811,0,0,0-1.809,1.809v3.96a1.811,1.811,0,0,0,1.809,1.809h7.018v.963a1.647,1.647,0,0,0,.987,1.521,1.677,1.677,0,0,0,.685.148,1.646,1.646,0,0,0,1.106-.432L76.1,21.538a1.663,1.663,0,0,0,0-2.475ZM9.136,16.553v1.014a1.058,1.058,0,0,0,1.057,1.056h7.771v3.353H10.193a1.057,1.057,0,0,0-1.057,1.056v1.014L4.971,20.3ZM3.189,21.537,8.47,26.289a1.665,1.665,0,0,0,2.778-1.237v-.963h7.019a1.81,1.81,0,0,0,1.808-1.809V18.32a1.81,1.81,0,0,0-1.808-1.809H11.249v-.964A1.665,1.665,0,0,0,8.47,14.309L3.189,19.063a1.663,1.663,0,0,0,0,2.475ZM69.2,35.494c-.809,1.978-7.442,9.131-12.393,13.733C53.3,52.492,50.627,54.74,45.7,56.178a78.558,78.558,0,0,1-7.712,1.681c-1.123.205-2.185.4-3.2.61-3.931.8-8.38,1.909-11.882,4.818L9.956,55.813C16.813,41.4,20.969,41.95,28.435,42.937c4.32.572,9.7,1.282,16.966-.666l.038-.012A2.283,2.283,0,0,1,48.3,45.054c-.412,1.465-2.936,2.845-6.748,3.689a25.585,25.585,0,0,1-8.926.546,1.056,1.056,0,1,0-.457,2.063c2.138.472,6.277.243,9.839-.546A16.973,16.973,0,0,0,48.5,48.153c5.163-3.072,14.233-10.863,17.475-14.105,1.139-1.139,2.314-1.221,2.923-.815s.721,1.248.306,2.26ZM23.028,67.471a1.449,1.449,0,0,0-.53-1.978L8.057,57.156a1.455,1.455,0,0,0-1.977.529L3.1,62.845,20.049,72.63Zm47.038-36c-1.347-.895-3.6-.91-5.586,1.081A142.687,142.687,0,0,1,50.5,44.283a4.4,4.4,0,0,0-5.666-4.047,37.956,37.956,0,0,1-16.125.607c-3.937-.521-7.337-.97-10.713.872-3.421,1.865-6.5,5.951-9.958,13.206a3.572,3.572,0,0,0-3.789,1.708L.745,62.7a1.056,1.056,0,0,0,.386,1.442l18.776,10.84a1.057,1.057,0,0,0,1.444-.386l3.506-6.075a3.565,3.565,0,0,0-.235-3.916c2.73-2.128,6.128-3.16,10.583-4.073,1-.2,2.048-.4,3.16-.6a80.488,80.488,0,0,0,7.922-1.731c5.376-1.569,8.227-3.961,11.96-7.431,3.807-3.54,11.767-11.688,12.911-14.481.8-1.954.371-3.846-1.093-4.82ZM39.646,12.579A7.721,7.721,0,1,0,47.367,20.3a7.73,7.73,0,0,0-7.721-7.721Zm0,17.555A9.834,9.834,0,1,0,29.814,20.3,9.846,9.846,0,0,0,39.646,30.134ZM23.587,18.319v3.963l2.158.426a1.049,1.049,0,0,1,.771.632l1.7,4.1a1.059,1.059,0,0,1-.1.993l-1.226,1.827,2.8,2.8,1.827-1.225a1.053,1.053,0,0,1,.993-.1l4.1,1.7a1.051,1.051,0,0,1,.632.771l.426,2.158h3.963l.426-2.158a1.055,1.055,0,0,1,.632-.771l4.1-1.7a1.056,1.056,0,0,1,.993.1L49.6,33.057l2.8-2.8-1.225-1.827a1.057,1.057,0,0,1-.1-.993l1.7-4.1a1.054,1.054,0,0,1,.771-.632l2.158-.426V18.319l-2.158-.425a1.058,1.058,0,0,1-.771-.632l-1.7-4.1a1.056,1.056,0,0,1,.1-.993L52.4,10.346l-2.8-2.8L47.773,8.769a1.056,1.056,0,0,1-.993.1l-4.1-1.7a1.057,1.057,0,0,1-.632-.771l-.426-2.158H37.664L37.239,6.4a1.052,1.052,0,0,1-.632.771l-4.1,1.7a1.057,1.057,0,0,1-.993-.1L29.691,7.543l-2.8,2.8,1.226,1.827a1.058,1.058,0,0,1,.1.993l-1.7,4.1a1.052,1.052,0,0,1-.771.632Zm-1.26,5.867,2.455.484,1.263,3.05L24.651,29.8a1.056,1.056,0,0,0,.131,1.335l4.029,4.029a1.056,1.056,0,0,0,1.335.131L32.226,33.9l3.05,1.263.484,2.456a1.056,1.056,0,0,0,1.036.851h5.7a1.055,1.055,0,0,0,1.036-.851l.484-2.455,3.05-1.265,2.078,1.394a1.056,1.056,0,0,0,1.335-.131l4.031-4.029A1.058,1.058,0,0,0,54.64,29.8L53.246,27.72l1.265-3.05,2.455-.484a1.055,1.055,0,0,0,.851-1.037v-5.7a1.053,1.053,0,0,0-.851-1.035l-2.455-.484-1.265-3.051L54.64,10.8a1.058,1.058,0,0,0-.129-1.335L50.48,5.435a1.058,1.058,0,0,0-1.335-.13L47.067,6.7l-3.05-1.264L43.532,2.98A1.054,1.054,0,0,0,42.5,2.129H36.8a1.055,1.055,0,0,0-1.036.851l-.484,2.455L32.226,6.7,30.147,5.306a1.058,1.058,0,0,0-1.335.13l-4.029,4.03a1.057,1.057,0,0,0-.131,1.335l1.394,2.078L24.782,15.93l-2.455.484a1.054,1.054,0,0,0-.852,1.035v5.7a1.056,1.056,0,0,0,.852,1.037Z" fill-rule="evenodd"/>
        </g>
      </g>
    </g>
  </g>
</svg>
