<svg xmlns="http://www.w3.org/2000/svg" xmlns:xlink="http://www.w3.org/1999/xlink" width="85.826" height="85.552" viewBox="0 0 85.826 85.552">
  <defs>
    <clipPath id="clip-path">
      <rect id="Rectángulo_425844" data-name="Rectángulo 425844" width="74.996" height="75.996" transform="translate(402.322 5944.238)" fill="#fff" stroke="#707070" stroke-width="1"/>
    </clipPath>
  </defs>
  <g id="Grupo_1212793" data-name="Grupo 1212793" transform="translate(-391.492 -5934.683)">
    <g id="Rectángulo_425843" data-name="Rectángulo 425843" transform="translate(391.492 5934.683)" fill="#fd9826" stroke="#af6a1a" stroke-width="3">
      <rect width="70" height="70" rx="10" stroke="none"/>
      <rect x="1.5" y="1.5" width="67" height="67" rx="8.5" fill="none"/>
    </g>
    <g id="Enmascarar_grupo_1099430" data-name="Enmascarar grupo 1099430" clip-path="url(#clip-path)">
      <g id="cognitive-behavior_18560329" transform="translate(401.372 5943.788)">
        <g id="Grupo_1212885" data-name="Grupo 1212885">
          <path id="Trazado_1282516" data-name="Trazado 1282516" d="M57.027,44.775a17.259,17.259,0,0,1,2.7-3.579,35.6,35.6,0,0,0,4.32.8c3.162.273,5.871.24,5.871-2.964,0-1.665-.359-5.084-.317-6.53.041-1.406,1.872-1.514,2.88-1.92,1.285-.517,1.684-1.307.205-3.6-1.737-2.659-2.989-4.294-3.011-5.166-.034-1.33.834-2.536,1.046-4.1C72.065,7.72,62.063,1.5,53.125,1.669c-5.858.109-11.76,2.478-15.107,7.261-4.655,6.652-2.98,13.728.7,20.222a18.273,18.273,0,0,1,1.034,15.623H57.027Z" fill="#d9c5bf" fill-rule="evenodd"/>
          <path id="Trazado_1282517" data-name="Trazado 1282517" d="M54.194,48.208h-18.5a3.979,3.979,0,0,0-3.967,3.967V65.334A3.978,3.978,0,0,0,35.694,69.3H46.222l5.969,5.969V69.3h2a3.978,3.978,0,0,0,3.967-3.967V52.175a3.979,3.979,0,0,0-3.967-3.967Z" fill="#90ef90" fill-rule="evenodd"/>
          <path id="Trazado_1282518" data-name="Trazado 1282518" d="M58.231,9.4l1.411-.946a.57.57,0,0,1,.726.071l2.183,2.183a.57.57,0,0,1,.071.726l-.946,1.411,1.2,2.9,1.666.328a.57.57,0,0,1,.463.564v3.088a.57.57,0,0,1-.463.564l-1.666.328-1.2,2.9.946,1.411a.57.57,0,0,1-.071.726l-2.183,2.183a.57.57,0,0,1-.726.071l-1.411-.946-2.9,1.2L55,29.83a.57.57,0,0,1-.564.463H51.353a.57.57,0,0,1-.564-.463l-.329-1.666-2.9-1.2-1.411.946a.57.57,0,0,1-.726-.071l-2.183-2.183a.57.57,0,0,1-.071-.726l.946-1.411-1.2-2.9-1.666-.328a.57.57,0,0,1-.463-.564V16.64a.57.57,0,0,1,.463-.564l1.666-.328,1.2-2.9-.946-1.411a.57.57,0,0,1,.071-.726L45.425,8.53a.57.57,0,0,1,.726-.071l1.411.946,2.9-1.2.329-1.666a.57.57,0,0,1,.564-.463H54.44A.57.57,0,0,1,55,6.538L55.333,8.2l2.9,1.2Z" fill="#ffe259" fill-rule="evenodd"/>
        </g>
        <circle id="Elipse_12747" data-name="Elipse 12747" cx="5.684" cy="5.684" r="5.684" transform="matrix(0.992, -0.123, 0.123, 0.992, 46.531, 13.253)" fill="#fff"/>
        <path id="Trazado_1282519" data-name="Trazado 1282519" d="M7.907,33.247H29.546a4.654,4.654,0,0,1,4.64,4.64V53.279a4.654,4.654,0,0,1-4.64,4.64H17.232L10.25,64.9V57.918H7.907a4.654,4.654,0,0,1-4.64-4.64V37.887a4.654,4.654,0,0,1,4.64-4.64Z" fill="#fcdb35" fill-rule="evenodd"/>
        <path id="Trazado_1282520" data-name="Trazado 1282520" d="M42.346,63.843a1.153,1.153,0,0,0,.158.01,1.2,1.2,0,0,0,.849-.352l7.784-7.784a1.2,1.2,0,1,0-1.7-1.7L42.76,60.695l-2.119-3.672a1.2,1.2,0,0,0-2.082,1.2l2.9,5.028a1.2,1.2,0,0,0,.883.591ZM26.633,38.282H10.818a1.2,1.2,0,1,0,0,2.4H26.633a1.2,1.2,0,1,0,0-2.4Zm0,12.2H10.818a1.2,1.2,0,1,0,0,2.4H26.633a1.2,1.2,0,0,0,0-2.4Zm0-6.1H10.818a1.2,1.2,0,1,0,0,2.4H26.633a1.2,1.2,0,0,0,0-2.4Zm6.351-6.494V53.278a3.443,3.443,0,0,1-3.44,3.44H17.231a1.2,1.2,0,0,0-.85.351L11.452,62V57.919a1.2,1.2,0,0,0-1.2-1.2H7.907a3.443,3.443,0,0,1-3.439-3.44V37.887a3.442,3.442,0,0,1,3.439-3.438H29.545a3.442,3.442,0,0,1,3.44,3.438ZM29.545,59.12H17.729L11.1,65.751A1.2,1.2,0,0,1,9.049,64.9V59.12H7.907a5.849,5.849,0,0,1-5.842-5.842V37.887a5.848,5.848,0,0,1,5.842-5.841H29.545a5.849,5.849,0,0,1,5.843,5.841V53.278a5.849,5.849,0,0,1-5.843,5.842ZM54.176,47.03a5.168,5.168,0,0,1,5.162,5.162V65.328a5.167,5.167,0,0,1-5.162,5.16h-.8v4.757a1.2,1.2,0,0,1-2.051.85l-5.605-5.607H35.711a5.167,5.167,0,0,1-5.162-5.16v-4.1a1.2,1.2,0,1,1,2.4,0v4.1a2.762,2.762,0,0,0,2.76,2.757H46.22a1.2,1.2,0,0,1,.85.351l3.906,3.908V69.287a1.2,1.2,0,0,1,1.2-1.2h2a2.762,2.762,0,0,0,2.759-2.757V52.193a2.762,2.762,0,0,0-2.759-2.759H37.887a1.2,1.2,0,0,1,0-2.4H54.176ZM48.412,18.184A4.485,4.485,0,1,0,52.9,13.7,4.489,4.489,0,0,0,48.412,18.184Zm-2.4,0A6.888,6.888,0,1,1,52.9,25.072,6.9,6.9,0,0,1,46.009,18.184Zm-2.86,1.258-1.16-.229V17.156l1.16-.229a1.2,1.2,0,0,0,.878-.719l1.2-2.9a1.2,1.2,0,0,0-.113-1.129l-.658-.983L45.91,9.744l.983.659a1.2,1.2,0,0,0,1.128.112l2.9-1.2a1.2,1.2,0,0,0,.718-.878l.229-1.161h2.057l.229,1.161a1.2,1.2,0,0,0,.72.878l2.9,1.2A1.2,1.2,0,0,0,58.9,10.4l.983-.659L61.338,11.2l-.66.983a1.2,1.2,0,0,0-.112,1.129l1.2,2.9a1.2,1.2,0,0,0,.878.719l1.162.229v2.057l-1.162.229a1.2,1.2,0,0,0-.878.719l-1.2,2.9a1.2,1.2,0,0,0,.112,1.129l.66.983-1.455,1.455-.983-.659a1.2,1.2,0,0,0-1.129-.112l-2.9,1.2a1.2,1.2,0,0,0-.72.878l-.229,1.161H51.867l-.229-1.161a1.2,1.2,0,0,0-.718-.877l-2.9-1.2a1.2,1.2,0,0,0-1.128.112l-.983.659-1.454-1.455.658-.983a1.2,1.2,0,0,0,.113-1.129l-1.2-2.9a1.2,1.2,0,0,0-.878-.718Zm-.977,4.818.589-.876-.709-1.709-1.035-.2a1.78,1.78,0,0,1-1.431-1.743V16.64A1.779,1.779,0,0,1,41.018,14.9l1.033-.2.709-1.709-.586-.876a1.778,1.778,0,0,1,.219-2.245L44.575,7.68a1.781,1.781,0,0,1,2.245-.219l.877.588,1.708-.708.2-1.035a1.78,1.78,0,0,1,1.744-1.432h3.088a1.78,1.78,0,0,1,1.742,1.432l.2,1.035,1.71.708.875-.588a1.781,1.781,0,0,1,2.245.219L63.4,9.863a1.78,1.78,0,0,1,.218,2.245l-.587.876.709,1.709,1.035.2a1.781,1.781,0,0,1,1.433,1.742v3.088a1.782,1.782,0,0,1-1.433,1.743l-1.035.2-.709,1.709.589.876a1.782,1.782,0,0,1-.222,2.245l-2.182,2.183a1.78,1.78,0,0,1-2.245.219L58.1,28.32l-1.71.708-.2,1.035A1.78,1.78,0,0,1,54.441,31.5H51.353a1.78,1.78,0,0,1-1.744-1.433l-.2-1.035L47.7,28.32l-.877.587a1.78,1.78,0,0,1-2.245-.219L42.393,26.5a1.78,1.78,0,0,1-.221-2.245Zm32.552,5.751c.391-1.236-.348-2.612-1.036-3.679-.377-.585-.746-1.127-1.065-1.606a15.884,15.884,0,0,1-1.752-2.937,4.922,4.922,0,0,1,.427-1.707,10.2,10.2,0,0,0,.608-2.209A13.49,13.49,0,0,0,68.5,6.806,20.528,20.528,0,0,0,53.091.454C46.342.579,40.332,3.487,37.011,8.233A16.222,16.222,0,0,0,34.021,19.2a26.047,26.047,0,0,0,3.634,10.548,16.885,16.885,0,0,1,.954,14.619,1.2,1.2,0,1,0,2.261.812,19.563,19.563,0,0,0-1.126-16.616c-4.227-7.45-4.477-13.651-.766-18.955,2.882-4.118,8.175-6.643,14.157-6.754A18.29,18.29,0,0,1,66.706,8.4a11.129,11.129,0,0,1,2.818,9.148,8.311,8.311,0,0,1-.485,1.71,7.025,7.025,0,0,0-.572,2.588c.029,1.031.789,2.162,2.158,4.214.319.474.681,1.01,1.05,1.578a3.62,3.62,0,0,1,.753,1.623,1.407,1.407,0,0,1-.4.211c-.167.068-.406.135-.659.208-1.021.287-2.918.823-2.976,2.793-.022.82.065,2.122.159,3.5.08,1.141.159,2.321.159,3.068,0,.975-.319,1.264-.42,1.359-.76.7-2.934.515-4.123.412a34.056,34.056,0,0,1-4.151-.77,1.2,1.2,0,0,0-1.163.323,18.51,18.51,0,0,0-2.871,3.807,1.2,1.2,0,0,0,2.083,1.2,16.128,16.128,0,0,1,2.042-2.83c1.089.252,2.307.464,3.77.658a.477.477,0,0,0,.054.006c2.245.194,4.554.275,5.981-1.032a4.049,4.049,0,0,0,1.2-3.13c0-.829-.087-2.051-.167-3.231-.087-1.261-.174-2.564-.152-3.268a.136.136,0,0,1,.007-.054c.094-.178.876-.4,1.217-.5a9.055,9.055,0,0,0,.905-.29,2.9,2.9,0,0,0,1.8-1.694Z" fill-rule="evenodd"/>
      </g>
    </g>
  </g>
</svg>
