<svg xmlns="http://www.w3.org/2000/svg" xmlns:xlink="http://www.w3.org/1999/xlink" width="85.826" height="85.552" viewBox="0 0 85.826 85.552">
  <defs>
    <clipPath id="clip-path">
      <rect id="Rectángulo_425844" data-name="Rectángulo 425844" width="74.996" height="75.996" transform="translate(402.322 5944.238)" fill="#fff" stroke="#707070" stroke-width="1"/>
    </clipPath>
  </defs>
  <g id="Grupo_1212883" data-name="Grupo 1212883" transform="translate(-391.492 -5934.683)">
    <g id="Rectángulo_425843" data-name="Rectángulo 425843" transform="translate(391.492 5934.683)" fill="#fd9826" stroke="#af6a1a" stroke-width="3">
      <rect width="70" height="70" rx="10" stroke="none"/>
      <rect x="1.5" y="1.5" width="67" height="67" rx="8.5" fill="none"/>
    </g>
    <g id="Enmascarar_grupo_1099432" data-name="Enmascarar grupo 1099432" clip-path="url(#clip-path)">
      <g id="information_4795494" transform="translate(399.822 5942.238)">
        <path id="Trazado_1282541" data-name="Trazado 1282541" d="M11.249,3.75h57.5A3.75,3.75,0,0,1,72.5,7.5V48.747H7.5V7.5a3.75,3.75,0,0,1,3.75-3.75Z" fill="#707070"/>
        <path id="Trazado_1282542" data-name="Trazado 1282542" d="M68.746,3.75h-57.5A3.75,3.75,0,0,0,7.5,7.5V48.747H10V10a3.75,3.75,0,0,1,3.75-3.75h57.5a3.729,3.729,0,0,1,1.075.175A3.737,3.737,0,0,0,68.746,3.75Z" fill="#858585"/>
        <path id="Trazado_1282543" data-name="Trazado 1282543" d="M12.5,8.75h55v40h-55Z" fill="#4c94fc"/>
        <path id="Trazado_1282544" data-name="Trazado 1282544" d="M3.75,48.747H75A6.25,6.25,0,0,1,68.746,55H10A6.25,6.25,0,0,1,3.75,48.747Z" fill="#707070"/>
        <path id="Trazado_1282545" data-name="Trazado 1282545" d="M68.746,52.5H10a6.25,6.25,0,0,1-5.722-3.75H3.75A6.25,6.25,0,0,0,10,55H68.746A6.25,6.25,0,0,0,75,48.747h-.527A6.25,6.25,0,0,1,68.746,52.5Z" fill="#606060"/>
        <circle id="Elipse_12749" data-name="Elipse 12749" cx="2.5" cy="2.5" r="2.5" transform="translate(17.499 59.997)" fill="#f2c341"/>
        <circle id="Elipse_12750" data-name="Elipse 12750" cx="2.5" cy="2.5" r="2.5" transform="translate(5 67.496)" fill="#f2c341"/>
        <path id="Trazado_1282546" data-name="Trazado 1282546" d="M31.248,12.5a15,15,0,1,0,15,15,15,15,0,0,0-15-15Z" fill="#f2c341"/>
        <g id="Grupo_1212887" data-name="Grupo 1212887">
          <path id="Trazado_1282547" data-name="Trazado 1282547" d="M28.749,25h5V37.5h-5Z" fill="#4c94fc"/>
          <circle id="Elipse_12751" data-name="Elipse 12751" cx="2.5" cy="2.5" r="2.5" transform="translate(28.749 16.249)" fill="#4c94fc"/>
          <path id="Trazado_1282548" data-name="Trazado 1282548" d="M70,38.748H47.5A6.25,6.25,0,0,0,41.248,45V76.246H65V45a6.23,6.23,0,0,1,5.625-6.187C70.413,38.79,70.21,38.748,70,38.748Z" fill="#4c94fc"/>
        </g>
        <path id="Trazado_1282549" data-name="Trazado 1282549" d="M65,45v1.25H76.246V45a6.23,6.23,0,0,0-5.625-6.187A6.23,6.23,0,0,0,65,45Z" fill="#3f8aeb"/>
        <path id="Trazado_1282550" data-name="Trazado 1282550" d="M45,47.5a6.25,6.25,0,0,1,6.25-6.25H66.292a6.25,6.25,0,0,1,4.33-2.437c-.209-.02-.411-.062-.625-.062H47.5A6.25,6.25,0,0,0,41.248,45V76.246H45Z" fill="#3f8cfc"/>
        <path id="Trazado_1282551" data-name="Trazado 1282551" d="M18.749,27.5A15,15,0,0,1,32.5,12.562c-.414-.034-.827-.062-1.25-.062a15,15,0,0,0,0,30c.422,0,.836-.029,1.25-.062A15,15,0,0,1,18.749,27.5Z" fill="#f2b91b"/>
        <path id="Trazado_1282552" data-name="Trazado 1282552" d="M73.746,38.513V7.5a5,5,0,0,0-5-5h-57.5a5,5,0,0,0-5,5v40H3.75a1.25,1.25,0,0,0-1.25,1.25,7.5,7.5,0,0,0,3.75,6.485V66.482a3.741,3.741,0,1,0,4.77,4.765h7.7l4,5.716a1.25,1.25,0,0,0,1.026.534H47.5a1.25,1.25,0,1,0,0-2.5H24.4l-4-5.716a1.25,1.25,0,0,0-1.026-.534H11.019a3.75,3.75,0,0,0-2.27-2.27V56.135a7.5,7.5,0,0,0,1.25.112h2.5V62.5a1.25,1.25,0,0,0,1.25,1.25h2.73a3.727,3.727,0,0,0,7.04,0h4.522l3.386,5.643A1.25,1.25,0,0,0,32.5,70h5a1.25,1.25,0,0,0,0-2.5H33.206L29.82,61.853a1.25,1.25,0,0,0-1.071-.606h-5.23a3.727,3.727,0,0,0-7.04,0H15v-5H40v15a1.25,1.25,0,1,0,2.5,0V45a5,5,0,0,1,5-5H65.672a7.461,7.461,0,0,0-1.925,5V76.246a1.25,1.25,0,0,0,2.5,0V47.5h10a1.25,1.25,0,0,0,1.25-1.25V45A7.5,7.5,0,0,0,73.746,38.513ZM7.5,71.246A1.25,1.25,0,1,1,8.75,70,1.25,1.25,0,0,1,7.5,71.246Zm12.5-10a1.25,1.25,0,1,1-1.25,1.25A1.25,1.25,0,0,1,20,61.247ZM8.75,7.5a2.5,2.5,0,0,1,2.5-2.5h57.5a2.5,2.5,0,0,1,2.5,2.5v30c-.211,0-.419.015-.625.031-.206-.016-.414-.031-.625-.031h-1.25V8.75A1.25,1.25,0,0,0,67.5,7.5h-55a1.25,1.25,0,0,0-1.25,1.25V47.5H8.75ZM10,53.747A5.007,5.007,0,0,1,5.158,50H40v3.75ZM40,45v2.5H13.749V10h52.5V37.5H47.5A7.507,7.507,0,0,0,40,45Zm26.249,0a4.99,4.99,0,0,1,4.375-4.936A4.99,4.99,0,0,1,75,45Z"/>
        <path id="Trazado_1282553" data-name="Trazado 1282553" d="M45,50h6.25a1.25,1.25,0,1,0,0-2.5H45A1.25,1.25,0,1,0,45,50Z"/>
        <path id="Trazado_1282554" data-name="Trazado 1282554" d="M60,50a1.25,1.25,0,1,0,0-2.5h-3.75a1.25,1.25,0,0,0,0,2.5Z"/>
        <path id="Trazado_1282555" data-name="Trazado 1282555" d="M45,55H60a1.25,1.25,0,0,0,0-2.5H45A1.25,1.25,0,0,0,45,55Z"/>
        <path id="Trazado_1282556" data-name="Trazado 1282556" d="M45,60h6.25a1.25,1.25,0,0,0,0-2.5H45A1.25,1.25,0,0,0,45,60Z"/>
        <path id="Trazado_1282557" data-name="Trazado 1282557" d="M60,57.5h-3.75a1.25,1.25,0,1,0,0,2.5H60a1.25,1.25,0,0,0,0-2.5Z"/>
        <path id="Trazado_1282558" data-name="Trazado 1282558" d="M45,65H60a1.25,1.25,0,1,0,0-2.5H45A1.25,1.25,0,1,0,45,65Z"/>
        <path id="Trazado_1282559" data-name="Trazado 1282559" d="M35,36.248V25a1.25,1.25,0,0,0-1.25-1.25h-7.5a1.25,1.25,0,0,0,0,2.5H27.5v10a1.25,1.25,0,1,0,0,2.5H35a1.25,1.25,0,0,0,0-2.5Zm-5,0v-10h2.5v10Z"/>
        <path id="Trazado_1282560" data-name="Trazado 1282560" d="M31.248,22.5a3.75,3.75,0,1,0-3.75-3.75,3.75,3.75,0,0,0,3.75,3.75Zm0-5A1.25,1.25,0,1,1,30,18.749,1.25,1.25,0,0,1,31.248,17.5Z"/>
        <path id="Trazado_1282561" data-name="Trazado 1282561" d="M31.248,11.249A16.249,16.249,0,1,0,47.5,27.5,16.249,16.249,0,0,0,31.248,11.249Zm0,30A13.749,13.749,0,1,1,45,27.5,13.749,13.749,0,0,1,31.248,41.248Z"/>
        <path id="Trazado_1282562" data-name="Trazado 1282562" d="M52.5,16.249h10a1.25,1.25,0,1,0,0-2.5h-10a1.25,1.25,0,1,0,0,2.5Z"/>
        <path id="Trazado_1282563" data-name="Trazado 1282563" d="M62.5,18.749h-10a1.25,1.25,0,1,0,0,2.5h10a1.25,1.25,0,0,0,0-2.5Z"/>
        <path id="Trazado_1282564" data-name="Trazado 1282564" d="M62.5,23.749h-10a1.25,1.25,0,1,0,0,2.5h10a1.25,1.25,0,1,0,0-2.5Z"/>
      </g>
    </g>
  </g>
</svg>
