<svg xmlns="http://www.w3.org/2000/svg" xmlns:xlink="http://www.w3.org/1999/xlink" width="85.826" height="85.552" viewBox="0 0 85.826 85.552">
  <defs>
    <clipPath id="clip-path">
      <rect id="Rectángulo_425844" data-name="Rectángulo 425844" width="74.996" height="75.996" transform="translate(402.322 5944.238)" fill="#fff" stroke="#707070" stroke-width="1"/>
    </clipPath>
  </defs>
  <g id="Grupo_1212884" data-name="Grupo 1212884" transform="translate(-391.492 -5934.683)">
    <g id="Rectángulo_425843" data-name="Rectángulo 425843" transform="translate(391.492 5934.683)" fill="#fd9826" stroke="#af6a1a" stroke-width="3">
      <rect width="70" height="70" rx="10" stroke="none"/>
      <rect x="1.5" y="1.5" width="67" height="67" rx="8.5" fill="none"/>
    </g>
    <g id="Enmascarar_grupo_1099431" data-name="Enmascarar grupo 1099431" clip-path="url(#clip-path)">
      <g id="contract_3862872" transform="translate(401.112 5943.529)">
        <path id="Trazado_1282521" data-name="Trazado 1282521" d="M12.1,2.419H65.319V75H12.1Z" fill="#c8cded"/>
        <path id="Trazado_1282522" data-name="Trazado 1282522" d="M12.1,2.419H59.271V70.158H12.1Z" fill="#e2e7f6"/>
        <circle id="Elipse_12748" data-name="Elipse 12748" cx="10.887" cy="10.887" r="10.887" transform="translate(27.821 7.258)" fill="#4d8c28"/>
        <path id="Trazado_1282523" data-name="Trazado 1282523" d="M45.37,9.547A10.873,10.873,0,0,0,30.609,25.4H42.947a2.419,2.419,0,0,0,2.419-2.419Z" fill="#559b2d"/>
        <path id="Trazado_1282524" data-name="Trazado 1282524" d="M14.515,35.079H27.821V37.5H38.708L59.271,53.223l-3.629,4.838-1.337-1.04L50.8,61.69l-1.337-1.04-3.5,4.669-1.337-1.04-3.5,4.669L18.144,52.013H14.515Z" fill="#f4d0b5"/>
        <path id="Trazado_1282525" data-name="Trazado 1282525" d="M37.037,65.934l-3.168,4.224-16.935-12.1,3.352-4.47Z" fill="#f2b9a1"/>
        <path id="Trazado_1282526" data-name="Trazado 1282526" d="M62.9,36.287H52.013L41.127,32.66H27.821V37.5H38.708L59.271,53.223H62.9Z" fill="#f2b9a1"/>
        <g id="Grupo_1212886" data-name="Grupo 1212886">
          <path id="Trazado_1282527" data-name="Trazado 1282527" d="M48.309,47.247h2.419V59.341H48.309Z" transform="matrix(0.614, -0.789, 0.789, 0.614, -22.957, 59.678)" fill="#eabb9b"/>
          <path id="Trazado_1282528" data-name="Trazado 1282528" d="M43.472,50.875H45.89V62.969H43.472Z" transform="matrix(0.614, -0.789, 0.789, 0.614, -27.689, 57.26)" fill="#eabb9b"/>
          <path id="Trazado_1282529" data-name="Trazado 1282529" d="M38.634,54.5h2.419V66.6H38.634Z" transform="matrix(0.614, -0.789, 0.789, 0.614, -32.421, 54.84)" fill="#eabb9b"/>
        </g>
        <path id="Trazado_1282530" data-name="Trazado 1282530" d="M20.086,60.313l1.968,1.406,3.3-4.395L23.4,55.888Z" fill="#eaa992"/>
        <path id="Trazado_1282531" data-name="Trazado 1282531" d="M24.417,63.407l1.969,1.406,3.249-4.332-1.947-1.435Z" fill="#eaa992"/>
        <path id="Trazado_1282532" data-name="Trazado 1282532" d="M28.553,66.361l1.968,1.406,3.2-4.272-1.947-1.435Z" fill="#eaa992"/>
        <path id="Trazado_1282533" data-name="Trazado 1282533" d="M2.419,32.66h12.1V54.433H2.419Z" fill="#3b5892"/>
        <path id="Trazado_1282534" data-name="Trazado 1282534" d="M62.9,33.869H75V55.642H62.9Z" fill="#3b5892"/>
        <path id="Trazado_1282535" data-name="Trazado 1282535" d="M62.9,33.869h8.467V52.013H62.9Z" fill="#4c6cb5"/>
        <path id="Trazado_1282536" data-name="Trazado 1282536" d="M2.419,32.66h8.467V50.8H2.419Z" fill="#4c6cb5"/>
        <path id="Trazado_1282537" data-name="Trazado 1282537" d="M31.45,19.354l4.838,4.838,8.467-8.467-2.419-2.419-6.048,6.048-2.419-2.419Z" fill="#e2e7f6"/>
        <path id="Trazado_1282538" data-name="Trazado 1282538" d="M75,32.66H66.529V2.419a1.21,1.21,0,0,0-1.21-1.21H12.1a1.21,1.21,0,0,0-1.21,1.21V31.45H2.419a1.21,1.21,0,0,0-1.21,1.21V54.433a1.21,1.21,0,0,0,1.21,1.21h8.467V75a1.21,1.21,0,0,0,1.21,1.21H65.319A1.21,1.21,0,0,0,66.529,75V56.852H75a1.21,1.21,0,0,0,1.21-1.21V33.869A1.21,1.21,0,0,0,75,32.66ZM13.306,3.629h50.8V32.66H62.9a1.21,1.21,0,0,0-1.21,1.21v1.21H52.209l-10.7-3.567a1.21,1.21,0,0,0-.382-.062H27.821a1.21,1.21,0,0,0-1.21,1.21v1.21H15.725V32.66a1.21,1.21,0,0,0-1.21-1.21h-1.21ZM61.69,52.013H59.681L39.442,36.538a1.2,1.2,0,0,0-.734-.249H29.031V33.869h11.9l10.7,3.567a1.21,1.21,0,0,0,.382.062H61.69ZM45.5,48.639,44.013,50.55l8.611,6.7L50.575,59.98l-9.919-7.713-1.485,1.911,8.611,6.7-2.049,2.733L35.814,55.9l-1.485,1.911,8.611,6.7-2.068,2.758L18.862,51.046a1.21,1.21,0,0,0-.717-.242H15.725V36.288H26.612V37.5a1.21,1.21,0,0,0,1.21,1.21H38.3L57.584,53.455l-2.17,2.9ZM20.534,55.279l2.142,1.572-1.871,2.492L18.639,57.8Zm4.09,3.014,2.338,1.722-1.814,2.419-2.362-1.693Zm4.286,3.155,2.142,1.572-1.773,2.371-2.166-1.547ZM33,64.463l2.337,1.721-1.726,2.3-2.362-1.693ZM3.629,33.869h9.677V53.223H3.629ZM64.11,73.786h-50.8V55.642h1.21a1.21,1.21,0,0,0,1.21-1.21v-1.21h2.021l.847.619-2.626,3.493a1.21,1.21,0,0,0,.265,1.71l16.935,12.1a1.21,1.21,0,0,0,1.67-.259l2.448-3.266,3.124,2.3a1.21,1.21,0,0,0,1.685-.242l2.763-3.683.363.284a1.21,1.21,0,0,0,1.713-.23L49.7,62.362l.363.284a1.21,1.21,0,0,0,1.713-.23l2.763-3.683.363.284a1.21,1.21,0,0,0,1.713-.23l3.266-4.355H61.69v1.21a1.21,1.21,0,0,0,1.21,1.21h1.21Zm9.677-19.354H64.11V35.079h9.677Z"/>
        <path id="Trazado_1282539" data-name="Trazado 1282539" d="M38.708,30.24a12.1,12.1,0,1,0-12.1-12.1,12.1,12.1,0,0,0,12.1,12.1Zm0-21.773a9.677,9.677,0,1,1-9.677,9.677A9.677,9.677,0,0,1,38.708,8.467Z"/>
        <path id="Trazado_1282540" data-name="Trazado 1282540" d="M36.288,25.4a1.209,1.209,0,0,0,.855-.354l8.467-8.467a1.21,1.21,0,0,0,0-1.71l-2.419-2.419a1.21,1.21,0,0,0-1.71,0l-5.193,5.193-1.564-1.564a1.21,1.21,0,0,0-1.71,0L30.595,18.5a1.21,1.21,0,0,0,0,1.71l4.838,4.838A1.21,1.21,0,0,0,36.288,25.4Zm-2.419-6.757,1.564,1.564a1.21,1.21,0,0,0,1.71,0l5.193-5.193.709.709-6.757,6.757L33.16,19.354Z"/>
      </g>
    </g>
  </g>
</svg>
