<svg xmlns="http://www.w3.org/2000/svg" xmlns:xlink="http://www.w3.org/1999/xlink" width="85" height="83.181" viewBox="0 0 85 83.181">
  <defs>
    <clipPath id="clip-path">
      <rect id="Rectangle_425679" data-name="Rectangle 425679" width="70" height="70" transform="translate(776.678 6166.323)" fill="#fff" stroke="#707070" stroke-width="1"/>
    </clipPath>
  </defs>
  <g id="Group_1209326" data-name="Group 1209326" transform="translate(-761.678 -6153.143)">
    <g id="Rectangle_425678" data-name="Rectangle 425678" transform="translate(761.678 6153.143)" fill="#e2dbf9" stroke="#b7a8f1" stroke-width="3">
      <rect width="70" height="70" rx="10" stroke="none"/>
      <rect x="1.5" y="1.5" width="67" height="67" rx="8.5" fill="none"/>
    </g>
    <g id="Mask_Group_1099401" data-name="Mask Group 1099401" clip-path="url(#clip-path)">
      <g id="service_1055434" transform="translate(776.678 6166.323)">
        <circle id="Ellipse_12703" data-name="Ellipse 12703" cx="15.039" cy="15.039" r="15.039" transform="translate(1.025 4.445)" fill="#fff9eb"/>
        <path id="Path_1280273" data-name="Path 1280273" d="M23.431,6.37a4.087,4.087,0,0,0,.367,5.379A10.937,10.937,0,1,1,8.331,27.217a4.094,4.094,0,0,0-5.378-.364A15.04,15.04,0,1,0,23.431,6.37Z" fill="#d3cdbf"/>
        <circle id="Ellipse_12704" data-name="Ellipse 12704" cx="15.039" cy="15.039" r="15.039" transform="translate(38.896 4.445)" fill="#8b9ba9"/>
        <path id="Path_1280274" data-name="Path 1280274" d="M61.3,6.37a4.087,4.087,0,0,0,.367,5.379A10.937,10.937,0,1,1,46.2,27.217a4.094,4.094,0,0,0-5.378-.364A15.04,15.04,0,1,0,61.3,6.37Z" fill="#596775"/>
        <circle id="Ellipse_12705" data-name="Ellipse 12705" cx="15.039" cy="15.039" r="15.039" transform="translate(19.961 35.478)" fill="#60f375"/>
        <path id="Path_1280275" data-name="Path 1280275" d="M42.367,37.4a4.087,4.087,0,0,0,.367,5.379A10.937,10.937,0,1,1,27.266,58.251a4.094,4.094,0,0,0-5.378-.364A15.04,15.04,0,1,0,42.367,37.4Z" fill="#28d05b"/>
        <path id="Path_1280276" data-name="Path 1280276" d="M17.09,20.85a.52.52,0,0,1,.343-.483A3.816,3.816,0,1,0,12.249,16.8a1.025,1.025,0,0,0,2.051,0,1.765,1.765,0,0,1,1.879-1.761,1.784,1.784,0,0,1,1.647,1.647A1.762,1.762,0,0,1,16.7,18.453a2.557,2.557,0,0,0-1.658,2.4v1.011a1.025,1.025,0,0,0,2.051,0V20.85Z"/>
        <path id="Path_1280277" data-name="Path 1280277" d="M16.918,24.383a1.012,1.012,0,0,0-.129-.156.932.932,0,0,0-.156-.127.941.941,0,0,0-.176-.094,1.077,1.077,0,0,0-.191-.059,1,1,0,0,0-.4,0,1.066,1.066,0,0,0-.191.059.958.958,0,0,0-.176.094.932.932,0,0,0-.156.127,1.006,1.006,0,0,0-.129.156,1.039,1.039,0,0,0-.094.176,1.075,1.075,0,0,0-.057.193.978.978,0,0,0-.021.2,1,1,0,0,0,.021.2,1.029,1.029,0,0,0,.057.191,1.112,1.112,0,0,0,.094.178,1.082,1.082,0,0,0,.129.156,1.013,1.013,0,0,0,.156.127,1.028,1.028,0,0,0,.176.094,1.061,1.061,0,0,0,.191.057,1,1,0,0,0,.4,0,1.061,1.061,0,0,0,.191-.057,1.038,1.038,0,0,0,.176-.094,1.013,1.013,0,0,0,.156-.127,1.074,1.074,0,0,0,.129-.156,1.112,1.112,0,0,0,.094-.178,1.029,1.029,0,0,0,.057-.191,1,1,0,0,0,.021-.2.978.978,0,0,0-.021-.2,1.075,1.075,0,0,0-.057-.193A1.039,1.039,0,0,0,16.918,24.383Z"/>
        <path id="Path_1280278" data-name="Path 1280278" d="M30.944,49.74a1.025,1.025,0,0,0-1.025,1.025v4.424a1.026,1.026,0,0,0,1.751.725l8.2-8.2a1.025,1.025,0,0,0-1.45-1.45l-6.453,6.453V50.765A1.026,1.026,0,0,0,30.944,49.74Z"/>
        <path id="Path_1280279" data-name="Path 1280279" d="M49.628,18.48a1.025,1.025,0,1,0,1.054,1.575A1.024,1.024,0,0,0,49.628,18.48Z"/>
        <path id="Path_1280280" data-name="Path 1280280" d="M53.733,18.48a1.025,1.025,0,1,0,1.054,1.575A1.024,1.024,0,0,0,53.733,18.48Z"/>
        <path id="Path_1280281" data-name="Path 1280281" d="M57.839,18.48a1.025,1.025,0,1,0,1.054,1.575A1.024,1.024,0,0,0,57.839,18.48Z"/>
        <path id="Path_1280282" data-name="Path 1280282" d="M22.318,34.285A16.038,16.038,0,0,0,30.583,12.6a19.638,19.638,0,0,1,3.858-.495,1.03,1.03,0,0,0,.624,1.848c.533,0,.576-.158,2.552-2.05a1.025,1.025,0,0,0,.074-1.4c-.045-.054-1.759-1.842-1.808-1.893a1.026,1.026,0,1,0-1.457,1.443,21.556,21.556,0,0,0-4.877.689Q29.2,10.2,28.8,9.688A16.083,16.083,0,0,0,20.39,4.007a1.05,1.05,0,0,0-.276-.037,1.025,1.025,0,0,0-.275,2.012,14.041,14.041,0,1,1-3.775-.514,1.025,1.025,0,0,0,0-2.049.061.061,0,0,0-.031,0,16.064,16.064,0,1,0,6.282,30.866Z"/>
        <path id="Path_1280283" data-name="Path 1280283" d="M68.737,13.231a16.074,16.074,0,1,0-14.8,22.317l.139,0a19.165,19.165,0,0,1-1.642,4.742,1.025,1.025,0,0,0-1.991.482l.535,2.5a1.026,1.026,0,0,0,1,.811,23.8,23.8,0,0,0,2.71-.558,1.032,1.032,0,1,0-.6-1.969,21.4,21.4,0,0,0,2.1-6.162,15.917,15.917,0,0,0,7.535-3.17,16.1,16.1,0,0,0,3.5-3.717,15.94,15.94,0,0,0,2.178-4.691,1.025,1.025,0,0,0-.712-1.263,1.051,1.051,0,0,0-.276-.038,1.029,1.029,0,0,0-.987.75A14.052,14.052,0,0,1,53.939,33.5h0A14.014,14.014,0,1,1,67.949,19.483a1.025,1.025,0,1,0,2.051,0h0A15.945,15.945,0,0,0,68.737,13.231Z"/>
        <path id="Path_1280284" data-name="Path 1280284" d="M46.359,39.158A16.072,16.072,0,0,0,20.2,44.252a19.717,19.717,0,0,1-2.553-3.8,1.025,1.025,0,0,0,.714-1.916L16.04,37.478a1.025,1.025,0,0,0-1.357.511l-1.052,2.325a1.025,1.025,0,1,0,1.868.846l.1-.226a21.536,21.536,0,0,0,3.847,5.539,16.077,16.077,0,0,0,11.225,19.52,1.046,1.046,0,0,0,.276.038,1.029,1.029,0,0,0,.987-.751,1.025,1.025,0,0,0-.712-1.263A14.039,14.039,0,1,1,35,64.532a1.025,1.025,0,0,0,0,2.051A16.06,16.06,0,0,0,46.359,39.158Z"/>
      </g>
    </g>
  </g>
</svg>
