<svg xmlns="http://www.w3.org/2000/svg" xmlns:xlink="http://www.w3.org/1999/xlink" width="85" height="83.182" viewBox="0 0 85 83.182">
  <defs>
    <clipPath id="clip-path">
      <rect id="Rectangle_425697" data-name="Rectangle 425697" width="70" height="70" transform="translate(14496.75 -8195.541)" fill="#fff" stroke="#707070" stroke-width="1"/>
    </clipPath>
  </defs>
  <g id="Group_1209351" data-name="Group 1209351" transform="translate(-14481.75 8208.723)">
    <g id="Rectangle_425696" data-name="Rectangle 425696" transform="translate(14481.75 -8208.723)" fill="#e2dbf9" stroke="#b7a8f1" stroke-width="3">
      <rect width="70" height="70" rx="10" stroke="none"/>
      <rect x="1.5" y="1.5" width="67" height="67" rx="8.5" fill="none"/>
    </g>
    <g id="Mask_Group_1099404" data-name="Mask Group 1099404" clip-path="url(#clip-path)">
      <g id="Layer_21" data-name="Layer 21" transform="translate(14495.626 -8196.661)">
        <circle id="Ellipse_12706" data-name="Ellipse 12706" cx="33.867" cy="33.867" r="33.867" transform="translate(2.258 2.258)" fill="#2763bb"/>
        <circle id="Ellipse_12707" data-name="Ellipse 12707" cx="27.093" cy="27.093" r="27.093" transform="translate(9.031 9.031)" fill="#ccc"/>
        <path id="Path_1280328" data-name="Path 1280328" d="M55.315,17A27.093,27.093,0,1,0,18.209,56.444H46.284a9.031,9.031,0,0,0,9.031-9.031Z" fill="#f2f2f2"/>
        <rect id="Rectangle_425940" data-name="Rectangle 425940" width="32.738" height="25.964" rx="4.516" transform="translate(18.062 20.32)" fill="#fff"/>
        <g id="Group_1209335" data-name="Group 1209335">
          <path id="Path_1280329" data-name="Path 1280329" d="M38.382,9.133a16.711,16.711,0,0,0-2.258-.1,16.711,16.711,0,0,0-2.258.1V15.8h4.516Z" fill="#3079e6"/>
          <path id="Path_1280330" data-name="Path 1280330" d="M9.133,38.382H15.8V33.867H9.133a16.711,16.711,0,0,0-.1,2.258A16.711,16.711,0,0,0,9.133,38.382Z" fill="#3079e6"/>
          <path id="Path_1280331" data-name="Path 1280331" d="M56.444,38.382h6.672c.068-.745.1-1.5.1-2.258a16.71,16.71,0,0,0-.1-2.258H56.444Z" fill="#3079e6"/>
        </g>
        <circle id="Ellipse_12708" data-name="Ellipse 12708" cx="2.258" cy="2.258" r="2.258" transform="translate(33.867 33.867)" fill="#2763bb"/>
        <path id="Path_1280332" data-name="Path 1280332" d="M54.187,69.991a15.8,15.8,0,0,1-12.2-25.84l-1.343-4.64,6.175.7a15.8,15.8,0,1,1,7.372,29.78Z" fill="#f3a845"/>
        <path id="Path_1280333" data-name="Path 1280333" d="M54.187,38.382a15.737,15.737,0,0,0-7.372,1.829l-6.175-.7,1.343,4.64a15.8,15.8,0,0,0-.756,19.067H58.7A4.516,4.516,0,0,0,63.218,58.7V41.227a15.8,15.8,0,0,0-9.031-2.845Z" fill="#eecc61"/>
        <rect id="Rectangle_425941" data-name="Rectangle 425941" width="14.676" height="13.547" rx="2.258" transform="translate(45.155 45.155)" fill="#fce79c"/>
        <path id="Path_1280334" data-name="Path 1280334" d="M56.444,50.8v9.031h3.387v4.516H48.542V59.831h3.387V55.315H48.542V50.8Z" fill="#fff"/>
        <circle id="Ellipse_12709" data-name="Ellipse 12709" cx="2.258" cy="2.258" r="2.258" transform="translate(51.929 42.898)" fill="#fff"/>
        <path id="Path_1280335" data-name="Path 1280335" d="M33.867,63.116c.745.068,1.5.1,2.258.1a16.71,16.71,0,0,0,2.258-.1V56.444H33.867Z" fill="#3079e6"/>
        <path id="Path_1280336" data-name="Path 1280336" d="M71.12,36.124a35,35,0,1,0-24.26,33.3,16.753,16.753,0,0,0,7.326,1.693A16.933,16.933,0,0,0,71.12,54.187a16.753,16.753,0,0,0-1.693-7.326A34.883,34.883,0,0,0,71.12,36.124Zm-35,32.738A32.738,32.738,0,1,1,67.846,44.218a16.866,16.866,0,0,0-3.85-3.8,28.8,28.8,0,0,0,.35-4.29A28.222,28.222,0,1,0,36.124,64.346a28.673,28.673,0,0,0,4.29-.35,16.865,16.865,0,0,0,3.8,3.849,32.929,32.929,0,0,1-8.094,1.016Zm3.387-29.035L40.64,43.9a16.933,16.933,0,0,0-3.387,10.284v1.129H33.867a1.129,1.129,0,0,0-1.129,1.129v5.419a25.964,25.964,0,0,1-14.145-6.548l2.529-2.529-1.6-1.6L16.99,53.712a25.964,25.964,0,0,1-6.6-14.2H15.8a1.129,1.129,0,0,0,1.129-1.129V33.867A1.129,1.129,0,0,0,15.8,32.738H10.386a25.964,25.964,0,0,1,6.6-14.145l2.529,2.529,1.6-1.6L18.593,16.99a25.964,25.964,0,0,1,14.145-6.6V15.8a1.129,1.129,0,0,0,1.129,1.129h4.516A1.129,1.129,0,0,0,39.511,15.8V10.386a25.964,25.964,0,0,1,14.145,6.6l-2.529,2.529,1.6,1.6,2.585-2.529a25.964,25.964,0,0,1,6.548,14.145H56.444a1.129,1.129,0,0,0-1.129,1.129v3.387H54.187a16.933,16.933,0,0,0-7.575,1.795l-5.848-.666a1.188,1.188,0,0,0-1.253,1.445ZM39.082,61.9a26.64,26.64,0,0,1-2.958.192H35V57.573h2.6A17.283,17.283,0,0,0,39.127,61.9ZM10.16,36.124V35h4.516v2.258H10.16V36.124ZM35,10.16h2.258v4.516H35ZM57.573,35h4.516v1.129a26.643,26.643,0,0,1-.192,3,17.283,17.283,0,0,0-4.324-1.535ZM54.187,68.862a14.676,14.676,0,0,1-11.289-24,1.129,1.129,0,0,0,.214-1.027l-.869-3.014,4.516.508a1.129,1.129,0,0,0,.655-.124,14.676,14.676,0,1,1,6.773,27.658Z"/>
        <path id="Path_1280337" data-name="Path 1280337" d="M59.831,58.7H57.573V50.8a1.129,1.129,0,0,0-1.129-1.129h-7.9A1.129,1.129,0,0,0,47.413,50.8v4.516a1.129,1.129,0,0,0,1.129,1.129H50.8V58.7H48.542a1.129,1.129,0,0,0-1.129,1.129v4.516a1.129,1.129,0,0,0,1.129,1.129H59.831a1.129,1.129,0,0,0,1.129-1.129V59.831A1.129,1.129,0,0,0,59.831,58.7ZM58.7,63.218H49.671V60.96h2.258a1.129,1.129,0,0,0,1.129-1.129V55.315a1.129,1.129,0,0,0-1.129-1.129H49.671V51.929h5.644v7.9a1.129,1.129,0,0,0,1.129,1.129H58.7Z"/>
        <path id="Path_1280338" data-name="Path 1280338" d="M54.187,48.542A3.387,3.387,0,1,0,50.8,45.155,3.387,3.387,0,0,0,54.187,48.542Zm0-4.516a1.129,1.129,0,1,1-1.129,1.129A1.129,1.129,0,0,1,54.187,44.027Z"/>
        <path id="Path_1280339" data-name="Path 1280339" d="M38.709,26.766l1.6-1.6-3.387-3.387a1.129,1.129,0,0,0-1.6,0l-3.387,3.387,1.6,1.6L35,25.3v7.643A3.387,3.387,0,0,0,32.941,35H27.556l1.468-1.456-1.6-1.6-3.387,3.387a1.129,1.129,0,0,0,0,1.6l3.387,3.387,1.6-1.6-1.468-1.456h5.385a3.387,3.387,0,1,0,4.312-4.312V25.3ZM36.124,37.253a1.129,1.129,0,1,1,1.129-1.129A1.129,1.129,0,0,1,36.124,37.253Z"/>
      </g>
    </g>
  </g>
</svg>
