<svg xmlns="http://www.w3.org/2000/svg" xmlns:xlink="http://www.w3.org/1999/xlink" width="85" height="83.181" viewBox="0 0 85 83.181">
  <defs>
    <clipPath id="clip-path">
      <rect id="Rectangle_425830" data-name="Rectangle 425830" width="70" height="70" transform="translate(14150.678 -6409.302)" fill="#fff" stroke="#707070" stroke-width="1"/>
    </clipPath>
  </defs>
  <g id="Group_1209357" data-name="Group 1209357" transform="translate(-14135.678 6422.482)">
    <g id="Rectangle_425829" data-name="Rectangle 425829" transform="translate(14135.678 -6422.482)" fill="#e2dbf9" stroke="#b7a8f1" stroke-width="3">
      <rect width="70" height="70" rx="10" stroke="none"/>
      <rect x="1.5" y="1.5" width="67" height="67" rx="8.5" fill="none"/>
    </g>
    <g id="Mask_Group_1099411" data-name="Mask Group 1099411" clip-path="url(#clip-path)">
      <g id="volume_3619836" transform="translate(14149.549 -6410.431)">
        <path id="Path_1280418" data-name="Path 1280418" d="M23.352,60.968H9.032A2.258,2.258,0,0,1,6.774,58.71V27.1a2.258,2.258,0,0,1,2.258-2.258H63.226A2.258,2.258,0,0,1,65.484,27.1V58.71a2.258,2.258,0,0,1-2.258,2.258H48.906" fill="#fad85d"/>
        <path id="Path_1280419" data-name="Path 1280419" d="M6.774,58.71a2.258,2.258,0,0,0,2.258,2.258H59.839V32.252H6.774Z" fill="#fce797"/>
        <path id="Path_1280420" data-name="Path 1280420" d="M18.065,24.839V2.258h27.1l9.032,9.032V24.839" fill="#ededed"/>
        <path id="Path_1280421" data-name="Path 1280421" d="M45.161,2.258V11.29h9.032" fill="#ccc"/>
        <path id="Path_1280422" data-name="Path 1280422" d="M9.032,24.839V11.29A2.258,2.258,0,0,1,11.29,9.032h6.732V24.839Z" fill="#f4a93c"/>
        <path id="Path_1280423" data-name="Path 1280423" d="M63.226,24.839V18.065a2.258,2.258,0,0,0-2.258-2.258H54.194v9.032Z" fill="#f4a93c"/>
        <path id="Path_1280424" data-name="Path 1280424" d="M12.419,24.839l4.516,4.516H55.323l4.516-4.516" fill="#f6b940"/>
        <path id="Path_1280425" data-name="Path 1280425" d="M21.452,35H50.806v2.258H21.452Z" fill="#f6b940"/>
        <path id="Path_1280426" data-name="Path 1280426" d="M25.968,7.9H41.774v2.258H25.968Z" fill="#ccc"/>
        <path id="Path_1280427" data-name="Path 1280427" d="M23.71,14.677H48.548v2.258H23.71Z" fill="#ccc"/>
        <circle id="Ellipse_12711" data-name="Ellipse 12711" cx="13.548" cy="13.548" r="13.548" transform="translate(22.581 42.903)" fill="#78a0d4"/>
        <path id="Path_1280428" data-name="Path 1280428" d="M36.129,49.677V63.226l-5.645-3.387H27.1V53.065h3.387Z" fill="#e2e7f6"/>
        <path id="Path_1280429" data-name="Path 1280429" d="M40.314,61.766l-1.6-1.6.662-.662a4.323,4.323,0,0,0,0-6.113l-.662-.662,1.6-1.6.662.662a6.58,6.58,0,0,1,0,9.305Z" fill="#fff"/>
        <path id="Path_1280430" data-name="Path 1280430" d="M42.572,64.024l-1.6-1.6.992-.992a7.049,7.049,0,0,0,0-9.967l-.992-.992,1.6-1.6.992.992a9.305,9.305,0,0,1,0,13.16Z" fill="#fff"/>
        <path id="Path_1280431" data-name="Path 1280431" d="M64.355,23.917V18.065a3.387,3.387,0,0,0-3.387-3.387H55.323V11.29a1.129,1.129,0,0,0-.331-.8L45.96,1.46a1.129,1.129,0,0,0-.8-.331h-27.1a1.129,1.129,0,0,0-1.129,1.129V7.9H11.29A3.387,3.387,0,0,0,7.9,11.29V23.917A3.387,3.387,0,0,0,5.645,27.1V58.71A3.387,3.387,0,0,0,9.032,62.1H22.581a14.677,14.677,0,0,0,27.1,0H63.226a3.387,3.387,0,0,0,3.387-3.387V27.1a3.387,3.387,0,0,0-2.258-3.179Zm-3.387-6.982A1.129,1.129,0,0,1,62.1,18.065V23.71H55.323V16.935Zm-3.855,9.032-2.258,2.258H17.4l-2.258-2.258ZM46.29,4.984l5.178,5.178H46.29Zm-2.258-1.6v7.9a1.129,1.129,0,0,0,1.129,1.129h7.9V23.71H19.194V3.387ZM11.29,10.161h5.645V23.71H10.161V11.29A1.129,1.129,0,0,1,11.29,10.161Zm24.839,58.71A12.419,12.419,0,1,1,48.548,56.452,12.419,12.419,0,0,1,36.129,68.871ZM64.355,58.71a1.129,1.129,0,0,1-1.129,1.129H50.4a14.677,14.677,0,1,0-28.535,0H9.032A1.129,1.129,0,0,1,7.9,58.71V27.1a1.129,1.129,0,0,1,1.129-1.129h2.92l4.185,4.185a1.129,1.129,0,0,0,.8.331H55.323a1.129,1.129,0,0,0,.8-.331l4.185-4.185h2.92A1.129,1.129,0,0,1,64.355,27.1Z"/>
        <path id="Path_1280432" data-name="Path 1280432" d="M21.452,35H50.806v2.258H21.452Z"/>
        <path id="Path_1280433" data-name="Path 1280433" d="M25.968,7.9H41.774v2.258H25.968Z"/>
        <path id="Path_1280434" data-name="Path 1280434" d="M23.71,14.677H48.548v2.258H23.71Z"/>
        <path id="Path_1280435" data-name="Path 1280435" d="M36.686,48.7a1.129,1.129,0,0,0-1.138.015l-5.376,3.226H27.1a1.129,1.129,0,0,0-1.129,1.129v6.774A1.129,1.129,0,0,0,27.1,60.968h3.074l5.376,3.226a1.129,1.129,0,0,0,1.71-.968V49.677a1.129,1.129,0,0,0-.572-.982ZM35,61.231l-3.935-2.36a1.129,1.129,0,0,0-.581-.161H28.226V54.194h2.258a1.129,1.129,0,0,0,.581-.161L35,51.672Z"/>
        <path id="Path_1280436" data-name="Path 1280436" d="M42.9,56.452A6.625,6.625,0,0,0,40.976,51.8l-.662-.662-1.6,1.6.662.662a4.323,4.323,0,0,1,0,6.113l-.662.662,1.6,1.6.662-.662A6.625,6.625,0,0,0,42.9,56.452Z"/>
        <path id="Path_1280437" data-name="Path 1280437" d="M42.572,48.879l-1.6,1.6.992.992a7.049,7.049,0,0,1,0,9.967l-.992.992,1.6,1.6.992-.992a9.305,9.305,0,0,0,0-13.16Z"/>
      </g>
    </g>
  </g>
</svg>
