<svg xmlns="http://www.w3.org/2000/svg" xmlns:xlink="http://www.w3.org/1999/xlink" width="85" height="83.18" viewBox="0 0 85 83.18">
  <defs>
    <clipPath id="clip-path">
      <rect id="Rectangle_425814" data-name="Rectangle 425814" width="70" height="70" transform="translate(409.661 5233.792)" fill="#fff" stroke="#707070" stroke-width="1"/>
    </clipPath>
  </defs>
  <g id="Group_1209383" data-name="Group 1209383" transform="translate(-394.661 -5220.612)">
    <g id="Rectangle_425813" data-name="Rectangle 425813" transform="translate(394.661 5220.612)" fill="#e2dbf9" stroke="#b7a8f1" stroke-width="3">
      <rect width="70" height="70" rx="10" stroke="none"/>
      <rect x="1.5" y="1.5" width="67" height="67" rx="8.5" fill="none"/>
    </g>
    <g id="Mask_Group_1099416" data-name="Mask Group 1099416" clip-path="url(#clip-path)">
      <g id="yes-no_7466149" transform="translate(408.289 5232.414)">
        <g id="Group_1209381" data-name="Group 1209381">
          <path id="Path_1280514" data-name="Path 1280514" d="M66.429,28.745A4.233,4.233,0,0,0,62.2,24.513H9.358a4.233,4.233,0,0,0-4.232,4.232v4.232h61.3Z" fill="#658c99"/>
          <path id="Path_1280515" data-name="Path 1280515" d="M5.125,32.977V66.319a4.233,4.233,0,0,0,4.232,4.232h52.85a4.234,4.234,0,0,0,4.232-4.232V32.977Z" fill="#f6f0f5"/>
          <path id="Path_1280516" data-name="Path 1280516" d="M9.358,37.2h52.85V66.308H9.358Z" fill="#e1d9e1"/>
          <path id="Path_1280517" data-name="Path 1280517" d="M17.514,27.643a18.264,18.264,0,1,0,36.24-3.119H17.8a18.136,18.136,0,0,0-.287,3.119Z" opacity="0.08"/>
          <circle id="Ellipse_12717" data-name="Ellipse 12717" cx="1.587" cy="1.587" r="1.587" transform="translate(11.044 27.158)" fill="#c3b8c3"/>
          <circle id="Ellipse_12718" data-name="Ellipse 12718" cx="1.587" cy="1.587" r="1.587" transform="translate(23.521 27.158)" fill="#2b2a3a"/>
          <circle id="Ellipse_12719" data-name="Ellipse 12719" cx="16.059" cy="16.059" r="16.059" transform="translate(19.718 11.584)" fill="#ff7146"/>
          <path id="Path_1280518" data-name="Path 1280518" d="M39.2,20.093l-8.5,5.136v2.645a5.081,5.081,0,0,0,10.162,0V23.807A5.1,5.1,0,0,0,39.2,20.093Z" fill="#d8c5a7"/>
          <path id="Path_1280519" data-name="Path 1280519" d="M28.425,34.146l4.453-1.488v-.639a5.06,5.06,0,0,1-2.171-4.155V25.218l8.5-5.136A5.062,5.062,0,0,1,40.858,23.8v4.056a5.119,5.119,0,0,1-2.171,4.155v.639l4.453,1.488a4.319,4.319,0,0,1,.761.342V23.807a8.123,8.123,0,1,0-16.246,0v10.68a4.429,4.429,0,0,1,.772-.342Z" fill="#0e4b5c"/>
          <path id="Path_1280520" data-name="Path 1280520" d="M35.777,32.944a4.989,4.989,0,0,1-2.9-.926v2.226a2.9,2.9,0,1,0,5.8,0V32.019A5.069,5.069,0,0,1,35.777,32.944Z" fill="#c7b69a"/>
          <path id="Path_1280521" data-name="Path 1280521" d="M43.14,34.146l-4.453-1.488v1.576a2.9,2.9,0,0,1-5.8,0V32.658l-4.453,1.488a4.515,4.515,0,0,0-3.086,4.276v1.4a16.015,16.015,0,0,0,20.875,0v-1.4a4.53,4.53,0,0,0-3.086-4.276Z" fill="#ffc040"/>
          <circle id="Ellipse_12720" data-name="Ellipse 12720" cx="7.274" cy="7.274" r="7.274" transform="translate(13.579 47.537)" fill="#1c8fc7"/>
          <circle id="Ellipse_12721" data-name="Ellipse 12721" cx="7.274" cy="7.274" r="7.274" transform="translate(43.426 47.537)" fill="#1c8fc7"/>
          <path id="Path_1280522" data-name="Path 1280522" d="M59.728,2.2A7.887,7.887,0,0,0,54.5,16l-.639,3.9,4.122-2.116a8.164,8.164,0,0,0,1.73.2A7.892,7.892,0,0,0,59.728,2.2Z" fill="#ffc040"/>
          <g id="Group_1209380" data-name="Group 1209380">
            <circle id="Ellipse_12722" data-name="Ellipse 12722" cx="0.827" cy="0.827" r="0.827" transform="translate(32.944 25.086)" fill="#2b2a3a"/>
            <circle id="Ellipse_12723" data-name="Ellipse 12723" cx="0.827" cy="0.827" r="0.827" transform="translate(36.956 25.086)" fill="#2b2a3a"/>
          </g>
        </g>
        <g id="Group_1209382" data-name="Group 1209382">
          <path id="Path_1280523" data-name="Path 1280523" d="M10.217,28.745a2.414,2.414,0,1,0,2.414-2.414A2.413,2.413,0,0,0,10.217,28.745Zm3.163,0a.761.761,0,1,1-.761-.761A.762.762,0,0,1,13.381,28.745Z" fill="#2b2a3a"/>
          <path id="Path_1280524" data-name="Path 1280524" d="M35.777,44.517A16.88,16.88,0,1,0,18.892,27.643,16.9,16.9,0,0,0,35.777,44.517Zm-9.611-5.081V38.422a3.673,3.673,0,0,1,2.524-3.494L32.063,33.8v.43a3.725,3.725,0,1,0,7.451,0V33.8l3.373,1.124a3.684,3.684,0,0,1,2.524,3.494v1.014a15.219,15.219,0,0,1-19.244,0Zm16.908-6.183L39.8,32.162a5.9,5.9,0,0,0,1.885-4.3V23.807a5.892,5.892,0,0,0-1.918-4.321.831.831,0,0,0-.992-.1l-8.5,5.136a.842.842,0,0,0-.4.705v2.645a5.859,5.859,0,0,0,1.885,4.3l-3.273,1.091V23.807a7.3,7.3,0,0,1,14.593,0v9.446Zm-7.3-1.135a4.245,4.245,0,0,1-4.243-4.243V25.692l7.528-4.552a4.158,4.158,0,0,1,.97,2.667v4.056A4.257,4.257,0,0,1,35.777,32.118ZM33.7,33.374a5.609,5.609,0,0,0,4.144,0v.86a2.072,2.072,0,1,1-4.144,0Zm2.072-20.964A15.2,15.2,0,0,1,47.008,37.893a5.281,5.281,0,0,0-2.282-3.858V23.807a8.95,8.95,0,1,0-17.9,0V34.036a5.351,5.351,0,0,0-2.282,3.858A15.2,15.2,0,0,1,35.777,12.411Z" fill="#2b2a3a"/>
          <path id="Path_1280525" data-name="Path 1280525" d="M12.752,54.812a8.1,8.1,0,1,0,8.1-8.1A8.114,8.114,0,0,0,12.752,54.812Zm8.1-6.459A6.448,6.448,0,1,1,14.406,54.8,6.456,6.456,0,0,1,20.853,48.353Z" fill="#2b2a3a"/>
          <path id="Path_1280526" data-name="Path 1280526" d="M58.8,54.812a8.1,8.1,0,1,0-8.1,8.1A8.114,8.114,0,0,0,58.8,54.812Zm-14.56,0A6.448,6.448,0,1,1,50.69,61.26,6.456,6.456,0,0,1,44.242,54.812Z" fill="#2b2a3a"/>
          <path id="Path_1280527" data-name="Path 1280527" d="M53.059,19.773a.823.823,0,0,0,.331.8.794.794,0,0,0,.485.154.89.89,0,0,0,.375-.088l3.869-1.984a8.934,8.934,0,0,0,1.609.154,8.73,8.73,0,1,0-6.106-2.5Zm-.4-9.677a7.065,7.065,0,1,1,5.522,6.889.83.83,0,0,0-.562.066l-2.667,1.367.375-2.293a.835.835,0,0,0-.265-.749A7,7,0,0,1,52.663,10.1Z" fill="#2b2a3a"/>
          <path id="Path_1280528" data-name="Path 1280528" d="M18.792,57.909a.825.825,0,0,0,1.168,0L25,52.872A.826.826,0,1,0,23.829,51.7l-4.453,4.453-1.5-1.488a.826.826,0,1,0-1.168,1.168Z" fill="#2b2a3a"/>
          <path id="Path_1280529" data-name="Path 1280529" d="M53.159,58.438a.825.825,0,0,0,1.168,0,.832.832,0,0,0,0-1.168L51.858,54.8l2.469-2.469a.826.826,0,0,0-1.168-1.168L50.7,53.644l-2.469-2.469a.826.826,0,1,0-1.168,1.168l2.469,2.469-2.469,2.469a.832.832,0,0,0,0,1.168.825.825,0,0,0,1.168,0L50.7,55.98Z" fill="#2b2a3a"/>
          <path id="Path_1280530" data-name="Path 1280530" d="M57.457,8.255a.833.833,0,0,0,.827-.827,1.458,1.458,0,0,1,1.852-1.4,1.409,1.409,0,0,1,.992.992,1.453,1.453,0,0,1-.617,1.62,3.611,3.611,0,0,0-1.6,3.1v.132a.827.827,0,1,0,1.653,0v-.132a1.986,1.986,0,0,1,.827-1.7,3.131,3.131,0,0,0,1.334-3.428,3.1,3.1,0,0,0-2.182-2.182,3.166,3.166,0,0,0-2.711.54,3.048,3.048,0,0,0-1.2,2.447.828.828,0,0,0,.827.838Z" fill="#2b2a3a"/>
          <circle id="Ellipse_12724" data-name="Ellipse 12724" cx="0.827" cy="0.827" r="0.827" transform="translate(58.901 13.348)" fill="#2b2a3a"/>
          <path id="Path_1280531" data-name="Path 1280531" d="M18.958,36.372h-9.6a.833.833,0,0,0-.827.827V66.308a.833.833,0,0,0,.827.827h52.85a.833.833,0,0,0,.827-.827V37.2a.833.833,0,0,0-.827-.827H52.6a.827.827,0,0,0,0,1.653h8.784V65.481h-51.2V38.026h8.784a.827.827,0,1,0-.011-1.653Z" fill="#2b2a3a"/>
          <path id="Path_1280532" data-name="Path 1280532" d="M62.208,23.7H54.867a.827.827,0,0,0,0,1.653h7.341a3.408,3.408,0,0,1,3.406,3.406v3.406H54.371a.827.827,0,0,0,0,1.653H65.6V66.33A3.408,3.408,0,0,1,62.2,69.735H9.358A3.408,3.408,0,0,1,5.952,66.33V33.815H17.183a.827.827,0,0,0,0-1.653H5.952V28.756A3.408,3.408,0,0,1,9.358,25.35H16.7a.827.827,0,0,0,0-1.653H9.358A5.066,5.066,0,0,0,4.3,28.756V66.319a5.066,5.066,0,0,0,5.059,5.059h52.85a5.066,5.066,0,0,0,5.059-5.059V28.745A5.071,5.071,0,0,0,62.208,23.7Z" fill="#2b2a3a"/>
        </g>
      </g>
    </g>
  </g>
</svg>
