<svg xmlns="http://www.w3.org/2000/svg" xmlns:xlink="http://www.w3.org/1999/xlink" width="85" height="83.182" viewBox="0 0 85 83.182">
  <defs>
    <clipPath id="clip-path">
      <rect id="Rectangle_425835" data-name="Rectangle 425835" width="70" height="70" transform="translate(13783.5 -6409.588)" fill="#fff" stroke="#707070" stroke-width="1"/>
    </clipPath>
  </defs>
  <g id="Group_1209356" data-name="Group 1209356" transform="translate(-13768.5 6422.77)">
    <g id="Rectangle_425834" data-name="Rectangle 425834" transform="translate(13768.5 -6422.77)" fill="#e2dbf9" stroke="#b7a8f1" stroke-width="3">
      <rect width="70" height="70" rx="10" stroke="none"/>
      <rect x="1.5" y="1.5" width="67" height="67" rx="8.5" fill="none"/>
    </g>
    <g id="Mask_Group_1099412" data-name="Mask Group 1099412" clip-path="url(#clip-path)">
      <g id="work-history_2726971" transform="translate(13782.371 -6410.717)">
        <path id="Path_1280438" data-name="Path 1280438" d="M2.258,2.258H54.194V67.742H2.258Z" fill="#c7e2fb"/>
        <path id="Path_1280439" data-name="Path 1280439" d="M2.258,58.646q1.121.063,2.258.063c24.318,0,44.032-21.736,44.032-48.548a53.826,53.826,0,0,0-.589-7.9H2.258Z" fill="#ebf7fe"/>
        <path id="Path_1280440" data-name="Path 1280440" d="M6.774,40.645H28.226V63.226H6.774Z" fill="#fff"/>
        <path id="Path_1280441" data-name="Path 1280441" d="M28.226,40.645H49.677V63.226H28.226Z" fill="#ebf7fe"/>
        <path id="Path_1280442" data-name="Path 1280442" d="M6.774,31.613H28.226v9.032H6.774Z" fill="#e47c6f"/>
        <path id="Path_1280443" data-name="Path 1280443" d="M28.226,31.613H49.677v9.032H28.226Z" fill="#78b75b"/>
        <path id="Path_1280444" data-name="Path 1280444" d="M9.032,18.065h9.032a2.257,2.257,0,0,1,2.258,2.258V27.1H6.774V20.323A2.257,2.257,0,0,1,9.032,18.065Z" fill="#4472b0"/>
        <path id="Path_1280445" data-name="Path 1280445" d="M13.548,6.774a3.387,3.387,0,0,1,3.387,3.387v2.258a3.387,3.387,0,1,1-6.774,0V10.161A3.387,3.387,0,0,1,13.548,6.774Z" fill="#f9d296"/>
        <circle id="Ellipse_12712" data-name="Ellipse 12712" cx="12.419" cy="12.419" r="12.419" transform="translate(40.645 45.161)" fill="#4472b0"/>
        <path id="Path_1280446" data-name="Path 1280446" d="M61.979,48.946A12.409,12.409,0,1,0,44.588,66.64,26.57,26.57,0,0,0,61.979,48.946Z" fill="#698ec0"/>
        <path id="Path_1280447" data-name="Path 1280447" d="M24.839,9.032H49.677V27.1H24.839Z" fill="#a0a8b2"/>
        <g id="Group_1209353" data-name="Group 1209353">
          <path id="Path_1280448" data-name="Path 1280448" d="M6.774,28.226H20.323A1.129,1.129,0,0,0,21.452,27.1V20.323a3.391,3.391,0,0,0-3.387-3.387H9.032a3.391,3.391,0,0,0-3.387,3.387V27.1A1.129,1.129,0,0,0,6.774,28.226Zm1.129-7.9a1.13,1.13,0,0,1,1.129-1.129h9.032a1.13,1.13,0,0,1,1.129,1.129v5.645H18.065V21.452H15.806v4.516H11.29V21.452H9.032v4.516H7.9Z"/>
          <path id="Path_1280449" data-name="Path 1280449" d="M18.065,12.419V10.161a4.516,4.516,0,1,0-9.032,0v2.258a4.516,4.516,0,1,0,9.032,0Zm-2.258,0a2.258,2.258,0,1,1-4.516,0V10.161a2.258,2.258,0,0,1,4.516,0Z"/>
          <path id="Path_1280450" data-name="Path 1280450" d="M24.839,28.226H49.677A1.129,1.129,0,0,0,50.806,27.1V9.032A1.129,1.129,0,0,0,49.677,7.9H24.839A1.129,1.129,0,0,0,23.71,9.032V27.1A1.129,1.129,0,0,0,24.839,28.226Zm1.129-18.065H48.548V25.968H25.968Z"/>
          <path id="Path_1280451" data-name="Path 1280451" d="M28.226,12.419H46.29v2.258H28.226Z"/>
          <path id="Path_1280452" data-name="Path 1280452" d="M30.484,16.935H44.032v2.258H30.484Z"/>
          <path id="Path_1280453" data-name="Path 1280453" d="M28.226,21.452H46.29V23.71H28.226Z"/>
          <path id="Path_1280454" data-name="Path 1280454" d="M10.161,35H24.839v2.258H10.161Z"/>
          <path id="Path_1280455" data-name="Path 1280455" d="M31.613,35H46.29v2.258H31.613Z"/>
          <path id="Path_1280456" data-name="Path 1280456" d="M55.323,44.237V2.258a1.129,1.129,0,0,0-1.129-1.129H2.258A1.129,1.129,0,0,0,1.129,2.258V67.742a1.128,1.128,0,0,0,1.129,1.129H45.591a13.539,13.539,0,1,0,9.731-24.634ZM3.387,3.387H53.065V44.032a13.532,13.532,0,0,0-2.258.2V31.613a1.129,1.129,0,0,0-1.129-1.129H6.774a1.129,1.129,0,0,0-1.129,1.129V63.226a1.128,1.128,0,0,0,1.129,1.129H41.349a13.627,13.627,0,0,0,1.645,2.258H3.387ZM44.08,47.467l-.846-.846-7.1,7.1L33.54,51.137l-1.6,1.6,3.387,3.387a1.128,1.128,0,0,0,1.6,0l3.567-3.567a13.357,13.357,0,0,0-.187,9.543H29.355V41.774H48.548v3.048A13.54,13.54,0,0,0,44.08,47.467Zm4.469-7.951H29.355V32.742H48.548Zm-21.452,0H7.9V32.742H27.1ZM7.9,41.774H27.1V62.1H7.9Zm46.29,27.039v-2.2H51.935v2.2a11.309,11.309,0,0,1-10.1-10.1h2.2V56.452h-2.2a11.309,11.309,0,0,1,10.1-10.1v2.2h2.258v-2.2a11.309,11.309,0,0,1,10.1,10.1H62.1V58.71h2.2A11.308,11.308,0,0,1,54.194,68.813Z"/>
          <path id="Path_1280457" data-name="Path 1280457" d="M51.935,57.113,47.75,61.3l1.6,1.6,4.516-4.516a1.124,1.124,0,0,0,.331-.8V53.065H51.935Z"/>
          <path id="Path_1280458" data-name="Path 1280458" d="M60.437,41.084l-.921,2.062a15.838,15.838,0,0,1,9.355,14.435h2.258a18.1,18.1,0,0,0-10.692-16.5Z"/>
          <path id="Path_1280459" data-name="Path 1280459" d="M23.379,48.218l-1.6-1.6-3.718,3.718-3.718-3.718-1.6,1.6,3.718,3.718L12.75,55.653l1.6,1.6,3.718-3.718,3.718,3.718,1.6-1.6-3.718-3.718Z"/>
        </g>
      </g>
    </g>
  </g>
</svg>
