<svg xmlns="http://www.w3.org/2000/svg" xmlns:xlink="http://www.w3.org/1999/xlink" width="85" height="83.182" viewBox="0 0 85 83.182">
  <defs>
    <clipPath id="clip-path">
      <rect id="Rectangle_425777" data-name="Rectangle 425777" width="70" height="70" transform="translate(14879.75 -8194.94)" fill="#fff" stroke="#707070" stroke-width="1"/>
    </clipPath>
  </defs>
  <g id="Group_1209352" data-name="Group 1209352" transform="translate(-14864.75 8208.122)">
    <g id="Rectangle_425776" data-name="Rectangle 425776" transform="translate(14864.75 -8208.122)" fill="#e2dbf9" stroke="#b7a8f1" stroke-width="3">
      <rect width="70" height="70" rx="10" stroke="none"/>
      <rect x="1.5" y="1.5" width="67" height="67" rx="8.5" fill="none"/>
    </g>
    <g id="Mask_Group_1099403" data-name="Mask Group 1099403" clip-path="url(#clip-path)">
      <g id="document_8159754" transform="translate(14873.27 -8201.42)">
        <g id="Group_1209333" data-name="Group 1209333">
          <path id="Path_1280311" data-name="Path 1280311" d="M37.592,75.183l0-18.835a6.687,6.687,0,0,1,4.664-6.086V44.073a6.489,6.489,0,0,1,6.481-6.481h17.37V7.778a1.3,1.3,0,0,0-1.3-1.3H25.925a1.3,1.3,0,0,0-.916.38L6.861,25.009a1.3,1.3,0,0,0-.38.916V75.183a1.3,1.3,0,0,0,1.3,1.3H37.723a6.481,6.481,0,0,1-.131-1.3Z" fill="#9fa8da"/>
          <path id="Path_1280312" data-name="Path 1280312" d="M58.332,15.555H25.925a1.3,1.3,0,0,0-1.3,1.3v7.778a1.3,1.3,0,0,0,1.3,1.3H58.332a1.3,1.3,0,0,0,1.3-1.3V16.851A1.3,1.3,0,0,0,58.332,15.555Z" fill="#d32f2f"/>
          <path id="Path_1280313" data-name="Path 1280313" d="M26.421,6.58a1.287,1.287,0,0,0-1.413.281L6.861,25.009a1.3,1.3,0,0,0,.916,2.213H25.925a1.3,1.3,0,0,0,1.3-1.3V7.778a1.3,1.3,0,0,0-.8-1.2Z" fill="#7986cb"/>
          <g id="Group_1209332" data-name="Group 1209332">
            <path id="Path_1280314" data-name="Path 1280314" d="M75.664,55.313,60.109,49.091a1.29,1.29,0,0,0-.962,0L43.592,55.313a1.3,1.3,0,0,0-.815,1.2V75.183a1.3,1.3,0,0,0,1.3,1.3h31.11a1.3,1.3,0,0,0,1.3-1.3V56.517A1.3,1.3,0,0,0,75.664,55.313Z" fill="#ffa000"/>
            <path id="Path_1280315" data-name="Path 1280315" d="M70.517,42.777H48.739a1.3,1.3,0,0,0-1.3,1.3V69.221a1.3,1.3,0,0,0,1.3,1.3H70.517a1.3,1.3,0,0,0,1.3-1.3V44.073A1.3,1.3,0,0,0,70.517,42.777Z" fill="#9fa8da"/>
            <path id="Path_1280316" data-name="Path 1280316" d="M44.073,76.48h31.11a1.3,1.3,0,0,0,1.3-1.3V59.269L59.628,66.009,42.777,59.269V75.183A1.3,1.3,0,0,0,44.073,76.48Z" fill="#ffca28"/>
          </g>
        </g>
        <g id="Group_1209334" data-name="Group 1209334">
          <path id="Path_1280317" data-name="Path 1280317" d="M37.592,73.887H9.074V27.222H25.925a1.3,1.3,0,0,0,1.3-1.3h31.11a1.3,1.3,0,0,0,1.3-1.3V16.851a1.3,1.3,0,0,0-1.3-1.3H27.222V9.074h36.3V37.592a1.3,1.3,0,0,0,2.593,0s0-29.814,0-29.814a1.3,1.3,0,0,0-1.3-1.3H25.925a1.452,1.452,0,0,0-.917.381L6.862,25.008a1.473,1.473,0,0,0-.381.918s0,49.258,0,49.258a1.3,1.3,0,0,0,1.3,1.3H37.592a1.3,1.3,0,0,0,0-2.593ZM57.036,18.148v5.185H27.222V18.148ZM24.629,10.907V24.629H10.907Z"/>
          <path id="Path_1280318" data-name="Path 1280318" d="M59.628,32.407a1.3,1.3,0,0,0-1.3-1.3H14.259a1.3,1.3,0,1,0,0,2.593H58.332A1.3,1.3,0,0,0,59.628,32.407Z"/>
          <path id="Path_1280319" data-name="Path 1280319" d="M14.259,37.592a1.3,1.3,0,0,0,0,2.593H44.851a1.3,1.3,0,0,0,0-2.593H14.259Z"/>
          <path id="Path_1280320" data-name="Path 1280320" d="M43.555,45.369a1.3,1.3,0,0,0-1.3-1.3h-28a1.3,1.3,0,1,0,0,2.593h28A1.3,1.3,0,0,0,43.555,45.369Z"/>
          <path id="Path_1280321" data-name="Path 1280321" d="M39.6,50.554H14.259a1.3,1.3,0,0,0,0,2.593H39.6a1.3,1.3,0,0,0,0-2.593Z"/>
          <path id="Path_1280322" data-name="Path 1280322" d="M37.592,57.036H14.259a1.3,1.3,0,1,0,0,2.593H37.592A1.3,1.3,0,0,0,37.592,57.036Z"/>
          <path id="Path_1280323" data-name="Path 1280323" d="M37.592,63.517H14.259a1.3,1.3,0,1,0,0,2.593H37.592A1.3,1.3,0,0,0,37.592,63.517Z"/>
          <path id="Path_1280324" data-name="Path 1280324" d="M76.48,61.207v-4.69A1.508,1.508,0,0,0,76.1,55.6a44.454,44.454,0,0,0-4.285-1.826v-9.7a1.3,1.3,0,0,0-1.3-1.3H48.74a1.3,1.3,0,0,0-1.3,1.3v9.7l-3.851,1.54a1.377,1.377,0,0,0-.815,1.2c0,3.126,0,15.322,0,18.667a1.3,1.3,0,0,0,1.3,1.3h31.11a1.3,1.3,0,0,0,1.3-1.3s0-13.973,0-13.976Zm-2.593-3.813v2.911l-2.074.83v-4.57ZM69.22,45.369v16.8l-9.592,3.837-9.592-3.837v-16.8H69.22ZM47.443,61.135l-2.074-.83V57.394l2.074-.829ZM45.369,73.887V63.1l13.777,5.511a1.3,1.3,0,0,0,.963,0L73.887,63.1V73.887Z"/>
          <path id="Path_1280325" data-name="Path 1280325" d="M53.406,51.331H65.85a1.3,1.3,0,0,0,0-2.593H53.406a1.3,1.3,0,0,0,0,2.593Z"/>
          <path id="Path_1280326" data-name="Path 1280326" d="M53.406,56H65.85a1.3,1.3,0,0,0,0-2.593H53.406a1.3,1.3,0,0,0,0,2.593Z"/>
          <path id="Path_1280327" data-name="Path 1280327" d="M53.406,60.665H65.85a1.3,1.3,0,0,0,0-2.593H53.406a1.3,1.3,0,0,0,0,2.593Z"/>
        </g>
      </g>
    </g>
  </g>
</svg>
