<svg xmlns="http://www.w3.org/2000/svg" xmlns:xlink="http://www.w3.org/1999/xlink" width="85" height="83.18" viewBox="0 0 85 83.18">
  <defs>
    <clipPath id="clip-path">
      <rect id="Rectangle_425827" data-name="Rectangle 425827" width="70" height="70" transform="translate(13416 -6403.912)" fill="#fff" stroke="#707070" stroke-width="1"/>
    </clipPath>
  </defs>
  <g id="Group_1209355" data-name="Group 1209355" transform="translate(-13401 6417.092)">
    <g id="Rectangle_425826" data-name="Rectangle 425826" transform="translate(13401 -6417.092)" fill="#e2dbf9" stroke="#b7a8f1" stroke-width="3">
      <rect width="70" height="70" rx="10" stroke="none"/>
      <rect x="1.5" y="1.5" width="67" height="67" rx="8.5" fill="none"/>
    </g>
    <g id="Mask_Group_1099413" data-name="Mask Group 1099413" clip-path="url(#clip-path)">
      <g id="job-seeking_3968509" transform="translate(13414.879 -6405.037)">
        <path id="Path_1280460" data-name="Path 1280460" d="M9.031,62.089V2.258H54.187V62.089a7.9,7.9,0,0,0,7.9,7.9H16.933a7.9,7.9,0,0,1-7.9-7.9Z" fill="#e2e7f6"/>
        <path id="Path_1280461" data-name="Path 1280461" d="M54.187,38.383V62.089a7.9,7.9,0,0,0,15.8,0V38.383Z" fill="#c8cded"/>
        <path id="Path_1280462" data-name="Path 1280462" d="M21.359,42.988a15.887,15.887,0,0,1-4.748-4.283L3.193,52.124a3.193,3.193,0,0,0,4.516,4.515Z" fill="#4c6cb5"/>
        <path id="Path_1280463" data-name="Path 1280463" d="M37.5,15.8h9.917V6.773H15.8V15.8h5.4a15.82,15.82,0,0,1,16.29,0Z" fill="#c8cded"/>
        <circle id="Ellipse_12713" data-name="Ellipse 12713" cx="15.805" cy="15.805" r="15.805" transform="translate(13.547 13.547)" fill="#78a0d4"/>
        <circle id="Ellipse_12714" data-name="Ellipse 12714" cx="11.289" cy="11.289" r="11.289" transform="translate(18.062 18.062)" fill="#f2f2f2"/>
        <path id="Path_1280464" data-name="Path 1280464" d="M23.707,27.094H35v6.773H23.707Z" fill="#976947"/>
        <path id="Path_1280465" data-name="Path 1280465" d="M32.738,29.351V27.094H23.707v4.516H30.48A2.258,2.258,0,0,0,32.738,29.351Z" fill="#c18e59"/>
        <path id="Path_1280466" data-name="Path 1280466" d="M33.867,27.094H31.609V24.836a1.129,1.129,0,0,0-1.129-1.129H28.222a1.129,1.129,0,0,0-1.129,1.129v2.258H24.836V24.836a3.387,3.387,0,0,1,3.387-3.387H30.48a3.387,3.387,0,0,1,3.387,3.387Z" fill="#674025"/>
        <g id="Group_1209354" data-name="Group 1209354">
          <path id="Path_1280467" data-name="Path 1280467" d="M19.191,49.672H48.543v2.258H19.191Z" fill="#c8cded"/>
          <path id="Path_1280468" data-name="Path 1280468" d="M14.676,54.187H48.543v2.258H14.676Z" fill="#c8cded"/>
          <path id="Path_1280469" data-name="Path 1280469" d="M14.676,58.7H48.543v2.258H14.676Z" fill="#c8cded"/>
        </g>
        <path id="Path_1280470" data-name="Path 1280470" d="M69.992,37.254H55.316v-35a1.129,1.129,0,0,0-1.129-1.129H9.031A1.129,1.129,0,0,0,7.9,2.258v43.56L2.4,51.324A4.318,4.318,0,0,0,7.9,57.934v4.155a9.041,9.041,0,0,0,9.031,9.031H62.089a9.041,9.041,0,0,0,9.031-9.031V38.383a1.129,1.129,0,0,0-1.129-1.129ZM5.451,56.445a2.065,2.065,0,0,1-1.46-3.524L16.53,40.382a17.036,17.036,0,0,0,3.058,2.78L6.911,55.84a2.05,2.05,0,0,1-1.46.605Zm23.9-44.027a16.806,16.806,0,0,0-8.409,2.256H16.933V7.9H46.285v6.773H37.763a16.808,16.808,0,0,0-8.411-2.258Zm0,2.258A14.676,14.676,0,1,1,14.676,29.351,14.676,14.676,0,0,1,29.351,14.676ZM16.933,68.863a6.78,6.78,0,0,1-6.773-6.773V55.783L21.569,44.375A16.909,16.909,0,0,0,40.824,16.933h6.589A1.129,1.129,0,0,0,48.543,15.8V6.773a1.129,1.129,0,0,0-1.129-1.129H15.8a1.129,1.129,0,0,0-1.129,1.129V15.8A1.129,1.129,0,0,0,15.8,16.933h2.074A16.843,16.843,0,0,0,15.16,38.56l-5,5V3.387h42.9v58.7a9,9,0,0,0,3.077,6.773Zm51.929-6.773a6.773,6.773,0,1,1-13.547,0V39.511H68.863Z"/>
        <path id="Path_1280471" data-name="Path 1280471" d="M29.351,41.769A12.418,12.418,0,1,0,16.933,29.351,12.418,12.418,0,0,0,29.351,41.769Zm0-22.578a10.16,10.16,0,1,1-10.16,10.16,10.16,10.16,0,0,1,10.16-10.16Z"/>
        <path id="Path_1280472" data-name="Path 1280472" d="M23.707,35H35a1.129,1.129,0,0,0,1.129-1.129V27.094A1.129,1.129,0,0,0,35,25.965H33.867V24.836a3.387,3.387,0,0,0-3.387-3.387H28.222a3.387,3.387,0,0,0-3.387,3.387v1.129H23.707a1.129,1.129,0,0,0-1.129,1.129v6.773A1.129,1.129,0,0,0,23.707,35Zm3.387-10.16a1.129,1.129,0,0,1,1.129-1.129H30.48a1.129,1.129,0,0,1,1.129,1.129v1.129H27.094Zm-2.258,3.387h9.031v4.516H24.836Z"/>
        <path id="Path_1280473" data-name="Path 1280473" d="M19.191,49.672H48.543v2.258H19.191Z"/>
        <path id="Path_1280474" data-name="Path 1280474" d="M14.676,54.187H48.543v2.258H14.676Z"/>
        <path id="Path_1280475" data-name="Path 1280475" d="M14.676,58.7H48.543v2.258H14.676Z"/>
      </g>
    </g>
  </g>
</svg>
