<svg xmlns="http://www.w3.org/2000/svg" xmlns:xlink="http://www.w3.org/1999/xlink" width="85" height="83.181" viewBox="0 0 85 83.181">
  <defs>
    <clipPath id="clip-path">
      <rect id="Rectangle_425670" data-name="Rectangle 425670" width="70" height="70" transform="translate(409.178 6166.323)" fill="#fff" stroke="#707070" stroke-width="1"/>
    </clipPath>
  </defs>
  <g id="Group_1209325" data-name="Group 1209325" transform="translate(-394.178 -6153.143)">
    <g id="Rectangle_425669" data-name="Rectangle 425669" transform="translate(394.178 6153.143)" fill="#e2dbf9" stroke="#b7a8f1" stroke-width="3">
      <rect width="70" height="70" rx="10" stroke="none"/>
      <rect x="1.5" y="1.5" width="67" height="67" rx="8.5" fill="none"/>
    </g>
    <g id="Mask_Group_1099402" data-name="Mask Group 1099402" clip-path="url(#clip-path)">
      <g id="performance-appraisal_12885177" transform="translate(408.152 6165.174)">
        <path id="Path_1280285" data-name="Path 1280285" d="M13.657,20.079a2.3,2.3,0,1,0-2.3,2.3,2.3,2.3,0,0,0,2.3-2.3Z" fill="#ffe8db"/>
        <path id="Path_1280286" data-name="Path 1280286" d="M15.986,27.733a5.008,5.008,0,0,0-9.254,0A8.1,8.1,0,0,0,15.986,27.733Z" fill="#1bbd87"/>
        <path id="Path_1280287" data-name="Path 1280287" d="M39.455,56.691a1.228,1.228,0,0,1-1.224,1.228H13.377a1.228,1.228,0,0,1-1.224-1.228V31.413c-.264.02-.528.032-.792.032-.224,0-.452-.008-.676-.024V59.256H40.927V49.862a14.118,14.118,0,0,1-1.472-.92v7.75Z" fill="#5b4a5c"/>
        <path id="Path_1280288" data-name="Path 1280288" d="M25.992,30.481A3.113,3.113,0,1,1,22.88,33.59a3.113,3.113,0,0,1,3.113-3.109Zm-3.8,4.157a3.89,3.89,0,0,0,.372.9,1.121,1.121,0,0,1-.028,1.156l-.456.732.072.076.732-.46a1.122,1.122,0,0,1,1.156-.024,4.357,4.357,0,0,0,.9.372,1.125,1.125,0,0,1,.8.836l.2.844h.1l.188-.84a1.136,1.136,0,0,1,.8-.84,4.277,4.277,0,0,0,.9-.372,1.129,1.129,0,0,1,1.16.024l.728.46.076-.076-.46-.728a1.138,1.138,0,0,1-.028-1.16,3.911,3.911,0,0,0,.376-.9,1.125,1.125,0,0,1,.836-.8l.844-.192v-.108l-.84-.188a1.123,1.123,0,0,1-.84-.8,3.8,3.8,0,0,0-.376-.9,1.145,1.145,0,0,1,.028-1.164l.46-.728-.076-.076-.728.46a1.138,1.138,0,0,1-1.16.028,3.82,3.82,0,0,0-.9-.372,1.142,1.142,0,0,1-.8-.84l-.188-.84h-.1l-.2.84a1.13,1.13,0,0,1-.8.84,3.963,3.963,0,0,0-.9.372,1.138,1.138,0,0,1-1.16-.028l-.728-.46-.072.076.456.732a1.129,1.129,0,0,1,.028,1.16,3.792,3.792,0,0,0-.372.9,1.134,1.134,0,0,1-.844.8l-.836.188v.108l.84.192a1.131,1.131,0,0,1,.84.8Z" fill="#a3754b"/>
        <path id="Path_1280289" data-name="Path 1280289" d="M58.9,53.411,64.285,58.8a1.771,1.771,0,0,0,1.488.436,3.4,3.4,0,0,0,1.972-1,3.3,3.3,0,0,0,1.024-2.244,1.692,1.692,0,0,0-.452-1.212l-5.389-5.393-.012-.012L58.884,53.4c0,.008.008.008.012.012Z" fill="#c2591d"/>
        <path id="Path_1280290" data-name="Path 1280290" d="M24.476,15.854A1.881,1.881,0,1,1,25.8,19.062a1.878,1.878,0,0,1-1.324-3.209Zm-2.9,6.842h9.71V17.962H29.769a1.13,1.13,0,0,1-1.128-1.132,2.837,2.837,0,0,0-5.673,0,1.134,1.134,0,0,1-1.132,1.132H21.2a10.323,10.323,0,0,1,.372,4.733Z" fill="#ffd574"/>
        <path id="Path_1280291" data-name="Path 1280291" d="M8.024,23.187a4.561,4.561,0,1,1,6.666,0,7.25,7.25,0,0,1,3.021,2.921,8.078,8.078,0,1,0-12.7,0,7.223,7.223,0,0,1,3.013-2.917Z" fill="#fff"/>
        <path id="Path_1280292" data-name="Path 1280292" d="M19.655,31.413h.012l.572-.132c.016-.04.036-.084.052-.124l-.312-.5a1.678,1.678,0,0,1,.156-2.148l.768-.772a1.7,1.7,0,0,1,2.145-.168l.012.012.5.312c.044-.02.088-.036.128-.052l.132-.576a1.676,1.676,0,0,1,1.628-1.408h1.092a1.692,1.692,0,0,1,1.632,1.4.024.024,0,0,0,0,.016l.128.572c.04.016.084.032.124.052l.5-.312a.057.057,0,0,1,.016-.012,1.7,1.7,0,0,1,2.133.16l.78.776a1.7,1.7,0,0,1,.164,2.145s0,.008-.008.012l-.312.5c.016.044.032.084.048.124l.572.132h.016a1.7,1.7,0,0,1,1.4,1.632v1.092a1.683,1.683,0,0,1-1.416,1.632l-.568.128c-.016.044-.036.088-.052.128l.312.5c0,.008,0,.012.008.016a1.7,1.7,0,0,1-.156,2.133s-.008.008-.008.012l-.772.764a1.683,1.683,0,0,1-2.152.156l-.5-.312c-.044.02-.088.036-.128.056l-.128.572a.015.015,0,0,0,0,.012,1.7,1.7,0,0,1-1.632,1.4H25.444a1.679,1.679,0,0,1-1.628-1.416l-.132-.568-.128-.056-.5.312a1.684,1.684,0,0,1-2.152-.156l-.768-.768a1.683,1.683,0,0,1-.156-2.152l.312-.5c-.02-.044-.036-.088-.052-.132l-.576-.128a1.683,1.683,0,0,1-1.408-1.632V33.046a1.692,1.692,0,0,1,1.4-1.632ZM34.438,43.36a1.134,1.134,0,0,1-1.132,1.132H24.752a1.13,1.13,0,0,1,0-2.261h8.554A1.13,1.13,0,0,1,34.438,43.36Zm-1.132,5.785H24.752a1.13,1.13,0,0,1,0-2.261h8.554a1.13,1.13,0,1,1,0,2.261Zm0,4.657H24.752a1.13,1.13,0,0,1,0-2.261h8.554a1.13,1.13,0,1,1,0,2.261ZM22.419,42.924l-2.253,2.421a1.115,1.115,0,0,1-.788.356h-.04a1.134,1.134,0,0,1-.772-.3l-1.036-.968a1.131,1.131,0,0,1,1.544-1.652l.208.2,1.484-1.592a1.13,1.13,0,1,1,1.652,1.54Zm0,4.653L20.167,50a1.135,1.135,0,0,1-.788.36h-.04a1.143,1.143,0,0,1-.772-.308l-1.036-.968a1.129,1.129,0,1,1,1.544-1.648l.208.192,1.484-1.588a1.13,1.13,0,1,1,1.652,1.54Zm0,4.653-2.253,2.421a1.141,1.141,0,0,1-.828.36,1.114,1.114,0,0,1-.768-.3l-1.036-.964A1.128,1.128,0,0,1,19.07,52.09l.212.192,1.484-1.592a1.13,1.13,0,1,1,1.652,1.54ZM18.1,28.949a1.341,1.341,0,0,1-.12.1,10.315,10.315,0,0,1-3.569,1.94v24.67H37.195V46.9a13.607,13.607,0,0,1,0-18.052V23.272H33.53a1.9,1.9,0,0,1-1.884,1.684H20.959a10.289,10.289,0,0,1-2.289,3.469c-.184.184-.376.356-.568.524Z" fill="#fff"/>
        <path id="Path_1280293" data-name="Path 1280293" d="M25.992,34.446a.852.852,0,1,0-.852-.856A.856.856,0,0,0,25.992,34.446Z" fill="#eceaec"/>
        <path id="Path_1280294" data-name="Path 1280294" d="M43.788,37.519a1.135,1.135,0,0,1,1.6,0l.908.908,3.041-3.5a1.13,1.13,0,0,1,1.708,1.48l-3.841,4.417a1.1,1.1,0,0,1-.812.388.125.125,0,0,1-.04,0,1.146,1.146,0,0,1-.8-.332l-1.764-1.764a1.135,1.135,0,0,1,0-1.6Zm-1.1,5.065a6.66,6.66,0,1,0-1.948-4.709,6.67,6.67,0,0,0,1.948,4.709Z" fill="#fff"/>
        <path id="Path_1280295" data-name="Path 1280295" d="M57.019,47.505a13.673,13.673,0,0,1-1.264,1.112l2.357,2.357L60.492,48.6l-2.357-2.353a14.368,14.368,0,0,1-1.116,1.26Z" fill="#5b728c"/>
        <path id="Path_1280296" data-name="Path 1280296" d="M26.072,17.454a.378.378,0,0,0-.268-.648.379.379,0,1,0,.268.648Z" fill="#eceaec"/>
        <path id="Path_1280297" data-name="Path 1280297" d="M53.695,31.569a8.914,8.914,0,1,1-12.611,0,8.862,8.862,0,0,1,12.611,0Zm-17.66,6.305a11.357,11.357,0,1,0,3.325-8.03,11.282,11.282,0,0,0-3.325,8.03Z" fill="#ff7577"/>
        <path id="Path_1280298" data-name="Path 1280298" d="M39.455,22.235v4.577a13.494,13.494,0,0,1,1.472-.92V19.675H33.542v1.336h4.689a1.224,1.224,0,0,1,1.224,1.224Z" fill="#5b4a5c"/>
        <g id="Group_1209324" data-name="Group 1209324">
          <path id="Path_1280299" data-name="Path 1280299" d="M20.767,50.69l-1.484,1.592-.212-.192a1.128,1.128,0,0,0-1.536,1.652l1.036.964a1.114,1.114,0,0,0,.768.3,1.141,1.141,0,0,0,.828-.36l2.253-2.421a1.13,1.13,0,1,0-1.652-1.54Z" fill="#030403"/>
          <path id="Path_1280300" data-name="Path 1280300" d="M25.544,16.91a.376.376,0,0,1,.26-.1.378.378,0,1,1-.26.1Zm.256,2.152a1.9,1.9,0,0,0,1.336-.548,1.889,1.889,0,1,0-1.336.548Z" fill="#030403"/>
          <path id="Path_1280301" data-name="Path 1280301" d="M5.647,15.4A8.079,8.079,0,0,1,17.71,26.108a7.251,7.251,0,0,0-3.021-2.921,4.557,4.557,0,1,0-6.666,0A7.223,7.223,0,0,0,5.011,26.1a8.087,8.087,0,0,1,.636-10.7Zm15.312,9.554H31.645a1.9,1.9,0,0,0,1.884-1.684h3.665v5.577a13.607,13.607,0,0,0,0,18.052v8.758H14.413V30.989a10.315,10.315,0,0,0,3.569-1.94,1.317,1.317,0,0,0,.12-.1c.192-.168.384-.34.568-.524a10.288,10.288,0,0,0,2.289-3.469Zm.876-6.994a1.134,1.134,0,0,0,1.132-1.132,2.837,2.837,0,0,1,5.673,0,1.13,1.13,0,0,0,1.128,1.132h1.512V22.7h-9.71a10.325,10.325,0,0,0-.372-4.733h.636Zm11.707,1.712h7.386v6.217a13.485,13.485,0,0,0-1.472.92V22.235a1.224,1.224,0,0,0-1.224-1.224H33.542Zm21.881,10.17a11.357,11.357,0,1,1-16.064,0,11.282,11.282,0,0,1,16.064,0ZM60.492,48.6l-2.381,2.377-2.357-2.357a13.654,13.654,0,0,0,1.264-1.112,14.369,14.369,0,0,0,1.116-1.26L60.492,48.6Zm2.425.772.012.012,5.389,5.393a1.692,1.692,0,0,1,.452,1.212,3.3,3.3,0,0,1-1.024,2.244,3.4,3.4,0,0,1-1.972,1,1.77,1.77,0,0,1-1.488-.436L58.9,53.41s-.008,0-.012-.012l4.033-4.029ZM40.928,59.256H10.685V31.421c.224.016.452.024.676.024.264,0,.528-.012.792-.032V56.691a1.228,1.228,0,0,0,1.224,1.228H38.231a1.228,1.228,0,0,0,1.224-1.228v-7.75a14.127,14.127,0,0,0,1.472.92ZM9.06,20.079a2.3,2.3,0,1,1,2.3,2.3A2.3,2.3,0,0,1,9.06,20.079ZM6.732,27.733a5.008,5.008,0,0,1,9.254,0A8.1,8.1,0,0,1,6.732,27.733ZM4.619,28.949a.915.915,0,0,0,.116.1,10.24,10.24,0,0,0,3.689,1.976V59.368a2.148,2.148,0,0,0,2.145,2.148H41.04a2.152,2.152,0,0,0,2.148-2.148V50.822a13.641,13.641,0,0,0,10.631-.944l2.769,2.769a1.461,1.461,0,0,0-.18.716,2.4,2.4,0,0,0,.892,1.648L62.685,60.4a3.957,3.957,0,0,0,2.821,1.112,4.6,4.6,0,0,0,.52-.028,5.642,5.642,0,0,0,3.321-1.652,5.511,5.511,0,0,0,1.68-3.845,3.917,3.917,0,0,0-1.112-2.809l-5.389-5.393,0,0c-.956-.952-1.668-1.06-2.345-.7L59.4,44.309A13.614,13.614,0,0,0,43.188,24.932V19.559a2.148,2.148,0,0,0-2.148-2.145H33.53A1.9,1.9,0,0,0,31.645,15.7h-.872a5.1,5.1,0,0,0-9.942,0h-.664a10.192,10.192,0,0,0-1.5-1.9A10.337,10.337,0,1,0,4.051,28.425c.18.184.372.356.568.524Z" fill="#030403"/>
          <path id="Path_1280302" data-name="Path 1280302" d="M20.767,46.037l-1.484,1.588-.208-.192a1.129,1.129,0,1,0-1.544,1.648l1.036.968a1.143,1.143,0,0,0,.772.308h.04a1.135,1.135,0,0,0,.788-.36l2.253-2.42a1.13,1.13,0,1,0-1.652-1.54Z" fill="#030403"/>
          <path id="Path_1280303" data-name="Path 1280303" d="M45.553,40.884a1.147,1.147,0,0,0,.8.332.124.124,0,0,0,.04,0,1.1,1.1,0,0,0,.812-.388l3.841-4.417a1.13,1.13,0,0,0-1.708-1.48l-3.041,3.5-.908-.908a1.132,1.132,0,0,0-1.6,1.6l1.764,1.764Z" fill="#030403"/>
          <path id="Path_1280304" data-name="Path 1280304" d="M20.515,33.538l.836-.188a1.134,1.134,0,0,0,.844-.8,3.792,3.792,0,0,1,.372-.9,1.129,1.129,0,0,0-.028-1.16l-.456-.732.072-.076.728.46a1.138,1.138,0,0,0,1.16.028,3.963,3.963,0,0,1,.9-.372,1.13,1.13,0,0,0,.8-.84l.2-.84h.1l.188.84a1.142,1.142,0,0,0,.8.84,3.82,3.82,0,0,1,.9.372,1.138,1.138,0,0,0,1.16-.028l.728-.46.076.076-.46.728a1.145,1.145,0,0,0-.028,1.164,3.812,3.812,0,0,1,.376.9,1.123,1.123,0,0,0,.84.8l.84.188v.108l-.844.192a1.125,1.125,0,0,0-.836.8,3.9,3.9,0,0,1-.376.9,1.138,1.138,0,0,0,.028,1.16l.46.728-.076.076-.728-.46a1.129,1.129,0,0,0-1.16-.024,4.27,4.27,0,0,1-.9.372,1.136,1.136,0,0,0-.8.84l-.188.84h-.1l-.2-.844a1.125,1.125,0,0,0-.8-.836,4.365,4.365,0,0,1-.9-.372,1.122,1.122,0,0,0-1.156.024l-.732.46-.072-.076.456-.732a1.121,1.121,0,0,0,.028-1.156,3.89,3.89,0,0,1-.372-.9,1.13,1.13,0,0,0-.84-.8l-.84-.192v-.108Zm-2.261.6a1.683,1.683,0,0,0,1.408,1.632l.576.128c.016.044.032.088.052.132l-.312.5a1.683,1.683,0,0,0,.156,2.152l.768.768a1.684,1.684,0,0,0,2.152.156l.5-.312.128.056.132.568a1.679,1.679,0,0,0,1.628,1.416h1.092a1.7,1.7,0,0,0,1.632-1.4.015.015,0,0,1,0-.012l.128-.572c.04-.02.084-.036.128-.056l.5.312a1.683,1.683,0,0,0,2.152-.156l.772-.764s0-.008.008-.012a1.7,1.7,0,0,0,.156-2.133s0-.008-.008-.016l-.312-.5c.016-.04.036-.084.052-.128l.568-.128a1.683,1.683,0,0,0,1.416-1.632V33.046a1.7,1.7,0,0,0-1.4-1.632h-.016l-.572-.132c-.016-.04-.032-.08-.048-.124l.312-.5s0-.008.008-.012a1.7,1.7,0,0,0-.164-2.145l-.78-.776a1.7,1.7,0,0,0-2.133-.16.057.057,0,0,0-.016.012l-.5.312c-.04-.02-.084-.036-.124-.052l-.128-.572a.024.024,0,0,1,0-.016,1.692,1.692,0,0,0-1.632-1.4H25.444a1.676,1.676,0,0,0-1.628,1.408l-.132.576c-.04.016-.084.032-.128.052l-.5-.312-.012-.012a1.7,1.7,0,0,0-2.145.168l-.768.772a1.677,1.677,0,0,0-.156,2.148l.312.5c-.016.04-.036.084-.052.124l-.572.132h-.012a1.692,1.692,0,0,0-1.4,1.632v1.092Z" fill="#030403"/>
          <path id="Path_1280305" data-name="Path 1280305" d="M42.684,33.17a6.66,6.66,0,1,1-1.948,4.705,6.638,6.638,0,0,1,1.948-4.705Zm-1.6,11.011a8.925,8.925,0,1,0-2.609-6.305,8.9,8.9,0,0,0,2.609,6.305Z" fill="#030403"/>
          <path id="Path_1280306" data-name="Path 1280306" d="M20.767,41.384l-1.484,1.592-.208-.2a1.131,1.131,0,0,0-1.544,1.652l1.036.968a1.134,1.134,0,0,0,.772.3h.04a1.115,1.115,0,0,0,.788-.356l2.253-2.421a1.13,1.13,0,1,0-1.652-1.54Z" fill="#030403"/>
          <path id="Path_1280307" data-name="Path 1280307" d="M25.992,32.742a.852.852,0,1,1-.852.848A.852.852,0,0,1,25.992,32.742Zm0,3.965A3.113,3.113,0,1,0,22.88,33.59,3.119,3.119,0,0,0,25.992,36.707Z" fill="#030403"/>
          <path id="Path_1280308" data-name="Path 1280308" d="M33.306,46.885H24.752a1.13,1.13,0,0,0,0,2.261h8.554a1.13,1.13,0,1,0,0-2.261Z" fill="#030403"/>
          <path id="Path_1280309" data-name="Path 1280309" d="M24.752,42.232a1.13,1.13,0,0,0,0,2.261h8.554a1.13,1.13,0,1,0,0-2.261Z" fill="#030403"/>
          <path id="Path_1280310" data-name="Path 1280310" d="M33.306,51.542H24.752a1.13,1.13,0,0,0,0,2.261h8.554a1.13,1.13,0,1,0,0-2.261Z" fill="#030403"/>
        </g>
      </g>
    </g>
  </g>
</svg>
