<svg xmlns="http://www.w3.org/2000/svg" xmlns:xlink="http://www.w3.org/1999/xlink" width="85" height="83.181" viewBox="0 0 85 83.181">
  <defs>
    <clipPath id="clip-path">
      <rect id="Rectangle_410787" data-name="Rectangle 410787" width="70" height="70" transform="translate(1140 9009.017)" fill="#fff" stroke="#707070" stroke-width="1"/>
    </clipPath>
  </defs>
  <g id="Group_1209195" data-name="Group 1209195" transform="translate(-1125 -8995.836)">
    <g id="Rectangle_410786" data-name="Rectangle 410786" transform="translate(1125 8995.836)" fill="#e2dbf9" stroke="#b7a8f1" stroke-width="3">
      <rect width="70" height="70" rx="10" stroke="none"/>
      <rect x="1.5" y="1.5" width="67" height="67" rx="8.5" fill="none"/>
    </g>
    <g id="Mask_Group_1099377" data-name="Mask Group 1099377" clip-path="url(#clip-path)">
      <g id="fingerprint_4751344" transform="translate(1138.871 9007.888)">
        <path id="Path_1279838" data-name="Path 1279838" d="M50.806,2.258H9.032V70H63.226V13.548Z" fill="#6ec5e7"/>
        <path id="Path_1279839" data-name="Path 1279839" d="M11.29,2.258V67.742H63.226V13.548L50.806,2.258Z" fill="#b5deeb"/>
        <path id="Path_1279840" data-name="Path 1279840" d="M29.355,14.985V10.161a4.516,4.516,0,0,1,4.516-4.516h4.516A2.258,2.258,0,0,1,40.645,7.9,2.258,2.258,0,0,1,42.9,10.161v4.823" fill="#424344"/>
        <path id="Path_1279841" data-name="Path 1279841" d="M42.9,10.161A2.258,2.258,0,0,0,40.645,7.9a2.258,2.258,0,0,0-2.258-2.258H33.871a4.475,4.475,0,0,0-2.9,1.083,4.465,4.465,0,0,0-.484,2v4.823H42.9Z" fill="#5a5b5d"/>
        <path id="Path_1279842" data-name="Path 1279842" d="M50.806,2.258v11.29H63.226" fill="#6ec5e7"/>
        <g id="Group_1209189" data-name="Group 1209189">
          <path id="Path_1279843" data-name="Path 1279843" d="M40.645,13.548v4.516a4.516,4.516,0,1,1-9.032,0V13.548h3.121a4.085,4.085,0,0,0,3.654-2.258Z" fill="#deb2ae"/>
          <path id="Path_1279844" data-name="Path 1279844" d="M31.613,14.677H30.484a2.258,2.258,0,0,0,0,4.516h1.272" fill="#deb2ae"/>
          <path id="Path_1279845" data-name="Path 1279845" d="M40.645,14.677h1.129a2.258,2.258,0,1,1,0,4.516H40.5" fill="#deb2ae"/>
          <path id="Path_1279846" data-name="Path 1279846" d="M33.871,21.975V23.71a2.258,2.258,0,0,0,4.516,0V21.975" fill="#deb2ae"/>
        </g>
        <path id="Path_1279847" data-name="Path 1279847" d="M33.871,23.71l-3.433.572A4,4,0,0,0,27.1,28.226V35H45.161V28.226a4,4,0,0,0-3.341-3.944l-3.433-.572Z" fill="#dc8039"/>
        <path id="Path_1279848" data-name="Path 1279848" d="M45.161,28.226a4,4,0,0,0-3.341-3.944l-3.433-.572H33.871l-3.433.572a3.952,3.952,0,0,0-1.54.62,3.969,3.969,0,0,0-.672,2.195v6.774H45.161Z" fill="#e98e4a"/>
        <path id="Path_1279849" data-name="Path 1279849" d="M30.484,29.355h2.258V35H30.484Z" fill="#ab692a"/>
        <path id="Path_1279850" data-name="Path 1279850" d="M39.516,29.355h2.258V35H39.516Z" fill="#ab692a"/>
        <path id="Path_1279851" data-name="Path 1279851" d="M36.129,63.226A9.042,9.042,0,0,1,27.1,54.194V49.677a9.032,9.032,0,1,1,18.065,0H42.9a6.774,6.774,0,1,0-13.548,0v4.516a6.774,6.774,0,0,0,13.548,0V51.935h2.258v2.258a9.042,9.042,0,0,1-9.032,9.032Z" fill="#fff"/>
        <path id="Path_1279852" data-name="Path 1279852" d="M36.129,59.839a5.652,5.652,0,0,1-5.645-5.645h2.258a3.387,3.387,0,1,0,6.774,0V49.677a3.387,3.387,0,1,0-6.774,0v2.258H30.484V49.677a5.645,5.645,0,1,1,11.29,0v4.516a5.652,5.652,0,0,1-5.645,5.645Z" fill="#fff"/>
        <path id="Path_1279853" data-name="Path 1279853" d="M35,47.419h2.258v9.032H35Z" fill="#fff"/>
        <path id="Path_1279854" data-name="Path 1279854" d="M50.806,46.29H48.548V40.645H44.032V38.387h5.645a1.129,1.129,0,0,1,1.129,1.129Z" fill="#dd4334"/>
        <path id="Path_1279855" data-name="Path 1279855" d="M23.71,46.29H21.452V39.516a1.129,1.129,0,0,1,1.129-1.129h5.645v2.258H23.71Z" fill="#dd4334"/>
        <path id="Path_1279856" data-name="Path 1279856" d="M49.677,65.484H44.032V63.226h4.516V57.581h2.258v6.774A1.129,1.129,0,0,1,49.677,65.484Z" fill="#dd4334"/>
        <path id="Path_1279857" data-name="Path 1279857" d="M28.226,65.484H22.581a1.129,1.129,0,0,1-1.129-1.129V57.581H23.71v5.645h4.516Z" fill="#dd4334"/>
        <path id="Path_1279858" data-name="Path 1279858" d="M34.734,14.677H31.613v3.387a4.516,4.516,0,1,0,9.032,0V14.677l-2.258-2.258A4.085,4.085,0,0,1,34.734,14.677Z" fill="#fbe2d9"/>
        <path id="Path_1279859" data-name="Path 1279859" d="M33.871,23.124v.586a2.258,2.258,0,0,0,4.516,0v-.586A4.644,4.644,0,0,1,33.871,23.124Z" fill="#fbe2d9"/>
        <path id="Path_1279860" data-name="Path 1279860" d="M51.566,1.423a1.129,1.129,0,0,0-.76-.294H9.032A1.129,1.129,0,0,0,7.9,2.258V70a1.129,1.129,0,0,0,1.129,1.129H63.226A1.129,1.129,0,0,0,64.355,70V13.548a1.129,1.129,0,0,0-.369-.835Zm.369,3.387,8.37,7.61h-8.37ZM10.161,68.871V3.387H49.677V13.548a1.129,1.129,0,0,0,1.129,1.129H62.1V68.871Z"/>
        <path id="Path_1279861" data-name="Path 1279861" d="M27.1,36.129H45.161A1.129,1.129,0,0,0,46.29,35V28.226a5.11,5.11,0,0,0-4.284-5.057l-2.491-.415v-.2A5.645,5.645,0,0,0,41.3,20.323h.479a3.375,3.375,0,0,0,2.258-5.894V10.161a3.387,3.387,0,0,0-2.4-3.242,3.387,3.387,0,0,0-3.241-2.4H33.871a5.652,5.652,0,0,0-5.645,5.645v4.268a3.375,3.375,0,0,0,2.258,5.894h.479a5.645,5.645,0,0,0,1.779,2.229v.2l-2.484.415a5.11,5.11,0,0,0-4.29,5.057V35A1.129,1.129,0,0,0,27.1,36.129ZM35,23.6a5.645,5.645,0,0,0,2.258,0v.113a1.129,1.129,0,1,1-2.258,0Zm4.516-5.532a3.387,3.387,0,1,1-6.774,0V14.677h1.992a5.182,5.182,0,0,0,3.8-1.642l.98.98Zm2.258,0V15.806a1.129,1.129,0,1,1,0,2.258ZM29.355,16.935a1.129,1.129,0,0,1,1.129-1.129v2.258A1.129,1.129,0,0,1,29.355,16.935Zm2.258-4.516a1.129,1.129,0,0,0-1.129,1.129V10.161a3.387,3.387,0,0,1,3.387-3.387h4.516A1.129,1.129,0,0,1,39.516,7.9a1.129,1.129,0,0,0,1.129,1.129,1.129,1.129,0,0,1,1.129,1.129v3.387a1.129,1.129,0,0,0-.331-.8l-2.258-2.258a1.114,1.114,0,0,0-.979-.316,1.129,1.129,0,0,0-.83.61,2.935,2.935,0,0,1-2.643,1.634ZM28.226,28.226a2.86,2.86,0,0,1,2.4-2.83L33,25a3.387,3.387,0,0,0,6.257,0l2.378.4a2.86,2.86,0,0,1,2.4,2.83v5.645H41.774V29.355H39.516v4.516H32.742V29.355H30.484v4.516H28.226Z"/>
        <path id="Path_1279862" data-name="Path 1279862" d="M45.161,51.935H42.9v2.258a6.774,6.774,0,0,1-13.548,0V49.677a6.774,6.774,0,1,1,13.548,0h2.258a9.032,9.032,0,1,0-18.065,0v4.516a9.032,9.032,0,1,0,18.065,0Z"/>
        <path id="Path_1279863" data-name="Path 1279863" d="M32.742,54.194H30.484a5.645,5.645,0,0,0,11.29,0V49.677a5.645,5.645,0,1,0-11.29,0v2.258h2.258V49.677a3.387,3.387,0,1,1,6.774,0v4.516a3.387,3.387,0,1,1-6.774,0Z"/>
        <path id="Path_1279864" data-name="Path 1279864" d="M35,47.419h2.258v9.032H35Z"/>
        <path id="Path_1279865" data-name="Path 1279865" d="M49.677,38.387H44.032v2.258h4.516V46.29h2.258V39.516A1.129,1.129,0,0,0,49.677,38.387Z"/>
        <path id="Path_1279866" data-name="Path 1279866" d="M23.71,40.645h4.516V38.387H22.581a1.129,1.129,0,0,0-1.129,1.129V46.29H23.71Z"/>
        <path id="Path_1279867" data-name="Path 1279867" d="M48.548,63.226H44.032v2.258h5.645a1.129,1.129,0,0,0,1.129-1.129V57.581H48.548Z"/>
        <path id="Path_1279868" data-name="Path 1279868" d="M23.71,57.581H21.452v6.774a1.129,1.129,0,0,0,1.129,1.129h5.645V63.226H23.71Z"/>
      </g>
    </g>
  </g>
</svg>
