<svg xmlns="http://www.w3.org/2000/svg" xmlns:xlink="http://www.w3.org/1999/xlink" width="85" height="83.181" viewBox="0 0 85 83.181">
  <defs>
    <clipPath id="clip-path">
      <rect id="Rectangle_410793" data-name="Rectangle 410793" width="70" height="70" transform="translate(772.5 9009.017)" fill="#fff" stroke="#707070" stroke-width="1"/>
    </clipPath>
  </defs>
  <g id="Group_1209194" data-name="Group 1209194" transform="translate(-757.5 -8995.836)">
    <g id="Rectangle_410792" data-name="Rectangle 410792" transform="translate(757.5 8995.836)" fill="#e2dbf9" stroke="#b7a8f1" stroke-width="3">
      <rect width="70" height="70" rx="10" stroke="none"/>
      <rect x="1.5" y="1.5" width="67" height="67" rx="8.5" fill="none"/>
    </g>
    <g id="Mask_Group_1099378" data-name="Mask Group 1099378" clip-path="url(#clip-path)">
      <g id="_052---Profile-Error-Advise" data-name="052---Profile-Error-Advise" transform="translate(772.51 9009.017)">
        <g id="Layer_3" transform="translate(1.166 1.166)">
          <g id="Group_1209190" data-name="Group 1209190">
            <path id="Shape" d="M55.983,2.333V35.666a16.328,16.328,0,0,0-18.055,6.321H2.333A2.34,2.34,0,0,1,0,39.655V2.333A2.34,2.34,0,0,1,2.333,0H53.65A2.34,2.34,0,0,1,55.983,2.333Z" fill="#9d27b0"/>
            <path id="Shape-2" data-name="Shape" d="M53.65,0h-3.5a2.34,2.34,0,0,1,2.333,2.333v32.7a16.166,16.166,0,0,1,3.5.634V2.333A2.34,2.34,0,0,0,53.65,0Z" fill="#6a1b9a"/>
            <path id="Shape-3" data-name="Shape" d="M26.825,4.665H5.832A1.166,1.166,0,0,0,4.665,5.832V26.825a1.166,1.166,0,0,0,1.166,1.166h3.5a7,7,0,1,1,14,0h3.5a1.166,1.166,0,0,0,1.166-1.166V5.832A1.166,1.166,0,0,0,26.825,4.665Zm-10.5,11.663A3.5,3.5,0,1,1,18.8,15.3,3.5,3.5,0,0,1,16.328,16.328Z" fill="#673ab7"/>
            <path id="Shape-4" data-name="Shape" d="M23.326,27.992h-14a7,7,0,1,1,14,0Z" fill="#e91e63"/>
            <circle id="Oval" cx="3.499" cy="3.499" r="3.499" transform="translate(12.829 9.331)" fill="#ffe0b2"/>
            <path id="Shape-5" data-name="Shape" d="M32.99,21.354,39.522,8.548a2.742,2.742,0,0,1,4.938,0l6.531,12.806a2.926,2.926,0,0,1-2.473,4.3H35.456a2.926,2.926,0,0,1-2.466-4.3Z" fill="#ffdc00"/>
          </g>
          <path id="Shape-6" data-name="Shape" d="M44.32,48.985V46.653a7,7,0,0,1,14,0v2.333" fill="none" stroke="#000" stroke-linecap="round" stroke-linejoin="round" stroke-width="2.333" fill-rule="evenodd"/>
          <path id="Shape-7" data-name="Shape" d="M67.646,51.318A16.312,16.312,0,1,1,55.983,35.666,16.312,16.312,0,0,1,67.646,51.318Z" fill="#02a9f4"/>
          <path id="Shape-8" data-name="Shape" d="M55.983,35.666a16.233,16.233,0,0,0-4.665-.676A16.621,16.621,0,0,0,49.6,35.1a16.15,16.15,0,0,1,2.881.57,16.328,16.328,0,0,1-2.916,31.884,16.328,16.328,0,0,0,6.415-31.884Z" fill="#0377bc"/>
          <path id="Shape-9" data-name="Shape" d="M44.32,55.983a2.333,2.333,0,0,1-2.333-2.333V51.318a2.333,2.333,0,0,1,4.665,0V53.65A2.333,2.333,0,0,1,44.32,55.983Z" fill="#7f8e94"/>
          <path id="Shape-10" data-name="Shape" d="M58.316,55.983a2.333,2.333,0,0,1-2.333-2.333V51.318a2.333,2.333,0,1,1,4.665,0V53.65A2.333,2.333,0,0,1,58.316,55.983Z" fill="#7f8e94"/>
        </g>
        <g id="Layer_11">
          <path id="Shape-11" data-name="Shape" d="M27.992,4.665H7A2.333,2.333,0,0,0,4.665,7V27.992A2.333,2.333,0,0,0,7,30.324H27.992a2.333,2.333,0,0,0,2.333-2.333V7A2.333,2.333,0,0,0,27.992,4.665ZM11.78,27.992a5.832,5.832,0,0,1,11.43,0Zm13.786,0a8.154,8.154,0,0,0-16.142,0H7V7H27.992V27.992Z"/>
          <path id="Shape-12" data-name="Shape" d="M17.495,9.331a4.665,4.665,0,1,0,3.3,1.366A4.665,4.665,0,0,0,17.495,9.331Zm0,7A2.333,2.333,0,1,1,19.827,14,2.333,2.333,0,0,1,17.495,16.328Z"/>
          <path id="Shape-13" data-name="Shape" d="M25.659,32.657H9.331a1.166,1.166,0,1,0,0,2.333H25.659a1.166,1.166,0,1,0,0-2.333Z"/>
          <path id="Shape-14" data-name="Shape" d="M17.495,37.322H9.331a1.166,1.166,0,0,0,0,2.333h8.164a1.166,1.166,0,0,0,0-2.333Z"/>
          <path id="Shape-15" data-name="Shape" d="M52.484,31.49a1.166,1.166,0,0,0-1.166-1.166H34.989a1.166,1.166,0,0,0,0,2.333H51.318A1.166,1.166,0,0,0,52.484,31.49Z"/>
          <path id="Shape-16" data-name="Shape" d="M36.622,27.992H49.685a4.091,4.091,0,0,0,3.507-6L46.661,9.185a3.909,3.909,0,0,0-7.017,0L33.113,21.991a4.091,4.091,0,0,0,3.509,6Zm-1.429-4.941,6.531-12.807a1.576,1.576,0,0,1,2.86,0l6.531,12.807a1.762,1.762,0,0,1-1.431,2.608H36.622A1.761,1.761,0,0,1,35.2,23.051Z"/>
          <path id="Shape-17" data-name="Shape" d="M43.154,18.661a1.166,1.166,0,0,0,1.166-1.166V14a1.166,1.166,0,0,0-2.333,0v3.5A1.166,1.166,0,0,0,43.154,18.661Z"/>
          <circle id="Oval-2" data-name="Oval" cx="1.166" cy="1.166" r="1.166" transform="translate(41.987 20.994)"/>
          <path id="Shape-18" data-name="Shape" d="M60.648,49.2V47.819a8.164,8.164,0,1,0-16.328,0V49.2a3.5,3.5,0,0,0-2.333,3.284v2.333A3.5,3.5,0,0,0,44.32,58.1v1.381a3.5,3.5,0,0,0,3.5,3.5h2.333a1.166,1.166,0,0,0,0-2.333H47.819a1.166,1.166,0,0,1-1.166-1.166V58.1a3.5,3.5,0,0,0,2.333-3.284V52.484A3.5,3.5,0,0,0,46.653,49.2V47.819a5.832,5.832,0,1,1,11.663,0V49.2a3.5,3.5,0,0,0-2.333,3.284v2.333a3.5,3.5,0,1,0,7,0V52.484A3.5,3.5,0,0,0,60.648,49.2Zm-14,5.617a1.166,1.166,0,1,1-2.333,0V52.484a1.166,1.166,0,0,1,2.333,0Zm14,0a1.166,1.166,0,1,1-2.333,0V52.484a1.166,1.166,0,0,1,2.333,0Z"/>
          <path id="Shape-19" data-name="Shape" d="M58.316,36.01V3.5a3.5,3.5,0,0,0-3.5-3.5H3.5A3.5,3.5,0,0,0,0,3.5V40.821a3.5,3.5,0,0,0,3.5,3.5H37.023a17.495,17.495,0,1,0,21.292-8.31ZM3.5,41.987a1.166,1.166,0,0,1-1.166-1.166V3.5A1.166,1.166,0,0,1,3.5,2.333H54.817A1.166,1.166,0,0,1,55.983,3.5v31.84a17.448,17.448,0,0,0-17.462,6.648ZM52.484,67.646A15.162,15.162,0,1,1,67.646,52.484,15.162,15.162,0,0,1,52.484,67.646Z"/>
        </g>
      </g>
    </g>
  </g>
</svg>
