<svg xmlns="http://www.w3.org/2000/svg" xmlns:xlink="http://www.w3.org/1999/xlink" width="85" height="83.181" viewBox="0 0 85 83.181">
  <defs>
    <clipPath id="clip-path">
      <rect id="Rectangle_410805" data-name="Rectangle 410805" width="70" height="70" transform="translate(-6295.051 -2614.932)" fill="#fff" stroke="#707070" stroke-width="1"/>
    </clipPath>
  </defs>
  <g id="Group_1209197" data-name="Group 1209197" transform="translate(6310.051 2628.112)">
    <g id="Rectangle_410804" data-name="Rectangle 410804" transform="translate(-6310.051 -2628.112)" fill="#e2dbf9" stroke="#b7a8f1" stroke-width="3">
      <rect width="70" height="70" rx="10" stroke="none"/>
      <rect x="1.5" y="1.5" width="67" height="67" rx="8.5" fill="none"/>
    </g>
    <g id="Mask_Group_1099375" data-name="Mask Group 1099375" clip-path="url(#clip-path)">
      <g id="defective" transform="translate(-6297.384 -2617.263)">
        <rect id="Rectangle_425931" data-name="Rectangle 425931" width="51.33" height="60.663" rx="2.333" transform="translate(3.5 10.499)" fill="#00b6bd"/>
        <path id="Path_1279810" data-name="Path 1279810" d="M54.83,12.833v56A2.34,2.34,0,0,1,52.5,71.163H5.833A2.34,2.34,0,0,1,3.5,68.83V66.5H40.831a9.361,9.361,0,0,0,9.333-9.333V10.5H52.5a2.34,2.34,0,0,1,2.333,2.333Z" fill="#007579"/>
        <path id="Path_1279811" data-name="Path 1279811" d="M8.166,15.411h42V66.251h-42Z" fill="#ebe5dd"/>
        <path id="Path_1279812" data-name="Path 1279812" d="M50.164,15.411V66.251h-42V61.585H40.831A4.666,4.666,0,0,0,45.5,56.919V15.411Z" fill="#c0ab91"/>
        <rect id="Rectangle_425932" data-name="Rectangle 425932" width="20.999" height="20.999" rx="2.333" transform="translate(18.666 20.999)" fill="#c0ab91"/>
        <path id="Path_1279813" data-name="Path 1279813" d="M39.664,23.332V39.664A2.34,2.34,0,0,1,37.331,42h-3.5a2.34,2.34,0,0,0,2.333-2.333V23.332A2.34,2.34,0,0,0,33.831,21h3.5a2.34,2.34,0,0,1,2.333,2.333Z" fill="#a78966"/>
        <path id="Path_1279814" data-name="Path 1279814" d="M31.5,32.665l-2.333-2.333-2.333,2.333V21H31.5Z" fill="#ffde55"/>
        <path id="Path_1279815" data-name="Path 1279815" d="M39.664,8.166V10.5H33.831V5.833h3.5a2.34,2.34,0,0,1,2.333,2.333Z" fill="#007579"/>
        <path id="Path_1279816" data-name="Path 1279816" d="M24.5,15.411V3.5h9.333V16.332H24.5Z" fill="#57a4ff"/>
        <path id="Path_1279817" data-name="Path 1279817" d="M24.5,5.833V10.5H18.666V8.166A2.34,2.34,0,0,1,21,5.833Z" fill="#007579"/>
        <circle id="Ellipse_12671" data-name="Ellipse 12671" cx="16.332" cy="16.332" r="16.332" transform="translate(38.498 20.999)" fill="#ff7956"/>
        <path id="Path_1279818" data-name="Path 1279818" d="M71.163,37.331A16.325,16.325,0,0,1,41.193,46.3,16.321,16.321,0,0,0,63.8,23.694a16.3,16.3,0,0,1,7.361,13.638Z" fill="#ff5023"/>
        <path id="Path_1279819" data-name="Path 1279819" d="M57.163,28v9.333a2.333,2.333,0,0,1-4.666,0V28a2.333,2.333,0,0,1,4.666,0Z" fill="#ffde55"/>
        <circle id="Ellipse_12672" data-name="Ellipse 12672" cx="2.333" cy="2.333" r="2.333" transform="translate(52.497 44.331)" fill="#ffde55"/>
        <path id="Path_1279820" data-name="Path 1279820" d="M54.83,43.164a3.5,3.5,0,1,0,3.5,3.5A3.5,3.5,0,0,0,54.83,43.164Zm0,4.666A1.167,1.167,0,1,1,56,46.664,1.167,1.167,0,0,1,54.83,47.831Z"/>
        <path id="Path_1279821" data-name="Path 1279821" d="M54.83,24.5a3.5,3.5,0,0,0-3.5,3.5v9.333a3.5,3.5,0,0,0,7,0V28A3.5,3.5,0,0,0,54.83,24.5ZM56,37.331a1.167,1.167,0,1,1-2.333,0V28A1.167,1.167,0,1,1,56,28Z"/>
        <path id="Path_1279822" data-name="Path 1279822" d="M56,19.891V12.833a3.51,3.51,0,0,0-3.5-3.5H40.831V8.166a3.51,3.51,0,0,0-3.5-3.5H35V3.5a1.167,1.167,0,0,0-1.167-1.167H24.5A1.167,1.167,0,0,0,23.332,3.5V4.666H21a3.51,3.51,0,0,0-3.5,3.5V9.333H5.833a3.51,3.51,0,0,0-3.5,3.5v56a3.51,3.51,0,0,0,3.5,3.5H52.5a3.51,3.51,0,0,0,3.5-3.5V54.772a17.478,17.478,0,0,0,0-34.881ZM35,7h2.333A1.167,1.167,0,0,1,38.5,8.166V9.333H35Zm0,4.666H52.5a1.167,1.167,0,0,1,1.167,1.167v7.058a19.027,19.027,0,0,0-2.333.292V15.411a1.167,1.167,0,0,0-1.167-1.167H35Zm-9.333-7h7v10.5h-7ZM23.379,16.577a1.149,1.149,0,0,0,1.12.922h9.333a1.149,1.149,0,0,0,1.12-.922H49v4.281a17.516,17.516,0,0,0-8.166,6.02V23.1a3.276,3.276,0,0,0-3.266-3.266h-16.8A3.276,3.276,0,0,0,17.5,23.1V39.9a3.276,3.276,0,0,0,3.266,3.266h16.8a3.116,3.116,0,0,0,.747-.093,19.518,19.518,0,0,0,1.05,2.427H21v2.333H40.866A17.524,17.524,0,0,0,49,53.8V65.085H9.333V16.577Zm14.3,24.23a.35.35,0,0,1-.117.023h-16.8a.933.933,0,0,1-.933-.933V23.1a.933.933,0,0,1,.933-.933h4.9v10.5a1.151,1.151,0,0,0,.723,1.073,1.167,1.167,0,0,0,1.272-.245l1.5-1.517,1.5,1.517a1.175,1.175,0,0,0,.828.338.978.978,0,0,0,.443-.093,1.151,1.151,0,0,0,.723-1.073v-10.5h4.9a.933.933,0,0,1,.933.933v8a17.286,17.286,0,0,0-1.167,6.23,17.059,17.059,0,0,0,.35,3.476ZM28,29.853V22.165h2.333v7.688l-.338-.35a1.176,1.176,0,0,0-1.657,0ZM19.832,8.166A1.167,1.167,0,0,1,21,7h2.333V9.333h-3.5ZM53.664,68.83A1.167,1.167,0,0,1,52.5,70H5.833A1.167,1.167,0,0,1,4.666,68.83v-56a1.167,1.167,0,0,1,1.167-1.167h17.5v2.578H8.166A1.167,1.167,0,0,0,7,15.411V66.251a1.167,1.167,0,0,0,1.167,1.167h42a1.167,1.167,0,0,0,1.167-1.167V54.48a19.027,19.027,0,0,0,2.333.292ZM54.83,52.5A15.166,15.166,0,1,1,70,37.331,15.166,15.166,0,0,1,54.83,52.5Z"/>
        <path id="Path_1279823" data-name="Path 1279823" d="M16.332,45.5h2.333v2.333H16.332Z"/>
        <path id="Path_1279824" data-name="Path 1279824" d="M16.332,50.164h2.333V52.5H16.332Z"/>
        <path id="Path_1279825" data-name="Path 1279825" d="M21,50.164H42V52.5H21Z"/>
        <path id="Path_1279826" data-name="Path 1279826" d="M16.332,54.83h2.333v2.333H16.332Z"/>
        <path id="Path_1279827" data-name="Path 1279827" d="M21,54.83H42v2.333H21Z"/>
        <path id="Path_1279828" data-name="Path 1279828" d="M16.332,59.5h2.333V61.83H16.332Z"/>
        <path id="Path_1279829" data-name="Path 1279829" d="M21,59.5H42V61.83H21Z"/>
      </g>
    </g>
  </g>
</svg>
