<svg xmlns="http://www.w3.org/2000/svg" xmlns:xlink="http://www.w3.org/1999/xlink" width="85" height="83.181" viewBox="0 0 85 83.181">
  <defs>
    <clipPath id="clip-path">
      <rect id="Rectangle_410817" data-name="Rectangle 410817" width="70" height="70" transform="translate(-5627.051 -2614.932)" fill="#fff" stroke="#707070" stroke-width="1"/>
    </clipPath>
  </defs>
  <g id="Group_1209199" data-name="Group 1209199" transform="translate(5642.051 2628.112)">
    <g id="Rectangle_410816" data-name="Rectangle 410816" transform="translate(-5642.051 -2628.112)" fill="#e2dbf9" stroke="#b7a8f1" stroke-width="3">
      <rect width="70" height="70" rx="10" stroke="none"/>
      <rect x="1.5" y="1.5" width="67" height="67" rx="8.5" fill="none"/>
    </g>
    <g id="Mask_Group_1099373" data-name="Mask Group 1099373" clip-path="url(#clip-path)">
      <g id="Layer_36" transform="translate(-5632.051 -2619.932)">
        <path id="Path_1279793" data-name="Path 1279793" d="M71.25,20V62.5a2.507,2.507,0,0,1-2.5,2.5H11.25a2.507,2.507,0,0,1-2.5-2.5V20a7.522,7.522,0,0,1,7.5-7.5h47.5A7.522,7.522,0,0,1,71.25,20Z" fill="#698cdd"/>
        <path id="Path_1279794" data-name="Path 1279794" d="M63.75,22.5v40a2.507,2.507,0,0,1-2.5,2.5H18.75a2.507,2.507,0,0,1-2.5-2.5v-40a2.507,2.507,0,0,1,2.5-2.5h42.5A2.507,2.507,0,0,1,63.75,22.5Z" fill="#fff"/>
        <path id="Path_1279795" data-name="Path 1279795" d="M66.25,12.5V23.75h-10V12.5a5,5,0,0,1,10,0Z" fill="#fff"/>
        <path id="Path_1279796" data-name="Path 1279796" d="M43.75,30V40a2.507,2.507,0,0,1-2.5,2.5h-15a2.507,2.507,0,0,1-2.5-2.5V30a2.507,2.507,0,0,1,2.5-2.5h15A2.507,2.507,0,0,1,43.75,30Z" fill="#e7d151"/>
        <path id="Path_1279797" data-name="Path 1279797" d="M75,33.75A13.75,13.75,0,1,1,61.25,20,13.71,13.71,0,0,1,75,33.75Z" fill="#f95a5a"/>
        <path id="Path_1279798" data-name="Path 1279798" d="M75,62.5v5A7.522,7.522,0,0,1,67.5,75h-55A7.522,7.522,0,0,1,5,67.5v-5A2.507,2.507,0,0,1,7.5,60h65A2.507,2.507,0,0,1,75,62.5Z" fill="#698cdd"/>
        <path id="Path_1279799" data-name="Path 1279799" d="M72.5,60H71.25V50h-5V60h-2.5V50h-5V60H21.25V25H47.5V20H18.75a2.507,2.507,0,0,0-2.5,2.5V60h-2.5V20a2.507,2.507,0,0,1,2.5-2.5h35v-5h-35A7.522,7.522,0,0,0,8.75,20V60H7.5A2.507,2.507,0,0,0,5,62.5v5A7.522,7.522,0,0,0,12.5,75h55A7.522,7.522,0,0,0,75,67.5v-5A2.507,2.507,0,0,0,72.5,60ZM70,67.5A2.507,2.507,0,0,1,67.5,70h-55A2.507,2.507,0,0,1,10,67.5V65H70ZM47.5,33.75a13.75,13.75,0,1,0,21.25-11.5V12.5a7.5,7.5,0,0,0-15,0v9.75A13.721,13.721,0,0,0,47.5,33.75ZM58.75,12.5a2.5,2.5,0,0,1,5,0v7.75a12.625,12.625,0,0,0-5,0ZM61.25,25a8.75,8.75,0,1,1-8.75,8.75A8.7,8.7,0,0,1,61.25,25Zm2.5,12.5h-5V30h5Zm-22.5,5a2.507,2.507,0,0,0,2.5-2.5V30a2.507,2.507,0,0,0-2.5-2.5h-15a2.507,2.507,0,0,0-2.5,2.5V40a2.507,2.507,0,0,0,2.5,2.5Zm-12.5-10h10v5h-10Zm-5,12.5h25v5h-25Zm0,7.5h32.5v5H23.75Z"/>
      </g>
    </g>
  </g>
</svg>
