<svg xmlns="http://www.w3.org/2000/svg" xmlns:xlink="http://www.w3.org/1999/xlink" width="85" height="83.181" viewBox="0 0 85 83.181">
  <defs>
    <clipPath id="clip-path">
      <rect id="Rectangle_410690" data-name="Rectangle 410690" width="70" height="70" transform="translate(1140 642.706)" fill="#fff" stroke="#707070" stroke-width="1"/>
    </clipPath>
  </defs>
  <g id="Group_1209182" data-name="Group 1209182" transform="translate(-1125 -629.525)">
    <g id="Rectangle_410689" data-name="Rectangle 410689" transform="translate(1125 629.525)" fill="#e2dbf9" stroke="#b7a8f1" stroke-width="3">
      <rect width="70" height="70" rx="10" stroke="none"/>
      <rect x="1.5" y="1.5" width="67" height="67" rx="8.5" fill="none"/>
    </g>
    <g id="Mask_Group_1099370" data-name="Mask Group 1099370" clip-path="url(#clip-path)">
      <g id="data-security_5531965" transform="translate(1134.486 636.726)">
        <path id="Path_1279736" data-name="Path 1279736" d="M30.127,31.183,26.72,25.947A2.951,2.951,0,0,0,24.246,24.6H9.4a2.951,2.951,0,0,0-2.951,2.951V66.163a4.28,4.28,0,0,0,4.28,4.28H60.017a4.28,4.28,0,0,0,4.28-4.28V35.476a2.951,2.951,0,0,0-2.951-2.951H32.6a2.951,2.951,0,0,1-2.473-1.342Z" fill="#ffa12e"/>
        <path id="Path_1279737" data-name="Path 1279737" d="M11.585,7.026H55.834V65.264H11.585Z" fill="#acabb1"/>
        <path id="Path_1279738" data-name="Path 1279738" d="M17.53,12.2H61.736V70.386H17.53Z" fill="#c6c5ca"/>
        <path id="Path_1279739" data-name="Path 1279739" d="M27.483,19.332A9.327,9.327,0,0,0,24.27,21.4l6.535,6.739.183-.2Z" fill="#f46c27"/>
        <path id="Path_1279740" data-name="Path 1279740" d="M24.27,21.4a9.318,9.318,0,0,0,6.54,15.955h.2L30.927,28.1Z" fill="#00ccb3"/>
        <path id="Path_1279741" data-name="Path 1279741" d="M34.629,19.535a9.253,9.253,0,0,0-2.383-.705,9.355,9.355,0,0,0-4.764.5l.012.032,3.371,8.654,9.263-.007A9.32,9.32,0,0,0,34.629,19.535Z" fill="#ffa12e"/>
        <path id="Path_1279742" data-name="Path 1279742" d="M40.129,28.038V28.01H30.838v9.345a9.318,9.318,0,0,0,9.291-9.318Z" fill="#1e81ce"/>
        <path id="Path_1279743" data-name="Path 1279743" d="M10.73,70.442h0a4.28,4.28,0,0,0,4.28-4.28V40.788a2.951,2.951,0,0,1,2.951-2.951H61.345A2.951,2.951,0,0,1,64.3,40.788V70.321Z" fill="#ffda44"/>
        <path id="Path_1279744" data-name="Path 1279744" d="M70.22,67.59H53.259a1.742,1.742,0,0,1-1.742-1.742v-11.4a10.223,10.223,0,1,1,20.447,0v11.4A1.742,1.742,0,0,1,70.22,67.59ZM55,64.105H68.478V54.443a6.739,6.739,0,1,0-13.477,0Z" fill="#acabb1"/>
        <path id="Path_1279745" data-name="Path 1279745" d="M51.116,56.852H72.363a2.213,2.213,0,0,1,2.213,2.213V70.857a4.427,4.427,0,0,1-4.427,4.427H53.328A4.427,4.427,0,0,1,48.9,70.857V59.065a2.213,2.213,0,0,1,2.215-2.213Z" fill="#1e81ce"/>
        <path id="Path_1279746" data-name="Path 1279746" d="M48.9,61.721H74.576v3.8H48.9Z" fill="#acabb1"/>
        <path id="Path_1279747" data-name="Path 1279747" d="M72.834,55.846V54.27a11.112,11.112,0,0,0-7.666-10.549V35.3a3.829,3.829,0,0,0-2.518-3.593V12.03l-.871-.871H56.706V6.852l-.871-.871H11.585l-.871.871V23.559H9.4a3.827,3.827,0,0,0-3.823,3.822V66.325H5.59c0,.035.006.07.01.105s.006.075.01.113.012.1.018.144.009.072.015.108.017.1.026.146.012.068.019.1c.01.05.022.1.034.148.008.032.015.063.023.1.013.052.029.1.044.153.009.029.016.058.025.086.018.057.037.112.057.168.008.022.015.045.023.067q.043.116.091.23l.01.021q.044.1.092.2c.013.027.028.054.041.08.023.046.046.092.07.137s.035.063.053.1.044.079.068.118l.062.1c.021.032.045.072.069.107s.046.066.069.1l.071.1c.024.033.05.066.076.1s.048.063.073.092l.082.1c.028.032.049.058.075.086s.059.063.089.1l.076.08.1.1.078.074c.032.032.067.061.1.091l.079.069.107.088.08.063.113.085.081.058.119.081.082.053.127.076.082.047.131.072.082.042.136.067.083.037.142.061.083.032c.049.019.1.038.147.055l.083.028c.05.017.1.034.151.049l.084.024.155.042.085.02c.053.012.105.024.158.035l.087.016c.053.01.106.019.158.027l.1.012c.052.007.1.014.158.019l.109.008c.048,0,.1.008.145.011s.127,0,.19,0l.063,0H48.052a5.3,5.3,0,0,0,5.277,4.841H70.151a5.3,5.3,0,0,0,5.3-5.3V58.891a3.086,3.086,0,0,0-2.614-3.045ZM71.092,54.27v1.536H69.349V54.27a7.61,7.61,0,1,0-15.22,0v1.536H52.387V54.27a9.352,9.352,0,1,1,18.7,0Zm-3.485,0v1.536H65.168V49.514a5.863,5.863,0,0,1,2.439,4.756Zm-4.182-5.62v7.156H55.872V54.27a5.866,5.866,0,0,1,7.553-5.62ZM62.65,33.684a2.076,2.076,0,0,1,.776,1.618v2.107a3.81,3.81,0,0,0-.775-.388ZM60.907,12.9v23.89H35.77a10.211,10.211,0,0,0,5.252-8.914v-.9h-.041a10.2,10.2,0,1,0-15.108,9.81H18.4V12.9ZM29.8,28l.175.175v8.123a8.468,8.468,0,0,1-7.612-8.416A8.384,8.384,0,0,1,24.3,22.492Zm-4.26-6.723a8.386,8.386,0,0,1,1.464-.942l1.516,3.923Zm3.093-1.564a8.517,8.517,0,0,1,3.491-.185,8.393,8.393,0,0,1,2.161.64,8.481,8.481,0,0,1,4.942,6.818H31.448Zm3.085,9.015h7.515a8.478,8.478,0,0,1-7.516,7.565ZM14.141,65.988a3.41,3.41,0,0,1-6.819,0V27.382A2.083,2.083,0,0,1,9.4,25.3h1.312V65.091l.871.871h2.556Zm0-1.77H12.456V7.723H54.963v3.436H17.53l-.871.871V37.021a3.829,3.829,0,0,0-2.518,3.592Zm33.891-5.327V69.4H14.59a5.129,5.129,0,0,0,1.293-3.41V40.613a2.083,2.083,0,0,1,2.08-2.08H61.345a2.083,2.083,0,0,1,2.08,2.08V43.3a11.1,11.1,0,0,0-12.78,10.967v1.576A3.086,3.086,0,0,0,48.032,58.891ZM73.705,70.683a3.559,3.559,0,0,1-3.555,3.555H53.328a3.559,3.559,0,0,1-3.555-3.555v-4.46H73.7Zm0-6.2H49.774V62.419H73.705Zm0-3.8H49.774V58.891a1.344,1.344,0,0,1,1.342-1.342H72.363A1.344,1.344,0,0,1,73.7,58.891Z"/>
        <path id="Path_1279748" data-name="Path 1279748" d="M43.884,21.041H57.813v1.742H43.884Z"/>
        <path id="Path_1279749" data-name="Path 1279749" d="M43.884,24.3H57.813v1.742H43.884Z"/>
        <path id="Path_1279750" data-name="Path 1279750" d="M43.884,27.56H57.813V29.3H43.884Z"/>
      </g>
    </g>
  </g>
</svg>
