<svg xmlns="http://www.w3.org/2000/svg" xmlns:xlink="http://www.w3.org/1999/xlink" width="85" height="83.181" viewBox="0 0 85 83.181">
  <defs>
    <clipPath id="clip-path">
      <rect id="Rectangle_410863" data-name="Rectangle 410863" width="70" height="70" transform="translate(-2408.374 -9477.745)" fill="#fff" stroke="#707070" stroke-width="1"/>
    </clipPath>
  </defs>
  <g id="Group_1209241" data-name="Group 1209241" transform="translate(2423.374 9490.926)">
    <g id="Rectangle_410862" data-name="Rectangle 410862" transform="translate(-2423.374 -9490.926)" fill="#e2dbf9" stroke="#b7a8f1" stroke-width="3">
      <rect width="70" height="70" rx="10" stroke="none"/>
      <rect x="1.5" y="1.5" width="67" height="67" rx="8.5" fill="none"/>
    </g>
    <g id="Mask_Group_1099383" data-name="Mask Group 1099383" clip-path="url(#clip-path)">
      <g id="_12-time_management" data-name="12-time management" transform="translate(-2408.374 -9477.745)">
        <path id="Path_1279959" data-name="Path 1279959" d="M66.719,17.5v6.563l-4.8.262A15.24,15.24,0,0,1,60.058,28.8l3.216,3.587-4.638,4.638-3.587-3.216a15.24,15.24,0,0,1-4.473,1.859l-.263,4.8H43.75l-.263-4.8a15.24,15.24,0,0,1-4.473-1.859l-3.587,3.216-4.638-4.637L34,28.8a15.24,15.24,0,0,1-1.859-4.473l-4.8-.262V17.5l4.8-.263A15.24,15.24,0,0,1,34,12.764L30.789,9.177l4.638-4.637,3.587,3.216A15.24,15.24,0,0,1,43.487,5.9l.263-4.8h6.563l.263,4.8a15.24,15.24,0,0,1,4.473,1.859l3.587-3.216,4.638,4.637-3.216,3.587a15.24,15.24,0,0,1,1.859,4.473Zm-9.844,3.281a9.844,9.844,0,1,0-9.844,9.844A9.844,9.844,0,0,0,56.875,20.781Z" fill="#3ad6ff"/>
        <path id="Path_1279960" data-name="Path 1279960" d="M42.656,41.563v6.563l-4.8.263A15.24,15.24,0,0,1,36,52.861l3.216,3.587-4.638,4.638L30.986,57.87a15.24,15.24,0,0,1-4.473,1.859l-.262,4.8H19.687l-.263-4.8a15.24,15.24,0,0,1-4.473-1.859l-3.587,3.216L6.727,56.448l3.216-3.587a15.24,15.24,0,0,1-1.859-4.473l-4.8-.262V41.563l4.8-.263a15.24,15.24,0,0,1,1.859-4.473L6.727,33.239,11.364,28.6l3.587,3.216a15.24,15.24,0,0,1,4.473-1.859l.263-4.8H26.25l.262,4.8a15.24,15.24,0,0,1,4.473,1.859L34.573,28.6l4.638,4.637L36,36.827A15.24,15.24,0,0,1,37.855,41.3Zm-9.844,3.281a9.844,9.844,0,1,0-9.844,9.844,9.844,9.844,0,0,0,9.844-9.844Z" fill="#b89558"/>
        <path id="Path_1279961" data-name="Path 1279961" d="M66.719,36.094v4.375H47.031V36.094Z" fill="#b89558"/>
        <path id="Path_1279962" data-name="Path 1279962" d="M66.719,64.531v4.375H47.031V64.531H66.719Z" fill="#b89558"/>
        <path id="Path_1279963" data-name="Path 1279963" d="M64.531,60.156v4.375H49.219V60.156c0-4.375,4.375-4.375,4.375-7.656s-4.375-3.281-4.375-7.656V40.469H64.531v4.375c0,4.375-4.375,4.375-4.375,7.656S64.531,55.781,64.531,60.156Z" fill="#f2f6fc"/>
        <path id="Path_1279964" data-name="Path 1279964" d="M64.531,44.844V40.469H61.25v4.375c0,4.375-4.375,4.375-4.375,7.656s4.375,3.281,4.375,7.656v4.375h3.281V60.156c0-4.375-4.375-4.375-4.375-7.656S64.531,49.219,64.531,44.844Z" fill="#dce1eb"/>
        <path id="Path_1279965" data-name="Path 1279965" d="M61.25,36.094h5.469v4.375H61.25Z" fill="#a2814b"/>
        <path id="Path_1279966" data-name="Path 1279966" d="M61.25,64.531h5.469v4.375H61.25Z" fill="#a2814b"/>
        <path id="Path_1279967" data-name="Path 1279967" d="M58.9,55.781H51.564a5.328,5.328,0,0,0-2.345,4.375v4.375H61.25V60.156A5.328,5.328,0,0,0,58.9,55.781Z" fill="#3ad6ff"/>
        <path id="Path_1279968" data-name="Path 1279968" d="M62.186,55.781H58.9a5.328,5.328,0,0,1,2.345,4.375v4.375h3.281V60.156A5.328,5.328,0,0,0,62.186,55.781Z" fill="#31c4ff"/>
        <g id="Group_1209214" data-name="Group 1209214">
          <path id="Path_1279969" data-name="Path 1279969" d="M3.281,48.125V41.563l4.8-.263a15.24,15.24,0,0,1,1.859-4.473L6.727,33.239,11.364,28.6l3.588,3.216a15.24,15.24,0,0,1,4.473-1.859l.263-4.8H26.25l.262,4.8a15.24,15.24,0,0,1,4.473,1.859L34.573,28.6l4.638,4.637L36,36.827A15.24,15.24,0,0,1,37.855,41.3l4.8.263v6.563l-4.8.263A15.24,15.24,0,0,1,36,52.861l3.216,3.587-4.638,4.638L30.986,57.87a15.24,15.24,0,0,1-4.473,1.859l-.262,4.8H19.687l-.263-4.8a15.24,15.24,0,0,1-4.473-1.859l-3.587,3.216L6.727,56.448l3.216-3.587a15.24,15.24,0,0,1-1.859-4.473Z" fill="none" stroke="#28180d" stroke-linejoin="round" stroke-width="2.188"/>
          <circle id="Ellipse_12683" data-name="Ellipse 12683" cx="9.844" cy="9.844" r="9.844" transform="translate(13.125 35)" fill="none" stroke="#28180d" stroke-linejoin="round" stroke-width="2.188"/>
          <path id="Path_1279970" data-name="Path 1279970" d="M27.344,20.781V17.5l4.8-.262A15.24,15.24,0,0,1,34,12.764L30.789,9.177l4.638-4.638,3.587,3.216A15.24,15.24,0,0,1,43.488,5.9l.262-4.8h6.563l.263,4.8a15.24,15.24,0,0,1,4.473,1.859l3.587-3.216,4.638,4.637-3.216,3.588a15.24,15.24,0,0,1,1.859,4.473l4.8.262v6.563l-4.8.262A15.24,15.24,0,0,1,60.058,28.8l3.216,3.587" fill="none" stroke="#28180d" stroke-linejoin="round" stroke-width="2.188"/>
          <circle id="Ellipse_12684" data-name="Ellipse 12684" cx="9.844" cy="9.844" r="9.844" transform="translate(37.188 10.938)" fill="none" stroke="#28180d" stroke-linejoin="round" stroke-width="2.188"/>
          <path id="Path_1279971" data-name="Path 1279971" d="M47.031,36.094H66.719v4.375H47.031Z" fill="none" stroke="#28180d" stroke-linejoin="round" stroke-width="2.188"/>
          <path id="Path_1279972" data-name="Path 1279972" d="M47.031,64.531H66.719v4.375H47.031Z" fill="none" stroke="#28180d" stroke-linejoin="round" stroke-width="2.188"/>
          <path id="Path_1279973" data-name="Path 1279973" d="M49.219,64.531V60.156c0-4.375,4.375-4.375,4.375-7.656s-4.375-3.281-4.375-7.656V40.469" fill="none" stroke="#28180d" stroke-linejoin="round" stroke-width="2.188"/>
          <path id="Path_1279974" data-name="Path 1279974" d="M64.531,64.531V60.156c0-4.375-4.375-4.375-4.375-7.656s4.375-3.281,4.375-7.656V40.469" fill="none" stroke="#28180d" stroke-linejoin="round" stroke-width="2.188"/>
          <path id="Path_1279975" data-name="Path 1279975" d="M51.406,55.781H62.344" fill="none" stroke="#28180d" stroke-linejoin="round" stroke-width="2.188"/>
          <path id="Path_1279976" data-name="Path 1279976" d="M49.219,43.75h8.75" fill="none" stroke="#28180d" stroke-linejoin="round" stroke-width="2.188"/>
          <path id="Path_1279977" data-name="Path 1279977" d="M60.156,43.75h2.188" fill="none" stroke="#28180d" stroke-linejoin="round" stroke-width="2.188"/>
          <path id="Path_1279978" data-name="Path 1279978" d="M64.531,61.25h-8.75" fill="none" stroke="#28180d" stroke-linejoin="round" stroke-width="2.188"/>
          <path id="Path_1279979" data-name="Path 1279979" d="M53.594,61.25H51.406" fill="none" stroke="#28180d" stroke-linejoin="round" stroke-width="2.188"/>
          <path id="Path_1279980" data-name="Path 1279980" d="M8.75,26.25V24.063" fill="none" stroke="#28180d" stroke-linejoin="round" stroke-width="2.188"/>
          <path id="Path_1279981" data-name="Path 1279981" d="M8.75,21.875V15.313H19.688V1.094l5.469,5.469" fill="none" stroke="#28180d" stroke-linejoin="round" stroke-width="2.188"/>
          <path id="Path_1279982" data-name="Path 1279982" d="M19.688,1.094,14.219,6.563" fill="none" stroke="#28180d" stroke-linejoin="round" stroke-width="2.188"/>
        </g>
      </g>
    </g>
  </g>
</svg>
