<svg xmlns="http://www.w3.org/2000/svg" xmlns:xlink="http://www.w3.org/1999/xlink" width="85" height="83.181" viewBox="0 0 85 83.181">
  <defs>
    <clipPath id="clip-path">
      <rect id="Rectangle_410842" data-name="Rectangle 410842" width="70" height="70" transform="translate(1144.177 2197.789)" fill="#fff" stroke="#707070" stroke-width="1"/>
    </clipPath>
  </defs>
  <g id="Group_1209239" data-name="Group 1209239" transform="translate(-1129.177 -2184.608)">
    <g id="Rectangle_410841" data-name="Rectangle 410841" transform="translate(1129.177 2184.608)" fill="#e2dbf9" stroke="#b7a8f1" stroke-width="3">
      <rect width="70" height="70" rx="10" stroke="none"/>
      <rect x="1.5" y="1.5" width="67" height="67" rx="8.5" fill="none"/>
    </g>
    <g id="Mask_Group_1099385" data-name="Mask Group 1099385" clip-path="url(#clip-path)">
      <g id="query_2326880" transform="translate(1143.048 2196.66)">
        <g id="Group_1209227" data-name="Group 1209227">
          <g id="Group_1209215" data-name="Group 1209215">
            <path id="Path_1279990" data-name="Path 1279990" d="M70,27.1V45.161H56.452V27.1Z" fill="#48cfad"/>
          </g>
          <g id="Group_1209216" data-name="Group 1209216">
            <path id="Path_1279991" data-name="Path 1279991" d="M56.452,22.581V4.516H70V22.581Z" fill="#48cfad"/>
          </g>
          <g id="Group_1209217" data-name="Group 1209217">
            <path id="Path_1279992" data-name="Path 1279992" d="M56.452,58.71V49.677H70V67.742H56.452Z" fill="#48cfad"/>
          </g>
          <g id="Group_1209218" data-name="Group 1209218">
            <path id="Path_1279993" data-name="Path 1279993" d="M24.839,54.194A2.265,2.265,0,0,1,27.1,56.452v9.032a4.516,4.516,0,0,1-9.032,0V56.452a2.265,2.265,0,0,1,2.258-2.258h4.516Z" fill="#969faa"/>
          </g>
          <g id="Group_1209219" data-name="Group 1209219">
            <path id="Path_1279994" data-name="Path 1279994" d="M25.968,47.126v4.81a2.265,2.265,0,0,1-2.258,2.258H21.452a2.265,2.265,0,0,1-2.258-2.258v-4.81a19.688,19.688,0,0,0,6.774,0Z" fill="#ccd1d9"/>
          </g>
          <g id="Group_1209220" data-name="Group 1209220">
            <path id="Path_1279995" data-name="Path 1279995" d="M37.721,13.548A20.312,20.312,0,0,1,25.968,47.126a19.688,19.688,0,0,1-6.774,0A20.318,20.318,0,0,1,13.266,9.032h.282v4.516H12.419a1.132,1.132,0,0,0-1.129,1.129v1.355a15.806,15.806,0,1,0,22.581,0V14.677a1.132,1.132,0,0,0-1.129-1.129H31.613V9.032H31.9A20.16,20.16,0,0,1,37.721,13.548Z" fill="#e6e9ed"/>
          </g>
          <g id="Group_1209221" data-name="Group 1209221">
            <path id="Path_1279996" data-name="Path 1279996" d="M32.742,20.323a1.132,1.132,0,0,0,1.129-1.129V16.032a15.806,15.806,0,1,1-22.581,0v3.161a1.132,1.132,0,0,0,1.129,1.129h1.129v4.516H12.419a1.132,1.132,0,0,0-1.129,1.129v4.516a1.132,1.132,0,0,0,1.129,1.129H32.742a1.132,1.132,0,0,0,1.129-1.129V25.968a1.132,1.132,0,0,0-1.129-1.129H31.613V20.323Z" fill="#69d6f4"/>
          </g>
          <g id="Group_1209222" data-name="Group 1209222">
            <path id="Path_1279997" data-name="Path 1279997" d="M13.548,9.032H31.613v4.516H13.548Z" fill="#ffeaa7"/>
          </g>
          <g id="Group_1209223" data-name="Group 1209223">
            <path id="Path_1279998" data-name="Path 1279998" d="M13.548,20.323H31.613v4.516H13.548Z" fill="#ffeaa7"/>
          </g>
          <g id="Group_1209224" data-name="Group 1209224">
            <path id="Path_1279999" data-name="Path 1279999" d="M33.871,25.968v4.516a1.132,1.132,0,0,1-1.129,1.129H12.419a1.132,1.132,0,0,1-1.129-1.129V25.968a1.132,1.132,0,0,1,1.129-1.129H32.742A1.132,1.132,0,0,1,33.871,25.968Z" fill="#fcd770"/>
          </g>
          <g id="Group_1209225" data-name="Group 1209225">
            <path id="Path_1280000" data-name="Path 1280000" d="M33.871,16.032v3.161a1.132,1.132,0,0,1-1.129,1.129H12.419a1.132,1.132,0,0,1-1.129-1.129V14.677a1.132,1.132,0,0,1,1.129-1.129H32.742a1.132,1.132,0,0,1,1.129,1.129Z" fill="#fcd770"/>
          </g>
          <g id="Group_1209226" data-name="Group 1209226">
            <path id="Path_1280001" data-name="Path 1280001" d="M33.871,7.9a1.132,1.132,0,0,1-1.129,1.129H12.419A1.132,1.132,0,0,1,11.29,7.9V3.387a1.132,1.132,0,0,1,1.129-1.129H32.742a1.132,1.132,0,0,1,1.129,1.129Z" fill="#fcd770"/>
          </g>
        </g>
        <g id="Group_1209228" data-name="Group 1209228">
          <path id="Path_1280002" data-name="Path 1280002" d="M71.129,23.71V3.387H55.323v9.032H38.236a21.465,21.465,0,0,0-3.719-3.138A2.235,2.235,0,0,0,35,7.9V3.387a2.26,2.26,0,0,0-2.258-2.258H12.419a2.26,2.26,0,0,0-2.258,2.258V7.9a2.235,2.235,0,0,0,.483,1.379,21.44,21.44,0,0,0,7.42,38.779v3.875a3.35,3.35,0,0,0,.453,1.661,3.38,3.38,0,0,0-1.582,2.855v9.032a5.645,5.645,0,0,0,11.29,0V59.839h27.1v9.032H71.129V48.548H55.323v9.032h-27.1V56.452A3.38,3.38,0,0,0,26.644,53.6a3.35,3.35,0,0,0,.453-1.661V48.061a21.519,21.519,0,0,0,14.369-10.8H55.323V46.29H71.129V25.968H55.323V35H42.5a21.4,21.4,0,0,0-2.42-20.323H55.323V23.71Zm-13.548,27.1h11.29V66.613H57.581Zm0-22.581h11.29V44.032H57.581Zm-22.589-8.95a14.676,14.676,0,1,1-24.823,0,2.256,2.256,0,0,0,2.25,2.179V23.71a2.26,2.26,0,0,0-2.258,2.258v4.516a2.26,2.26,0,0,0,2.258,2.258H32.742A2.26,2.26,0,0,0,35,30.484V25.968a2.26,2.26,0,0,0-2.258-2.258V21.452A2.257,2.257,0,0,0,34.992,19.276Zm-2.25,6.692v4.516H12.419V25.968ZM14.677,23.71V21.452H30.484V23.71Zm-2.258-4.516V14.677H32.742v4.516Zm2.258-6.774V10.161H30.484v2.258ZM12.419,3.387H32.742V7.9H12.419Zm13.548,62.1a3.387,3.387,0,0,1-6.774,0V56.452a1.13,1.13,0,0,1,1.129-1.129h4.516a1.13,1.13,0,0,1,1.129,1.129ZM24.839,51.935a1.13,1.13,0,0,1-1.129,1.129H21.452a1.13,1.13,0,0,1-1.129-1.129V48.428a21.164,21.164,0,0,0,4.516,0ZM22.581,46.29A19.191,19.191,0,0,1,12.419,10.817v1.6a2.26,2.26,0,0,0-2.258,2.258v.929A16.929,16.929,0,1,0,39.516,27.1,16.8,16.8,0,0,0,35,15.611v-.934a2.26,2.26,0,0,0-2.258-2.258v-1.6A19.191,19.191,0,0,1,22.581,46.29Zm35-40.645h11.29V21.452H57.581Z"/>
          <path id="Path_1280003" data-name="Path 1280003" d="M64.355,7.9H59.839v2.258H62.1v6.774H59.839v2.258h6.774V16.935H64.355Z"/>
          <path id="Path_1280004" data-name="Path 1280004" d="M65.258,36.581a3.387,3.387,0,1,0-5.419-2.71V35H62.1V33.871a1.129,1.129,0,1,1,1.806.9l-4.065,3.048v3.952h6.774V39.516H62.1v-.565Z"/>
          <path id="Path_1280005" data-name="Path 1280005" d="M63.226,53.065H59.839v2.258h3.387a1.129,1.129,0,0,1,0,2.258H59.839v2.258h3.387a1.129,1.129,0,0,1,0,2.258H59.839v2.258h3.387a3.373,3.373,0,0,0,2.506-5.645,3.373,3.373,0,0,0-2.506-5.645Z"/>
        </g>
      </g>
    </g>
  </g>
</svg>
