<svg xmlns="http://www.w3.org/2000/svg" xmlns:xlink="http://www.w3.org/1999/xlink" width="85" height="83.181" viewBox="0 0 85 83.181">
  <defs>
    <clipPath id="clip-path">
      <rect id="Rectangle_410854" data-name="Rectangle 410854" width="70" height="70" transform="translate(-2775.873 -9477.745)" fill="#fff" stroke="#707070" stroke-width="1"/>
    </clipPath>
  </defs>
  <g id="Group_1209240" data-name="Group 1209240" transform="translate(2790.873 9490.926)">
    <g id="Rectangle_410853" data-name="Rectangle 410853" transform="translate(-2790.873 -9490.926)" fill="#e2dbf9" stroke="#b7a8f1" stroke-width="3">
      <rect width="70" height="70" rx="10" stroke="none"/>
      <rect x="1.5" y="1.5" width="67" height="67" rx="8.5" fill="none"/>
    </g>
    <g id="Mask_Group_1099384" data-name="Mask Group 1099384" clip-path="url(#clip-path)">
      <g id="priority_9402552" transform="translate(-2777.002 -9478.874)">
        <path id="Path_1279983" data-name="Path 1279983" d="M23.791,11.854a.986.986,0,0,1,.225.886l-.369,1.544.923,2.228,1.355.832a.988.988,0,0,1,.471.842v3a.988.988,0,0,1-.471.842l-1.355.832-.923,2.228.369,1.544a.987.987,0,0,1-.225.886h30.74V11.854Z" fill="#6bd4e0"/>
        <path id="Path_1279984" data-name="Path 1279984" d="M17.727,34.157V49.823H30.369V46.578a.988.988,0,0,1,.988-.988H54.531V34.157Z" fill="#9fd479"/>
        <path id="Path_1279985" data-name="Path 1279985" d="M32.345,47.566H69.153V63.233H32.345Z" fill="#3caadc"/>
        <path id="Path_1279986" data-name="Path 1279986" d="M70.141,45.591H56.507V33.169a.988.988,0,0,0-.988-.988H16.739a.988.988,0,0,0-.988.988V50.811a.988.988,0,0,0,.988.988h13.63V64.22a.988.988,0,0,0,.988.988H70.141a.988.988,0,0,0,.988-.988V46.578A.988.988,0,0,0,70.141,45.591ZM17.727,49.823V34.157h36.8V45.591H31.357a.988.988,0,0,0-.988.988v3.244Zm51.427,13.41H32.345V47.566H69.153ZM30.533,23.288V18.063l-.483.556a.988.988,0,1,1-1.492-1.3l2.216-2.552a.988.988,0,0,1,1.734.648v7.869h1.224a.988.988,0,0,1,0,1.976H29.3a.988.988,0,1,1,0-1.976h1.228Zm11.493,29.9a3.193,3.193,0,0,1-.892,2.216,3.2,3.2,0,1,1-5.513,2.213.988.988,0,0,1,1.976,0,1.226,1.226,0,1,0,1.224-1.224.988.988,0,1,1,0-1.976A1.226,1.226,0,1,0,37.6,53.183a.988.988,0,1,1-1.976,0,3.2,3.2,0,0,1,6.4,0ZM24.411,44.757c-.24.213-.5.445-.737.673h2.743a.988.988,0,0,1,0,1.976H21.987A.988.988,0,0,1,21,46.418c0-1.28,1.021-2.184,2.1-3.141,1.144-1.013,2.327-2.06,2.327-3.5a1.226,1.226,0,0,0-2.453,0v.42a.988.988,0,1,1-1.976,0v-.42a3.2,3.2,0,0,1,6.4,0c0,2.334-1.66,3.8-2.993,4.984ZM11.426,31.848a.988.988,0,0,0,.84.468h2.992a.988.988,0,0,0,.841-.47l.832-1.352,2.23-.924,1.55.367a.991.991,0,0,0,.926-.263l.183-.183h33.7a.988.988,0,0,0,.988-.988V10.866a.988.988,0,0,0-.988-.988h-33.7l-.186-.186a.986.986,0,0,0-.928-.263l-1.549.37-2.228-.923L16.1,7.521a.988.988,0,0,0-.842-.471H12.266a.988.988,0,0,0-.841.469l-.837,1.356L8.363,9.8l-1.548-.37a.987.987,0,0,0-.928.263L3.77,11.812a.988.988,0,0,0-.262.926l.367,1.546-.92,2.229L1.6,17.345a.988.988,0,0,0-.471.842v3a.988.988,0,0,0,.471.842l1.355.832.92,2.229-.367,1.546a.988.988,0,0,0,.263.927l2.116,2.116a.988.988,0,0,0,.926.263l1.549-.367,2.227.924Zm43.105-4.332H23.791a.987.987,0,0,0,.225-.886l-.369-1.544.923-2.228,1.355-.832a.988.988,0,0,0,.471-.842v-3a.988.988,0,0,0-.471-.842l-1.355-.832-.923-2.228.369-1.544a.986.986,0,0,0-.225-.886h30.74Zm-46.313.059-1.324.313L5.558,26.551l.313-1.32a.988.988,0,0,0-.048-.6l-1.164-2.82a.987.987,0,0,0-.4-.465L3.1,20.631V18.74l1.158-.711a.989.989,0,0,0,.4-.465l1.164-2.82a.988.988,0,0,0,.048-.6l-.313-1.32L6.894,11.48l1.322.316a.984.984,0,0,0,.608-.048l2.816-1.168a.987.987,0,0,0,.462-.394l.715-1.159h1.888l.711,1.157a.988.988,0,0,0,.464.4l2.82,1.168a.988.988,0,0,0,.607.048l1.322-.316,1.336,1.338-.316,1.319a.987.987,0,0,0,.048.608l1.168,2.82a.987.987,0,0,0,.4.464l1.157.711v1.891l-1.157.711a.988.988,0,0,0-.4.464L21.7,24.626a.988.988,0,0,0-.048.608l.315,1.319L20.63,27.888l-1.324-.313a.989.989,0,0,0-.605.049l-2.82,1.168a.988.988,0,0,0-.463.395l-.711,1.154h-1.89L12.1,29.185a.987.987,0,0,0-.462-.393L8.824,27.624a.989.989,0,0,0-.606-.049Zm13.265-7.892A7.721,7.721,0,1,0,13.762,27.4,7.727,7.727,0,0,0,21.483,19.683Zm-13.466,0a5.745,5.745,0,1,1,5.745,5.745A5.749,5.749,0,0,1,8.018,19.683Zm9.985,0a4.24,4.24,0,1,0-4.24,4.244A4.245,4.245,0,0,0,18,19.683Zm-6.5,0a2.264,2.264,0,1,1,2.264,2.268A2.267,2.267,0,0,1,11.5,19.683Zm.9,22.307a.988.988,0,0,1-.988.988h-1.02V44A.988.988,0,1,1,8.41,44V41.99A.988.988,0,0,1,9.4,41h2.008A.988.988,0,0,1,12.394,41.99Zm-2.008,7.337a.988.988,0,1,1-1.976,0V47.09a.988.988,0,0,1,1.976,0Zm0,3.092v2.236a.988.988,0,1,1-1.976,0V52.419a.988.988,0,0,1,1.976,0ZM57.964,19.65a.988.988,0,0,1,.159-1.06l5.641-6.4a.988.988,0,0,1,.741-.335h0a.987.987,0,0,1,.741.335l5.637,6.4a.988.988,0,0,1-.741,1.641H67.693V41.642a.988.988,0,0,1-1.976,0v-22.4a.988.988,0,0,1,.988-.988h1.25L64.5,14.337l-3.453,3.918H62.3a.988.988,0,0,1,.988.988v22.4a.988.988,0,0,1-1.976,0V20.231H58.864a.988.988,0,0,1-.9-.581Zm-21.146-.315a.988.988,0,0,1,.988-.988H50.875a.988.988,0,1,1,0,1.976H37.805A.988.988,0,0,1,36.817,19.335Zm0-4.24a.988.988,0,0,1,.988-.988H44.1a.988.988,0,1,1,0,1.976H37.805A.988.988,0,0,1,36.817,15.095Zm0,9.181a.988.988,0,0,1,.988-.988H50.875a.988.988,0,1,1,0,1.976H37.805A.988.988,0,0,1,36.817,24.276Zm-5.1,17.366a.988.988,0,0,1,.988-.988h18.17a.988.988,0,1,1,0,1.976H32.7a.988.988,0,0,1-.988-.988Zm0-4.245a.988.988,0,0,1,.988-.988H44.1a.988.988,0,0,1,0,1.976H32.7A.988.988,0,0,1,31.717,37.4ZM47.322,54.064h18.17a.988.988,0,0,1,0,1.976H47.322a.988.988,0,0,1,0-1.976Zm0-4.241h11.4a.988.988,0,0,1,0,1.976h-11.4a.988.988,0,0,1,0-1.976ZM66.48,59.988a.988.988,0,0,1-.988.988H47.322a.988.988,0,0,1,0-1.976h18.17A.988.988,0,0,1,66.48,59.988Zm-54.086,0a.988.988,0,0,1-.988.988H9.4a.988.988,0,0,1-.988-.988V57.98a.988.988,0,0,1,1.976,0V59h1.02a.988.988,0,0,1,.988.988Zm11.189,0a.988.988,0,0,1-.335.741l-2.56,2.252a.988.988,0,0,1-1.3-1.484l.594-.523H14.5A.988.988,0,1,1,14.5,59H19.98l-.6-.527a.988.988,0,0,1,1.306-1.482l2.56,2.256a.988.988,0,0,1,.335.742Z"/>
        <path id="Path_1279987" data-name="Path 1279987" d="M12.1,29.185l.714,1.156h1.89l.711-1.154a.989.989,0,0,1,.463-.395l2.82-1.168a.989.989,0,0,1,.605-.049l1.324.313,1.336-1.336-.315-1.319a.987.987,0,0,1,.048-.608l1.168-2.82a.988.988,0,0,1,.4-.464l1.157-.711V18.739l-1.157-.711a.988.988,0,0,1-.4-.464L21.7,14.744a.988.988,0,0,1-.048-.608l.316-1.319-1.336-1.338-1.322.316a.987.987,0,0,1-.607-.048l-2.82-1.168a.987.987,0,0,1-.464-.4l-.711-1.157H12.818L12.1,10.184a.987.987,0,0,1-.462.394L8.824,11.746a.985.985,0,0,1-.608.048l-1.322-.316L5.558,12.818l.313,1.32a.988.988,0,0,1-.048.6l-1.164,2.82a.988.988,0,0,1-.4.465L3.1,18.74v1.891l1.157.711a.987.987,0,0,1,.4.465l1.164,2.82a.988.988,0,0,1,.048.6l-.313,1.32,1.337,1.337,1.324-.313a.99.99,0,0,1,.606.049l2.816,1.168a.989.989,0,0,1,.462.393Zm-6.061-9.5A7.721,7.721,0,1,1,13.762,27.4,7.727,7.727,0,0,1,6.042,19.683Z" fill="#ff9811"/>
        <path id="Path_1279988" data-name="Path 1279988" d="M19.507,19.683a5.745,5.745,0,1,0-5.745,5.745A5.749,5.749,0,0,0,19.507,19.683Zm-9.985,0a4.24,4.24,0,1,1,4.24,4.244A4.245,4.245,0,0,1,9.522,19.683Z" fill="#ffc443"/>
        <path id="Path_1279989" data-name="Path 1279989" d="M65.717,41.642v-22.4a.988.988,0,0,1,.988-.988h1.25L64.5,14.337l-3.453,3.918H62.3a.988.988,0,0,1,.988.988v22.4a.988.988,0,0,1-.988.988h4.4A.988.988,0,0,1,65.717,41.642Z" fill="#f4644d"/>
      </g>
    </g>
  </g>
</svg>
