<svg xmlns="http://www.w3.org/2000/svg" xmlns:xlink="http://www.w3.org/1999/xlink" width="85" height="83.181" viewBox="0 0 85 83.181">
  <defs>
    <clipPath id="clip-path">
      <rect id="Rectangle_410839" data-name="Rectangle 410839" width="70" height="70" transform="translate(409.178 2197.789)" fill="#fff" stroke="#707070" stroke-width="1"/>
    </clipPath>
  </defs>
  <g id="Group_1209237" data-name="Group 1209237" transform="translate(-394.178 -2184.608)">
    <g id="Rectangle_410838" data-name="Rectangle 410838" transform="translate(394.178 2184.608)" fill="#e2dbf9" stroke="#b7a8f1" stroke-width="3">
      <rect width="70" height="70" rx="10" stroke="none"/>
      <rect x="1.5" y="1.5" width="67" height="67" rx="8.5" fill="none"/>
    </g>
    <g id="Mask_Group_1099387" data-name="Mask Group 1099387" clip-path="url(#clip-path)">
      <g id="compressed-file_7935907" transform="translate(409.178 2197.789)">
        <g id="Group_1209230" data-name="Group 1209230">
          <path id="Path_1280029" data-name="Path 1280029" d="M66.765,50.468H3.235a2.21,2.21,0,0,1-2.21-2.21V6a2.21,2.21,0,0,1,2.21-2.21h63.53A2.21,2.21,0,0,1,68.975,6V48.258A2.21,2.21,0,0,1,66.765,50.468Z" fill="#c5d3dd"/>
          <path id="Path_1280030" data-name="Path 1280030" d="M66.765,3.788H53.844q.143,1.777.146,3.591a44.163,44.163,0,0,1-34.509,43.09H66.765a2.21,2.21,0,0,0,2.21-2.21V6A2.21,2.21,0,0,0,66.765,3.788Z" fill="#b6c4cf"/>
          <path id="Path_1280031" data-name="Path 1280031" d="M46.049,62.069h-22.1l1.894-2.557a4.419,4.419,0,0,0,.868-2.631V50.468H43.287v6.414a4.42,4.42,0,0,0,.868,2.631Z" fill="#8d9ca8"/>
          <path id="Path_1280032" data-name="Path 1280032" d="M51.159,66.212H18.841a1.1,1.1,0,0,1-1.1-1.1V63.174a1.1,1.1,0,0,1,1.1-1.1H51.159a1.1,1.1,0,0,1,1.1,1.1v1.933A1.1,1.1,0,0,1,51.159,66.212Z" fill="#c5d3dd"/>
          <path id="Path_1280033" data-name="Path 1280033" d="M51.159,62.069H46.739a1.1,1.1,0,0,1,1.1,1.1v1.933a1.1,1.1,0,0,1-1.1,1.1h4.419a1.1,1.1,0,0,0,1.1-1.1V63.174A1.1,1.1,0,0,0,51.159,62.069Z" fill="#b6c4cf"/>
          <path id="Path_1280034" data-name="Path 1280034" d="M4.616,46.049V8.207a.829.829,0,0,1,.829-.829h59.11a.829.829,0,0,1,.829.829V46.049a.829.829,0,0,1-.829.829H5.445A.829.829,0,0,1,4.616,46.049Z" fill="#99e6fc"/>
          <path id="Path_1280035" data-name="Path 1280035" d="M64.555,7.378H53.99a44.142,44.142,0,0,1-24.418,39.5H64.555a.829.829,0,0,0,.829-.829V8.207A.829.829,0,0,0,64.555,7.378Z" fill="#62dbfb"/>
        </g>
        <g id="Group_1209231" data-name="Group 1209231">
          <path id="Path_1280036" data-name="Path 1280036" d="M38.591,41.905V25.332a1.381,1.381,0,0,1,1.381-1.381h20.44a1.381,1.381,0,0,1,1.381,1.381V41.905a1.381,1.381,0,0,1-1.381,1.381H39.972A1.381,1.381,0,0,1,38.591,41.905Z" fill="#ffe177"/>
          <path id="Path_1280037" data-name="Path 1280037" d="M64.555,7.378H53.99a44.142,44.142,0,0,1-24.418,39.5H64.555a.829.829,0,0,0,.829-.829V8.207A.829.829,0,0,0,64.555,7.378Z" fill="#62dbfb"/>
          <path id="Path_1280038" data-name="Path 1280038" d="M60.412,23.951H50.771A44.248,44.248,0,0,1,38.591,40.877v1.029a1.381,1.381,0,0,0,1.381,1.381h20.44a1.381,1.381,0,0,0,1.381-1.381V25.332A1.381,1.381,0,0,0,60.412,23.951Z" fill="#ffd15b"/>
          <path id="Path_1280039" data-name="Path 1280039" d="M40.8,23.951l1.041-2.706a1.381,1.381,0,0,1,1.289-.885h5.008a1.381,1.381,0,0,1,1.289.885l1.041,2.706Z" fill="#feb237"/>
        </g>
        <g id="Group_1209232" data-name="Group 1209232">
          <path id="Path_1280040" data-name="Path 1280040" d="M27.542,43.287H13.731a1.381,1.381,0,0,1-1.381-1.381V23.951a1.381,1.381,0,0,1,1.381-1.381H27.542a1.381,1.381,0,0,1,1.381,1.381V41.905A1.381,1.381,0,0,1,27.542,43.287Z" fill="#cecece"/>
          <path id="Path_1280041" data-name="Path 1280041" d="M23.4,39.143H9.588a1.381,1.381,0,0,1-1.381-1.381V19.808a1.381,1.381,0,0,1,1.381-1.381H23.4a1.381,1.381,0,0,1,1.381,1.381V37.762A1.381,1.381,0,0,1,23.4,39.143Z" fill="#f8f6f6"/>
          <path id="Path_1280042" data-name="Path 1280042" d="M23.4,18.427H19.256a1.381,1.381,0,0,1,1.381,1.381V37.762a1.381,1.381,0,0,1-1.381,1.381H23.4a1.381,1.381,0,0,0,1.381-1.381V19.808A1.381,1.381,0,0,0,23.4,18.427Z" fill="#ebebeb"/>
        </g>
        <path id="Path_1280043" data-name="Path 1280043" d="M23.951,62.069l1.894-2.557a4.419,4.419,0,0,0,.868-2.631V50.468" fill="none" stroke="#000" stroke-linecap="round" stroke-linejoin="round" stroke-miterlimit="10" stroke-width="2.051"/>
        <path id="Path_1280044" data-name="Path 1280044" d="M43.287,50.468v6.414a4.42,4.42,0,0,0,.868,2.631l1.894,2.557" fill="none" stroke="#000" stroke-linecap="round" stroke-linejoin="round" stroke-miterlimit="10" stroke-width="2.051"/>
        <path id="Path_1280045" data-name="Path 1280045" d="M27.725,66.213H51.159a1.105,1.105,0,0,0,1.1-1.1V63.174a1.105,1.105,0,0,0-1.1-1.1H18.841a1.105,1.105,0,0,0-1.1,1.1v1.935a1.105,1.105,0,0,0,1.1,1.1h4.1" fill="none" stroke="#000" stroke-linecap="round" stroke-linejoin="round" stroke-miterlimit="10" stroke-width="2.051"/>
        <path id="Path_1280046" data-name="Path 1280046" d="M56.13,50.468H66.765a2.208,2.208,0,0,0,2.209-2.209V6a2.21,2.21,0,0,0-2.209-2.211H3.235A2.21,2.21,0,0,0,1.025,6V48.259a2.208,2.208,0,0,0,2.209,2.209h48.11" fill="none" stroke="#000" stroke-linecap="round" stroke-linejoin="round" stroke-miterlimit="10" stroke-width="2.051"/>
        <path id="Path_1280047" data-name="Path 1280047" d="M15.985,7.379H64.554a.829.829,0,0,1,.83.829V46.048a.829.829,0,0,1-.83.829H5.446a.829.829,0,0,1-.83-.829V8.207a.829.829,0,0,1,.83-.829H11.2" fill="none" stroke="#000" stroke-linecap="round" stroke-linejoin="round" stroke-miterlimit="10" stroke-width="2.051"/>
        <path id="Path_1280048" data-name="Path 1280048" d="M40.8,23.951l1.041-2.706a1.381,1.381,0,0,1,1.289-.885h5.008a1.381,1.381,0,0,1,1.289.885l1.041,2.706" fill="none" stroke="#000" stroke-linecap="round" stroke-linejoin="round" stroke-miterlimit="10" stroke-width="2.051"/>
        <path id="Path_1280049" data-name="Path 1280049" d="M38.591,41.905V25.332a1.381,1.381,0,0,1,1.381-1.381h20.44a1.381,1.381,0,0,1,1.381,1.381V41.905a1.381,1.381,0,0,1-1.381,1.381H39.972A1.381,1.381,0,0,1,38.591,41.905Z" fill="none" stroke="#000" stroke-linecap="round" stroke-linejoin="round" stroke-miterlimit="10" stroke-width="2.051"/>
        <g id="Group_1209233" data-name="Group 1209233">
          <line id="Line_665" data-name="Line 665" x2="1.381" transform="translate(45.634 27.404)" fill="none" stroke="#000" stroke-linecap="round" stroke-linejoin="round" stroke-miterlimit="10" stroke-width="2.051"/>
          <line id="Line_666" data-name="Line 666" x2="1.381" transform="translate(45.634 31.547)" fill="none" stroke="#000" stroke-linecap="round" stroke-linejoin="round" stroke-miterlimit="10" stroke-width="2.051"/>
          <line id="Line_667" data-name="Line 667" x2="1.381" transform="translate(45.634 35.691)" fill="none" stroke="#000" stroke-linecap="round" stroke-linejoin="round" stroke-miterlimit="10" stroke-width="2.051"/>
        </g>
        <g id="Group_1209234" data-name="Group 1209234">
          <line id="Line_668" data-name="Line 668" x1="1.381" transform="translate(44.253 29.476)" fill="none" stroke="#000" stroke-linecap="round" stroke-linejoin="round" stroke-miterlimit="10" stroke-width="2.051"/>
          <line id="Line_669" data-name="Line 669" x1="1.381" transform="translate(44.253 33.619)" fill="none" stroke="#000" stroke-linecap="round" stroke-linejoin="round" stroke-miterlimit="10" stroke-width="2.051"/>
          <line id="Line_670" data-name="Line 670" x1="1.381" transform="translate(44.253 37.762)" fill="none" stroke="#000" stroke-linecap="round" stroke-linejoin="round" stroke-miterlimit="10" stroke-width="2.051"/>
        </g>
        <line id="Line_671" data-name="Line 671" y2="15.882" transform="translate(45.634 23.951)" fill="none" stroke="#000" stroke-linecap="round" stroke-linejoin="round" stroke-miterlimit="10" stroke-width="2.051"/>
        <g id="Group_1209235" data-name="Group 1209235">
          <path id="Path_1280050" data-name="Path 1280050" d="M37.591,10.969l2.762,2.762-2.762,2.762" fill="none" stroke="#000" stroke-linecap="round" stroke-linejoin="round" stroke-miterlimit="10" stroke-width="2.051"/>
          <line id="Line_672" data-name="Line 672" x2="10.706" transform="translate(29.647 13.731)" fill="none" stroke="#000" stroke-linecap="round" stroke-linejoin="round" stroke-miterlimit="10" stroke-width="2.051"/>
        </g>
        <path id="Path_1280051" data-name="Path 1280051" d="M24.78,22.57h2.762a1.381,1.381,0,0,1,1.381,1.381V41.905a1.381,1.381,0,0,1-1.381,1.381H13.731a1.381,1.381,0,0,1-1.381-1.381V39.143" fill="none" stroke="#000" stroke-linecap="round" stroke-linejoin="round" stroke-miterlimit="10" stroke-width="2.051"/>
        <g id="Group_1209236" data-name="Group 1209236">
          <line id="Line_673" data-name="Line 673" x2="9.391" transform="translate(11.798 22.57)" fill="none" stroke="#000" stroke-linecap="round" stroke-linejoin="round" stroke-miterlimit="10" stroke-width="2.051"/>
          <line id="Line_674" data-name="Line 674" x2="9.391" transform="translate(11.798 26.713)" fill="none" stroke="#000" stroke-linecap="round" stroke-linejoin="round" stroke-miterlimit="10" stroke-width="2.051"/>
          <line id="Line_675" data-name="Line 675" x1="4.696" transform="translate(11.798 35)" fill="none" stroke="#000" stroke-linecap="round" stroke-linejoin="round" stroke-miterlimit="10" stroke-width="2.051"/>
          <line id="Line_676" data-name="Line 676" x2="9.391" transform="translate(11.798 30.857)" fill="none" stroke="#000" stroke-linecap="round" stroke-linejoin="round" stroke-miterlimit="10" stroke-width="2.051"/>
        </g>
        <path id="Path_1280052" data-name="Path 1280052" d="M23.4,39.143H9.588a1.381,1.381,0,0,1-1.381-1.381V19.808a1.381,1.381,0,0,1,1.381-1.381H23.4a1.381,1.381,0,0,1,1.381,1.381V37.762A1.381,1.381,0,0,1,23.4,39.143Z" fill="none" stroke="#000" stroke-linecap="round" stroke-linejoin="round" stroke-miterlimit="10" stroke-width="2.051"/>
      </g>
    </g>
  </g>
</svg>
