<svg xmlns="http://www.w3.org/2000/svg" xmlns:xlink="http://www.w3.org/1999/xlink" width="85" height="83.181" viewBox="0 0 85 83.181">
  <defs>
    <clipPath id="clip-path">
      <rect id="Rectangle_410857" data-name="Rectangle 410857" width="70" height="70" transform="translate(-2040.874 -9477.745)" fill="#fff" stroke="#707070" stroke-width="1"/>
    </clipPath>
  </defs>
  <g id="Group_1209242" data-name="Group 1209242" transform="translate(2055.874 9490.926)">
    <g id="Rectangle_410856" data-name="Rectangle 410856" transform="translate(-2055.874 -9490.926)" fill="#e2dbf9" stroke="#b7a8f1" stroke-width="3">
      <rect width="70" height="70" rx="10" stroke="none"/>
      <rect x="1.5" y="1.5" width="67" height="67" rx="8.5" fill="none"/>
    </g>
    <g id="Mask_Group_1099382" data-name="Mask Group 1099382" clip-path="url(#clip-path)">
      <g id="Layer_32" data-name="Layer 32" transform="translate(-2042.002 -9478.801)">
        <path id="Path_1279946" data-name="Path 1279946" d="M7.9,19.194H35a5.645,5.645,0,0,1,5.645,5.645l-.86,18.071a5.921,5.921,0,0,1-5.914,5.638h-7.9L27.1,55.323,13.548,48.548H9.032A5.921,5.921,0,0,1,3.118,42.91l-.86-18.071A5.645,5.645,0,0,1,7.9,19.194Z" fill="#3693cf"/>
        <path id="Path_1279947" data-name="Path 1279947" d="M37.258,30.484h3.118l.269-5.645A5.645,5.645,0,0,0,35,19.194H7.9a5.631,5.631,0,0,0-1.129.113V35.124A10.036,10.036,0,0,0,16.811,45.161H29.674l-.32-6.661a7.933,7.933,0,0,1,7.9-8.016Z" fill="#43b6e5"/>
        <circle id="Ellipse_12679" data-name="Ellipse 12679" cx="2.258" cy="2.258" r="2.258" transform="translate(19.194 35)" fill="#fff"/>
        <circle id="Ellipse_12680" data-name="Ellipse 12680" cx="2.258" cy="2.258" r="2.258" transform="translate(10.161 35)" fill="#fff"/>
        <circle id="Ellipse_12681" data-name="Ellipse 12681" cx="2.258" cy="2.258" r="2.258" transform="translate(28.226 35)" fill="#e6e6e6"/>
        <path id="Path_1279948" data-name="Path 1279948" d="M29.355,38.5a8.073,8.073,0,0,1,.775-3.459,2.245,2.245,0,0,0-.74,4.188Z" fill="#fff"/>
        <path id="Path_1279949" data-name="Path 1279949" d="M64.355,32.742h-27.1a5.645,5.645,0,0,0-5.645,5.645l.86,18.071A5.921,5.921,0,0,0,38.387,62.1h7.9l-1.129,6.774L58.71,62.1h4.516a5.921,5.921,0,0,0,5.914-5.638L70,38.387A5.645,5.645,0,0,0,64.355,32.742Z" fill="#66c3e9"/>
        <path id="Path_1279950" data-name="Path 1279950" d="M64.355,32.742h-27.1a5.631,5.631,0,0,0-1.129.113V48.673A10.036,10.036,0,0,0,46.166,58.71H68.574a5.891,5.891,0,0,0,.565-2.251L70,38.387A5.645,5.645,0,0,0,64.355,32.742Z" fill="#8adef9"/>
        <path id="Path_1279951" data-name="Path 1279951" d="M51.935,55.323H49.677V50.806a1.129,1.129,0,0,1,1.129-1.129,5.645,5.645,0,1,0-5.645-5.645H42.9a7.9,7.9,0,1,1,9.032,7.823Z" fill="#ff4d55"/>
        <rect id="Rectangle_425935" data-name="Rectangle 425935" width="2.258" height="2.258" transform="translate(49.677 56.452)" fill="#ff4d55"/>
        <circle id="Ellipse_12682" data-name="Ellipse 12682" cx="12.419" cy="12.419" r="12.419" transform="translate(23.71 3.387)" fill="#8dbf00"/>
        <path id="Path_1279952" data-name="Path 1279952" d="M36.129,3.387a12.352,12.352,0,0,0-7.571,2.59,12.4,12.4,0,0,0,17.4,17.4A12.4,12.4,0,0,0,36.129,3.387Z" fill="#a8d600"/>
        <path id="Path_1279953" data-name="Path 1279953" d="M27.1,16.935l3.387-3.387,3.387,3.387,7.9-7.9,3.387,3.387L33.871,23.71Z" fill="#fff"/>
        <path id="Path_1279954" data-name="Path 1279954" d="M9.032,49.677h4.25l13.31,6.661a1.133,1.133,0,0,0,1.618-1.2L27.3,49.677H31.02l.325,6.835a7.042,7.042,0,0,0,7.042,6.713h6.57l-.9,5.459a1.129,1.129,0,0,0,1.618,1.2l13.3-6.656h4.25a7.043,7.043,0,0,0,7.042-6.714l.861-18.124a6.781,6.781,0,0,0-6.774-6.774h-22.9l.163-3.43A13.6,13.6,0,1,0,22.785,18.064H7.9a6.791,6.791,0,0,0-6.774,6.827l.86,18.072a7.042,7.042,0,0,0,7.043,6.713Zm21.452-11.29a1.129,1.129,0,1,1,.375-2.175,6.877,6.877,0,0,0-.375,2.175Zm38.387-.053L68.011,56.4a4.786,4.786,0,0,1-4.785,4.569H58.71a1.129,1.129,0,0,0-.5.113L46.64,66.87l.763-4.587a1.129,1.129,0,0,0-1.113-1.315h-7.9A4.786,4.786,0,0,1,33.6,56.4l-.859-18.017a4.516,4.516,0,0,1,4.516-4.516h27.1a4.516,4.516,0,0,1,4.516,4.463ZM36.129,4.516a11.29,11.29,0,1,1-11.29,11.29,11.29,11.29,0,0,1,11.29-11.29ZM7.9,20.323H23.371A13.458,13.458,0,0,0,39.318,28.96l-.126,2.653H37.258a6.738,6.738,0,0,0-5.306,2.6,3.387,3.387,0,1,0-1.468,6.435c.036,0,.07-.014.105-.015l.323,6.789H25.968a1.129,1.129,0,0,0-1.113,1.315l.763,4.587L14.053,47.538a1.129,1.129,0,0,0-.5-.119H9.032a4.786,4.786,0,0,1-4.786-4.564L3.387,24.839A4.516,4.516,0,0,1,7.9,20.323Z"/>
        <path id="Path_1279955" data-name="Path 1279955" d="M21.452,40.645a3.387,3.387,0,1,0-3.387-3.387A3.387,3.387,0,0,0,21.452,40.645Zm0-4.516a1.129,1.129,0,1,1-1.129,1.129A1.129,1.129,0,0,1,21.452,36.129Z"/>
        <path id="Path_1279956" data-name="Path 1279956" d="M12.419,40.645a3.387,3.387,0,1,0-3.387-3.387A3.387,3.387,0,0,0,12.419,40.645Zm0-4.516a1.129,1.129,0,1,1-1.129,1.129A1.129,1.129,0,0,1,12.419,36.129Z"/>
        <path id="Path_1279957" data-name="Path 1279957" d="M50.806,38.387a5.645,5.645,0,0,1,0,11.29,1.129,1.129,0,0,0-1.129,1.129v4.516h2.258V51.855A7.9,7.9,0,1,0,42.9,44.032h2.258a5.652,5.652,0,0,1,5.645-5.645Z"/>
        <rect id="Rectangle_425936" data-name="Rectangle 425936" width="2.258" height="2.258" transform="translate(49.677 56.452)"/>
        <path id="Path_1279958" data-name="Path 1279958" d="M33.871,24.839a1.129,1.129,0,0,0,.8-.331l11.29-11.29a1.129,1.129,0,0,0,0-1.6L42.572,8.234a1.129,1.129,0,0,0-1.6,0l-7.1,7.1L31.282,12.75a1.129,1.129,0,0,0-1.6,0L26.3,16.137a1.129,1.129,0,0,0,0,1.6l6.774,6.774A1.129,1.129,0,0,0,33.871,24.839Zm-3.387-9.694,2.589,2.589a1.129,1.129,0,0,0,1.6,0l7.1-7.1,1.791,1.791-9.694,9.694-5.178-5.178Z"/>
      </g>
    </g>
  </g>
</svg>
