<svg xmlns="http://www.w3.org/2000/svg" xmlns:xlink="http://www.w3.org/1999/xlink" width="85" height="83.181" viewBox="0 0 85 83.181">
  <defs>
    <clipPath id="clip-path">
      <rect id="Rectangle_410908" data-name="Rectangle 410908" width="70" height="70" transform="translate(776.677 6243.135)" fill="#fff" stroke="#707070" stroke-width="1"/>
    </clipPath>
  </defs>
  <g id="Group_1209267" data-name="Group 1209267" transform="translate(-761.677 -6229.955)">
    <g id="Rectangle_410907" data-name="Rectangle 410907" transform="translate(761.677 6229.955)" fill="#e2dbf9" stroke="#b7a8f1" stroke-width="3">
      <rect width="70" height="70" rx="10" stroke="none"/>
      <rect x="1.5" y="1.5" width="67" height="67" rx="8.5" fill="none"/>
    </g>
    <g id="Mask_Group_1099391" data-name="Mask Group 1099391" clip-path="url(#clip-path)">
      <g id="Outline_Color-1" data-name="Outline Color-1" transform="translate(774.344 6240.802)">
        <g id="_8" data-name="8">
          <path id="Path_1280115" data-name="Path 1280115" d="M63.735,15.89,58.613,21a26.833,26.833,0,0,0-4.947-4.947l5.11-5.122Z" fill="#38a554"/>
          <path id="Path_1280116" data-name="Path 1280116" d="M71.167,33.833v7H50.89a13.837,13.837,0,0,0,.443-3.5,14,14,0,1,0-28,0,13.837,13.837,0,0,0,.443,3.5H3.5v-7h7.233A26.565,26.565,0,0,1,16.053,21l-5.122-5.11,4.958-4.958L21,16.053a26.565,26.565,0,0,1,12.833-5.32V3.5h7v7.233a26.565,26.565,0,0,1,12.833,5.32A26.833,26.833,0,0,1,58.613,21a26.565,26.565,0,0,1,5.32,12.833Z" fill="#e53e3e"/>
          <path id="Path_1280117" data-name="Path 1280117" d="M39.667,46.667,37.333,49,35,46.667V43.7a4.667,4.667,0,0,0,4.667,0Z" fill="#e0a328"/>
          <path id="Path_1280118" data-name="Path 1280118" d="M50.167,58.333l-2.333,2.333L45.5,58.333V55.37a4.667,4.667,0,0,0,4.667,0Z" fill="#e0a328"/>
          <path id="Path_1280119" data-name="Path 1280119" d="M29.167,58.333l-2.333,2.333L24.5,58.333V55.37a4.667,4.667,0,0,0,4.667,0Z" fill="#e0a328"/>
          <path id="Path_1280120" data-name="Path 1280120" d="M52.5,49v2.333a4.667,4.667,0,0,1-9.333,0V49a4.27,4.27,0,0,1,.187-1.283A4.661,4.661,0,0,1,52.5,49Z" fill="#f9b52d"/>
          <path id="Path_1280121" data-name="Path 1280121" d="M31.5,49v2.333a4.667,4.667,0,1,1-9.333,0V49A4.652,4.652,0,0,1,31.3,47.717,4.27,4.27,0,0,1,31.5,49Z" fill="#f9b52d"/>
          <path id="Path_1280122" data-name="Path 1280122" d="M42,37.333v2.333a4.667,4.667,0,0,1-9.333,0V37.333a4.667,4.667,0,0,1,9.333,0Z" fill="#e0a328"/>
          <path id="Path_1280123" data-name="Path 1280123" d="M45.5,55.37v2.963l-7.863,2.24-.3-1.073V49l2.333-2.333,3.687,1.05A4.27,4.27,0,0,0,43.167,49v2.333A4.667,4.667,0,0,0,45.5,55.37Z" fill="#3f79da"/>
          <path id="Path_1280124" data-name="Path 1280124" d="M37.333,60.667l-8.167-2.333V55.37A4.667,4.667,0,0,0,31.5,51.333V49a4.27,4.27,0,0,0-.187-1.283L35,46.667,37.333,49V59.5l.3,1.073Z" fill="#3f79da"/>
          <g id="Group_1209264" data-name="Group 1209264">
            <path id="Path_1280125" data-name="Path 1280125" d="M26.833,60.667v10.5h-10.5v-10.5L24.5,58.333Z" fill="#4686f2"/>
            <path id="Path_1280126" data-name="Path 1280126" d="M47.833,60.667v10.5h-10.5v-10.5l.3-.093,7.863-2.24Z" fill="#4686f2"/>
            <path id="Path_1280127" data-name="Path 1280127" d="M58.333,71.167h-10.5v-10.5l2.333-2.333,8.167,2.333Z" fill="#4686f2"/>
            <path id="Path_1280128" data-name="Path 1280128" d="M37.333,71.167h-10.5v-10.5l2.333-2.333,8.167,2.333Z" fill="#4686f2"/>
          </g>
          <path id="Path_1280129" data-name="Path 1280129" d="M58.648,59.5l-7.315-2.042V56a5.833,5.833,0,0,0,2.333-4.667V49A5.833,5.833,0,0,0,43.7,44.882a6.043,6.043,0,0,0-1.027,1.423l-1.843-.525V44.333a5.833,5.833,0,0,0,2.333-4.667V37.333a5.833,5.833,0,1,0-11.667,0v2.333a5.833,5.833,0,0,0,2.333,4.667v1.458l-1.843.525A5.833,5.833,0,0,0,21,49v2.333A5.833,5.833,0,0,0,23.333,56v1.47L16.018,59.5a1.167,1.167,0,0,0-.852,1.167v10.5a1.167,1.167,0,0,0,1.167,1.167h42A1.167,1.167,0,0,0,59.5,71.167v-10.5a1.167,1.167,0,0,0-.852-1.167Zm-10.815-.478-1.167-1.167v-.817a5.367,5.367,0,0,0,2.333,0v.817ZM44.333,49a3.337,3.337,0,0,1,.128-.933A3.5,3.5,0,0,1,51.333,49v2.333a3.5,3.5,0,0,1-7,0Zm0,7v1.458L38.5,59.127V49.478l1.505-1.505,2.03.583v2.777A5.833,5.833,0,0,0,44.333,56Zm-7-10.5a6.5,6.5,0,0,0,1.167-.128v.817l-1.167,1.167-1.167-1.167v-.817A6.5,6.5,0,0,0,37.333,45.5Zm-3.5-8.167a3.5,3.5,0,0,1,7,0v2.333a3.5,3.5,0,0,1-7,0Zm-1.167,14V48.557l2.03-.583,1.47,1.505v9.637l-5.833-1.657V56a5.833,5.833,0,0,0,2.333-4.667Zm-5.833,7.688-1.167-1.167v-.817a5.367,5.367,0,0,0,2.333,0v.817ZM23.333,49a3.5,3.5,0,0,1,5.973-2.485,3.628,3.628,0,0,1,.887,1.5,3.337,3.337,0,0,1,.14.98v2.333a3.5,3.5,0,0,1-7,0Zm-3.5,16.333V70H17.5V61.542l6.662-1.9,1.505,1.505V70h-3.5V65.333Zm10.5,0V70H28V61.145l1.5-1.505,6.662,1.9V70h-3.5V65.333Zm10.5,0V70H38.5V61.542l6.662-1.9,1.505,1.505V70h-3.5V65.333ZM57.167,70H54.833V65.333H52.5V70H49V61.145l1.505-1.505,6.662,1.9Z"/>
          <path id="Path_1280130" data-name="Path 1280130" d="M71.167,32.667h-6.23a27.743,27.743,0,0,0-4.8-11.538l4.422-4.41a1.167,1.167,0,0,0,.338-.828,1.225,1.225,0,0,0-.338-.828L59.6,10.1a1.183,1.183,0,0,0-1.657,0l-4.41,4.422A27.743,27.743,0,0,0,42,9.73V3.5a1.167,1.167,0,0,0-1.167-1.167h-7A1.167,1.167,0,0,0,32.667,3.5V9.73a27.778,27.778,0,0,0-11.55,4.783l-4.4-4.41a1.183,1.183,0,0,0-1.657,0L10.1,15.062a1.225,1.225,0,0,0-.338.828,1.167,1.167,0,0,0,.338.828l4.41,4.4A27.778,27.778,0,0,0,9.73,32.667H3.5a1.167,1.167,0,0,0-1.167,1.167v7A1.167,1.167,0,0,0,3.5,42H23.777a1.167,1.167,0,0,0,1.167-1.458,12.833,12.833,0,1,1,24.85,0A1.167,1.167,0,0,0,50.96,42H71.167a1.167,1.167,0,0,0,1.167-1.167v-7A1.167,1.167,0,0,0,71.167,32.667ZM58.777,12.588l3.3,3.3-3.372,3.372a27.58,27.58,0,0,0-3.3-3.3ZM70,39.667H52.325a15.587,15.587,0,0,0,.175-2.333,15.167,15.167,0,0,0-30.333,0,15.586,15.586,0,0,0,.175,2.333H4.667V35h6.067A1.167,1.167,0,0,0,11.9,33.985a25.468,25.468,0,0,1,5.087-12.273,1.167,1.167,0,0,0-.093-1.54L12.6,15.89l3.3-3.3,4.282,4.293a1.167,1.167,0,0,0,1.54.093A25.468,25.468,0,0,1,34,11.888a1.167,1.167,0,0,0,1.015-1.167V4.667h4.667v6.067A1.167,1.167,0,0,0,40.693,11.9a25.468,25.468,0,0,1,12.273,5.087A26,26,0,0,1,57.7,21.723,25.468,25.468,0,0,1,62.79,34a1.167,1.167,0,0,0,1.167,1.015H70Z"/>
          <path id="Path_1280131" data-name="Path 1280131" d="M8.167,70H10.5v2.333H8.167Z"/>
          <path id="Path_1280132" data-name="Path 1280132" d="M8.4,44.8,4.9,49.467l1.867,1.4L8.167,49V67.667H10.5V49l1.4,1.867,1.867-1.4-3.5-4.667a1.167,1.167,0,0,0-1.867,0Z"/>
          <path id="Path_1280133" data-name="Path 1280133" d="M64.167,70H66.5v2.333H64.167Z"/>
          <path id="Path_1280134" data-name="Path 1280134" d="M64.4,44.8l-3.5,4.667,1.867,1.4L64.167,49V63H66.5V49l1.4,1.867,1.867-1.4-3.5-4.667a1.167,1.167,0,0,0-1.867,0Z"/>
          <path id="Path_1280135" data-name="Path 1280135" d="M64.167,65.333H66.5v2.333H64.167Z"/>
        </g>
      </g>
    </g>
  </g>
</svg>
