<svg xmlns="http://www.w3.org/2000/svg" xmlns:xlink="http://www.w3.org/1999/xlink" width="85" height="83.181" viewBox="0 0 85 83.181">
  <defs>
    <clipPath id="clip-path">
      <rect id="Rectangle_410869" data-name="Rectangle 410869" width="70" height="70" transform="translate(-1326.874 -9477.745)" fill="#fff" stroke="#707070" stroke-width="1"/>
    </clipPath>
  </defs>
  <g id="Group_1209244" data-name="Group 1209244" transform="translate(1341.874 9490.926)">
    <g id="Rectangle_410868" data-name="Rectangle 410868" transform="translate(-1341.874 -9490.926)" fill="#e2dbf9" stroke="#b7a8f1" stroke-width="3">
      <rect width="70" height="70" rx="10" stroke="none"/>
      <rect x="1.5" y="1.5" width="67" height="67" rx="8.5" fill="none"/>
    </g>
    <g id="Mask_Group_1099380" data-name="Mask Group 1099380" clip-path="url(#clip-path)">
      <g id="Artboard111" transform="translate(-1327.861 -9478.733)">
        <g id="Group_1209213" data-name="Group 1209213">
          <g id="Group_1209212" data-name="Group 1209212">
            <g id="Group_1209205" data-name="Group 1209205">
              <g id="Group_1209201" data-name="Group 1209201">
                <g id="CorelEMF">
                  <path id="Path_1279912" data-name="Path 1279912" d="M44.151,14.218H12.679a1.16,1.16,0,0,0-.848.351L6.12,20.281a1.16,1.16,0,0,0-.351.848V64.322a1.2,1.2,0,0,0,1.2,1.2H44.151a1.2,1.2,0,0,0,1.2-1.2v-48.9a1.2,1.2,0,0,0-1.2-1.2Z" fill="#eceff1" fill-rule="evenodd"/>
                  <path id="Path_1279913" data-name="Path 1279913" d="M12.183,14.321v5.711a.6.6,0,0,1-.6.6H5.872a1.2,1.2,0,0,1,.248-.351l5.711-5.711A1.262,1.262,0,0,1,12.183,14.321Z" fill="#a79ba7" fill-rule="evenodd"/>
                  <path id="Path_1279914" data-name="Path 1279914" d="M44.151,14.218h-1.2v51.3h1.2a1.2,1.2,0,0,0,1.2-1.2v-48.9a1.2,1.2,0,0,0-1.2-1.2Z" fill="#d1d1d6" fill-rule="evenodd"/>
                </g>
              </g>
              <g id="Group_1209202" data-name="Group 1209202">
                <path id="Path_1279915" data-name="Path 1279915" d="M20.759,27.348h-6.7a.876.876,0,0,0-.874.874v6.7a.876.876,0,0,0,.874.874h6.7a.876.876,0,0,0,.874-.874v-6.7A.876.876,0,0,0,20.759,27.348Z" fill="#8ac9fe" fill-rule="evenodd"/>
                <path id="Path_1279916" data-name="Path 1279916" d="M15.475,27.348H14.063a.876.876,0,0,0-.874.874v6.7a.876.876,0,0,0,.874.874h1.411a.876.876,0,0,1-.874-.874v-6.7A.876.876,0,0,1,15.475,27.348Z" fill="#60b7ff" fill-rule="evenodd"/>
              </g>
              <g id="Group_1209203" data-name="Group 1209203">
                <path id="Path_1279917" data-name="Path 1279917" d="M20.759,39.4h-6.7a.876.876,0,0,0-.874.874v6.7a.876.876,0,0,0,.874.874h6.7a.876.876,0,0,0,.874-.874v-6.7A.876.876,0,0,0,20.759,39.4Z" fill="#6cf5c2" fill-rule="evenodd"/>
                <path id="Path_1279918" data-name="Path 1279918" d="M15.475,39.4H14.063a.876.876,0,0,0-.874.874v6.7a.876.876,0,0,0,.874.874h1.411a.876.876,0,0,1-.874-.874v-6.7A.876.876,0,0,1,15.475,39.4Z" fill="#00e499" fill-rule="evenodd"/>
              </g>
              <g id="Group_1209204" data-name="Group 1209204">
                <path id="Path_1279919" data-name="Path 1279919" d="M20.759,51.452h-6.7a.878.878,0,0,0-.874.877v6.7a.876.876,0,0,0,.874.874h6.7a.876.876,0,0,0,.874-.874v-6.7A.878.878,0,0,0,20.759,51.452Z" fill="#ffe177" fill-rule="evenodd"/>
                <path id="Path_1279920" data-name="Path 1279920" d="M15.475,51.452H14.063a.878.878,0,0,0-.874.877v6.7a.876.876,0,0,0,.874.874h1.411a.876.876,0,0,1-.874-.874v-6.7A.878.878,0,0,1,15.475,51.452Z" fill="#ffd064" fill-rule="evenodd"/>
              </g>
            </g>
            <g id="Group_1209206" data-name="Group 1209206">
              <path id="Path_1279921" data-name="Path 1279921" d="M35.549,4.122a10.318,10.318,0,0,0-3.025,1.254L30.559,4.5,28.243,6.819l.872,1.965a10.312,10.312,0,0,0-1.254,3.025l-2.005.772v3.276l2.005.772a10.318,10.318,0,0,0,1.254,3.023l-.872,1.966,2.316,2.317,1.966-.873a10.318,10.318,0,0,0,3.025,1.255l.772,2H39.6l.772-2.005a10.32,10.32,0,0,0,3.023-1.254l1.965.873,2.317-2.317L46.8,19.654a10.356,10.356,0,0,0,1.255-3.025l2-.772V12.581l-2-.772A10.323,10.323,0,0,0,46.8,8.785l.873-1.965L45.357,4.5l-1.964.872a10.352,10.352,0,0,0-3.025-1.254L39.6,2.117H36.32Z" fill="#ffe177" fill-rule="evenodd"/>
              <path id="Path_1279922" data-name="Path 1279922" d="M31.219,4.8l-.66-.293L28.243,6.819l.872,1.965a10.312,10.312,0,0,0-1.254,3.025l-2.005.772v3.276l2.005.772a10.318,10.318,0,0,0,1.254,3.023l-.872,1.966,2.316,2.317.66-.293-2.024-2.024.873-1.966a10.326,10.326,0,0,1-1.254-3.023l-2.005-.772V12.581l2.005-.772a10.32,10.32,0,0,1,1.254-3.025l-.873-1.965Zm14.431,0L45.357,4.5l-1.964.872c.139.077.276.157.41.242Zm-10.1-.675a10.318,10.318,0,0,0-3.025,1.254l.542.242a13.5,13.5,0,0,1,3.436-1.5l.772-2.005H36.32Zm7.843,18.939,1.965.873.293-.293-1.847-.82Q43.6,22.945,43.392,23.061Zm-10.868,0a10.318,10.318,0,0,0,3.025,1.255l.772,2h.953l-.772-2a13.532,13.532,0,0,1-3.438-1.5Z" fill="#ffd064" fill-rule="evenodd"/>
              <path id="Path_1279923" data-name="Path 1279923" d="M37.958,8.151a6.067,6.067,0,1,0,6.067,6.068,6.068,6.068,0,0,0-6.067-6.068Z" fill="#eceff1" fill-rule="evenodd"/>
              <path id="Path_1279924" data-name="Path 1279924" d="M37.958,8.151c-.138,0-.275,0-.412.015a6.067,6.067,0,0,1,0,12.107c.137.009.274.014.412.014a6.067,6.067,0,0,0,0-12.135Z" fill="#d1d1d6" fill-rule="evenodd"/>
            </g>
            <g id="Group_1209207" data-name="Group 1209207">
              <circle id="Ellipse_12676" data-name="Ellipse 12676" cx="17.156" cy="17.156" r="17.156" transform="translate(31.571 35.544)" fill="#837683"/>
              <path id="Path_1279925" data-name="Path 1279925" d="M49.574,69.836q-.421.021-.847.021a17.156,17.156,0,1,1,0-34.312q.426,0,.847.021a17.157,17.157,0,0,0,0,34.271Z" fill="#685e68" fill-rule="evenodd"/>
            </g>
            <g id="Group_1209211" data-name="Group 1209211">
              <g id="Group_1209209" data-name="Group 1209209">
                <path id="Path_1279926" data-name="Path 1279926" d="M40.446,57.534a1.781,1.781,0,0,0,0,3.562h7.827c4.458,0,2.984-2.275,7.066-1.874V48.679l-1.2-.012a2.2,2.2,0,0,1-1.924-.991,6.039,6.039,0,0,0-2.469-2.541c-2.327-1.522-2.3-2.11-3.191-5.961-3.553.872-1.993,6.375-.871,7.673h-6.74a1.781,1.781,0,1,0,0,3.562H37.97a1.781,1.781,0,1,0,0,3.562h.612a1.782,1.782,0,0,0,0,3.563Z" fill="#f6dccd" fill-rule="evenodd"/>
                <g id="Group_1209208" data-name="Group 1209208">
                  <path id="Path_1279927" data-name="Path 1279927" d="M37.162,48.575c.321.382.7.366,1.23.377h1.389a.758.758,0,1,1,0,1.517h-.321a1.974,1.974,0,0,1-2.3-1.774C37.163,48.687,37.163,48.583,37.162,48.575Z" fill="#f1cbbc" fill-rule="evenodd"/>
                  <path id="Path_1279928" data-name="Path 1279928" d="M36.189,52.146c0,.007,0,.112,0,.119a1.974,1.974,0,0,0,2.3,1.774h.646a.758.758,0,1,0,0-1.517H37.419c-.531-.011-.909.005-1.23-.377Z" fill="#f1cbbc" fill-rule="evenodd"/>
                  <path id="Path_1279929" data-name="Path 1279929" d="M36.8,55.712c0,.007,0,.112,0,.119a1.975,1.975,0,0,0,2.3,1.774h.973a.758.758,0,1,0,0-1.517H38.035C37.5,56.078,37.125,56.094,36.8,55.712Z" fill="#f1cbbc" fill-rule="evenodd"/>
                  <path id="Path_1279930" data-name="Path 1279930" d="M39.168,58.078A1.779,1.779,0,0,0,40.446,61.1h7.827c4.458,0,2.984-2.275,7.066-1.874V58.3c-3.721-.191-2.314,1.909-6.6,1.909H40.915a1.781,1.781,0,0,1-1.747-2.128Z" fill="#f1cbbc" fill-rule="evenodd"/>
                </g>
              </g>
              <g id="Group_1209210" data-name="Group 1209210">
                <path id="Path_1279931" data-name="Path 1279931" d="M58.531,47.195H55.523a.744.744,0,0,0-.742.742V60.929a.744.744,0,0,0,.742.742h3.008a.745.745,0,0,0,.742-.742V47.937A.745.745,0,0,0,58.531,47.195Z" fill="#d1d1d6" fill-rule="evenodd"/>
                <path id="Path_1279932" data-name="Path 1279932" d="M55.484,47.2a.744.744,0,0,0-.7.741V60.929a.744.744,0,0,0,.742.742h3.008a.745.745,0,0,0,.741-.7H56.226a.744.744,0,0,1-.742-.742V47.234c0-.013,0-.026,0-.038Z" fill="#b1b1b5" fill-rule="evenodd"/>
              </g>
            </g>
          </g>
          <path id="Path_1279933" data-name="Path 1279933" d="M36.916,66.646H6.079A1.129,1.129,0,0,1,4.95,65.517V20.633a1.129,1.129,0,0,1,.331-.8L11.7,13.421a1.129,1.129,0,0,1,.8-.331H24.74v-.507a1.129,1.129,0,0,1,.724-1.054l1.469-.565a11.492,11.492,0,0,1,.932-2.247l-.64-1.439a1.129,1.129,0,0,1,.233-1.257l2.315-2.315a1.129,1.129,0,0,1,1.257-.233l1.439.64a11.425,11.425,0,0,1,2.245-.93l.568-1.472A1.129,1.129,0,0,1,36.336.988H39.61a1.129,1.129,0,0,1,1.054.724l.565,1.47a11.42,11.42,0,0,1,2.244.93l1.439-.64a1.129,1.129,0,0,1,1.257.233l2.315,2.315a1.129,1.129,0,0,1,.234,1.256l-.638,1.44a11.4,11.4,0,0,1,.931,2.249l1.467.565a1.129,1.129,0,0,1,.723,1.054v3.274a1.129,1.129,0,0,1-.723,1.054l-1.468.565a11.5,11.5,0,0,1-.931,2.244l.638,1.441a1.129,1.129,0,0,1-.234,1.256l-1.7,1.7V34.521A18.286,18.286,0,1,1,48.74,70.988a18.21,18.21,0,0,1-11.824-4.342ZM24.74,15.348H13.623v5.285a1.129,1.129,0,0,1-1.129,1.129H7.208V64.388H34.68a18.271,18.271,0,0,1-3.272-5.848H26.982a1.129,1.129,0,1,1,0-2.258h3.824q-.119-.6-.2-1.207H26.982a1.129,1.129,0,0,1,0-2.258h3.474q0-.057,0-.114a18.234,18.234,0,0,1,1.086-6.218H26.982a1.129,1.129,0,0,1,0-2.258h5.555q.324-.618.693-1.207H26.982a1.129,1.129,0,1,1,0-2.258H34.9a18.291,18.291,0,0,1,9.634-5.856V24.8l-1.056-.468a11.39,11.39,0,0,1-2.246.93l-.565,1.468a1.129,1.129,0,0,1-1.054.723H36.336a1.129,1.129,0,0,1-1.054-.723l-.565-1.468a11.486,11.486,0,0,1-2.248-.931l-1.441.638a1.129,1.129,0,0,1-1.256-.234l-2.315-2.315a1.129,1.129,0,0,1-.233-1.257l.639-1.438a11.489,11.489,0,0,1-.932-2.245l-1.469-.566a1.129,1.129,0,0,1-.724-1.054Zm-13.376,1.6L8.8,19.5h2.56ZM39.328,4.53l-.493-1.284H37.11l-.5,1.286a1.129,1.129,0,0,1-.792.692,9.167,9.167,0,0,0-2.692,1.116,1.129,1.129,0,0,1-1.051.07l-1.257-.559L29.6,7.069l.559,1.257a1.129,1.129,0,0,1-.07,1.051,9.254,9.254,0,0,0-1.12,2.7,1.129,1.129,0,0,1-.692.79L27,13.358v1.724l1.281.493a1.129,1.129,0,0,1,.692.789,9.228,9.228,0,0,0,1.119,2.694,1.129,1.129,0,0,1,.071,1.053L29.6,21.368l1.219,1.219,1.257-.557a1.129,1.129,0,0,1,1.047.07,9.245,9.245,0,0,0,2.7,1.117,1.128,1.128,0,0,1,.793.693l.493,1.281h1.724l.493-1.281a1.129,1.129,0,0,1,.793-.693A9.129,9.129,0,0,0,42.812,22.1a1.129,1.129,0,0,1,1.051-.072l1.257.557,1.22-1.22-.557-1.257a1.129,1.129,0,0,1,.07-1.047,9.257,9.257,0,0,0,1.117-2.7,1.129,1.129,0,0,1,.693-.793l1.281-.493V13.358l-1.281-.493a1.129,1.129,0,0,1-.693-.793,9.155,9.155,0,0,0-1.116-2.7,1.129,1.129,0,0,1-.071-1.049L46.34,7.07,45.121,5.851l-1.257.559a1.129,1.129,0,0,1-1.051-.07,9.169,9.169,0,0,0-2.693-1.116,1.129,1.129,0,0,1-.793-.694ZM37.971,7.379a6.842,6.842,0,1,1-6.84,6.84,6.841,6.841,0,0,1,6.84-6.84Zm0,2.258a4.584,4.584,0,1,0,4.586,4.582,4.581,4.581,0,0,0-4.586-4.582ZM48.74,36.675A16.027,16.027,0,1,0,64.768,52.7,16.035,16.035,0,0,0,48.74,36.675Zm4.93,24.408a14.085,14.085,0,0,1-5.384,1.143H40.46a2.909,2.909,0,0,1-2.8-3.715,2.922,2.922,0,0,1-1.978-2.758,2.885,2.885,0,0,1,.359-1.4A2.9,2.9,0,0,1,36.3,49.82a2.88,2.88,0,0,1-.256-1.189,2.919,2.919,0,0,1,2.911-2.91h4.9a9.2,9.2,0,0,1-.576-3.964A3.9,3.9,0,0,1,46.3,38.081a1.129,1.129,0,0,1,1.37.843c.776,3.374.669,3.935,2.708,5.268,1.638,1.07,1.529,1.033,2.78,2.844a1.1,1.1,0,0,0,.567.436,1.878,1.878,0,0,1,1.812-1.4h3.008a1.878,1.878,0,0,1,1.871,1.871V60.93A1.878,1.878,0,0,1,58.543,62.8H55.535a1.877,1.877,0,0,1-1.865-1.718Zm-.006-11.314A3.2,3.2,0,0,1,51.3,48.321h0a5.3,5.3,0,0,0-2.158-2.238h0c-2.26-1.478-2.613-2.137-3.31-5.081a2.5,2.5,0,0,0-.305,1,6.49,6.49,0,0,0,1.025,4.105,1.129,1.129,0,0,1-.854,1.868h-6.74a.652.652,0,1,0,0,1.3H43.6a1.129,1.129,0,0,1,0,2.258H37.983a.652.652,0,1,0,0,1.3H43.6a1.129,1.129,0,0,1,0,2.258H38.6a.653.653,0,0,0,0,1.305H43.6a1.129,1.129,0,1,1,0,2.258H40.46a.652.652,0,1,0,0,1.3h7.827a13.8,13.8,0,0,0,5.378-1.27Zm2.258-1.443V60.543h2.234V48.326ZM26.982,30.968a1.129,1.129,0,1,1,0-2.258H37.943a1.129,1.129,0,0,1,0,2.258ZM14.077,26.221h6.7a2.008,2.008,0,0,1,2,2v6.7a2.008,2.008,0,0,1-2,2h-6.7a2.008,2.008,0,0,1-2-2v-6.7a2.008,2.008,0,0,1,2-2Zm.255,2.258v6.185h6.185V28.479Zm.777,3.744a1.129,1.129,0,0,1,1.6-1.6l.364.363.995-1.23a1.129,1.129,0,1,1,1.756,1.42l-1.783,2.2a1.129,1.129,0,0,1-1.675.089Zm-1.032,18.1h6.7a2.012,2.012,0,0,1,2,2.006v6.7a2.008,2.008,0,0,1-2,2h-6.7a2.008,2.008,0,0,1-2-2v-6.7A2.012,2.012,0,0,1,14.077,50.325Zm.255,8.446h6.185V52.583H14.332Zm.777-2.441a1.129,1.129,0,1,1,1.6-1.6l.364.363.995-1.23a1.129,1.129,0,1,1,1.756,1.42l-1.783,2.2a1.129,1.129,0,0,1-1.675.089Zm11.873-21.9a1.129,1.129,0,1,1,0-2.258h7.136a1.129,1.129,0,1,1,0,2.258Zm-12.905,3.84h6.7a2.008,2.008,0,0,1,2,2v6.7a2.008,2.008,0,0,1-2,2h-6.7a2.008,2.008,0,0,1-2-2v-6.7a2.008,2.008,0,0,1,2-2Zm.255,2.258v6.185h6.185V40.531Zm.776,3.744a1.129,1.129,0,1,1,1.6-1.6l.364.364.994-1.229a1.129,1.129,0,1,1,1.756,1.42l-1.783,2.2a1.129,1.129,0,0,1-1.676.088Z" fill-rule="evenodd"/>
        </g>
      </g>
    </g>
  </g>
</svg>
