<svg xmlns="http://www.w3.org/2000/svg" xmlns:xlink="http://www.w3.org/1999/xlink" width="85" height="83.181" viewBox="0 0 85 83.181">
  <defs>
    <clipPath id="clip-path">
      <rect id="Rectangle_410899" data-name="Rectangle 410899" width="70" height="70" transform="translate(409.178 6243.135)" fill="#fff" stroke="#707070" stroke-width="1"/>
    </clipPath>
  </defs>
  <g id="Group_1209266" data-name="Group 1209266" transform="translate(-394.178 -6229.955)">
    <g id="Rectangle_410898" data-name="Rectangle 410898" transform="translate(394.178 6229.955)" fill="#e2dbf9" stroke="#b7a8f1" stroke-width="3">
      <rect width="70" height="70" rx="10" stroke="none"/>
      <rect x="1.5" y="1.5" width="67" height="67" rx="8.5" fill="none"/>
    </g>
    <g id="Mask_Group_1099392" data-name="Mask Group 1099392" clip-path="url(#clip-path)">
      <g id="regulation_12427351" transform="translate(406.844 6240.801)">
        <path id="Path_1280136" data-name="Path 1280136" d="M36.311,66.671a2.966,2.966,0,0,1,1.319,2.465v2.4a.8.8,0,0,1-.8.8H22.155a.8.8,0,0,1-.8-.8v-2.4a2.966,2.966,0,0,1,1.319-2.465H17.182A2.57,2.57,0,0,1,14.616,64.1V60.13H10.641a2.57,2.57,0,0,1-2.566-2.566V10.625a.8.8,0,0,1,.242-.574l7.476-7.476a.8.8,0,0,1,.585-.242H50.542A2.57,2.57,0,0,1,53.108,4.9V8.875h3.975a2.57,2.57,0,0,1,2.566,2.566V58.066L65.3,61.085a2.121,2.121,0,0,1,1.027,2.928l-1.6,2.778a2.138,2.138,0,0,1-3.024.532L59.087,65.7a2.567,2.567,0,0,1-2,.968H36.311Z" fill-rule="evenodd"/>
        <g id="Group_1209265" data-name="Group 1209265">
          <path id="Path_1280137" data-name="Path 1280137" d="M39.153,12.721a12.111,12.111,0,1,0,0,17.127,12.111,12.111,0,0,0,0-17.127Zm-7.762,18.9a.8.8,0,0,1-1.6,0v-.809a.8.8,0,1,1,1.6,0Zm9.532-11.135a.8.8,0,0,1,0,1.6h-.809a.8.8,0,0,1,0-1.6Zm-9.532-1.654a2.583,2.583,0,1,1-1.971,4.759l-2,2a.8.8,0,1,1-1.133-1.133l2-2a2.586,2.586,0,0,1,1.5-3.625V14.3a.8.8,0,0,1,1.6,0v4.532Zm-1.6-7.877a.8.8,0,1,1,1.6,0v.809a.8.8,0,1,1-1.6,0ZM20.257,22.086a.8.8,0,1,1,0-1.6h.809a.8.8,0,0,1,0,1.6Z" fill="#a5eeff" fill-rule="evenodd"/>
          <path id="Path_1280138" data-name="Path 1280138" d="M44.817,50.135,51.5,53.711V4.9a.966.966,0,0,0-.963-.963H17.166V8.861A2.57,2.57,0,0,1,14.6,11.427H9.676V57.564a.966.966,0,0,0,.963.963H31.948l-.359-.207a.8.8,0,0,1-.291-1.093l1.266-2.193A2.652,2.652,0,0,1,35.521,53.8,34.282,34.282,0,0,0,40.5,45.189,2.651,2.651,0,0,1,40.088,42l1.268-2.193a.8.8,0,0,1,1.088-.292L50.033,43.9a.8.8,0,0,1,.291,1.093l-1.266,2.193a2.652,2.652,0,0,1-2.965,1.235q-.664.835-1.276,1.718Zm-18.01-.184a2.48,2.48,0,0,1,2.373,2.472V54.1a.8.8,0,0,1-.8.8h-12.4a.8.8,0,0,1-.8-.8V52.424a2.48,2.48,0,0,1,2.373-2.472V45.981a4.629,4.629,0,1,1,9.259,0Zm1.427-3.169a.8.8,0,1,1,0-1.6h1.972a.8.8,0,1,1,0,1.6Zm-1.207-4.517a.8.8,0,0,1-1.133-1.133l1.394-1.394a.8.8,0,0,1,1.133,1.133Zm-4.048-2.341a.8.8,0,0,1-1.6,0V37.953a.8.8,0,0,1,1.6,0Zm-4.517,1.207a.8.8,0,0,1-1.133,1.133l-1.394-1.394a.8.8,0,1,1,1.133-1.133Zm-2.341,4.048a.8.8,0,1,1,0,1.6H14.15a.8.8,0,1,1,0-1.6ZM30.59,7.571A13.714,13.714,0,1,1,16.876,21.285,13.714,13.714,0,0,1,30.59,7.571Z" fill="#e9e5dc" fill-rule="evenodd"/>
          <path id="Path_1280139" data-name="Path 1280139" d="M19.151,49.95H25.2V45.981a3.026,3.026,0,0,0-6.053,0V49.95Z" fill="#ef6262" fill-rule="evenodd"/>
          <path id="Path_1280140" data-name="Path 1280140" d="M26.706,51.553H17.65a.876.876,0,0,0-.871.871V53.3h10.8v-.872A.876.876,0,0,0,26.706,51.553Z" fill="#585f68" fill-rule="evenodd"/>
          <path id="Path_1280141" data-name="Path 1280141" d="M31.282,20.592a.98.98,0,1,0,0,1.385A.981.981,0,0,0,31.282,20.592Z" fill="#ef6262" fill-rule="evenodd"/>
          <path id="Path_1280142" data-name="Path 1280142" d="M23.182,65.068a2.781,2.781,0,0,1,.658-2.347,2.238,2.238,0,0,1,1.586-.658h8.128A2.248,2.248,0,0,1,35.8,64.307v.76H57.082a.954.954,0,0,0,.62-.225L50.119,60.13H41.581l-1.313,2.278a.8.8,0,0,1-1.093.291l-4.45-2.569H16.217V64.1a.966.966,0,0,0,.963.963h6Z" fill="#204a5d" fill-rule="evenodd"/>
          <path id="Path_1280143" data-name="Path 1280143" d="M34.2,66.17V64.308a.644.644,0,0,0-.641-.641H25.426a.644.644,0,0,0-.641.641V66.17Z" fill="#ca9e73" fill-rule="evenodd"/>
          <path id="Path_1280144" data-name="Path 1280144" d="M34.663,67.773c-1.1,0-10.285-.027-10.557.017a1.367,1.367,0,0,0-1.151,1.346v1.6H36.025v-1.6a1.366,1.366,0,0,0-1.363-1.363Z" fill="#c28278" fill-rule="evenodd"/>
          <path id="Path_1280145" data-name="Path 1280145" d="M53.107,54.568l4.938,2.641V11.441a.966.966,0,0,0-.963-.963H53.107Z" fill="#204a5d" fill-rule="evenodd"/>
          <path id="Path_1280146" data-name="Path 1280146" d="M47.54,58.527,41.979,55.07q-.452.959-.854,1.96a2.654,2.654,0,0,1,.737,1.5Z" fill="#e9e5dc" fill-rule="evenodd"/>
          <path id="Path_1280147" data-name="Path 1280147" d="M40.908,53.621l1.046-1.951a34.632,34.632,0,0,1,2.684-3.986l-2.775-1.6a35.852,35.852,0,0,1-4.881,8.448l2.785,1.608Q40.3,54.845,40.908,53.621Z" fill="#c28278" fill-rule="evenodd"/>
          <path id="Path_1280148" data-name="Path 1280148" d="M42.7,53.632,62.538,65.965c.237.147.671.247.8.027l1.627-2.821c.126-.218-.17-.543-.42-.676L43.936,51.475,42.7,53.632Z" fill="#c28278" fill-rule="evenodd"/>
          <path id="Path_1280149" data-name="Path 1280149" d="M46.215,46.751a1.054,1.054,0,0,0,1.459-.37l.867-1.5-6.2-3.58-.868,1.5a1.055,1.055,0,0,0,.385,1.43l4.358,2.518Z" fill="#ca9e73" fill-rule="evenodd"/>
          <path id="Path_1280150" data-name="Path 1280150" d="M35.428,55.479a1.056,1.056,0,0,0-1.48.356l-.866,1.5,6.2,3.58c.155-.268.918-1.532.966-1.737a1.051,1.051,0,0,0-.484-1.195l-4.337-2.5Z" fill="#ca9e73" fill-rule="evenodd"/>
          <path id="Path_1280151" data-name="Path 1280151" d="M10.809,9.824H14.6a.966.966,0,0,0,.963-.963V5.071L10.809,9.824Z" fill="#374f69" fill-rule="evenodd"/>
        </g>
      </g>
    </g>
  </g>
</svg>
