<svg xmlns="http://www.w3.org/2000/svg" xmlns:xlink="http://www.w3.org/1999/xlink" width="85" height="83.181" viewBox="0 0 85 83.181">
  <defs>
    <clipPath id="clip-path">
      <rect id="Rectangle_410902" data-name="Rectangle 410902" width="70" height="70" transform="translate(1144.177 6243.135)" fill="#fff" stroke="#707070" stroke-width="1"/>
    </clipPath>
  </defs>
  <g id="Group_1209268" data-name="Group 1209268" transform="translate(-1129.177 -6229.955)">
    <g id="Rectangle_410901" data-name="Rectangle 410901" transform="translate(1129.177 6229.955)" fill="#e2dbf9" stroke="#b7a8f1" stroke-width="3">
      <rect width="70" height="70" rx="10" stroke="none"/>
      <rect x="1.5" y="1.5" width="67" height="67" rx="8.5" fill="none"/>
    </g>
    <g id="Mask_Group_1099390" data-name="Mask Group 1099390" clip-path="url(#clip-path)">
      <g id="filled_outline" data-name="filled outline" transform="translate(1141.844 6240.802)">
        <path id="Path_1280094" data-name="Path 1280094" d="M18.667,11.667H56V63H18.667Z" fill="#e6e5e0"/>
        <path id="Path_1280095" data-name="Path 1280095" d="M44.465,36.167c0-.141-.006-.282-.014-.421L46.667,33.6l-2.333-4.041-2.91.832a6.992,6.992,0,0,0-.862-.505L39.8,26.833H35.131l-.764,3.056a6.969,6.969,0,0,0-.716.408l-3.15-.9-2.333,4.041,2.316,2.24c-.011.162-.019.324-.019.489,0,.082,0,.163.006.244l-2.4,2.319,2.333,4.041,3.046-.871a6.986,6.986,0,0,0,.7.432l.792,3.168h4.667l.738-2.954a6.956,6.956,0,0,0,.874-.473l3.019.863L46.571,38.9l-2.139-2.068c.02-.218.032-.438.032-.661Zm-7,2.333A2.333,2.333,0,1,1,39.8,36.167,2.333,2.333,0,0,1,37.465,38.5Z" fill="#529fff"/>
        <path id="Path_1280096" data-name="Path 1280096" d="M18.667,50.167V44.333L9.333,50.167H3.5v21H29.167v-21Z" fill="#ecab2c"/>
        <path id="Path_1280097" data-name="Path 1280097" d="M12.833,71.167V66.5l-1.784-1.784a5.858,5.858,0,0,1,2.722-9.825L14,54.833v5.833l2.333,1.167,2.333-1.167V54.833l.23.057a5.857,5.857,0,0,1,2.722,9.824L19.833,66.5v4.667Z" fill="#e6e5e0"/>
        <g id="Group_1209263" data-name="Group 1209263">
          <path id="Path_1280098" data-name="Path 1280098" d="M56,50.167V44.333l9.333,5.833h5.833v21H45.5v-21Z" fill="#ecab2c"/>
          <path id="Path_1280099" data-name="Path 1280099" d="M56,24.5v5.833L65.333,24.5h5.833V3.5H45.5v21Z" fill="#ecab2c"/>
          <path id="Path_1280100" data-name="Path 1280100" d="M18.667,24.5v5.833L9.333,24.5H3.5V3.5H29.167v21Z" fill="#ecab2c"/>
        </g>
        <path id="Path_1280101" data-name="Path 1280101" d="M53.667,69.109a1.442,1.442,0,0,0,.8,1.29L56,71.167h4.667L62.2,70.4a1.442,1.442,0,0,0-.645-2.732H55.109a1.442,1.442,0,0,0-1.442,1.442Z" fill="#e42a3c"/>
        <path id="Path_1280102" data-name="Path 1280102" d="M56,60.667v7h4.667v-7l1.167-3.5h-7Z" fill="#e6e5e0"/>
        <path id="Path_1280103" data-name="Path 1280103" d="M56,53.667l-1.167,3.5h7l-1.167-3.5Z" fill="#d6d5d0"/>
        <path id="Path_1280104" data-name="Path 1280104" d="M51.333,13.417V14h10.5V9.333H55.417a4.083,4.083,0,0,0-4.083,4.083Z" fill="#0a71cd"/>
        <path id="Path_1280105" data-name="Path 1280105" d="M54.833,31.109V14h5.833V27.417Z" fill="#a8652f"/>
        <path id="Path_1280106" data-name="Path 1280106" d="M54.833,14h5.833v5.833H54.833Z" fill="#e6e5e0"/>
        <path id="Path_1280107" data-name="Path 1280107" d="M61.833,10.5l2.333-1.167H66.5V14H64.167l-2.333-1.167Z" fill="#005dbb"/>
        <path id="Path_1280108" data-name="Path 1280108" d="M64.167,9.333H66.5V14H64.167Z" fill="#529fff"/>
        <path id="Path_1280109" data-name="Path 1280109" d="M37.465,32.667a3.5,3.5,0,1,0,3.5,3.5A3.5,3.5,0,0,0,37.465,32.667Zm0,4.667a1.167,1.167,0,1,1,1.167-1.167,1.167,1.167,0,0,1-1.167,1.167Z"/>
        <path id="Path_1280110" data-name="Path 1280110" d="M45.248,43.52l2.333-4.041a1.167,1.167,0,0,0-.2-1.422l-1.753-1.7q0-.067,0-.134l1.846-1.785a1.167,1.167,0,0,0,.2-1.422l-2.333-4.041a1.167,1.167,0,0,0-1.331-.538l-2.406.688-.038-.022-.639-2.556a1.167,1.167,0,0,0-1.132-.884H35.131A1.167,1.167,0,0,0,34,26.55l-.614,2.458-2.563-.733a1.167,1.167,0,0,0-1.331.538l-2.333,4.041a1.167,1.167,0,0,0,.2,1.422l1.821,1.761-1.917,1.853a1.167,1.167,0,0,0-.2,1.422l2.333,4.041a1.167,1.167,0,0,0,1.331.538l2.435-.7.647,2.587a1.167,1.167,0,0,0,1.132.884h4.667a1.167,1.167,0,0,0,1.132-.884l.608-2.432.033-.018,2.537.726a1.166,1.166,0,0,0,1.331-.538Zm-1.565-1.955-2.143-.613a1.166,1.166,0,0,0-.948.138,5.812,5.812,0,0,1-.727.394,1.167,1.167,0,0,0-.651.78l-.517,2.07H35.852l-.571-2.284a1.167,1.167,0,0,0-.579-.744,5.855,5.855,0,0,1-.581-.36,1.167,1.167,0,0,0-.991-.167l-2.17.62-1.422-2.464,1.744-1.686a1.167,1.167,0,0,0,.355-.879v-.04c0-.054,0-.109,0-.164,0-.119.005-.249.016-.408a1.167,1.167,0,0,0-.353-.919l-1.661-1.607,1.422-2.465,2.275.651a1.167,1.167,0,0,0,.957-.144,5.864,5.864,0,0,1,.6-.341,1.167,1.167,0,0,0,.615-.763L36.042,28h2.845l.543,2.172a1.167,1.167,0,0,0,.615.763,5.822,5.822,0,0,1,.718.421,1.166,1.166,0,0,0,.982.16l2.034-.582L45.2,33.4l-1.56,1.509a1.167,1.167,0,0,0-.354.908c.008.131.012.247.012.352,0,.179-.009.359-.027.552a1.167,1.167,0,0,0,.351.948L45.106,39.1Z"/>
        <path id="Path_1280111" data-name="Path 1280111" d="M71.167,2.333H45.5A1.167,1.167,0,0,0,44.333,3.5v7h-14v-7a1.167,1.167,0,0,0-1.167-1.167H3.5A1.167,1.167,0,0,0,2.333,3.5v21A1.167,1.167,0,0,0,3.5,25.667H9l8.5,5.313V43.687L9,49H3.5a1.167,1.167,0,0,0-1.167,1.167v21A1.167,1.167,0,0,0,3.5,72.333H29.167a1.167,1.167,0,0,0,1.167-1.167v-7h14v7A1.167,1.167,0,0,0,45.5,72.333H71.167a1.167,1.167,0,0,0,1.167-1.167v-21A1.167,1.167,0,0,0,71.167,49h-5.5l-8.5-5.313V30.98l8.5-5.313h5.5A1.167,1.167,0,0,0,72.333,24.5V3.5a1.167,1.167,0,0,0-1.167-1.167ZM9.952,23.511a1.166,1.166,0,0,0-.618-.177H4.667V4.667H28V23.333H18.667A1.167,1.167,0,0,0,17.5,24.5v3.728ZM14,70V66.5a1.167,1.167,0,0,0-.342-.825l-1.784-1.784a4.692,4.692,0,0,1,.959-7.374v4.15a1.167,1.167,0,0,0,.645,1.043l2.333,1.167a1.167,1.167,0,0,0,1.044,0l2.333-1.167a1.167,1.167,0,0,0,.645-1.043v-4.15a4.692,4.692,0,0,1,.959,7.374l-1.784,1.784a1.167,1.167,0,0,0-.342.825V70Zm14,0H21V66.983l1.443-1.442a7.024,7.024,0,0,0-3.263-11.782l-.23-.057a1.167,1.167,0,0,0-1.45,1.132v5.112l-1.167.583-1.167-.583V54.833a1.167,1.167,0,0,0-1.45-1.132l-.23.057a7.025,7.025,0,0,0-3.263,11.782l1.443,1.442V70h-7V51.333H9.333a1.166,1.166,0,0,0,.619-.177L17.5,46.438v3.728a1.167,1.167,0,0,0,1.167,1.167H28Zm2.333-8.167V50.167A1.167,1.167,0,0,0,29.167,49H19.833V25.667h9.333A1.167,1.167,0,0,0,30.333,24.5V12.833h14V24.5A1.167,1.167,0,0,0,45.5,25.667h9.333V49H45.5a1.167,1.167,0,0,0-1.167,1.167V61.833Zm30.333-49H52.558A2.922,2.922,0,0,1,55.417,10.5h5.25ZM59.5,15.167v3.5H56v-3.5ZM56.275,70l-1.29-.645a.275.275,0,0,1,.123-.522h6.449a.275.275,0,0,1,.123.522L60.391,70Zm.831-9.7-.655-1.964h3.762L59.56,60.3a1.167,1.167,0,0,0-.06.369V66.5H57.167V60.667a1.166,1.166,0,0,0-.06-.369ZM56.452,56l.389-1.167h2.985L60.215,56Zm8.881-4.667H70V70H64.012a2.613,2.613,0,0,0-2.178-3.485V60.856l1.107-3.32a1.166,1.166,0,0,0,0-.738l-1.167-3.5a1.167,1.167,0,0,0-1.107-.8H56a1.167,1.167,0,0,0-1.107.8l-1.167,3.5a1.165,1.165,0,0,0,0,.738l1.107,3.321v5.658A2.613,2.613,0,0,0,52.655,70H46.667V51.333H56a1.167,1.167,0,0,0,1.167-1.167V46.438l7.548,4.718a1.166,1.166,0,0,0,.618.177ZM56,23.333V21h3.5v5.77l-2.333,1.458V24.5A1.167,1.167,0,0,0,56,23.333Zm14,0H65.333a1.166,1.166,0,0,0-.619.177l-2.881,1.8V15.167a1.165,1.165,0,0,0,.982-.538l.83.415a1.166,1.166,0,0,0,.522.123H66.5A1.167,1.167,0,0,0,67.667,14V9.333A1.167,1.167,0,0,0,66.5,8.167H64.167a1.166,1.166,0,0,0-.522.123l-.83.415a1.164,1.164,0,0,0-.982-.538H55.417a5.256,5.256,0,0,0-5.25,5.25V14a1.167,1.167,0,0,0,1.167,1.167h2.333v8.167h-7V4.667H70ZM64.442,10.5h.891v2.333h-.891L63,12.112v-.891Z"/>
        <path id="Path_1280112" data-name="Path 1280112" d="M12.367,8.4a1.167,1.167,0,0,0-1.633.233L7.233,13.3a1.167,1.167,0,0,0,0,1.4l3.5,4.667a1.167,1.167,0,0,0,1.867-1.4L9.625,14,12.6,10.033A1.167,1.167,0,0,0,12.367,8.4Z"/>
        <path id="Path_1280113" data-name="Path 1280113" d="M20.3,19.6a1.167,1.167,0,0,0,1.633-.233l3.5-4.667a1.167,1.167,0,0,0,0-1.4l-3.5-4.667a1.167,1.167,0,0,0-1.867,1.4L23.042,14l-2.975,3.967A1.167,1.167,0,0,0,20.3,19.6Z"/>
        <path id="Path_1280114" data-name="Path 1280114" d="M17.783,8.2a1.167,1.167,0,0,0-1.415.849l-2.333,9.333a1.167,1.167,0,1,0,2.264.566l2.333-9.333A1.167,1.167,0,0,0,17.783,8.2Z"/>
        <circle id="Ellipse_12688" data-name="Ellipse 12688" cx="1.167" cy="1.167" r="1.167" transform="translate(36.167 51.333)"/>
        <circle id="Ellipse_12689" data-name="Ellipse 12689" cx="1.167" cy="1.167" r="1.167" transform="translate(31.5 51.333)"/>
        <circle id="Ellipse_12690" data-name="Ellipse 12690" cx="1.167" cy="1.167" r="1.167" transform="translate(40.833 51.333)"/>
      </g>
    </g>
  </g>
</svg>
