<svg xmlns="http://www.w3.org/2000/svg" xmlns:xlink="http://www.w3.org/1999/xlink" width="87.439" height="83.062" viewBox="0 0 87.439 83.062">
  <defs>
    <clipPath id="clip-path">
      <rect id="Rectangle_425946" data-name="Rectangle 425946" width="75.141" height="72.969" transform="translate(927.299 4944.565)" fill="#fff" stroke="#707070" stroke-width="1"/>
    </clipPath>
  </defs>
  <g id="Group_1209393" data-name="Group 1209393" transform="translate(-915 -4934.473)">
    <g id="Rectangle_425945" data-name="Rectangle 425945" transform="translate(915 4934.473)" fill="#e2dbf9" stroke="#b7a8f1" stroke-width="3">
      <rect width="70" height="70" rx="10" stroke="none"/>
      <rect x="1.5" y="1.5" width="67" height="67" rx="8.5" fill="none"/>
    </g>
    <g id="Mask_Group_1099420" data-name="Mask Group 1099420" clip-path="url(#clip-path)">
      <g id="check_13018184" transform="translate(927.208 4943.389)">
        <path id="Path_1280705" data-name="Path 1280705" d="M63.553,61.2V8.238a5.885,5.885,0,1,0-11.769,0V61.2l5.885,11.769Z" fill="#d8d5cb"/>
        <path id="Path_1280706" data-name="Path 1280706" d="M51.784,16.477V61.2l3.531-3.531,2.354,2.354,2.354-2.354L63.553,61.2V16.477Z" fill="#e4a350"/>
        <path id="Path_1280707" data-name="Path 1280707" d="M60.022,57.668V16.477H55.315V57.668l2.354,2.354Z" fill="#f5bb5c"/>
        <path id="Path_1280708" data-name="Path 1280708" d="M61.2,65.907H54.138l3.531,7.061Z" fill="#b4b2a6"/>
        <circle id="Ellipse_12733" data-name="Ellipse 12733" cx="16.477" cy="16.477" r="16.477" transform="translate(11.769 40.015)" fill="#94c249"/>
        <path id="Path_1280709" data-name="Path 1280709" d="M28.246,40.015a16.43,16.43,0,0,0-12.937,6.294c0,.06-.009.118-.009.179A21.623,21.623,0,0,0,39.987,68.043,16.471,16.471,0,0,0,28.246,40.015Z" fill="#b4de60"/>
        <path id="Path_1280710" data-name="Path 1280710" d="M21.915,57.222l1.623,1.623L33.4,48.984a2.5,2.5,0,0,1,3.531,3.531L25.547,63.9a2.841,2.841,0,0,1-4.018,0l-3.145-3.145a2.5,2.5,0,0,1,3.531-3.531Z" fill="#fff"/>
        <circle id="Ellipse_12734" data-name="Ellipse 12734" cx="16.477" cy="16.477" r="16.477" transform="translate(11.769 2.354)" fill="#94c249"/>
        <path id="Path_1280711" data-name="Path 1280711" d="M28.246,2.354A16.43,16.43,0,0,0,15.309,8.648c0,.06-.009.118-.009.179A21.623,21.623,0,0,0,39.987,30.382,16.471,16.471,0,0,0,28.246,2.354Z" fill="#b4de60"/>
        <path id="Path_1280712" data-name="Path 1280712" d="M21.915,19.561l1.623,1.623L33.4,11.323a2.5,2.5,0,0,1,3.531,3.531L25.547,26.237a2.841,2.841,0,0,1-4.018,0l-3.145-3.145a2.5,2.5,0,0,1,3.531-3.531Z" fill="#fff"/>
        <path id="Path_1280713" data-name="Path 1280713" d="M35.165,9.415a3.7,3.7,0,0,0-2.6,1.076L23.538,19.52l-.791-.791a3.673,3.673,0,0,0-5.195,5.195L20.7,27.069a4.018,4.018,0,0,0,5.682,0L37.762,15.686a3.673,3.673,0,0,0-2.6-6.271Zm.933,4.606L24.715,25.4a1.708,1.708,0,0,1-2.354,0L19.217,22.26a1.32,1.32,0,1,1,1.867-1.867l1.623,1.623a1.177,1.177,0,0,0,1.664,0l9.861-9.861A1.32,1.32,0,1,1,36.1,14.022Z"/>
        <path id="Path_1280714" data-name="Path 1280714" d="M28.246,1.177A17.654,17.654,0,1,0,45.9,18.83,17.654,17.654,0,0,0,28.246,1.177Zm0,32.953a15.3,15.3,0,1,1,15.3-15.3A15.3,15.3,0,0,1,28.246,34.13Z"/>
        <path id="Path_1280715" data-name="Path 1280715" d="M35.165,47.076a3.7,3.7,0,0,0-2.6,1.076l-9.029,9.029-.791-.791a3.673,3.673,0,1,0-5.195,5.195L20.7,64.73a4.018,4.018,0,0,0,5.682,0L37.762,53.347a3.673,3.673,0,0,0-2.6-6.271Zm.933,4.606L24.715,63.066a1.708,1.708,0,0,1-2.354,0l-3.145-3.145a1.32,1.32,0,0,1,1.867-1.867l1.623,1.623a1.177,1.177,0,0,0,1.664,0l9.861-9.861A1.32,1.32,0,0,1,36.1,51.683Z"/>
        <path id="Path_1280716" data-name="Path 1280716" d="M28.246,38.838A17.654,17.654,0,1,0,45.9,56.491,17.654,17.654,0,0,0,28.246,38.838Zm0,32.953a15.3,15.3,0,1,1,15.3-15.3A15.3,15.3,0,0,1,28.246,71.791Z"/>
        <path id="Path_1280717" data-name="Path 1280717" d="M57.668,1.177a7.068,7.068,0,0,0-7.061,7.061V61.2a1.177,1.177,0,0,0,.118.526l5.885,11.769a1.177,1.177,0,0,0,2.107,0L64.6,61.725a1.177,1.177,0,0,0,.129-.526V8.238a7.069,7.069,0,0,0-7.061-7.061ZM53.216,61.434l2.1-2.1,1.522,1.522a1.177,1.177,0,0,0,1.664,0l1.522-1.522,2.1,2.1-1.648,3.3H54.865Zm5.629-4.253-1.177,1.177-1.177-1.177V17.654h2.354Zm-4.708,0-1.177,1.177v-40.7h1.177Zm7.061,0V17.654h1.177v40.7ZM57.668,3.531a4.708,4.708,0,0,1,4.708,4.708V15.3H52.961V8.238A4.708,4.708,0,0,1,57.668,3.531Zm0,66.806-1.626-3.253h3.253Z"/>
      </g>
    </g>
  </g>
</svg>
