<svg xmlns="http://www.w3.org/2000/svg" xmlns:xlink="http://www.w3.org/1999/xlink" width="85" height="83.181" viewBox="0 0 85 83.181">
  <defs>
    <clipPath id="clip-path">
      <rect id="Rectangle_425578" data-name="Rectangle 425578" width="70" height="70" transform="translate(352.5 8629.702)" fill="#fff" stroke="#707070" stroke-width="1"/>
    </clipPath>
  </defs>
  <g id="Group_1209288" data-name="Group 1209288" transform="translate(-337.5 -8616.521)">
    <g id="Rectangle_425577" data-name="Rectangle 425577" transform="translate(337.5 8616.521)" fill="#b7a8f1" stroke="#7f74a8" stroke-width="3">
      <rect width="70" height="70" rx="10" stroke="none"/>
      <rect x="1.5" y="1.5" width="67" height="67" rx="8.5" fill="none"/>
    </g>
    <g id="Mask_Group_1099395" data-name="Mask Group 1099395" clip-path="url(#clip-path)">
      <g id="security_3309901" transform="translate(350.167 8627.369)">
        <path id="Path_1280192" data-name="Path 1280192" d="M19.833,61.833V46.667A4.667,4.667,0,0,0,15.167,42h-7A4.667,4.667,0,0,0,3.5,46.667V61.833Z" fill="#ef5e3b"/>
        <rect id="Rectangle_425939" data-name="Rectangle 425939" width="46.667" height="47.833" rx="2.333" transform="translate(24.5 3.5)" fill="#4f5dff"/>
        <path id="Path_1280193" data-name="Path 1280193" d="M36.167,25.667H59.5V44.333H36.167Z" fill="#ffc431"/>
        <circle id="Ellipse_12692" data-name="Ellipse 12692" cx="2.333" cy="2.333" r="2.333" transform="translate(45.5 32.667)" fill="#ffa100"/>
        <path id="Path_1280194" data-name="Path 1280194" d="M56,25.667V17.5a8.167,8.167,0,0,0-16.333,0v8.167h4.667V17.5a3.5,3.5,0,0,1,7,0v8.167Z" fill="#d1e4ff"/>
        <path id="Path_1280195" data-name="Path 1280195" d="M12.833,43.167a3.5,3.5,0,0,1-3.5-3.5V38.5l2.333-2.333h4.667v3.5A3.5,3.5,0,0,1,12.833,43.167Z" fill="#ffceb6"/>
        <path id="Path_1280196" data-name="Path 1280196" d="M16.333,36.167l.967-1.935A1.888,1.888,0,0,0,15.612,31.5H12.833a3.5,3.5,0,0,0-3.5,3.5v3.5l2.333-2.333Z" fill="#c47220"/>
        <path id="Path_1280197" data-name="Path 1280197" d="M9.917,53.083,14,49l2.333,2.333h10.5l2.77-1.846a1.071,1.071,0,0,1,1.552,1.37L30.333,52.5l2.823,1.882a1.52,1.52,0,0,1-.843,2.785H15.933a4.667,4.667,0,0,1-3.3-1.367Z" fill="#ffceb6"/>
        <path id="Path_1280198" data-name="Path 1280198" d="M3.5,61.833H19.833v10.5H3.5Z" fill="#8098ab"/>
        <path id="Path_1280199" data-name="Path 1280199" d="M68.833,2.333h-42a3.5,3.5,0,0,0-3.5,3.5v42h2.333v-42a1.168,1.168,0,0,1,1.167-1.167h42A1.168,1.168,0,0,1,70,5.833V49a1.168,1.168,0,0,1-1.167,1.167H35V52.5H68.833a3.5,3.5,0,0,0,3.5-3.5V5.833a3.5,3.5,0,0,0-3.5-3.5Z"/>
        <circle id="Ellipse_12693" data-name="Ellipse 12693" cx="1.167" cy="1.167" r="1.167" transform="translate(26.833 5.833)"/>
        <circle id="Ellipse_12694" data-name="Ellipse 12694" cx="1.167" cy="1.167" r="1.167" transform="translate(30.333 5.833)"/>
        <circle id="Ellipse_12695" data-name="Ellipse 12695" cx="1.167" cy="1.167" r="1.167" transform="translate(33.833 5.833)"/>
        <path id="Path_1280200" data-name="Path 1280200" d="M47.833,38.5a3.506,3.506,0,0,0,3.3-2.333h2.534V33.833H51.133a3.5,3.5,0,0,0-6.6,0H42v2.333h2.534a3.506,3.506,0,0,0,3.3,2.333Zm0-4.667A1.167,1.167,0,1,1,46.667,35,1.167,1.167,0,0,1,47.833,33.833Z"/>
        <path id="Path_1280201" data-name="Path 1280201" d="M47.833,8.167A9.344,9.344,0,0,0,38.5,17.5v7H36.167A1.167,1.167,0,0,0,35,25.667V44.333A1.167,1.167,0,0,0,36.167,45.5H59.5a1.167,1.167,0,0,0,1.167-1.167V25.667A1.167,1.167,0,0,0,59.5,24.5H57.167v-7A9.344,9.344,0,0,0,47.833,8.167Zm0,2.333a7.008,7.008,0,0,1,7,7v7H52.5v-7a4.667,4.667,0,0,0-9.333,0v2.333H40.833V17.5a7.008,7.008,0,0,1,7-7Zm2.333,14H45.5v-7a2.333,2.333,0,1,1,4.667,0Zm-9.333-2.333h2.333V24.5H40.833Zm17.5,21h-21V26.833h21Z"/>
        <path id="Path_1280202" data-name="Path 1280202" d="M33.8,53.411,31.838,52.1l.361-.722a2.238,2.238,0,0,0-3.243-2.862l-2.476,1.65H21v-3.5a5.842,5.842,0,0,0-3.765-5.453,4.643,4.643,0,0,0,.265-1.547V36.442l.844-1.688a3.054,3.054,0,0,0-2.732-4.421H12.833A4.672,4.672,0,0,0,8.167,35v4.667a4.658,4.658,0,0,0,.148,1.167H8.167a5.84,5.84,0,0,0-5.833,5.833V72.333H4.667V63h14v9.333H21v-14H32.313A2.687,2.687,0,0,0,33.8,53.411ZM12.833,42A2.336,2.336,0,0,1,10.5,39.667v-.684l1.65-1.65h3.017v2.333A2.336,2.336,0,0,1,12.833,42Zm0-9.333h2.779a.721.721,0,0,1,.645,1.043L15.612,35H11.667a1.167,1.167,0,0,0-.825.342l-.342.342V35a2.336,2.336,0,0,1,2.333-2.333Zm5.833,28h-14v-14a3.5,3.5,0,0,1,3.5-3.5H9.752a4.654,4.654,0,0,0,6.088.065,3.506,3.506,0,0,1,2.827,3.435v3.5h-1.85l-4.325-4.325-1.65,1.65L12.35,49,9.917,51.433,7.825,49.342l-1.65,1.65,5.633,5.633a5.794,5.794,0,0,0,4.125,1.709h2.734ZM32.313,56H15.933a3.477,3.477,0,0,1-2.475-1.025l-1.891-1.891L14,50.65l1.508,1.508a1.167,1.167,0,0,0,.825.342h10.5a1.167,1.167,0,0,0,.647-.2l2.47-1.646-.66,1.321a1.167,1.167,0,0,0,.4,1.492l2.823,1.882a.353.353,0,0,1-.2.647Z"/>
        <path id="Path_1280203" data-name="Path 1280203" d="M10.5,66.5h2.333v5.833H10.5Z"/>
      </g>
    </g>
  </g>
</svg>
