<svg xmlns="http://www.w3.org/2000/svg" xmlns:xlink="http://www.w3.org/1999/xlink" width="85" height="83.181" viewBox="0 0 85 83.181">
  <defs>
    <clipPath id="clip-path">
      <rect id="Rectangle_425580" data-name="Rectangle 425580" width="70" height="70" transform="translate(782.276 8629.702)" fill="#fff" stroke="#707070" stroke-width="1"/>
    </clipPath>
  </defs>
  <g id="Group_1209289" data-name="Group 1209289" transform="translate(-767.275 -8616.521)">
    <g id="Rectangle_425579" data-name="Rectangle 425579" transform="translate(767.276 8616.521)" fill="#b7a8f1" stroke="#7f74a8" stroke-width="3">
      <rect width="70" height="70" rx="10" stroke="none"/>
      <rect x="1.5" y="1.5" width="67" height="67" rx="8.5" fill="none"/>
    </g>
    <g id="Mask_Group_1099394" data-name="Mask Group 1099394" clip-path="url(#clip-path)">
      <g id="folder_3207609" transform="translate(782.276 8629.702)">
        <g id="Group_1209286" data-name="Group 1209286">
          <path id="Path_1280176" data-name="Path 1280176" d="M50.581,11.273H27.412a.583.583,0,0,1-.574-.59V8.323a2.912,2.912,0,0,0-2.873-2.95H3.9a2.912,2.912,0,0,0-2.873,2.95V51.39A2.912,2.912,0,0,0,3.9,54.34H50.581a2.912,2.912,0,0,0,2.873-2.95V14.223a2.912,2.912,0,0,0-2.873-2.95Z" fill="#bf7d51"/>
          <path id="Path_1280177" data-name="Path 1280177" d="M53.454,19.061V51.39a2.912,2.912,0,0,1-2.872,2.95H3.9a2.815,2.815,0,0,1-1.723-.589,3.087,3.087,0,0,0,.308-.275,2.985,2.985,0,0,0,.842-2.086V24.371a5.249,5.249,0,0,1,5.171-5.31Z" fill="#b36d3c"/>
          <path id="Path_1280178" data-name="Path 1280178" d="M59.2,25.55V51.39a2.912,2.912,0,0,1-2.873,2.95H3.9a2.829,2.829,0,0,0,2.031-.864,2.983,2.983,0,0,0,.841-2.086V25.55A2.912,2.912,0,0,1,9.643,22.6H56.327A2.912,2.912,0,0,1,59.2,25.55Z" fill="#c7865b"/>
          <path id="Path_1280179" data-name="Path 1280179" d="M33.547,28.743,36.2,34.284a.621.621,0,0,0,.466.349l5.952.893a.641.641,0,0,1,.343,1.086L38.655,40.92a.647.647,0,0,0-.179.563l1.012,6.089a.624.624,0,0,1-.9.67l-5.322-2.879a.606.606,0,0,0-.577,0l-5.327,2.87a.624.624,0,0,1-.9-.672l1.022-6.087a.647.647,0,0,0-.178-.564L23,36.6a.641.641,0,0,1,.344-1.086l5.954-.883a.622.622,0,0,0,.467-.348l2.667-5.537a.613.613,0,0,1,1.112,0Z" fill="#f5de46"/>
          <path id="Path_1280180" data-name="Path 1280180" d="M29.491,40.322a.823.823,0,0,1,.178.65L28.717,47.5l-1.355.729a.624.624,0,0,1-.9-.671l1.023-6.087a.649.649,0,0,0-.178-.564L23,36.6a.641.641,0,0,1,.345-1.086l1.768-.262a.727.727,0,0,0,.071.1Z" fill="#f3d332"/>
          <path id="Path_1280181" data-name="Path 1280181" d="M62.48,38.733a7.244,7.244,0,0,0-7.187-7.246,7.365,7.365,0,0,0-7.306,7.374V41.5a.136.136,0,0,1-.108.132,5.168,5.168,0,0,0-4.062,5.041v7.671h14a2.95,2.95,0,0,0,2.95-2.95V44.918l1.709-1.084ZM52.09,41.51v-2.7a3.2,3.2,0,0,1,3.022-3.22,3.148,3.148,0,0,1,3.267,3.142V41.1a.41.41,0,0,1-.41.41Z" fill="#bf7d51" fill-rule="evenodd"/>
          <path id="Path_1280182" data-name="Path 1280182" d="M64.8,38.733v5.1L62.649,45.2,60.7,43.834v-5.1a3.145,3.145,0,0,0-6.289,0v5.1L52.27,45.2l-1.958-1.367v-5.1a7.246,7.246,0,1,1,14.492,0Z" fill="#d2e4e7"/>
          <path id="Path_1280183" data-name="Path 1280183" d="M52.226,38.733v5.1l1.045.729-1,.638-1.958-1.367v-5.1a7.246,7.246,0,0,1,7.246-7.246,7.37,7.37,0,0,1,.957.063A7.247,7.247,0,0,0,52.226,38.733Z" fill="#b4d2d7"/>
          <path id="Path_1280184" data-name="Path 1280184" d="M63.655,44.563l-1.006.638L60.7,43.834v-5.1a3.148,3.148,0,0,0-2.187-2.994,3.082,3.082,0,0,1,.957-.15,3.148,3.148,0,0,1,3.145,3.145v5.1Z" fill="#b4d2d7"/>
          <path id="Path_1280185" data-name="Path 1280185" d="M68.974,46.669V62.011a2.836,2.836,0,0,1-2.836,2.836H48.978a2.836,2.836,0,0,1-2.836-2.836V46.669a2.836,2.836,0,0,1,2.836-2.836H66.139A2.836,2.836,0,0,1,68.974,46.669Z" fill="#e1ebf0" fill-rule="evenodd"/>
          <path id="Path_1280186" data-name="Path 1280186" d="M51.029,64.846H48.978a2.836,2.836,0,0,1-2.836-2.836V46.67a2.836,2.836,0,0,1,2.836-2.836h2.051a2.836,2.836,0,0,0-2.836,2.836V62.011A2.836,2.836,0,0,0,51.029,64.846Z" fill="#d2e4e7"/>
          <path id="Path_1280187" data-name="Path 1280187" d="M60.156,52.952a2.6,2.6,0,1,0-3.623,2.387v2.9a1.025,1.025,0,0,0,2.051,0v-2.9A2.6,2.6,0,0,0,60.156,52.952Z" fill="#b4d2d7"/>
        </g>
        <g id="Group_1209287" data-name="Group 1209287">
          <path id="Path_1280188" data-name="Path 1280188" d="M10.829,6.179H24.038A1.927,1.927,0,0,1,25.963,8.1v2.36a1.617,1.617,0,0,0,1.615,1.615H50.827A1.927,1.927,0,0,1,52.752,14v1.164a1.025,1.025,0,0,0,2.051,0V14a3.98,3.98,0,0,0-3.976-3.976H28.013V8.1a3.98,3.98,0,0,0-3.976-3.976H10.829a1.025,1.025,0,1,0,0,2.051Z"/>
          <path id="Path_1280189" data-name="Path 1280189" d="M44.69,35.547a1.652,1.652,0,0,0-1.341-1.132l-5.911-.864L34.8,28.192a1.672,1.672,0,0,0-2.981,0L29.17,33.544l-5.912.854a1.672,1.672,0,0,0-.923,2.834l4.274,4.173-1.015,5.887A1.672,1.672,0,0,0,28,49.047l5.29-2.776,5.285,2.784a1.672,1.672,0,0,0,2.413-1.75l-1.005-5.888,4.281-4.166a1.652,1.652,0,0,0,.422-1.7ZM38.41,40.09a1.662,1.662,0,0,0-.479,1.471l.907,5.314-4.769-2.512a1.662,1.662,0,0,0-1.547,0l-4.773,2.5.916-5.312a1.662,1.662,0,0,0-.477-1.472L24.33,36.315l5.335-.771a1.661,1.661,0,0,0,1.252-.908l2.39-4.832,2.382,4.836a1.662,1.662,0,0,0,1.251.91l5.334.78Z"/>
          <path id="Path_1280190" data-name="Path 1280190" d="M68.974,54.182A1.025,1.025,0,0,0,70,53.157V46.67a3.865,3.865,0,0,0-3.861-3.861H65.83V38.733A8.283,8.283,0,0,0,60.7,31.084v-5.75a3.98,3.98,0,0,0-3.976-3.976H54.8V19.3a1.025,1.025,0,1,0-2.051,0v2.059H9.876A3.98,3.98,0,0,0,5.9,25.334V45.078a1.025,1.025,0,1,0,2.051,0V25.334a1.927,1.927,0,0,1,1.925-1.925H56.727a1.927,1.927,0,0,1,1.925,1.925v5.2a8.258,8.258,0,0,0-9.365,8.2v4.076h-.309a3.865,3.865,0,0,0-3.861,3.861V53.1H7.453a3.951,3.951,0,0,0,.5-1.925V49.111a1.025,1.025,0,1,0-2.051,0v2.068a1.925,1.925,0,1,1-3.85,0V8.1A1.927,1.927,0,0,1,3.976,6.179H6.7a1.025,1.025,0,0,0,0-2.051H3.976A3.98,3.98,0,0,0,0,8.1V51.179a3.98,3.98,0,0,0,3.976,3.976H45.117v6.856a3.865,3.865,0,0,0,3.861,3.861H66.139A3.865,3.865,0,0,0,70,62.011V57.942a1.025,1.025,0,0,0-2.051,0v4.069a1.812,1.812,0,0,1-1.81,1.81H48.978a1.812,1.812,0,0,1-1.81-1.81V46.67a1.812,1.812,0,0,1,1.81-1.81H66.139a1.812,1.812,0,0,1,1.81,1.81v6.487A1.025,1.025,0,0,0,68.974,54.182ZM51.338,38.733a6.221,6.221,0,1,1,12.441,0v4.076H61.728V38.733a4.17,4.17,0,1,0-8.34,0v4.076H51.338Zm8.34,4.076H55.439V38.733a2.119,2.119,0,1,1,4.238,0Z"/>
          <path id="Path_1280191" data-name="Path 1280191" d="M57.627,59.262a1.025,1.025,0,0,0,1.025-1.025V56.426a3.623,3.623,0,1,0-2.051,0v1.811A1.025,1.025,0,0,0,57.627,59.262Zm-1.572-6.31a1.572,1.572,0,1,1,1.572,1.572A1.574,1.574,0,0,1,56.055,52.952Z"/>
        </g>
      </g>
    </g>
  </g>
</svg>
